<svg xmlns="http://www.w3.org/2000/svg" width="770" height="500" viewBox="0 0 770 500"><title>architecture-diagram</title><rect x="30.29" y="49" width="225" height="141" rx="5.22" stroke-width="2" stroke="#fff" stroke-linecap="round" stroke-linejoin="round" fill="none"/><rect x="40.29" y="59" width="205" height="121" stroke-width="2" stroke="#fff" stroke-linecap="round" stroke-linejoin="round" fill="none"/><polyline points="186.29 250.5 240.29 250.5 267.29 293.5 18.29 293.5 45.29 250.5 99.76 250.5" fill="none" stroke="#fff" stroke-linecap="round" stroke-linejoin="round" stroke-width="2"/><polygon points="164.29 59 80.29 180 109.84 180 192.29 59 164.29 59" fill="#fff" opacity="0.3"/><polygon points="201.29 59 117.29 180 126.84 180 209.29 59 201.29 59" fill="#fff" opacity="0.3"/><polyline points="267.29 293.5 267.29 301.5 18.29 301.5 18.29 293.5" fill="none" stroke="#fff" stroke-linecap="round" stroke-linejoin="round" stroke-width="2"/><path d="M110.74,22.42,107.66,33H106l-2.5-8.51h0L101,33H99.29L96.22,22.42h1.71l2.26,8.44h0l2.38-8.44h1.73l2.41,8.44h0l2.33-8.44Z" fill="#fff"/><path d="M118.22,29.75h-5.55a2.55,2.55,0,0,0,.69,1.65A2.27,2.27,0,0,0,115,32a3.69,3.69,0,0,0,1.2-.18,5.43,5.43,0,0,0,1.08-.54l.69,1a4.84,4.84,0,0,1-1.4.74,5.39,5.39,0,0,1-1.67.24,4,4,0,0,1-2.07-.51,3.36,3.36,0,0,1-1.31-1.43,4.85,4.85,0,0,1-.45-2.14,4.34,4.34,0,0,1,1-2.94,3.41,3.41,0,0,1,2.72-1.11,3.18,3.18,0,0,1,2.61,1.09,4.44,4.44,0,0,1,.9,2.91A4.23,4.23,0,0,1,118.22,29.75Zm-1.5-1.21a2.57,2.57,0,0,0-.53-1.61,1.74,1.74,0,0,0-1.45-.63,1.86,1.86,0,0,0-1.49.64,2.73,2.73,0,0,0-.59,1.6Z" fill="#fff"/><path d="M127.69,29.17a5,5,0,0,1-.43,2.08A3.51,3.51,0,0,1,126,32.71a3.79,3.79,0,0,1-4.39-.35l-.12.68h-1.3V22.42h1.57v3.81h0a2.93,2.93,0,0,1,2.49-1.11,3.15,3.15,0,0,1,1.87.54,3.23,3.23,0,0,1,1.14,1.45A5.4,5.4,0,0,1,127.69,29.17Zm-1.62,0a3.49,3.49,0,0,0-.55-2.07,1.8,1.8,0,0,0-1.52-.74,2.26,2.26,0,0,0-1.16.31,2.17,2.17,0,0,0-.79.83,2.4,2.4,0,0,0-.29,1.16v2.52a3.42,3.42,0,0,0,1,.61,2.83,2.83,0,0,0,1.07.2,2,2,0,0,0,1.69-.77A3.29,3.29,0,0,0,126.07,29.17Z" fill="#fff"/><path d="M140.77,25a2.41,2.41,0,0,1-.52,1.56,2.55,2.55,0,0,1-1.36.83v0a2.66,2.66,0,0,1,1.7.81,2.53,2.53,0,0,1,.63,1.8,2.56,2.56,0,0,1-1,2.25,4.43,4.43,0,0,1-2.64.72h-3.95V22.42h3.87a4.17,4.17,0,0,1,2.39.62A2.26,2.26,0,0,1,140.77,25Zm-5.55-1.36v3.25h1.95a2.19,2.19,0,0,0,1.44-.43,1.51,1.51,0,0,0,.52-1.26,1.39,1.39,0,0,0-.51-1.2,2.59,2.59,0,0,0-1.5-.36Zm0,4.44v3.64h2a2.82,2.82,0,0,0,1.67-.44,1.61,1.61,0,0,0,.63-1.42c0-1.19-.74-1.78-2.22-1.78Z" fill="#fff"/><path d="M143.05,27.07a14.78,14.78,0,0,0-.11-1.74h1.5a8.36,8.36,0,0,1,.12,1.06h0a2.38,2.38,0,0,1,.89-.94,2.91,2.91,0,0,1,1.47-.33,3.39,3.39,0,0,1,.45,0l-.08,1.37a2.62,2.62,0,0,0-.52-.05,2,2,0,0,0-1.61.69,2.69,2.69,0,0,0-.57,1.77V33h-1.57Z" fill="#fff"/><path d="M155.87,29.15a4.7,4.7,0,0,1-.47,2.13A3.43,3.43,0,0,1,154,32.73a4.09,4.09,0,0,1-2.12.52,4,4,0,0,1-2.1-.53,3.52,3.52,0,0,1-1.36-1.45,5,5,0,0,1,0-4.24,3.4,3.4,0,0,1,1.35-1.41,4.25,4.25,0,0,1,2.11-.5,4.37,4.37,0,0,1,2.14.5A3.42,3.42,0,0,1,155.41,27,4.6,4.6,0,0,1,155.87,29.15Zm-6.25,0a3.43,3.43,0,0,0,.56,2.07,2,2,0,0,0,1.73.77,2.07,2.07,0,0,0,1.77-.77,3.43,3.43,0,0,0,.57-2.07,3.28,3.28,0,0,0-.57-2,2.09,2.09,0,0,0-1.77-.76,2,2,0,0,0-1.74.76A3.35,3.35,0,0,0,149.62,29.15Z" fill="#fff"/><path d="M168.29,25.33,166.13,33h-1.74l-1.86-6h0l-1.84,6h-1.73l-2.16-7.71h1.65l1.44,6h0l1.83-6h1.65l1.85,6h0l1.45-6Z" fill="#fff"/><path d="M174.59,25.94l-.67,1a3.46,3.46,0,0,0-1.88-.59,1.88,1.88,0,0,0-1,.24.76.76,0,0,0-.37.68,1,1,0,0,0,.15.57,1.23,1.23,0,0,0,.53.36,8.14,8.14,0,0,0,1.1.33,3.73,3.73,0,0,1,1.73.84,1.93,1.93,0,0,1,.57,1.45,2.16,2.16,0,0,1-.42,1.34,2.52,2.52,0,0,1-1.13.83,4.66,4.66,0,0,1-4.33-.61l.72-1a4,4,0,0,0,1,.49,3.23,3.23,0,0,0,1.06.16,1.84,1.84,0,0,0,1.1-.29,1,1,0,0,0,.4-.84.93.93,0,0,0-.15-.56,1.23,1.23,0,0,0-.51-.35,7.91,7.91,0,0,0-1.09-.33,3.83,3.83,0,0,1-1.72-.83,2.13,2.13,0,0,1,.25-3.09,3.43,3.43,0,0,1,2.13-.61A4.09,4.09,0,0,1,174.59,25.94Z" fill="#fff"/><path d="M183.1,29.75h-5.55a2.55,2.55,0,0,0,.69,1.65,2.27,2.27,0,0,0,1.65.59,3.63,3.63,0,0,0,1.19-.18,5.49,5.49,0,0,0,1.09-.54l.69,1a4.77,4.77,0,0,1-1.41.74,5.39,5.39,0,0,1-1.67.24,4,4,0,0,1-2.06-.51,3.3,3.3,0,0,1-1.31-1.43,4.85,4.85,0,0,1-.45-2.14,4.34,4.34,0,0,1,1-2.94,3.39,3.39,0,0,1,2.71-1.11,3.18,3.18,0,0,1,2.61,1.09,4.44,4.44,0,0,1,.9,2.91A4.26,4.26,0,0,1,183.1,29.75Zm-1.5-1.21a2.57,2.57,0,0,0-.54-1.61,1.72,1.72,0,0,0-1.44-.63,1.88,1.88,0,0,0-1.5.64,2.73,2.73,0,0,0-.59,1.6Z" fill="#fff"/><path d="M185.05,27.07a14.78,14.78,0,0,0-.11-1.74h1.5a8.36,8.36,0,0,1,.12,1.06h0a2.38,2.38,0,0,1,.89-.94,2.91,2.91,0,0,1,1.47-.33,3.39,3.39,0,0,1,.45,0l-.08,1.37a2.62,2.62,0,0,0-.52-.05,2,2,0,0,0-1.61.69,2.69,2.69,0,0,0-.57,1.77V33h-1.57Z" fill="#fff"/><rect x="99.76" y="204" width="86.53" height="54.23" rx="2.01" stroke-width="2" stroke="#fff" stroke-linecap="round" stroke-linejoin="round" fill="none"/><path d="M194.29,276v4.21a2,2,0,0,1-2,2h-98a2,2,0,0,1-2-2V276" fill="none" stroke="#fff" stroke-linecap="round" stroke-linejoin="round" stroke-width="2"/><rect x="105.25" y="209" width="75.19" height="44.38" stroke-width="2" stroke="#fff" stroke-linecap="round" stroke-linejoin="round" fill="none"/><polygon points="150.73 209 119.92 253.38 130.76 253.38 161 209 150.73 209" fill="#fff" opacity="0.3"/><polygon points="165.8 209 134.99 253.38 139.5 253.38 169.74 209 165.8 209" fill="#fff" opacity="0.3"/><polyline points="185.96 259 194.29 276 92.29 276 100.61 259" fill="none" stroke="#fff" stroke-linecap="round" stroke-linejoin="round" stroke-width="2"/><line x1="105.25" y1="263.28" x2="180.44" y2="263.28" fill="none" stroke="#fff" stroke-linecap="round" stroke-linejoin="round" stroke-width="2"/><polygon points="154.49 267.14 131.08 267.14 129.59 272.15 155.97 272.15 154.49 267.14" fill="none" stroke="#fff" stroke-linecap="round" stroke-linejoin="round" stroke-width="2"/><path d="M369.08,30.16l-.93,1.05a4.27,4.27,0,0,0-2.67-1,3.33,3.33,0,0,0-2.76,1.14,4.75,4.75,0,0,0-.9,3,4.7,4.7,0,0,0,.9,3,3.29,3.29,0,0,0,2.73,1.14,3.77,3.77,0,0,0,1.53-.31,4.3,4.3,0,0,0,1.27-.81l1,1.08a5,5,0,0,1-1.68,1.09,5.67,5.67,0,0,1-2.17.41,5.53,5.53,0,0,1-2.87-.71,4.58,4.58,0,0,1-1.8-2,7.29,7.29,0,0,1,0-5.84,4.56,4.56,0,0,1,1.82-2,5.59,5.59,0,0,1,2.88-.7,5.68,5.68,0,0,1,2,.35A4.54,4.54,0,0,1,369.08,30.16Z" fill="#fff"/><path d="M370.16,37.6a2.17,2.17,0,0,1,1.08-2.09,6.71,6.71,0,0,1,3.18-.59h.76v-.4q0-1.47-1.74-1.47a4.48,4.48,0,0,0-2.28.61l-.54-1.05A5.43,5.43,0,0,1,372,32a5.76,5.76,0,0,1,1.53-.21,3.33,3.33,0,0,1,2.46.77,3.18,3.18,0,0,1,.78,2.36v3a15.85,15.85,0,0,0,.12,1.74h-1.46a5.68,5.68,0,0,1-.1-.92h-.05a2.93,2.93,0,0,1-1,.85,3.84,3.84,0,0,1-1.57.28,2.65,2.65,0,0,1-1.8-.61A2.22,2.22,0,0,1,370.16,37.6Zm5-.78V36l-.61,0a4.89,4.89,0,0,0-2.15.34,1.19,1.19,0,0,0-.64,1.16,1.15,1.15,0,0,0,.34.89,1.36,1.36,0,0,0,.95.31,2.14,2.14,0,0,0,1.12-.28,2,2,0,0,0,.74-.71A1.75,1.75,0,0,0,375.18,36.82Z" fill="#fff"/><path d="M379.13,33.78A14.78,14.78,0,0,0,379,32h1.5a6.87,6.87,0,0,1,.12.88h0a3.09,3.09,0,0,1,1-.79,3.25,3.25,0,0,1,1.44-.3,3.05,3.05,0,0,1,1.56.36,2.31,2.31,0,0,1,.94,1h0a3,3,0,0,1,2.63-1.33,2.86,2.86,0,0,1,1.6.41,2.44,2.44,0,0,1,.95,1.09,3.51,3.51,0,0,1,.31,1.48v4.94h-1.57V35a2.3,2.3,0,0,0-.39-1.38,1.45,1.45,0,0,0-1.26-.54,1.73,1.73,0,0,0-1.47.71,2.82,2.82,0,0,0-.53,1.72v4.2h-1.57V35a2.08,2.08,0,0,0-.41-1.3,1.44,1.44,0,0,0-1.24-.53,1.79,1.79,0,0,0-1.47.65,2.51,2.51,0,0,0-.53,1.63v4.35h-1.57Z" fill="#fff"/><path d="M401,35.88a5,5,0,0,1-.42,2.07,3.41,3.41,0,0,1-1.23,1.47,3.34,3.34,0,0,1-1.9.54,3.66,3.66,0,0,1-2.39-.83v4.28H393.5V33.78a14.78,14.78,0,0,0-.11-1.74h1.5c.06.4.1.72.12,1h0a3,3,0,0,1,2.6-1.18,3.1,3.1,0,0,1,1.86.54,3.23,3.23,0,0,1,1.14,1.45A5.4,5.4,0,0,1,401,35.88Zm-1.63,0a3.49,3.49,0,0,0-.55-2.07,1.8,1.8,0,0,0-1.52-.74,2.17,2.17,0,0,0-1.16.31,2.1,2.1,0,0,0-.79.83,2.4,2.4,0,0,0-.29,1.16v2.52a3.61,3.61,0,0,0,1,.61,2.74,2.74,0,0,0,1.06.2,2,2,0,0,0,1.7-.77A3.35,3.35,0,0,0,399.38,35.88Z" fill="#fff"/><path d="M409.61,39.75H408V33.24h-3.28v6.51h-1.58V33.24h-1.3v-1l1.3-.18v-.51A2.42,2.42,0,0,1,404,29.6a3.48,3.48,0,0,1,2.36-.68,5.73,5.73,0,0,1,1.65.22,7.81,7.81,0,0,1,1.51.63l-.55,1.1a5.35,5.35,0,0,0-2.58-.71,1.79,1.79,0,0,0-1.23.35,1.47,1.47,0,0,0-.36,1.08V32h4.86Z" fill="#fff"/><path d="M412.07,33.78A14.78,14.78,0,0,0,412,32h1.5a8.36,8.36,0,0,1,.12,1.06h0a2.38,2.38,0,0,1,.89-.94,2.91,2.91,0,0,1,1.47-.33,3.39,3.39,0,0,1,.45,0l-.08,1.37a2.62,2.62,0,0,0-.52-.05,2,2,0,0,0-1.61.69,2.69,2.69,0,0,0-.57,1.77v4.1h-1.57Z" fill="#fff"/><path d="M424.14,36.46h-5.55a2.51,2.51,0,0,0,.69,1.64,2.23,2.23,0,0,0,1.65.6,3.59,3.59,0,0,0,1.19-.18,5.24,5.24,0,0,0,1.09-.54l.69,1a4.84,4.84,0,0,1-1.4.74,5.43,5.43,0,0,1-1.67.24,4,4,0,0,1-2.07-.51A3.33,3.33,0,0,1,417.45,38a4.77,4.77,0,0,1-.45-2.13,4.34,4.34,0,0,1,1-2.94,3.41,3.41,0,0,1,2.72-1.11,3.18,3.18,0,0,1,2.61,1.09,4.44,4.44,0,0,1,.9,2.91A4.23,4.23,0,0,1,424.14,36.46Zm-1.5-1.21a2.68,2.68,0,0,0-.53-1.62,1.78,1.78,0,0,0-1.45-.62,1.81,1.81,0,0,0-1.49.64,2.64,2.64,0,0,0-.59,1.6Z" fill="#fff"/><path d="M443.51,29.13l-3.08,10.62h-1.68l-2.5-8.51h-.05l-2.46,8.51h-1.68L429,29.13h1.71L433,37.57H433l2.38-8.44h1.73l2.41,8.44h0l2.33-8.44Z" fill="#fff"/><path d="M451,36.46h-5.55a2.51,2.51,0,0,0,.69,1.64,2.23,2.23,0,0,0,1.65.6,3.59,3.59,0,0,0,1.19-.18,5.24,5.24,0,0,0,1.09-.54l.69,1a4.84,4.84,0,0,1-1.4.74,5.43,5.43,0,0,1-1.67.24,4,4,0,0,1-2.07-.51A3.33,3.33,0,0,1,444.3,38a4.77,4.77,0,0,1-.45-2.13,4.34,4.34,0,0,1,1-2.94,3.41,3.41,0,0,1,2.72-1.11,3.18,3.18,0,0,1,2.61,1.09,4.44,4.44,0,0,1,.9,2.91A4.23,4.23,0,0,1,451,36.46Zm-1.5-1.21a2.68,2.68,0,0,0-.53-1.62,1.78,1.78,0,0,0-1.45-.62,1.81,1.81,0,0,0-1.49.64,2.64,2.64,0,0,0-.59,1.6Z" fill="#fff"/><path d="M460.46,35.88A4.91,4.91,0,0,1,460,38a3.48,3.48,0,0,1-1.26,1.47,3.79,3.79,0,0,1-4.39-.35l-.12.68H453V29.13h1.57v3.81h.05a2.93,2.93,0,0,1,2.49-1.11,3.15,3.15,0,0,1,1.87.54,3.23,3.23,0,0,1,1.14,1.45A5.4,5.4,0,0,1,460.46,35.88Zm-1.62,0a3.49,3.49,0,0,0-.55-2.07,1.8,1.8,0,0,0-1.52-.74,2.17,2.17,0,0,0-1.16.31,2.1,2.1,0,0,0-.79.83,2.4,2.4,0,0,0-.29,1.16v2.52a3.42,3.42,0,0,0,1,.61,2.83,2.83,0,0,0,1.07.2,2,2,0,0,0,1.69-.77A3.29,3.29,0,0,0,458.84,35.88Z" fill="#fff"/><path d="M473.31,39.75l-.87-2.43h-4.68l-.91,2.43h-1.73l4.14-10.62H471l4.14,10.62Zm-3.21-9L468.21,36H472Z" fill="#fff"/><path d="M483.84,35.88a5,5,0,0,1-.42,2.07,3.41,3.41,0,0,1-1.23,1.47,3.34,3.34,0,0,1-1.9.54,3.66,3.66,0,0,1-2.39-.83v4.28h-1.57V33.78a14.78,14.78,0,0,0-.11-1.74h1.5c.06.4.1.72.12,1h0a3,3,0,0,1,2.6-1.18,3.1,3.1,0,0,1,1.86.54,3.23,3.23,0,0,1,1.14,1.45A5.4,5.4,0,0,1,483.84,35.88Zm-1.63,0a3.49,3.49,0,0,0-.55-2.07,1.8,1.8,0,0,0-1.52-.74,2.17,2.17,0,0,0-1.16.31,2.1,2.1,0,0,0-.79.83,2.4,2.4,0,0,0-.29,1.16v2.52a3.61,3.61,0,0,0,1,.61,2.74,2.74,0,0,0,1.06.2,2,2,0,0,0,1.7-.77A3.35,3.35,0,0,0,482.21,35.88Z" fill="#fff"/><path d="M493.28,35.88a5,5,0,0,1-.42,2.07,3.41,3.41,0,0,1-1.23,1.47,3.37,3.37,0,0,1-1.91.54,3.63,3.63,0,0,1-2.38-.83v4.28h-1.58V33.78a14.74,14.74,0,0,0-.1-1.74h1.5c.06.4.1.72.12,1h0a3,3,0,0,1,2.59-1.18,3.15,3.15,0,0,1,1.87.54,3.28,3.28,0,0,1,1.13,1.45A5.4,5.4,0,0,1,493.28,35.88Zm-1.64,0a3.42,3.42,0,0,0-.55-2.07,1.78,1.78,0,0,0-1.52-.74,2.19,2.19,0,0,0-1.95,1.14,2.4,2.4,0,0,0-.28,1.16v2.52a3.73,3.73,0,0,0,1,.61,2.78,2.78,0,0,0,1.06.2,2,2,0,0,0,1.7-.77A3.28,3.28,0,0,0,491.64,35.88Z" fill="#fff"/><path d="M576.14,29.13V39.75h-1.66V35h-5.32v4.8h-1.64V29.13h1.64v4.5h5.32v-4.5Z" fill="#fff"/><path d="M585.25,36.46H579.7a2.51,2.51,0,0,0,.69,1.64,2.23,2.23,0,0,0,1.65.6,3.59,3.59,0,0,0,1.19-.18,5.24,5.24,0,0,0,1.09-.54l.69,1a4.84,4.84,0,0,1-1.4.74,5.5,5.5,0,0,1-1.68.24,4,4,0,0,1-2.06-.51A3.33,3.33,0,0,1,578.56,38a4.77,4.77,0,0,1-.45-2.13,4.34,4.34,0,0,1,1-2.94,3.39,3.39,0,0,1,2.71-1.11,3.18,3.18,0,0,1,2.61,1.09,4.44,4.44,0,0,1,.9,2.91A4.26,4.26,0,0,1,585.25,36.46Zm-1.5-1.21a2.68,2.68,0,0,0-.53-1.62,1.78,1.78,0,0,0-1.45-.62,1.81,1.81,0,0,0-1.49.64,2.65,2.65,0,0,0-.6,1.6Z" fill="#fff"/><path d="M587.2,33.78a14.78,14.78,0,0,0-.11-1.74h1.5a8.36,8.36,0,0,1,.12,1.06h0a2.33,2.33,0,0,1,.9-.94,2.84,2.84,0,0,1,1.46-.33,3.39,3.39,0,0,1,.45,0l-.08,1.37a2.62,2.62,0,0,0-.52-.05,2,2,0,0,0-1.61.69,2.69,2.69,0,0,0-.57,1.77v4.1H587.2Z" fill="#fff"/><path d="M600,35.86a4.57,4.57,0,0,1-.47,2.13,3.46,3.46,0,0,1-1.36,1.45,4.25,4.25,0,0,1-2.13.52,4,4,0,0,1-2.1-.53A3.44,3.44,0,0,1,592.61,38a4.51,4.51,0,0,1-.48-2.12,4.57,4.57,0,0,1,.47-2.12A3.28,3.28,0,0,1,594,32.33a4.15,4.15,0,0,1,2.11-.5,4.23,4.23,0,0,1,2.14.5,3.25,3.25,0,0,1,1.36,1.41A4.57,4.57,0,0,1,600,35.86Zm-6.25,0a3.45,3.45,0,0,0,.56,2.06,2,2,0,0,0,1.73.78,2,2,0,0,0,1.77-.78,3.38,3.38,0,0,0,.57-2.06,3.28,3.28,0,0,0-.57-2,2.06,2.06,0,0,0-1.77-.76,2,2,0,0,0-1.74.76A3.35,3.35,0,0,0,593.77,35.86Z" fill="#fff"/><path d="M607.06,39.75l-2.82-3.53-.71.66v2.87H602V29.13h1.57v6l3.3-3.07h1.89l-3.39,3.16L609,39.75Z" fill="#fff"/><path d="M609.77,36.76V32h1.59v4.5a2.68,2.68,0,0,0,.42,1.59,1.48,1.48,0,0,0,1.31.58,1.88,1.88,0,0,0,1.54-.72,2.82,2.82,0,0,0,.57-1.81V32h1.58v6a15.85,15.85,0,0,0,.12,1.74h-1.5a7,7,0,0,1-.12-1h0A2.9,2.9,0,0,1,612.7,40a2.68,2.68,0,0,1-2.18-.89A3.45,3.45,0,0,1,609.77,36.76Z" fill="#fff"/><path d="M630.83,32.62a3.43,3.43,0,0,1-.54,2,3.25,3.25,0,0,1-1.42,1.2,4.69,4.69,0,0,1-1.91.39h-2.1v3.57h-1.63V29.13H627a4.31,4.31,0,0,1,2.8.86A3.15,3.15,0,0,1,630.83,32.62Zm-6-2.17v4.39h1.95a2.55,2.55,0,0,0,1.67-.55,2,2,0,0,0,.67-1.65,2,2,0,0,0-.66-1.68,2.72,2.72,0,0,0-1.69-.51Z" fill="#fff"/><path d="M639.4,35.86a4.7,4.7,0,0,1-.47,2.13,3.48,3.48,0,0,1-1.37,1.45,4.19,4.19,0,0,1-2.12.52,4,4,0,0,1-2.1-.53A3.52,3.52,0,0,1,632,38a4.63,4.63,0,0,1-.47-2.12,4.57,4.57,0,0,1,.46-2.12,3.28,3.28,0,0,1,1.35-1.41,4.18,4.18,0,0,1,2.12-.5,4.26,4.26,0,0,1,2.14.5,3.28,3.28,0,0,1,1.35,1.41A4.57,4.57,0,0,1,639.4,35.86Zm-6.26,0a3.38,3.38,0,0,0,.57,2.06,2,2,0,0,0,1.73.78,2,2,0,0,0,1.77-.78,3.38,3.38,0,0,0,.57-2.06,3.28,3.28,0,0,0-.57-2,2.06,2.06,0,0,0-1.77-.76,2,2,0,0,0-1.74.76A3.35,3.35,0,0,0,633.14,35.86Z" fill="#fff"/><path d="M646.21,32.65l-.68,1a3.43,3.43,0,0,0-1.87-.59,1.88,1.88,0,0,0-1,.24.77.77,0,0,0-.38.68,1,1,0,0,0,.16.57,1.23,1.23,0,0,0,.53.36,8.14,8.14,0,0,0,1.1.33,3.69,3.69,0,0,1,1.72.84,1.93,1.93,0,0,1,.57,1.45,2.16,2.16,0,0,1-.42,1.34,2.56,2.56,0,0,1-1.12.83,4.25,4.25,0,0,1-1.53.28,4.3,4.3,0,0,1-2.81-.89l.72-1a4,4,0,0,0,1,.49,3.59,3.59,0,0,0,1.07.16,1.84,1.84,0,0,0,1.1-.29,1,1,0,0,0,.4-.84.91.91,0,0,0-.15-.56,1.14,1.14,0,0,0-.51-.35,8.14,8.14,0,0,0-1.1-.33,3.79,3.79,0,0,1-1.71-.83,1.93,1.93,0,0,1-.55-1.48,2,2,0,0,1,.8-1.62,3.46,3.46,0,0,1,2.12-.6A4.12,4.12,0,0,1,646.21,32.65Z" fill="#fff"/><path d="M650,32h2v1.2h-2v4.27c0,.78.35,1.17,1.06,1.17a2.46,2.46,0,0,0,.72-.1l.23,1.17a3.6,3.6,0,0,1-1.25.21,2.38,2.38,0,0,1-1.71-.6,2.25,2.25,0,0,1-.63-1.71V33.24h-1.32v-1L648.4,32V30.22l1.59-.57Z" fill="#fff"/><path d="M652.72,41.25a2,2,0,0,1,.34-1.14,3.11,3.11,0,0,1,1.11-.93,1.57,1.57,0,0,1-.5-.45,1,1,0,0,1-.17-.59,1.1,1.1,0,0,1,.28-.74,1.58,1.58,0,0,1,.8-.49,2.35,2.35,0,0,1-1.4-2.31,2.52,2.52,0,0,1,.87-2,3.59,3.59,0,0,1,2.42-.74,3.85,3.85,0,0,1,.73.05,5.21,5.21,0,0,1,.66.16h2.75v1.24L659,33.06a1.71,1.71,0,0,1,.5.69,2.48,2.48,0,0,1,.19,1,2.27,2.27,0,0,1-.85,1.89,3.67,3.67,0,0,1-2.38.69,2.86,2.86,0,0,0-1.13.17c-.26.11-.4.27-.4.47a.49.49,0,0,0,.35.44,3.2,3.2,0,0,0,1.12.16,7,7,0,0,1,3.06.6,1.77,1.77,0,0,1,1,1.64,2.3,2.3,0,0,1-1.09,2,5.5,5.5,0,0,1-3.08.73A4.64,4.64,0,0,1,653.6,43,2,2,0,0,1,652.72,41.25Zm6.15-.27c0-.41-.27-.71-.8-.9a9.55,9.55,0,0,0-2.79-.3,2.11,2.11,0,0,0-.78.6,1.27,1.27,0,0,0-.25.78q0,1.26,2,1.26a4.1,4.1,0,0,0,1.93-.37A1.17,1.17,0,0,0,658.87,41Zm-.65-6.35a1.62,1.62,0,0,0-.44-1.21,2.21,2.21,0,0,0-2.65,0,1.45,1.45,0,0,0-.49,1.15,1.65,1.65,0,0,0,.43,1.22,1.84,1.84,0,0,0,1.35.43Q658.22,36.22,658.22,34.63Z" fill="#fff"/><path d="M662.17,33.78a14.78,14.78,0,0,0-.11-1.74h1.5a8.36,8.36,0,0,1,.12,1.06h0a2.33,2.33,0,0,1,.9-.94,2.84,2.84,0,0,1,1.46-.33,3.39,3.39,0,0,1,.45,0l-.08,1.37a2.62,2.62,0,0,0-.52-.05,2,2,0,0,0-1.61.69,2.69,2.69,0,0,0-.57,1.77v4.1h-1.57Z" fill="#fff"/><path d="M674.24,36.46h-5.55a2.51,2.51,0,0,0,.69,1.64,2.23,2.23,0,0,0,1.65.6,3.69,3.69,0,0,0,1.2-.18,5.43,5.43,0,0,0,1.08-.54l.69,1a4.72,4.72,0,0,1-1.4.74,5.39,5.39,0,0,1-1.67.24,4,4,0,0,1-2.06-.51A3.29,3.29,0,0,1,667.55,38a4.77,4.77,0,0,1-.45-2.13,4.34,4.34,0,0,1,1-2.94,3.41,3.41,0,0,1,2.72-1.11,3.18,3.18,0,0,1,2.61,1.09,4.44,4.44,0,0,1,.9,2.91A4.23,4.23,0,0,1,674.24,36.46Zm-1.5-1.21a2.62,2.62,0,0,0-.53-1.62,1.76,1.76,0,0,0-1.45-.62,1.83,1.83,0,0,0-1.49.64,2.71,2.71,0,0,0-.59,1.6Z" fill="#fff"/><path d="M681.08,32.65l-.67,1a3.46,3.46,0,0,0-1.88-.59,1.88,1.88,0,0,0-1,.24.76.76,0,0,0-.37.68.9.9,0,0,0,.16.57,1.19,1.19,0,0,0,.52.36,8.63,8.63,0,0,0,1.1.33,3.73,3.73,0,0,1,1.73.84,1.93,1.93,0,0,1,.57,1.45,2.16,2.16,0,0,1-.42,1.34,2.59,2.59,0,0,1-1.13.83,4.66,4.66,0,0,1-4.33-.61l.72-1a4,4,0,0,0,1,.49,3.52,3.52,0,0,0,1.06.16,1.9,1.9,0,0,0,1.11-.29,1,1,0,0,0,.39-.84.91.91,0,0,0-.15-.56,1.14,1.14,0,0,0-.51-.35,7.91,7.91,0,0,0-1.09-.33,3.89,3.89,0,0,1-1.72-.83,2,2,0,0,1-.55-1.48,1.94,1.94,0,0,1,.81-1.62,3.44,3.44,0,0,1,2.12-.6A4.09,4.09,0,0,1,681.08,32.65Z" fill="#fff"/><path d="M381,455.82l.81-1a4.64,4.64,0,0,0,1.3.68,4.91,4.91,0,0,0,1.49.22,2.69,2.69,0,0,0,1.63-.45,1.55,1.55,0,0,0,.6-1.32,1.61,1.61,0,0,0-.29-1,1.94,1.94,0,0,0-.82-.62,9.14,9.14,0,0,0-1.42-.46,5.13,5.13,0,0,1-2.21-1.09,2.47,2.47,0,0,1-.75-1.91,2.6,2.6,0,0,1,.49-1.57,3,3,0,0,1,1.32-1,4.69,4.69,0,0,1,1.85-.34,5.52,5.52,0,0,1,3.33,1l-.73,1.08a5.64,5.64,0,0,0-1.25-.59,4.54,4.54,0,0,0-1.35-.19,2.61,2.61,0,0,0-1.47.37,1.25,1.25,0,0,0-.55,1.11,1.26,1.26,0,0,0,.54,1.11,5.77,5.77,0,0,0,1.77.69,5.84,5.84,0,0,1,2.4,1.16,2.74,2.74,0,0,1,.82,2.16,2.92,2.92,0,0,1-.52,1.77,3.16,3.16,0,0,1-1.42,1.08,5.26,5.26,0,0,1-2,.36,5.65,5.65,0,0,1-1.94-.33A5.08,5.08,0,0,1,381,455.82Z" fill="#fff"/><path d="M396.92,453.51h-5.55a2.51,2.51,0,0,0,.69,1.64,2.23,2.23,0,0,0,1.65.6,3.69,3.69,0,0,0,1.2-.18A5.43,5.43,0,0,0,396,455l.69,1a4.72,4.72,0,0,1-1.4.74,5.39,5.39,0,0,1-1.67.24,4,4,0,0,1-2.06-.51,3.29,3.29,0,0,1-1.32-1.44,4.77,4.77,0,0,1-.45-2.13,4.34,4.34,0,0,1,1-2.94,3.41,3.41,0,0,1,2.72-1.11,3.18,3.18,0,0,1,2.61,1.09,4.44,4.44,0,0,1,.9,2.91A4.23,4.23,0,0,1,396.92,453.51Zm-1.5-1.21a2.62,2.62,0,0,0-.53-1.62,1.76,1.76,0,0,0-1.45-.62,1.83,1.83,0,0,0-1.49.64,2.71,2.71,0,0,0-.59,1.6Z" fill="#fff"/><path d="M398.89,446.18h1.57V456.8h-1.57Z" fill="#fff"/><path d="M409.67,456.8H408.1v-6.51h-3.29v6.51h-1.57v-6.51h-1.31v-1l1.31-.18v-.51a2.42,2.42,0,0,1,.78-1.93,3.45,3.45,0,0,1,2.35-.68,5.8,5.8,0,0,1,1.66.22,7.81,7.81,0,0,1,1.51.63l-.56,1.1a5.35,5.35,0,0,0-2.58-.71,1.76,1.76,0,0,0-1.22.35,1.47,1.47,0,0,0-.37,1.08v.45h4.86Z" fill="#fff"/><path d="M418.76,453.51h-5.55a2.51,2.51,0,0,0,.69,1.64,2.23,2.23,0,0,0,1.65.6,3.69,3.69,0,0,0,1.2-.18,5.43,5.43,0,0,0,1.08-.54l.69,1a4.72,4.72,0,0,1-1.4.74,5.39,5.39,0,0,1-1.67.24,4,4,0,0,1-2.06-.51,3.29,3.29,0,0,1-1.32-1.44,4.77,4.77,0,0,1-.45-2.13,4.34,4.34,0,0,1,1-2.94,3.41,3.41,0,0,1,2.72-1.11,3.18,3.18,0,0,1,2.61,1.09,4.44,4.44,0,0,1,.9,2.91A4.23,4.23,0,0,1,418.76,453.51Zm-1.5-1.21a2.62,2.62,0,0,0-.53-1.62,1.76,1.76,0,0,0-1.45-.62,1.83,1.83,0,0,0-1.49.64,2.71,2.71,0,0,0-.59,1.6Z" fill="#fff"/><path d="M436.13,446.18V456.8h-1.62l.05-8.72h0L431,456.8h-1.23l-3.51-8.72h0l.05,8.72h-1.53V446.18h2.4l3.25,8.43h0l3.29-8.43Z" fill="#fff"/><path d="M446,452.91a4.7,4.7,0,0,1-.47,2.13,3.48,3.48,0,0,1-1.37,1.45A4.19,4.19,0,0,1,442,457a4,4,0,0,1-2.1-.53,3.52,3.52,0,0,1-1.36-1.45,4.63,4.63,0,0,1-.47-2.12,4.57,4.57,0,0,1,.46-2.12,3.28,3.28,0,0,1,1.35-1.41,4.18,4.18,0,0,1,2.12-.5,4.26,4.26,0,0,1,2.14.5,3.28,3.28,0,0,1,1.35,1.41A4.57,4.57,0,0,1,446,452.91Zm-6.26,0a3.38,3.38,0,0,0,.57,2.06,2,2,0,0,0,1.73.78,2,2,0,0,0,1.77-.78,3.38,3.38,0,0,0,.57-2.06,3.28,3.28,0,0,0-.57-2,2.06,2.06,0,0,0-1.77-.76,2,2,0,0,0-1.74.76A3.35,3.35,0,0,0,439.73,452.91Z" fill="#fff"/><path d="M455.42,452.93A4.91,4.91,0,0,1,455,455a3.48,3.48,0,0,1-1.26,1.47,3.64,3.64,0,0,1-2,.54,3.55,3.55,0,0,1-2.38-.89l-.12.68h-1.31V446.18h1.58V450h0a2.93,2.93,0,0,1,2.49-1.11,3.18,3.18,0,0,1,1.88.54,3.23,3.23,0,0,1,1.14,1.45A5.4,5.4,0,0,1,455.42,452.93Zm-1.62,0a3.49,3.49,0,0,0-.54-2.07,1.82,1.82,0,0,0-1.53-.74,2.19,2.19,0,0,0-2,1.14,2.4,2.4,0,0,0-.28,1.16v2.52a3.42,3.42,0,0,0,1,.61,2.78,2.78,0,0,0,1.06.2,2,2,0,0,0,1.7-.77A3.28,3.28,0,0,0,453.8,452.93Z" fill="#fff"/><path d="M457.16,446.55c0-.63.33-.94,1-.94a1,1,0,0,1,.75.26,1.11,1.11,0,0,1,0,1.35,1,1,0,0,1-.75.26.87.87,0,0,1-1-.93Zm1.77,2.54v7.71h-1.57v-7.71Z" fill="#fff"/><path d="M461.41,446.18H463V456.8h-1.57Z" fill="#fff"/><path d="M472.07,453.51h-5.55a2.51,2.51,0,0,0,.69,1.64,2.23,2.23,0,0,0,1.65.6,3.69,3.69,0,0,0,1.2-.18,5.43,5.43,0,0,0,1.08-.54l.69,1a4.72,4.72,0,0,1-1.4.74,5.39,5.39,0,0,1-1.67.24,4,4,0,0,1-2.06-.51,3.29,3.29,0,0,1-1.32-1.44,4.77,4.77,0,0,1-.45-2.13,4.34,4.34,0,0,1,1-2.94,3.41,3.41,0,0,1,2.72-1.11,3.18,3.18,0,0,1,2.61,1.09,4.44,4.44,0,0,1,.9,2.91A4.23,4.23,0,0,1,472.07,453.51Zm-1.5-1.21a2.62,2.62,0,0,0-.53-1.62,1.76,1.76,0,0,0-1.45-.62,1.83,1.83,0,0,0-1.49.64,2.71,2.71,0,0,0-.59,1.6Z" fill="#fff"/><path d="M408.8,464.18l-3.07,10.62h-1.68l-2.51-8.51h0L399,474.8h-1.68l-3.08-10.62H396l2.27,8.44h0l2.39-8.44h1.72l2.42,8.44h0l2.32-8.44Z" fill="#fff"/><path d="M416.29,471.51h-5.55a2.51,2.51,0,0,0,.69,1.64,2.23,2.23,0,0,0,1.65.6,3.59,3.59,0,0,0,1.19-.18,5.24,5.24,0,0,0,1.09-.54l.69,1a4.84,4.84,0,0,1-1.4.74A5.5,5.5,0,0,1,413,475a4,4,0,0,1-2.06-.51,3.33,3.33,0,0,1-1.31-1.44,4.77,4.77,0,0,1-.45-2.13,4.34,4.34,0,0,1,1-2.94,3.4,3.4,0,0,1,2.71-1.11,3.18,3.18,0,0,1,2.61,1.09,4.44,4.44,0,0,1,.9,2.91A4.26,4.26,0,0,1,416.29,471.51Zm-1.5-1.21a2.68,2.68,0,0,0-.53-1.62,1.78,1.78,0,0,0-1.45-.62,1.81,1.81,0,0,0-1.49.64,2.65,2.65,0,0,0-.6,1.6Z" fill="#fff"/><path d="M425.75,470.93a4.91,4.91,0,0,1-.42,2.07,3.48,3.48,0,0,1-1.26,1.47,3.64,3.64,0,0,1-2,.54,3.55,3.55,0,0,1-2.38-.89l-.12.68h-1.31V464.18h1.58V468h0a2.93,2.93,0,0,1,2.49-1.11,3.18,3.18,0,0,1,1.88.54,3.23,3.23,0,0,1,1.14,1.45A5.4,5.4,0,0,1,425.75,470.93Zm-1.62,0a3.49,3.49,0,0,0-.54-2.07,1.82,1.82,0,0,0-1.53-.74,2.19,2.19,0,0,0-1.95,1.14,2.4,2.4,0,0,0-.28,1.16v2.52a3.42,3.42,0,0,0,1,.61,2.78,2.78,0,0,0,1.06.2,2,2,0,0,0,1.7-.77A3.28,3.28,0,0,0,424.13,470.93Z" fill="#fff"/><path d="M438.61,474.8l-.87-2.43h-4.68l-.92,2.43h-1.72l4.14-10.62h1.69l4.14,10.62Zm-3.21-9-1.89,5.32h3.78Z" fill="#fff"/><path d="M449.14,470.93a5,5,0,0,1-.42,2.07,3.41,3.41,0,0,1-1.23,1.47,3.37,3.37,0,0,1-1.91.54,3.63,3.63,0,0,1-2.38-.83v4.28h-1.58v-9.63a14.74,14.74,0,0,0-.1-1.74H443c.06.4.1.72.12,1h0a3,3,0,0,1,2.59-1.18,3.13,3.13,0,0,1,1.87.54,3.21,3.21,0,0,1,1.13,1.45A5.4,5.4,0,0,1,449.14,470.93Zm-1.64,0a3.49,3.49,0,0,0-.54-2.07,1.82,1.82,0,0,0-1.53-.74,2.19,2.19,0,0,0-1.95,1.14,2.4,2.4,0,0,0-.28,1.16v2.52a3.61,3.61,0,0,0,1,.61,2.69,2.69,0,0,0,1.05.2,2,2,0,0,0,1.71-.77A3.35,3.35,0,0,0,447.5,470.93Z" fill="#fff"/><path d="M458.57,470.93a5,5,0,0,1-.42,2.07,3.41,3.41,0,0,1-1.23,1.47,3.34,3.34,0,0,1-1.9.54,3.66,3.66,0,0,1-2.39-.83v4.28h-1.57v-9.63a14.78,14.78,0,0,0-.11-1.74h1.5c.06.4.1.72.12,1h0a3,3,0,0,1,2.6-1.18,3.15,3.15,0,0,1,1.87.54,3.28,3.28,0,0,1,1.13,1.45A5.4,5.4,0,0,1,458.57,470.93Zm-1.63,0a3.42,3.42,0,0,0-.55-2.07,1.78,1.78,0,0,0-1.52-.74,2.17,2.17,0,0,0-1.16.31,2.1,2.1,0,0,0-.79.83,2.4,2.4,0,0,0-.29,1.16v2.52a3.77,3.77,0,0,0,1,.61,2.78,2.78,0,0,0,1.06.2,2,2,0,0,0,1.7-.77A3.28,3.28,0,0,0,456.94,470.93Z" fill="#fff"/><path d="M129.65,438.35l-3.78,6.09V449h-1.63v-4.56l-3.72-6.06h1.89l2.71,4.74h0l2.69-4.74Z" fill="#fff"/><path d="M136.84,445.08a4.58,4.58,0,0,1-.48,2.13,3.4,3.4,0,0,1-1.36,1.45,4.11,4.11,0,0,1-2.12.52,4,4,0,0,1-2.1-.53,3.49,3.49,0,0,1-1.36-1.44,5.09,5.09,0,0,1,0-4.25,3.4,3.4,0,0,1,1.35-1.41,4.77,4.77,0,0,1,4.25,0,3.36,3.36,0,0,1,1.36,1.41A4.6,4.6,0,0,1,136.84,445.08Zm-6.26,0a3.5,3.5,0,0,0,.56,2.07,2,2,0,0,0,1.74.77,2.07,2.07,0,0,0,1.77-.77,3.43,3.43,0,0,0,.57-2.07,3.3,3.3,0,0,0-.57-2,2.09,2.09,0,0,0-1.77-.76,2,2,0,0,0-1.74.76A3.37,3.37,0,0,0,130.58,445.08Z" fill="#fff"/><path d="M138.68,446v-4.72h1.59v4.5a2.75,2.75,0,0,0,.41,1.59,1.51,1.51,0,0,0,1.32.58,1.85,1.85,0,0,0,1.53-.72,2.77,2.77,0,0,0,.58-1.81v-4.14h1.58v6a15.85,15.85,0,0,0,.12,1.74h-1.5a7,7,0,0,1-.12-1h0a2.9,2.9,0,0,1-2.55,1.19,2.71,2.71,0,0,1-2.19-.89A3.5,3.5,0,0,1,138.68,446Z" fill="#fff"/><path d="M159.46,445.08a4.58,4.58,0,0,1-.48,2.13,3.4,3.4,0,0,1-1.36,1.45,4.11,4.11,0,0,1-2.12.52,4,4,0,0,1-2.1-.53,3.49,3.49,0,0,1-1.36-1.44,5.09,5.09,0,0,1,0-4.25,3.4,3.4,0,0,1,1.35-1.41,4.77,4.77,0,0,1,4.25,0A3.36,3.36,0,0,1,159,443,4.6,4.6,0,0,1,159.46,445.08Zm-6.26,0a3.5,3.5,0,0,0,.56,2.07,2,2,0,0,0,1.74.77,2.07,2.07,0,0,0,1.77-.77,3.43,3.43,0,0,0,.57-2.07,3.3,3.3,0,0,0-.57-2,2.09,2.09,0,0,0-1.77-.76,2,2,0,0,0-1.74.76A3.37,3.37,0,0,0,153.2,445.08Z" fill="#fff"/><path d="M161.38,443a14.78,14.78,0,0,0-.11-1.74h1.5a8.36,8.36,0,0,1,.12,1.06h0a2.38,2.38,0,0,1,.89-.94,2.91,2.91,0,0,1,1.47-.33,3.39,3.39,0,0,1,.45,0l-.08,1.37a2.62,2.62,0,0,0-.52,0,2,2,0,0,0-1.61.69,2.69,2.69,0,0,0-.57,1.77V449h-1.57Z" fill="#fff"/><path d="M96.37,456.35l-3.78,6.09V467H91v-4.56l-3.72-6.06h1.89l2.72,4.74h0l2.68-4.74Z" fill="#fff"/><path d="M103.55,463.08a4.7,4.7,0,0,1-.47,2.13,3.43,3.43,0,0,1-1.37,1.45,4.09,4.09,0,0,1-2.12.52,4,4,0,0,1-2.1-.53,3.56,3.56,0,0,1-1.36-1.44,4.7,4.7,0,0,1-.47-2.13,4.6,4.6,0,0,1,.47-2.12,3.4,3.4,0,0,1,1.35-1.41,4.25,4.25,0,0,1,2.11-.5,4.37,4.37,0,0,1,2.14.5,3.42,3.42,0,0,1,1.36,1.41A4.6,4.6,0,0,1,103.55,463.08Zm-6.25,0a3.43,3.43,0,0,0,.56,2.07,2,2,0,0,0,1.73.77,2.07,2.07,0,0,0,1.77-.77,3.43,3.43,0,0,0,.57-2.07,3.3,3.3,0,0,0-.57-2,2.09,2.09,0,0,0-1.77-.76,2,2,0,0,0-1.74.76A3.37,3.37,0,0,0,97.3,463.08Z" fill="#fff"/><path d="M105.4,464v-4.72H107v4.5a2.68,2.68,0,0,0,.41,1.59,1.48,1.48,0,0,0,1.31.58,1.88,1.88,0,0,0,1.54-.72,2.82,2.82,0,0,0,.58-1.81v-4.14h1.57v6a15.85,15.85,0,0,0,.12,1.74H111a7,7,0,0,1-.12-1h0a2.9,2.9,0,0,1-2.55,1.19,2.68,2.68,0,0,1-2.18-.89A3.45,3.45,0,0,1,105.4,464Z" fill="#fff"/><path d="M114.85,461a14.78,14.78,0,0,0-.11-1.74h1.5a8.36,8.36,0,0,1,.12,1.06h0a2.38,2.38,0,0,1,.89-.94,2.91,2.91,0,0,1,1.47-.33,3.39,3.39,0,0,1,.45,0l-.08,1.37a2.62,2.62,0,0,0-.52,0,2,2,0,0,0-1.61.69,2.69,2.69,0,0,0-.57,1.77V467h-1.57Z" fill="#fff"/><path d="M132.92,457.38l-.93,1.05a4.27,4.27,0,0,0-2.67-1,3.29,3.29,0,0,0-2.75,1.14,4.7,4.7,0,0,0-.91,3,4.65,4.65,0,0,0,.91,3,3.26,3.26,0,0,0,2.72,1.14,3.94,3.94,0,0,0,1.53-.3,4.59,4.59,0,0,0,1.28-.82l1,1.08a5,5,0,0,1-1.68,1.09,5.72,5.72,0,0,1-2.18.41,5.49,5.49,0,0,1-2.86-.71,4.52,4.52,0,0,1-1.8-2,7.19,7.19,0,0,1,0-5.84,4.54,4.54,0,0,1,1.81-2,5.59,5.59,0,0,1,2.88-.7,6,6,0,0,1,2.05.35A4.73,4.73,0,0,1,132.92,457.38Z" fill="#fff"/><path d="M134.3,464v-4.72h1.59v4.5a2.75,2.75,0,0,0,.41,1.59,1.51,1.51,0,0,0,1.32.58,1.85,1.85,0,0,0,1.53-.72,2.77,2.77,0,0,0,.58-1.81v-4.14h1.58v6a15.85,15.85,0,0,0,.12,1.74h-1.5a7,7,0,0,1-.12-1h0a2.9,2.9,0,0,1-2.55,1.19,2.71,2.71,0,0,1-2.19-.89A3.5,3.5,0,0,1,134.3,464Z" fill="#fff"/><path d="M148.42,459.87l-.68,1a3.43,3.43,0,0,0-1.87-.59,1.88,1.88,0,0,0-1,.24.77.77,0,0,0-.38.68.9.9,0,0,0,.16.57,1.19,1.19,0,0,0,.52.36,8.88,8.88,0,0,0,1.11.33,3.69,3.69,0,0,1,1.72.84,1.93,1.93,0,0,1,.57,1.45,2.16,2.16,0,0,1-.42,1.34,2.49,2.49,0,0,1-1.12.83,4,4,0,0,1-1.53.28,4.3,4.3,0,0,1-2.81-.89l.72-1a3.64,3.64,0,0,0,1,.49,3.29,3.29,0,0,0,1.07.16,1.87,1.87,0,0,0,1.1-.29,1,1,0,0,0,.4-.84.93.93,0,0,0-.15-.56,1.23,1.23,0,0,0-.51-.35,8.14,8.14,0,0,0-1.1-.33,3.89,3.89,0,0,1-1.72-.83,2,2,0,0,1-.54-1.48,1.9,1.9,0,0,1,.8-1.61,3.38,3.38,0,0,1,2.12-.61A4.12,4.12,0,0,1,148.42,459.87Z" fill="#fff"/><path d="M152.2,459.26h2v1.2h-2v4.27c0,.78.35,1.17,1.06,1.17a2.46,2.46,0,0,0,.72-.1l.23,1.17a3.6,3.6,0,0,1-1.25.21,2.38,2.38,0,0,1-1.71-.6,2.25,2.25,0,0,1-.63-1.71v-4.41H149.3v-1l1.31-.18v-1.82l1.59-.57Z" fill="#fff"/><path d="M163,463.08a4.58,4.58,0,0,1-.48,2.13,3.4,3.4,0,0,1-1.36,1.45,4.11,4.11,0,0,1-2.12.52,4,4,0,0,1-2.1-.53,3.49,3.49,0,0,1-1.36-1.44,5.09,5.09,0,0,1,0-4.25,3.4,3.4,0,0,1,1.35-1.41,4.77,4.77,0,0,1,4.25,0,3.36,3.36,0,0,1,1.36,1.41A4.6,4.6,0,0,1,163,463.08Zm-6.26,0a3.5,3.5,0,0,0,.56,2.07,2,2,0,0,0,1.74.77,2.07,2.07,0,0,0,1.77-.77,3.43,3.43,0,0,0,.57-2.07,3.3,3.3,0,0,0-.57-2,2.09,2.09,0,0,0-1.77-.76,2,2,0,0,0-1.74.76A3.37,3.37,0,0,0,156.77,463.08Z" fill="#fff"/><path d="M165,461a14.78,14.78,0,0,0-.11-1.74h1.5a6.87,6.87,0,0,1,.12.88h0a2.94,2.94,0,0,1,1-.78,3.12,3.12,0,0,1,1.44-.31,3.05,3.05,0,0,1,1.56.36,2.31,2.31,0,0,1,.94,1h0a3.29,3.29,0,0,1,4.23-.92,2.47,2.47,0,0,1,1,1.1A3.43,3.43,0,0,1,177,462V467h-1.57v-4.71a2.3,2.3,0,0,0-.39-1.38,1.45,1.45,0,0,0-1.26-.54,1.76,1.76,0,0,0-1.47.71,2.84,2.84,0,0,0-.53,1.72V467h-1.57v-4.8a2.1,2.1,0,0,0-.41-1.3,1.47,1.47,0,0,0-1.24-.53,1.82,1.82,0,0,0-1.47.65,2.53,2.53,0,0,0-.53,1.63V467H165Z" fill="#fff"/><path d="M186,463.68H180.4a2.55,2.55,0,0,0,.69,1.65,2.27,2.27,0,0,0,1.65.59,3.63,3.63,0,0,0,1.19-.18,5.49,5.49,0,0,0,1.09-.54l.69,1a4.77,4.77,0,0,1-1.41.74,5.39,5.39,0,0,1-1.67.24,4,4,0,0,1-2.06-.51,3.3,3.3,0,0,1-1.31-1.43,4.85,4.85,0,0,1-.45-2.14,4.34,4.34,0,0,1,1-2.94,3.39,3.39,0,0,1,2.71-1.11,3.18,3.18,0,0,1,2.61,1.09,4.44,4.44,0,0,1,.9,2.91A4.26,4.26,0,0,1,186,463.68Zm-1.5-1.21a2.57,2.57,0,0,0-.54-1.61,1.72,1.72,0,0,0-1.44-.63,1.88,1.88,0,0,0-1.5.64,2.73,2.73,0,0,0-.59,1.6Z" fill="#fff"/><path d="M187.9,461a14.78,14.78,0,0,0-.11-1.74h1.5a8.36,8.36,0,0,1,.12,1.06h0a2.38,2.38,0,0,1,.89-.94,2.91,2.91,0,0,1,1.47-.33,3.39,3.39,0,0,1,.45,0l-.08,1.37a2.62,2.62,0,0,0-.52,0,2,2,0,0,0-1.61.69,2.69,2.69,0,0,0-.57,1.77V467H187.9Z" fill="#fff"/><path d="M198.47,459.87l-.67,1a3.46,3.46,0,0,0-1.88-.59,1.88,1.88,0,0,0-1,.24.76.76,0,0,0-.37.68,1,1,0,0,0,.15.57,1.23,1.23,0,0,0,.53.36,8.14,8.14,0,0,0,1.1.33,3.73,3.73,0,0,1,1.73.84,1.93,1.93,0,0,1,.57,1.45,2.16,2.16,0,0,1-.42,1.34,2.52,2.52,0,0,1-1.13.83,4,4,0,0,1-1.53.28,4.27,4.27,0,0,1-2.8-.89l.72-1a3.64,3.64,0,0,0,1,.49,3.23,3.23,0,0,0,1.06.16,1.84,1.84,0,0,0,1.1-.29,1,1,0,0,0,.4-.84.93.93,0,0,0-.15-.56,1.23,1.23,0,0,0-.51-.35,7.91,7.91,0,0,0-1.09-.33,3.83,3.83,0,0,1-1.72-.83,2.13,2.13,0,0,1,.25-3.09,3.43,3.43,0,0,1,2.13-.61A4.09,4.09,0,0,1,198.47,459.87Z" fill="#fff"/><path d="M408.22,276.78l-.87-2.43h-4.68l-.92,2.43H400l4.14-10.62h1.69L410,276.78Zm-3.21-9-1.89,5.33h3.78Z" fill="#fff"/><path d="M418.75,272.91a5,5,0,0,1-.42,2.07,3.41,3.41,0,0,1-1.23,1.47,3.37,3.37,0,0,1-1.91.54,3.62,3.62,0,0,1-2.38-.82v4.27h-1.57v-9.63a14.78,14.78,0,0,0-.11-1.74h1.5c.06.4.1.73.12,1h0a3,3,0,0,1,2.59-1.19,3.13,3.13,0,0,1,1.87.54,3.23,3.23,0,0,1,1.13,1.46A5.35,5.35,0,0,1,418.75,272.91Zm-1.64,0a3.45,3.45,0,0,0-.54-2.06,1.82,1.82,0,0,0-1.53-.74,2.19,2.19,0,0,0-2,1.14,2.47,2.47,0,0,0-.28,1.15v2.52a3.66,3.66,0,0,0,1,.62,2.69,2.69,0,0,0,1.05.19,2,2,0,0,0,1.71-.76A3.38,3.38,0,0,0,417.11,272.91Z" fill="#fff"/><path d="M420.07,274.64a2.17,2.17,0,0,1,1.08-2.09,6.7,6.7,0,0,1,3.18-.6l.76,0v-.41q0-1.47-1.74-1.47a4.49,4.49,0,0,0-2.28.62l-.54-1a5.37,5.37,0,0,1,1.38-.59,5.63,5.63,0,0,1,1.52-.21,3.37,3.37,0,0,1,2.47.78,3.22,3.22,0,0,1,.77,2.36v3a15.85,15.85,0,0,0,.12,1.74h-1.46a5.58,5.58,0,0,1-.1-.91h-.05a2.9,2.9,0,0,1-1,.85,3.9,3.9,0,0,1-1.58.27,2.64,2.64,0,0,1-1.8-.6A2.22,2.22,0,0,1,420.07,274.64Zm5-.78v-.8h-.61a4.89,4.89,0,0,0-2.15.34,1.21,1.21,0,0,0-.64,1.16,1.12,1.12,0,0,0,.34.88,1.36,1.36,0,0,0,1,.32,2.14,2.14,0,0,0,1.12-.28,2,2,0,0,0,.74-.71A1.75,1.75,0,0,0,425.09,273.86Z" fill="#fff"/><path d="M432.41,268.86a4.59,4.59,0,0,1,1.39.21,3.85,3.85,0,0,1,1.19.62l-.61,1.09a3.29,3.29,0,0,0-1.95-.61,2.05,2.05,0,0,0-1.73.73,3.14,3.14,0,0,0-.58,2,3.22,3.22,0,0,0,.58,2,2,2,0,0,0,1.7.75,3.75,3.75,0,0,0,2-.63l.57,1.11a4.52,4.52,0,0,1-2.69.84,3.75,3.75,0,0,1-2.21-.6,3.41,3.41,0,0,1-1.19-1.53,5.56,5.56,0,0,1-.35-1.95,4.64,4.64,0,0,1,.46-2.13,3.34,3.34,0,0,1,1.35-1.41A4,4,0,0,1,432.41,268.86Z" fill="#fff"/><path d="M436.66,266.16h1.58V270h0a3,3,0,0,1,2.54-1.1,2.66,2.66,0,0,1,2.16.84,3,3,0,0,1,.7,2v5h-1.57v-4.71a2.14,2.14,0,0,0-.42-1.36,1.6,1.6,0,0,0-1.34-.54,1.94,1.94,0,0,0-1.53.64,2.35,2.35,0,0,0-.56,1.62v4.35h-1.58Z" fill="#fff"/><path d="M452.65,273.5H447.1a2.51,2.51,0,0,0,.69,1.64,2.22,2.22,0,0,0,1.65.59,3.59,3.59,0,0,0,1.19-.18,5.24,5.24,0,0,0,1.09-.54l.69,1a4.81,4.81,0,0,1-1.4.73,5.5,5.5,0,0,1-1.68.24,4,4,0,0,1-2.06-.51,3.3,3.3,0,0,1-1.31-1.43,4.82,4.82,0,0,1-.45-2.14,4.34,4.34,0,0,1,1-2.94,3.39,3.39,0,0,1,2.71-1.11,3.19,3.19,0,0,1,2.61,1.1,4.44,4.44,0,0,1,.9,2.91A4.26,4.26,0,0,1,452.65,273.5Zm-1.5-1.22a2.65,2.65,0,0,0-.53-1.61,1.78,1.78,0,0,0-1.45-.62,1.81,1.81,0,0,0-1.49.64,2.62,2.62,0,0,0-.6,1.59Z" fill="#fff"/><path d="M377.48,294.78l-4.1-4.65-.66.69v4h-1.63V284.16h1.63v4.67l4.44-4.67h1.92L374.43,289l5,5.74Z" fill="#fff"/><path d="M379.88,292.64a2.17,2.17,0,0,1,1.08-2.09,6.7,6.7,0,0,1,3.18-.6l.76,0v-.41q0-1.47-1.74-1.47a4.49,4.49,0,0,0-2.28.62l-.54-1a5.37,5.37,0,0,1,1.38-.59,5.63,5.63,0,0,1,1.52-.21,3.33,3.33,0,0,1,2.46.78,3.18,3.18,0,0,1,.78,2.36v3a15.85,15.85,0,0,0,.12,1.74h-1.46a5.58,5.58,0,0,1-.1-.91H385a2.93,2.93,0,0,1-1.05.85,3.85,3.85,0,0,1-1.57.27,2.64,2.64,0,0,1-1.8-.6A2.22,2.22,0,0,1,379.88,292.64Zm5-.78v-.8h-.61a4.89,4.89,0,0,0-2.15.34,1.19,1.19,0,0,0-.64,1.16,1.12,1.12,0,0,0,.34.88,1.36,1.36,0,0,0,1,.32,2.14,2.14,0,0,0,1.12-.28,2,2,0,0,0,.74-.71A1.75,1.75,0,0,0,384.9,291.86Z" fill="#fff"/><path d="M393.26,284.18l-.36,1.12a3.54,3.54,0,0,0-.95-.1c-.86,0-1.29.5-1.29,1.42v.45h1.89v1.2h-1.89v6.51h-1.57v-6.51h-1.31v-1l1.31-.18v-.51a2.6,2.6,0,0,1,.67-1.91,2.86,2.86,0,0,1,2.06-.7A4.62,4.62,0,0,1,393.26,284.18Z" fill="#fff"/><path d="M399,294.78l-2.82-3.52-.7.66v2.86h-1.58V284.16h1.58v6l3.3-3.08h1.89l-3.39,3.17,3.66,4.54Z" fill="#fff"/><path d="M401.46,292.64a2.17,2.17,0,0,1,1.08-2.09,6.7,6.7,0,0,1,3.18-.6l.77,0v-.41q0-1.47-1.74-1.47a4.49,4.49,0,0,0-2.28.62l-.54-1a5.3,5.3,0,0,1,1.37-.59,5.68,5.68,0,0,1,1.52-.21,3.37,3.37,0,0,1,2.47.78,3.18,3.18,0,0,1,.77,2.36v3a15.85,15.85,0,0,0,.12,1.74h-1.45a5.85,5.85,0,0,1-.11-.91h0a2.93,2.93,0,0,1-1.05.85A3.9,3.9,0,0,1,404,295a2.64,2.64,0,0,1-1.8-.6A2.22,2.22,0,0,1,401.46,292.64Zm5-.78v-.8h-.62a4.84,4.84,0,0,0-2.14.34,1.2,1.2,0,0,0-.65,1.16,1.13,1.13,0,0,0,.35.88,1.34,1.34,0,0,0,.94.32,2.18,2.18,0,0,0,1.13-.28,1.92,1.92,0,0,0,.73-.71A1.76,1.76,0,0,0,406.49,291.86Z" fill="#fff"/><path d="M421.76,290.9a4.58,4.58,0,0,1-.48,2.13,3.46,3.46,0,0,1-1.36,1.45,4.21,4.21,0,0,1-2.12.51,4,4,0,0,1-2.1-.52,3.52,3.52,0,0,1-1.36-1.45,4.51,4.51,0,0,1-.47-2.12,4.57,4.57,0,0,1,.46-2.12,3.28,3.28,0,0,1,1.35-1.41,4.68,4.68,0,0,1,4.25,0,3.25,3.25,0,0,1,1.36,1.41A4.57,4.57,0,0,1,421.76,290.9Zm-6.26,0a3.45,3.45,0,0,0,.56,2.06,2,2,0,0,0,1.74.77,2,2,0,0,0,1.77-.77,3.38,3.38,0,0,0,.57-2.06,3.28,3.28,0,0,0-.57-2,2.06,2.06,0,0,0-1.77-.76,2,2,0,0,0-1.74.76A3.35,3.35,0,0,0,415.5,290.9Z" fill="#fff"/><path d="M423.68,288.81a14.78,14.78,0,0,0-.11-1.74h1.5a6.94,6.94,0,0,1,.12.9h0a2.63,2.63,0,0,1,1-.81,3.66,3.66,0,0,1,1.55-.3,2.7,2.7,0,0,1,2.17.84,3,3,0,0,1,.71,2v5h-1.57v-4.71a2.14,2.14,0,0,0-.42-1.36,1.6,1.6,0,0,0-1.34-.54,1.94,1.94,0,0,0-1.53.64,2.36,2.36,0,0,0-.57,1.62v4.35h-1.57Z" fill="#fff"/><path d="M441.72,284.16v10.62h-1.66V290h-5.33v4.8H433.1V284.16h1.63v4.5h5.33v-4.5Z" fill="#fff"/><path d="M450.83,291.5h-5.55a2.51,2.51,0,0,0,.69,1.64,2.22,2.22,0,0,0,1.65.59,3.63,3.63,0,0,0,1.19-.18,5.49,5.49,0,0,0,1.09-.54l.69,1a4.74,4.74,0,0,1-1.41.73,5.39,5.39,0,0,1-1.67.24,4,4,0,0,1-2.06-.51,3.24,3.24,0,0,1-1.31-1.43,4.82,4.82,0,0,1-.45-2.14,4.34,4.34,0,0,1,1-2.94,3.39,3.39,0,0,1,2.71-1.11A3.19,3.19,0,0,1,450,288a4.44,4.44,0,0,1,.9,2.91A4.26,4.26,0,0,1,450.83,291.5Zm-1.5-1.22a2.6,2.6,0,0,0-.54-1.61,1.74,1.74,0,0,0-1.44-.62,1.85,1.85,0,0,0-1.5.64,2.68,2.68,0,0,0-.59,1.59Z" fill="#fff"/><path d="M452.78,288.81a14.78,14.78,0,0,0-.11-1.74h1.5a8.49,8.49,0,0,1,.12,1.07h0a2.4,2.4,0,0,1,.89-.95,2.91,2.91,0,0,1,1.47-.33l.45.05-.08,1.36a2.68,2.68,0,0,0-.52,0,2,2,0,0,0-1.61.69,2.69,2.69,0,0,0-.57,1.77v4.09h-1.57Z" fill="#fff"/><path d="M465.6,290.9a4.7,4.7,0,0,1-.47,2.13,3.48,3.48,0,0,1-1.37,1.45,4.19,4.19,0,0,1-2.12.51,4,4,0,0,1-2.1-.52,3.52,3.52,0,0,1-1.36-1.45,4.63,4.63,0,0,1-.47-2.12,4.57,4.57,0,0,1,.47-2.12,3.28,3.28,0,0,1,1.35-1.41,4.15,4.15,0,0,1,2.11-.51,4.26,4.26,0,0,1,2.14.51,3.31,3.31,0,0,1,1.36,1.41A4.57,4.57,0,0,1,465.6,290.9Zm-6.25,0a3.38,3.38,0,0,0,.56,2.06,2,2,0,0,0,1.73.77,2,2,0,0,0,1.77-.77,3.38,3.38,0,0,0,.57-2.06,3.28,3.28,0,0,0-.57-2,2.06,2.06,0,0,0-1.77-.76,2,2,0,0,0-1.74.76A3.35,3.35,0,0,0,459.35,290.9Z" fill="#fff"/><path d="M472.64,294.78l-2.82-3.52-.71.66v2.86h-1.57V284.16h1.57v6l3.3-3.08h1.89l-3.39,3.17,3.66,4.54Z" fill="#fff"/><path d="M475.35,291.8v-4.73h1.59v4.5a2.75,2.75,0,0,0,.41,1.59,1.52,1.52,0,0,0,1.32.59,1.85,1.85,0,0,0,1.53-.72,2.8,2.8,0,0,0,.58-1.82v-4.14h1.58v6a15.85,15.85,0,0,0,.12,1.74H481a6.87,6.87,0,0,1-.12-1h0a2.89,2.89,0,0,1-2.55,1.18,2.71,2.71,0,0,1-2.19-.88A3.5,3.5,0,0,1,475.35,291.8Z" fill="#fff"/><line x1="388.84" y1="86.04" x2="277.98" y2="86.04" fill="none" stroke-dasharray="3 6" stroke-linecap="round" stroke-linejoin="round" stroke-width="2" stroke="#fff"/><polyline points="277.53 79.71 271.21 86.03 277.54 92.36" fill="none" stroke="#fff" stroke-linecap="round" stroke-linejoin="round" stroke-width="2"/><line x1="545.62" y1="86.04" x2="468.53" y2="86.04" fill="none" stroke-dasharray="3 6" stroke-linecap="round" stroke-linejoin="round" stroke-width="2" stroke="#fff"/><line x1="404.41" y1="183.13" x2="404.41" y2="132.27" fill="none" stroke-dasharray="3 6" stroke-linecap="round" stroke-linejoin="round" stroke-width="2" stroke="#fff"/><line x1="446.7" y1="126" x2="446.7" y2="176.86" fill="none" stroke-dasharray="3 6" stroke-linecap="round" stroke-linejoin="round" stroke-width="2" stroke="#fff"/><path d="M575.14,282.88V293.5h-1.67v-4.8h-5.32v4.8h-1.64V282.88h1.64v4.5h5.32v-4.5Z" fill="#fff"/><path d="M584.24,290.21h-5.55a2.51,2.51,0,0,0,.69,1.64,2.23,2.23,0,0,0,1.65.6,3.59,3.59,0,0,0,1.19-.18,5.24,5.24,0,0,0,1.09-.54l.69,1a4.84,4.84,0,0,1-1.4.74,5.43,5.43,0,0,1-1.67.24,4,4,0,0,1-2.07-.51,3.33,3.33,0,0,1-1.31-1.44,4.77,4.77,0,0,1-.45-2.13,4.34,4.34,0,0,1,1-2.94,3.41,3.41,0,0,1,2.72-1.11,3.18,3.18,0,0,1,2.61,1.09,4.44,4.44,0,0,1,.9,2.91A4.23,4.23,0,0,1,584.24,290.21Zm-1.5-1.21a2.68,2.68,0,0,0-.53-1.62,1.78,1.78,0,0,0-1.45-.62,1.81,1.81,0,0,0-1.49.64,2.64,2.64,0,0,0-.59,1.6Z" fill="#fff"/><path d="M586.19,287.53a14.74,14.74,0,0,0-.1-1.74h1.5a8.36,8.36,0,0,1,.12,1.06h0a2.31,2.31,0,0,1,.89-.94,2.84,2.84,0,0,1,1.46-.33,3.39,3.39,0,0,1,.45,0l-.07,1.37a2.73,2.73,0,0,0-.53-.05,2,2,0,0,0-1.6.69,2.69,2.69,0,0,0-.57,1.77v4.1h-1.58Z" fill="#fff"/><path d="M599,289.61a4.58,4.58,0,0,1-.48,2.13,3.46,3.46,0,0,1-1.36,1.45,4.21,4.21,0,0,1-2.12.52,4,4,0,0,1-2.1-.53,3.46,3.46,0,0,1-1.36-1.45,4.51,4.51,0,0,1-.47-2.12,4.57,4.57,0,0,1,.46-2.12,3.28,3.28,0,0,1,1.35-1.41,4.77,4.77,0,0,1,4.25,0,3.25,3.25,0,0,1,1.36,1.41A4.57,4.57,0,0,1,599,289.61Zm-6.26,0a3.45,3.45,0,0,0,.56,2.06,2,2,0,0,0,1.74.78,2,2,0,0,0,1.77-.78,3.38,3.38,0,0,0,.57-2.06,3.28,3.28,0,0,0-.57-2,2.06,2.06,0,0,0-1.77-.76,2,2,0,0,0-1.74.76A3.35,3.35,0,0,0,592.76,289.61Z" fill="#fff"/><path d="M606.05,293.5,603.23,290l-.7.66v2.87H601V282.88h1.58v6l3.3-3.07h1.89L604.33,289,608,293.5Z" fill="#fff"/><path d="M608.77,290.51v-4.72h1.59v4.5a2.68,2.68,0,0,0,.41,1.59,1.48,1.48,0,0,0,1.31.58,1.88,1.88,0,0,0,1.54-.72,2.82,2.82,0,0,0,.58-1.81v-4.14h1.57v6a15.85,15.85,0,0,0,.12,1.74h-1.5a7,7,0,0,1-.12-1h0a2.9,2.9,0,0,1-2.55,1.19,2.68,2.68,0,0,1-2.18-.89A3.45,3.45,0,0,1,608.77,290.51Z" fill="#fff"/><path d="M630.61,283.91l-.93,1a4.27,4.27,0,0,0-2.67-1,3.33,3.33,0,0,0-2.76,1.14,4.75,4.75,0,0,0-.9,3,4.7,4.7,0,0,0,.9,3,3.29,3.29,0,0,0,2.73,1.14,3.77,3.77,0,0,0,1.53-.31,4.3,4.3,0,0,0,1.27-.81l1,1.08a5,5,0,0,1-1.68,1.09,5.67,5.67,0,0,1-2.17.41,5.53,5.53,0,0,1-2.87-.71,4.58,4.58,0,0,1-1.8-2,7.29,7.29,0,0,1,0-5.84,4.56,4.56,0,0,1,1.82-2,5.59,5.59,0,0,1,2.88-.7,5.68,5.68,0,0,1,2,.35A4.54,4.54,0,0,1,630.61,283.91Z" fill="#fff"/><path d="M639.29,289.61a4.7,4.7,0,0,1-.47,2.13,3.48,3.48,0,0,1-1.37,1.45,4.19,4.19,0,0,1-2.12.52,4,4,0,0,1-2.1-.53,3.52,3.52,0,0,1-1.36-1.45,4.63,4.63,0,0,1-.47-2.12,4.57,4.57,0,0,1,.47-2.12,3.28,3.28,0,0,1,1.35-1.41,4.15,4.15,0,0,1,2.11-.5,4.26,4.26,0,0,1,2.14.5,3.31,3.31,0,0,1,1.36,1.41A4.57,4.57,0,0,1,639.29,289.61Zm-6.25,0a3.38,3.38,0,0,0,.56,2.06,2,2,0,0,0,1.73.78,2,2,0,0,0,1.77-.78,3.38,3.38,0,0,0,.57-2.06,3.28,3.28,0,0,0-.57-2,2.06,2.06,0,0,0-1.77-.76,2,2,0,0,0-1.74.76A3.35,3.35,0,0,0,633,289.61Z" fill="#fff"/><path d="M641.21,287.53a14.74,14.74,0,0,0-.1-1.74h1.5a6.94,6.94,0,0,1,.12.9h0a2.59,2.59,0,0,1,1-.81,3.74,3.74,0,0,1,1.56-.3,2.66,2.66,0,0,1,2.16.83,3,3,0,0,1,.72,2v5.06h-1.58v-4.71a2.17,2.17,0,0,0-.42-1.37,1.58,1.58,0,0,0-1.33-.54,1.94,1.94,0,0,0-1.53.65,2.36,2.36,0,0,0-.57,1.62v4.35h-1.58Z" fill="#fff"/><path d="M650.57,287.53a14.74,14.74,0,0,0-.1-1.74H652a6.94,6.94,0,0,1,.12.9h0a2.59,2.59,0,0,1,1-.81,3.74,3.74,0,0,1,1.56-.3,2.66,2.66,0,0,1,2.16.83,3,3,0,0,1,.72,2v5.06H656v-4.71a2.17,2.17,0,0,0-.42-1.37,1.58,1.58,0,0,0-1.33-.54,1.94,1.94,0,0,0-1.53.65,2.36,2.36,0,0,0-.57,1.62v4.35h-1.58Z" fill="#fff"/><path d="M666.56,290.21H661a2.51,2.51,0,0,0,.69,1.64,2.23,2.23,0,0,0,1.65.6,3.59,3.59,0,0,0,1.19-.18,5.24,5.24,0,0,0,1.09-.54l.69,1a4.84,4.84,0,0,1-1.4.74,5.43,5.43,0,0,1-1.67.24,4,4,0,0,1-2.07-.51,3.33,3.33,0,0,1-1.31-1.44,4.77,4.77,0,0,1-.45-2.13,4.34,4.34,0,0,1,1-2.94,3.41,3.41,0,0,1,2.72-1.11,3.18,3.18,0,0,1,2.61,1.09,4.44,4.44,0,0,1,.9,2.91A4.23,4.23,0,0,1,666.56,290.21Zm-1.5-1.21a2.68,2.68,0,0,0-.53-1.62,1.78,1.78,0,0,0-1.45-.62,1.81,1.81,0,0,0-1.49.64A2.64,2.64,0,0,0,661,289Z" fill="#fff"/><path d="M671.89,285.58a4.52,4.52,0,0,1,1.38.21,4,4,0,0,1,1.2.61l-.62,1.1a3.3,3.3,0,0,0-2-.62,2.06,2.06,0,0,0-1.73.74,3.14,3.14,0,0,0-.58,2,3.19,3.19,0,0,0,.58,2,2,2,0,0,0,1.7.76,3.75,3.75,0,0,0,2-.63l.57,1.11a4.5,4.5,0,0,1-2.69.84,3.7,3.7,0,0,1-2.2-.61,3.43,3.43,0,0,1-1.2-1.53,5.51,5.51,0,0,1-.35-1.94,4.64,4.64,0,0,1,.47-2.13,3.28,3.28,0,0,1,1.34-1.42A4.06,4.06,0,0,1,671.89,285.58Z" fill="#fff"/><path d="M678.32,285.79h2V287h-2v4.27c0,.78.36,1.17,1.07,1.17a2.46,2.46,0,0,0,.72-.1l.22,1.17a3.55,3.55,0,0,1-1.24.21,2.38,2.38,0,0,1-1.71-.6,2.25,2.25,0,0,1-.63-1.71V287h-1.32v-1l1.3-.18V284l1.59-.57Z" fill="#fff"/><path d="M615.39,403.93a1.65,1.65,0,0,0-1.48.74,3.05,3.05,0,0,0-.41,1.21h3.67a2.59,2.59,0,0,0-.34-1.21A1.6,1.6,0,0,0,615.39,403.93Z" fill="#fff"/><path d="M602.41,407.29a1.15,1.15,0,0,0-.46,1,1.19,1.19,0,0,0,.16.67,1,1,0,0,0,.29.31,2.46,2.46,0,0,0,1.51.31,10.65,10.65,0,0,0,1.38-.19V407a10.71,10.71,0,0,0-1.39-.12A2.33,2.33,0,0,0,602.41,407.29Z" fill="#fff"/><path d="M649.89,386a18.81,18.81,0,0,0-7.74,1.64,15.68,15.68,0,0,0-13.67-8.1,15.5,15.5,0,0,0-11.22,4.82,17.21,17.21,0,0,0-29.49,17.27,15,15,0,0,0,7.41,27.88,14.81,14.81,0,0,0,3-.32,15.93,15.93,0,0,0,29.62.71,14,14,0,0,0,18.29-5.75A19.25,19.25,0,1,0,649.89,386Zm-50.52,22.35c0,1.56-1.14,2.52-3,2.52a5.32,5.32,0,0,1-3.16-.92.16.16,0,0,1,0-.2l.37-1a.15.15,0,0,1,0-.09.15.15,0,0,1,.2,0,2.61,2.61,0,0,0,.3.19,4.31,4.31,0,0,0,2.34.68c.79,0,1.28-.42,1.28-1v0c0-.62-.75-.84-1.63-1.11l-.19-.06c-1.2-.34-2.48-.84-2.48-2.35v0a2.54,2.54,0,0,1,2.83-2.44h.18a5.17,5.17,0,0,1,2.6.7.16.16,0,0,1,.09.2c0,.08-.33.89-.37,1s-.25.06-.25.06a5.27,5.27,0,0,0-2.3-.59c-.71,0-1.16.37-1.16.88v0c0,.6.78.85,1.68,1.14l.15.05c1.19.37,2.46.9,2.46,2.34Zm7.56,1.86a.17.17,0,0,1-.12.17l-.36.09c-.17,0-.8.16-1.29.24a9.12,9.12,0,0,1-1.56.13,6.21,6.21,0,0,1-1.36-.13,3,3,0,0,1-1-.46,2.06,2.06,0,0,1-.66-.8,2.65,2.65,0,0,1-.25-1.17,2.39,2.39,0,0,1,1-2,3.06,3.06,0,0,1,1.07-.49,4.92,4.92,0,0,1,1.27-.17c.32,0,.59,0,.8,0,0,0,.4,0,.85.11v-.21c0-.69-.14-1-.42-1.23a2,2,0,0,0-1.27-.34,5.3,5.3,0,0,0-2.24.53l-.08,0h0a.14.14,0,0,1-.17-.09l-.36-1a.15.15,0,0,1,0-.2,4.73,4.73,0,0,1,1.58-.58,7.85,7.85,0,0,1,1.37-.13,3.5,3.5,0,0,1,2.36.71,2.86,2.86,0,0,1,.82,2.26Zm3.32-10.64v11a.14.14,0,0,1-.14.15h-1.37a.14.14,0,0,1-.14-.15h0v-11a.15.15,0,0,1,.14-.16h1.37a.15.15,0,0,1,.14.15Zm8.49,7.43a.14.14,0,0,1-.15.13h-5.13a2.43,2.43,0,0,0,.59,1.71,2.5,2.5,0,0,0,1.76.61,4.94,4.94,0,0,0,2.11-.38h0a.15.15,0,0,1,.19.09l.33.94c.07.16,0,.21,0,.24a5.31,5.31,0,0,1-2.59.52,5.09,5.09,0,0,1-1.86-.31,3.26,3.26,0,0,1-2-2.16,5.33,5.33,0,0,1-.23-1.64,5.62,5.62,0,0,1,.22-1.63,3.74,3.74,0,0,1,.7-1.34,3.38,3.38,0,0,1,1.18-.9,4.08,4.08,0,0,1,1.69-.33,3.77,3.77,0,0,1,1.48.3,2.86,2.86,0,0,1,1,.74,3.11,3.11,0,0,1,.65,1.2A5.32,5.32,0,0,1,618.74,407Zm4.28,3.87a5.32,5.32,0,0,1-3.16-.92.16.16,0,0,1,0-.2l.37-1a.07.07,0,0,1,0-.06.15.15,0,0,1,.21,0l.3.19a4.31,4.31,0,0,0,2.34.68c.79,0,1.28-.42,1.28-1v0c0-.62-.75-.84-1.63-1.11l-.19-.06c-1.2-.34-2.48-.84-2.48-2.35v0a2.54,2.54,0,0,1,2.83-2.44h.18a5.17,5.17,0,0,1,2.6.7.16.16,0,0,1,.09.2l-.37,1c-.07.17-.24.06-.24.06a5.35,5.35,0,0,0-2.31-.59c-.71,0-1.16.37-1.16.88v0c0,.6.78.85,1.68,1.14l.15.05c1.19.37,2.46.9,2.46,2.34v0C626,409.93,624.84,410.89,623,410.89Zm9-6.93a.18.18,0,0,1-.18.15h-1.69L629,410.65a10.23,10.23,0,0,1-.45,1.73,3.36,3.36,0,0,1-.67,1.14,2.36,2.36,0,0,1-1,.67,3.85,3.85,0,0,1-1.26.19,3.13,3.13,0,0,1-.75-.07,3.64,3.64,0,0,1-.47-.14h0a.15.15,0,0,1-.07-.2l.38-1.05h0a.14.14,0,0,1,.18-.08,1.52,1.52,0,0,0,.28.09,3.05,3.05,0,0,0,.41.05,2.1,2.1,0,0,0,.61-.09,1,1,0,0,0,.47-.36,3,3,0,0,0,.36-.74,9.23,9.23,0,0,0,.3-1.26l1.15-6.43h-1.13c-.14,0-.18-.06-.16-.17l.19-1.07a.17.17,0,0,1,.17-.15h1.16l.07-.34a4.17,4.17,0,0,1,1-2.33,2.93,2.93,0,0,1,2.17-.78,5.36,5.36,0,0,1,.7.05,4.7,4.7,0,0,1,.51.12h0a.14.14,0,0,1,.09.17l-.39,1.08c0,.08-.06.13-.23.08l-.26-.07a2,2,0,0,0-.42,0,1.7,1.7,0,0,0-.55.08.93.93,0,0,0-.43.27,1.35,1.35,0,0,0-.36.55,5.66,5.66,0,0,0-.27,1.15H632c.14,0,.18.07.17.17Zm7.52,4.39a3.71,3.71,0,0,1-.69,1.32,3.26,3.26,0,0,1-1.17.88,4.35,4.35,0,0,1-3.25,0,3.26,3.26,0,0,1-1.17-.88,3.88,3.88,0,0,1-.69-1.32,6,6,0,0,1,0-3.26,3.59,3.59,0,0,1,.69-1.31,3.29,3.29,0,0,1,1.17-.89,4.17,4.17,0,0,1,3.25,0,3.17,3.17,0,0,1,1.16.89,3.61,3.61,0,0,1,.7,1.31h0A6,6,0,0,1,639.51,408.35Zm6.34-5.36c0,.14-.3.84-.39,1.08a.17.17,0,0,1-.18.14,2.78,2.78,0,0,0-.57-.07,2.35,2.35,0,0,0-.69.1,1.53,1.53,0,0,0-.63.38,1.86,1.86,0,0,0-.45.75,4.43,4.43,0,0,0-.17,1.35v3.82h0a.15.15,0,0,1-.16.15h-1.34a.15.15,0,0,1-.16-.15v-7.66h0a.15.15,0,0,1,.15-.15h1.32a.15.15,0,0,1,.14.16v.63a2.37,2.37,0,0,1,.87-.64,2.51,2.51,0,0,1,1.32-.21,4.28,4.28,0,0,1,.87.15h0A.14.14,0,0,1,645.85,403Zm6.43,7.51a6.32,6.32,0,0,1-2.15.38,3.82,3.82,0,0,1-3-1.13,4.36,4.36,0,0,1-1-3,5.32,5.32,0,0,1,.24-1.63,3.91,3.91,0,0,1,.74-1.32,3.48,3.48,0,0,1,1.23-.88,4.11,4.11,0,0,1,1.69-.33,7.28,7.28,0,0,1,1.14.08,5.93,5.93,0,0,1,1,.24h0a.14.14,0,0,1,.09.17c-.15.41-.25.67-.38,1-.06.16-.17.11-.17.11a4.87,4.87,0,0,0-1.61-.23,2,2,0,0,0-1.68.74,3.15,3.15,0,0,0-.58,2,2.88,2.88,0,0,0,.65,2.08,2.33,2.33,0,0,0,1.72.65,5.69,5.69,0,0,0,.83-.06,3.58,3.58,0,0,0,.71-.2h0a.14.14,0,0,1,.17.1l.38,1A.14.14,0,0,1,652.28,410.5Zm7.59-3.48a.15.15,0,0,1-.15.13h-5.13a2.43,2.43,0,0,0,.59,1.71,2.5,2.5,0,0,0,1.76.6,4.94,4.94,0,0,0,2.11-.38h0a.13.13,0,0,1,.18.09l.33.95c.07.16,0,.21-.05.24a5.26,5.26,0,0,1-2.58.52,5.09,5.09,0,0,1-1.86-.31,3.26,3.26,0,0,1-2-2.16,5.33,5.33,0,0,1-.23-1.64,5.62,5.62,0,0,1,.22-1.63,3.74,3.74,0,0,1,.7-1.34,3.38,3.38,0,0,1,1.18-.9,4.12,4.12,0,0,1,1.7-.33,3.72,3.72,0,0,1,1.47.3,2.86,2.86,0,0,1,1,.74,3.11,3.11,0,0,1,.65,1.2A5.5,5.5,0,0,1,659.87,407Z" fill="#fff"/><path d="M656.51,403.93a1.66,1.66,0,0,0-1.48.74,3.05,3.05,0,0,0-.41,1.21h3.67a2.59,2.59,0,0,0-.34-1.21A1.6,1.6,0,0,0,656.51,403.93Z" fill="#fff"/><path d="M636,404a1.59,1.59,0,0,0-1.47.72,3.7,3.7,0,0,0-.48,2.05,3.76,3.76,0,0,0,.48,2.06,1.59,1.59,0,0,0,1.47.72,1.62,1.62,0,0,0,1.48-.72,3.67,3.67,0,0,0,.49-2.06,3.72,3.72,0,0,0-.49-2.05A1.64,1.64,0,0,0,636,404Z" fill="#fff"/><line x1="623" y1="133.57" x2="623" y2="201.78" fill="none" stroke-dasharray="3 6" stroke-linecap="round" stroke-linejoin="round" stroke-width="2" stroke="#fff"/><path d="M298.27,110.17l.64-.83a3.88,3.88,0,0,0,1,.55,4.09,4.09,0,0,0,1.2.17,2.13,2.13,0,0,0,1.3-.36,1.24,1.24,0,0,0,.49-1.06,1.29,1.29,0,0,0-.24-.8,1.63,1.63,0,0,0-.66-.5,8,8,0,0,0-1.13-.36,4.18,4.18,0,0,1-1.77-.87,2,2,0,0,1-.6-1.53,2.05,2.05,0,0,1,.39-1.26,2.35,2.35,0,0,1,1.05-.8,3.92,3.92,0,0,1,1.49-.27,4.37,4.37,0,0,1,2.67.83l-.59.86a4.73,4.73,0,0,0-1-.47,3.76,3.76,0,0,0-1.08-.15,2,2,0,0,0-1.17.3,1,1,0,0,0-.45.88,1,1,0,0,0,.43.89,4.44,4.44,0,0,0,1.42.55,4.78,4.78,0,0,1,1.92.93,2.2,2.2,0,0,1,.66,1.73,2.31,2.31,0,0,1-.42,1.41,2.59,2.59,0,0,1-1.13.87,4.28,4.28,0,0,1-1.59.28,4.74,4.74,0,0,1-1.57-.25A4.39,4.39,0,0,1,298.27,110.17Z" fill="#fff"/><path d="M305.71,102.45H307v3h0a2.37,2.37,0,0,1,2-.88,2.13,2.13,0,0,1,1.73.67,2.44,2.44,0,0,1,.56,1.62v4h-1.26v-3.77a1.75,1.75,0,0,0-.33-1.09,1.27,1.27,0,0,0-1.07-.43,1.58,1.58,0,0,0-1.23.51,1.92,1.92,0,0,0-.45,1.3V111h-1.26Z" fill="#fff"/><path d="M319.1,107.84a3.7,3.7,0,0,1-.38,1.7,2.66,2.66,0,0,1-1.09,1.16,3.3,3.3,0,0,1-1.7.42,3.22,3.22,0,0,1-1.68-.42,2.9,2.9,0,0,1-1.09-1.16,4.09,4.09,0,0,1,0-3.4,2.73,2.73,0,0,1,1.08-1.13,3.46,3.46,0,0,1,1.69-.4,3.51,3.51,0,0,1,1.71.4,2.7,2.7,0,0,1,1.09,1.13A3.67,3.67,0,0,1,319.1,107.84Zm-5,0a2.67,2.67,0,0,0,.45,1.65,1.6,1.6,0,0,0,1.38.62,1.66,1.66,0,0,0,1.42-.62,2.74,2.74,0,0,0,.45-1.65,2.69,2.69,0,0,0-.45-1.63,1.68,1.68,0,0,0-1.42-.6,1.61,1.61,0,0,0-1.39.6A2.69,2.69,0,0,0,314.1,107.84Z" fill="#fff"/><path d="M329,104.78,327.31,111h-1.4l-1.48-4.83h0L322.93,111h-1.38l-1.73-6.17h1.32l1.15,4.8h0l1.46-4.8h1.32l1.47,4.8h0l1.16-4.8Z" fill="#fff"/><path d="M330.16,106.17a11,11,0,0,0-.08-1.39h1.2a5.93,5.93,0,0,1,.1.72h0a2.07,2.07,0,0,1,.82-.65,3,3,0,0,1,1.24-.24,2.15,2.15,0,0,1,1.74.67,2.39,2.39,0,0,1,.57,1.62v4h-1.26v-3.77a1.69,1.69,0,0,0-.34-1.09,1.26,1.26,0,0,0-1.07-.43,1.55,1.55,0,0,0-1.22.51,1.88,1.88,0,0,0-.46,1.3V111h-1.26Z" fill="#fff"/><path d="M307.94,122.24a3.7,3.7,0,0,1-.38,1.7,2.66,2.66,0,0,1-1.09,1.16,3.3,3.3,0,0,1-1.7.42,3.22,3.22,0,0,1-1.68-.42,2.81,2.81,0,0,1-1.08-1.16,3.58,3.58,0,0,1-.38-1.7,3.67,3.67,0,0,1,.37-1.7,2.73,2.73,0,0,1,1.08-1.13,3.81,3.81,0,0,1,3.4,0,2.7,2.7,0,0,1,1.09,1.13A3.67,3.67,0,0,1,307.94,122.24Zm-5,0a2.74,2.74,0,0,0,.45,1.65,1.6,1.6,0,0,0,1.38.62,1.66,1.66,0,0,0,1.42-.62,2.74,2.74,0,0,0,.45-1.65,2.69,2.69,0,0,0-.45-1.63,1.68,1.68,0,0,0-1.42-.6,1.62,1.62,0,0,0-1.39.6A2.69,2.69,0,0,0,302.94,122.24Z" fill="#fff"/><path d="M309.48,120.57a11,11,0,0,0-.09-1.39h1.2a5.93,5.93,0,0,1,.1.72h0a2.14,2.14,0,0,1,.82-.65,3,3,0,0,1,1.25-.24,2.14,2.14,0,0,1,1.73.67,2.39,2.39,0,0,1,.57,1.62v4h-1.26v-3.77a1.69,1.69,0,0,0-.34-1.09,1.25,1.25,0,0,0-1.06-.43,1.56,1.56,0,0,0-1.23.51,1.92,1.92,0,0,0-.45,1.3v3.48h-1.26Z" fill="#fff"/><path d="M325.76,116.85V118h-2.62v7.38h-1.33V118H319.2v-1.12Z" fill="#fff"/><path d="M333.57,116.85l-3.24,8.5H329l-3.23-8.5h1.42l2.5,7h0l2.44-7Z" fill="#fff"/><line x1="388.84" y1="404.21" x2="277.98" y2="404.21" fill="none" stroke-dasharray="3 6" stroke-linecap="round" stroke-linejoin="round" stroke-width="2" stroke="#fff"/><path d="M298.27,428.34l.64-.83a3.88,3.88,0,0,0,1,.55,4.09,4.09,0,0,0,1.2.17,2.13,2.13,0,0,0,1.3-.36,1.24,1.24,0,0,0,.49-1.05,1.3,1.3,0,0,0-.24-.81,1.63,1.63,0,0,0-.66-.5,8,8,0,0,0-1.13-.36,4.18,4.18,0,0,1-1.77-.87,2,2,0,0,1-.6-1.53,2.05,2.05,0,0,1,.39-1.26,2.42,2.42,0,0,1,1.05-.8,3.92,3.92,0,0,1,1.49-.27,4.44,4.44,0,0,1,2.67.83l-.59.86a4.73,4.73,0,0,0-1-.47,3.76,3.76,0,0,0-1.08-.15,2,2,0,0,0-1.17.3,1.11,1.11,0,0,0,0,1.77,4.65,4.65,0,0,0,1.42.56,4.65,4.65,0,0,1,1.92.92,2.2,2.2,0,0,1,.66,1.73,2.31,2.31,0,0,1-.42,1.41,2.52,2.52,0,0,1-1.13.87,4.29,4.29,0,0,1-1.59.29,4.74,4.74,0,0,1-1.57-.26A4.18,4.18,0,0,1,298.27,428.34Z" fill="#fff"/><path d="M305.71,420.62H307v3h0a2.39,2.39,0,0,1,2-.88,2.16,2.16,0,0,1,1.73.67,2.46,2.46,0,0,1,.56,1.63v4h-1.26v-3.77a1.75,1.75,0,0,0-.33-1.09,1.27,1.27,0,0,0-1.07-.43,1.58,1.58,0,0,0-1.23.51,1.92,1.92,0,0,0-.45,1.3v3.48h-1.26Z" fill="#fff"/><path d="M319.1,426a3.77,3.77,0,0,1-.38,1.71,2.69,2.69,0,0,1-1.09,1.15,3.3,3.3,0,0,1-1.7.42,3.22,3.22,0,0,1-1.68-.42,2.9,2.9,0,0,1-1.09-1.16,4.09,4.09,0,0,1,0-3.4,2.65,2.65,0,0,1,1.08-1.12,3.36,3.36,0,0,1,1.69-.41,3.41,3.41,0,0,1,1.71.41,2.62,2.62,0,0,1,1.09,1.12A3.67,3.67,0,0,1,319.1,426Zm-5,0a2.67,2.67,0,0,0,.45,1.65,1.6,1.6,0,0,0,1.38.62,1.66,1.66,0,0,0,1.42-.62,2.74,2.74,0,0,0,.45-1.65,2.64,2.64,0,0,0-.45-1.62,1.66,1.66,0,0,0-1.42-.61,1.59,1.59,0,0,0-1.39.61A2.64,2.64,0,0,0,314.1,426Z" fill="#fff"/><path d="M329,423l-1.73,6.17h-1.4l-1.48-4.82h0l-1.47,4.82h-1.38L319.82,423h1.32l1.15,4.8h0l1.46-4.8h1.32l1.47,4.8h0l1.16-4.8Z" fill="#fff"/><path d="M330.16,424.34a11,11,0,0,0-.08-1.39h1.2a5.93,5.93,0,0,1,.1.72h0a2.07,2.07,0,0,1,.82-.65,3,3,0,0,1,1.24-.24,2.18,2.18,0,0,1,1.74.67,2.42,2.42,0,0,1,.57,1.63v4h-1.26v-3.77a1.69,1.69,0,0,0-.34-1.09,1.26,1.26,0,0,0-1.07-.43,1.55,1.55,0,0,0-1.22.51,1.88,1.88,0,0,0-.46,1.3v3.48h-1.26Z" fill="#fff"/><path d="M294.25,440.41a3.77,3.77,0,0,1-.38,1.71,2.75,2.75,0,0,1-1.09,1.15,3.3,3.3,0,0,1-1.7.42,3.22,3.22,0,0,1-1.68-.42,2.9,2.9,0,0,1-1.09-1.16,4.09,4.09,0,0,1,0-3.4,2.65,2.65,0,0,1,1.08-1.12,3.33,3.33,0,0,1,1.69-.41,3.43,3.43,0,0,1,1.71.41,2.62,2.62,0,0,1,1.09,1.12A3.8,3.8,0,0,1,294.25,440.41Zm-5,0a2.74,2.74,0,0,0,.45,1.65,1.62,1.62,0,0,0,1.39.62,1.66,1.66,0,0,0,1.42-.62,2.74,2.74,0,0,0,.45-1.65,2.64,2.64,0,0,0-.45-1.62,1.66,1.66,0,0,0-1.42-.61,1.59,1.59,0,0,0-1.39.61A2.64,2.64,0,0,0,289.24,440.41Z" fill="#fff"/><path d="M295.78,438.74a11,11,0,0,0-.08-1.39h1.2a5.93,5.93,0,0,1,.1.72h0a2.07,2.07,0,0,1,.82-.65,3,3,0,0,1,1.24-.24,2.18,2.18,0,0,1,1.74.67,2.42,2.42,0,0,1,.57,1.63v4h-1.26v-3.77a1.69,1.69,0,0,0-.34-1.09,1.26,1.26,0,0,0-1.07-.43,1.55,1.55,0,0,0-1.22.51A1.93,1.93,0,0,0,297,440v3.48h-1.26Z" fill="#fff"/><path d="M312.1,443.52h-1.17c-.05-.38-.08-.64-.09-.79h0a2.21,2.21,0,0,1-.86.72,3,3,0,0,1-1.26.24,2.35,2.35,0,0,1-2-.9,3.69,3.69,0,0,1-.68-2.33,3.93,3.93,0,0,1,.35-1.67,2.77,2.77,0,0,1,1-1.17,2.64,2.64,0,0,1,1.52-.44,2.72,2.72,0,0,1,1.87.68V435H312v7.11A13.45,13.45,0,0,0,312.1,443.52Zm-1.35-2.68V439a2.13,2.13,0,0,0-1.68-.77,1.5,1.5,0,0,0-1.28.63,3.2,3.2,0,0,0,0,3.27,1.47,1.47,0,0,0,1.22.59,1.63,1.63,0,0,0,1.27-.52A1.85,1.85,0,0,0,310.75,440.84Z" fill="#fff"/><path d="M319.27,440.89h-4.44a2.05,2.05,0,0,0,.55,1.32,1.82,1.82,0,0,0,1.32.47,3,3,0,0,0,.95-.14,4,4,0,0,0,.87-.44l.55.81a3.89,3.89,0,0,1-1.12.59,4.54,4.54,0,0,1-1.33.19,3.2,3.2,0,0,1-1.65-.41,2.63,2.63,0,0,1-1.06-1.15,4,4,0,0,1-.35-1.71,3.48,3.48,0,0,1,.76-2.35,2.73,2.73,0,0,1,2.17-.89,2.55,2.55,0,0,1,2.09.88,3.55,3.55,0,0,1,.72,2.33A4.07,4.07,0,0,1,319.27,440.89Zm-1.2-1a2.1,2.1,0,0,0-.43-1.29,1.41,1.41,0,0,0-1.16-.5,1.46,1.46,0,0,0-1.19.51,2.16,2.16,0,0,0-.47,1.28Z" fill="#fff"/><path d="M325.81,437.35l-2.28,6.17h-1.39l-2.33-6.17h1.35l1.68,4.91h0l1.63-4.91Z" fill="#fff"/><path d="M326.65,435.32c0-.5.26-.75.79-.75a.74.74,0,0,1,.59.21.86.86,0,0,1,0,1.08.74.74,0,0,1-.59.21.79.79,0,0,1-.61-.21A.8.8,0,0,1,326.65,435.32Zm1.41,2v6.17H326.8v-6.17Z" fill="#fff"/><path d="M332.73,437.18a3.62,3.62,0,0,1,1.1.17,3.28,3.28,0,0,1,1,.49l-.5.88a2.61,2.61,0,0,0-1.56-.49,1.62,1.62,0,0,0-1.38.59,2.5,2.5,0,0,0-.46,1.6,2.59,2.59,0,0,0,.46,1.61,1.6,1.6,0,0,0,1.36.6,3.05,3.05,0,0,0,1.6-.5l.45.89a3.64,3.64,0,0,1-2.15.67,2.91,2.91,0,0,1-1.76-.49,2.57,2.57,0,0,1-.95-1.22,4.28,4.28,0,0,1-.29-1.56,3.83,3.83,0,0,1,.37-1.7,2.62,2.62,0,0,1,1.08-1.13A3.27,3.27,0,0,1,332.73,437.18Z" fill="#fff"/><path d="M341.24,440.89H336.8a2.05,2.05,0,0,0,.55,1.32,1.82,1.82,0,0,0,1.32.47,3.13,3.13,0,0,0,1-.14,4.13,4.13,0,0,0,.86-.44l.56.81a3.94,3.94,0,0,1-1.13.59,4.54,4.54,0,0,1-1.33.19,3.2,3.2,0,0,1-1.65-.41,2.6,2.6,0,0,1-1.05-1.15,3.84,3.84,0,0,1-.36-1.71,3.43,3.43,0,0,1,.77-2.35,2.71,2.71,0,0,1,2.17-.89,2.58,2.58,0,0,1,2.09.88,3.6,3.6,0,0,1,.72,2.33A4,4,0,0,1,341.24,440.89Zm-1.2-1a2.1,2.1,0,0,0-.43-1.29,1.4,1.4,0,0,0-1.15-.5,1.48,1.48,0,0,0-1.2.51,2.16,2.16,0,0,0-.47,1.28Z" fill="#fff"/><path d="M346.71,437.84l-.54.78a2.77,2.77,0,0,0-1.5-.46,1.53,1.53,0,0,0-.82.19.62.62,0,0,0-.29.54.75.75,0,0,0,.12.45.92.92,0,0,0,.42.29,7.54,7.54,0,0,0,.88.27,2.87,2.87,0,0,1,1.38.67,1.51,1.51,0,0,1,.46,1.16,1.69,1.69,0,0,1-.34,1.07,2,2,0,0,1-.9.67,3.77,3.77,0,0,1-3.47-.49l.58-.79a3.49,3.49,0,0,0,.77.39,2.82,2.82,0,0,0,.85.12,1.49,1.49,0,0,0,.88-.22.78.78,0,0,0,.32-.68.75.75,0,0,0-.12-.45,1,1,0,0,0-.41-.28,5.62,5.62,0,0,0-.87-.26,3.06,3.06,0,0,1-1.38-.66,1.58,1.58,0,0,1-.44-1.19,1.53,1.53,0,0,1,.65-1.29,2.75,2.75,0,0,1,1.7-.49A3.29,3.29,0,0,1,346.71,437.84Z" fill="#fff"/><rect x="223.39" y="389.1" width="32.59" height="54.3" rx="2.53" stroke-width="2" stroke="#fff" stroke-linecap="round" stroke-linejoin="round" fill="none"/><rect x="226.94" y="392.95" width="25.48" height="46.77" stroke-width="2" stroke="#fff" stroke-linecap="round" stroke-linejoin="round" fill="none"/><polygon points="252.12 406.17 229.16 439.72 235.82 439.72 252.22 415.84 252.12 406.17" fill="#fff" opacity="0.3"/><polygon points="252.15 420.08 238.43 439.72 241.59 439.72 251.69 424.95 252.15 420.08" fill="#fff" opacity="0.3"/><path d="M223.39,401.7a39.89,39.89,0,0,0-12.57-3.29c-3.19-.47-4.38-2.08-4.27-4.38.13-2.67,7.93-6.48,7.93-21.63,0-10.19-6.78-17.78-15.81-17.78s-15.81,7.59-15.81,17.78c0,17.12,7.8,19,7.93,21.63.11,2.3-1.07,3.91-4.27,4.38,0,0-8.78,1.08-15.1,5.46a21.14,21.14,0,0,0-3.78-2.24l-.12-.06h0a40.17,40.17,0,0,0-12.31-3.17c-3.19-.47-4.37-2.08-4.26-4.38.13-2.67,7.93-6.48,7.93-21.63,0-10.19-6.78-17.78-15.81-17.78s-15.81,7.59-15.81,17.78c0,17.12,7.8,19,7.93,21.63.11,2.3-1.08,3.91-4.27,4.38,0,0-8.79,1.09-15.11,5.47-6.32-4.75-15.76-5.47-15.76-5.47-3.19-.47-4.38-2.08-4.27-4.38.13-2.67,7.93-6.48,7.93-21.63,0-10.19-6.78-17.78-15.81-17.78s-15.81,7.59-15.81,17.78c0,17.12,7.8,19,7.93,21.63.11,2.3-1.07,3.91-4.26,4.38,0,0-21.35,1.55-21.35,15.12,0,4.05,1.83,10.05,11.49,10.05H220.68a19,19,0,0,0,2.71-.18" fill="none" stroke="#fff" stroke-linecap="round" stroke-linejoin="round" stroke-width="2"/><polyline points="277.53 397.88 271.21 404.21 277.54 410.54" fill="none" stroke="#fff" stroke-linecap="round" stroke-linejoin="round" stroke-width="2"/><polyline points="410.73 132.32 404.41 126 398.08 132.33" fill="none" stroke="#fff" stroke-linecap="round" stroke-linejoin="round" stroke-width="2"/><polyline points="440.37 176.86 446.69 183.19 453.02 176.86" fill="none" stroke="#fff" stroke-linecap="round" stroke-linejoin="round" stroke-width="2"/><line x1="404.41" y1="370.14" x2="404.41" y2="320.33" fill="none" stroke-dasharray="3 6" stroke-linecap="round" stroke-linejoin="round" stroke-width="2" stroke="#fff"/><line x1="446.7" y1="314.05" x2="446.7" y2="363.86" fill="none" stroke-dasharray="3 6" stroke-linecap="round" stroke-linejoin="round" stroke-width="2" stroke="#fff"/><polyline points="410.73 320.38 404.41 314.05 398.08 320.38" fill="none" stroke="#fff" stroke-linecap="round" stroke-linejoin="round" stroke-width="2"/><polyline points="440.37 363.87 446.69 370.19 453.02 363.86" fill="none" stroke="#fff" stroke-linecap="round" stroke-linejoin="round" stroke-width="2"/><polyline points="468.08 79.71 461.75 86.03 468.08 92.36" fill="none" stroke="#fff" stroke-linecap="round" stroke-linejoin="round" stroke-width="2"/><polyline points="549.07 92.36 555.39 86.04 549.06 79.71" fill="none" stroke="#fff" stroke-linecap="round" stroke-linejoin="round" stroke-width="2"/><polyline points="629.21 131.08 622.89 124.75 616.56 131.08" fill="none" stroke="#fff" stroke-linecap="round" stroke-linejoin="round" stroke-width="2"/><polyline points="616.56 201.78 622.88 208.11 629.21 201.78" fill="none" stroke="#fff" stroke-linecap="round" stroke-linejoin="round" stroke-width="2"/><line x1="623" y1="318.96" x2="623" y2="357.31" fill="none" stroke-dasharray="3 6" stroke-linecap="round" stroke-linejoin="round" stroke-width="2" stroke="#fff"/><polyline points="629.21 316.46 622.89 310.13 616.56 316.46" fill="none" stroke="#fff" stroke-linecap="round" stroke-linejoin="round" stroke-width="2"/><polyline points="616.56 357.32 622.88 363.64 629.21 357.31" fill="none" stroke="#fff" stroke-linecap="round" stroke-linejoin="round" stroke-width="2"/><path d="M694.92,227.36v1.08H691v2.64h3.47v1.07H691v3.71h-1.31v-8.5Z" fill="#fff"/><path d="M701.4,232.75a3.77,3.77,0,0,1-.38,1.71,2.75,2.75,0,0,1-1.09,1.15,3.3,3.3,0,0,1-1.7.42,3.22,3.22,0,0,1-1.68-.42,2.9,2.9,0,0,1-1.09-1.16,4.09,4.09,0,0,1,0-3.4,2.65,2.65,0,0,1,1.08-1.12,3.33,3.33,0,0,1,1.69-.41,3.43,3.43,0,0,1,1.71.41,2.62,2.62,0,0,1,1.09,1.12A3.8,3.8,0,0,1,701.4,232.75Zm-5,0a2.74,2.74,0,0,0,.45,1.65,1.62,1.62,0,0,0,1.39.62,1.66,1.66,0,0,0,1.42-.62,2.74,2.74,0,0,0,.45-1.65,2.64,2.64,0,0,0-.45-1.62,1.66,1.66,0,0,0-1.42-.61,1.59,1.59,0,0,0-1.39.61A2.64,2.64,0,0,0,696.39,232.75Z" fill="#fff"/><path d="M702.93,231.08a11.11,11.11,0,0,0-.08-1.39h1.2a6.57,6.57,0,0,1,.1.85h0a1.9,1.9,0,0,1,.71-.75,2.25,2.25,0,0,1,1.17-.27l.36,0-.06,1.09a2.58,2.58,0,0,0-.42,0,1.55,1.55,0,0,0-1.28.55,2.17,2.17,0,0,0-.46,1.41v3.28h-1.26Z" fill="#fff"/><path d="M716.31,235.86h-1.17c0-.38-.08-.64-.09-.79h0a2.21,2.21,0,0,1-.86.72,3,3,0,0,1-1.26.24,2.35,2.35,0,0,1-2-.9,3.75,3.75,0,0,1-.68-2.33,4,4,0,0,1,.35-1.67,2.77,2.77,0,0,1,1-1.17,2.64,2.64,0,0,1,1.52-.44,2.72,2.72,0,0,1,1.87.68v-2.84h1.26v7.11A13.45,13.45,0,0,0,716.31,235.86ZM715,233.19V231.3a2.13,2.13,0,0,0-1.68-.77,1.5,1.5,0,0,0-1.28.63,3.2,3.2,0,0,0,0,3.27,1.47,1.47,0,0,0,1.23.59,1.62,1.62,0,0,0,1.26-.52A1.8,1.8,0,0,0,715,233.19Z" fill="#fff"/><path d="M717.69,234.15a1.74,1.74,0,0,1,.87-1.68,5.34,5.34,0,0,1,2.54-.47h.61v-.32c0-.79-.46-1.18-1.39-1.18a3.55,3.55,0,0,0-1.82.49l-.43-.84a4.48,4.48,0,0,1,1.09-.47,4.66,4.66,0,0,1,1.22-.17,2.75,2.75,0,0,1,2,.62A2.6,2.6,0,0,1,723,232v2.44a11.41,11.41,0,0,0,.1,1.39h-1.16a4.27,4.27,0,0,1-.09-.73h0a2.25,2.25,0,0,1-.83.68,3.24,3.24,0,0,1-1.26.22,2.09,2.09,0,0,1-1.45-.49A1.78,1.78,0,0,1,717.69,234.15Zm4-.63v-.64h-.49a3.92,3.92,0,0,0-1.71.27,1,1,0,0,0-.52.93.89.89,0,0,0,.28.71,1,1,0,0,0,.75.25,1.77,1.77,0,0,0,.9-.22,1.62,1.62,0,0,0,.59-.57A1.35,1.35,0,0,0,721.71,233.52Z" fill="#fff"/><path d="M726.33,229.69h1.59v1h-1.59v3.42c0,.63.29.94.86.94a1.79,1.79,0,0,0,.57-.09l.18.94a2.86,2.86,0,0,1-1,.17,1.89,1.89,0,0,1-1.37-.48,1.8,1.8,0,0,1-.51-1.37v-3.53H724v-.81l1-.15v-1.45l1.27-.46Z" fill="#fff"/><path d="M728.78,234.15a1.74,1.74,0,0,1,.87-1.68,5.34,5.34,0,0,1,2.54-.47h.61v-.32c0-.79-.46-1.18-1.39-1.18a3.59,3.59,0,0,0-1.83.49l-.43-.84a4.74,4.74,0,0,1,1.1-.47,4.66,4.66,0,0,1,1.22-.17,2.7,2.7,0,0,1,2,.62,2.56,2.56,0,0,1,.62,1.89v2.44a11.41,11.41,0,0,0,.1,1.39H733a5.26,5.26,0,0,1-.08-.73h0a2.36,2.36,0,0,1-.84.68,3.17,3.17,0,0,1-1.26.22,2.08,2.08,0,0,1-1.44-.49A1.74,1.74,0,0,1,728.78,234.15Zm4-.63v-.64h-.49a4,4,0,0,0-1.72.27,1,1,0,0,0-.51.93.92.92,0,0,0,.27.71,1.09,1.09,0,0,0,.76.25,1.77,1.77,0,0,0,.9-.22,1.62,1.62,0,0,0,.59-.57A1.45,1.45,0,0,0,732.8,233.52Z" fill="#fff"/><path d="M671.93,244.58l-.54.78a2.77,2.77,0,0,0-1.5-.46,1.47,1.47,0,0,0-.81.19.61.61,0,0,0-.3.54.75.75,0,0,0,.12.45,1,1,0,0,0,.42.29,7.54,7.54,0,0,0,.88.27,2.87,2.87,0,0,1,1.38.67,1.51,1.51,0,0,1,.46,1.16,1.69,1.69,0,0,1-.34,1.07,2,2,0,0,1-.9.67,3.75,3.75,0,0,1-3.46-.49l.57-.79a3.49,3.49,0,0,0,.77.39,2.86,2.86,0,0,0,.85.12,1.49,1.49,0,0,0,.88-.22.78.78,0,0,0,.32-.68.75.75,0,0,0-.12-.45,1,1,0,0,0-.41-.28,5.62,5.62,0,0,0-.87-.26,3.12,3.12,0,0,1-1.38-.66,1.58,1.58,0,0,1-.43-1.19,1.53,1.53,0,0,1,.64-1.29,2.77,2.77,0,0,1,1.7-.49A3.35,3.35,0,0,1,671.93,244.58Z" fill="#fff"/><path d="M675.6,251.63a2.94,2.94,0,0,1-.78,1.3,1.92,1.92,0,0,1-1.29.41,2.93,2.93,0,0,1-1-.15l.25-.95a2.06,2.06,0,0,0,.53.08.94.94,0,0,0,.68-.24,2.12,2.12,0,0,0,.42-.74l.36-1-2.4-6.22h1.37l1.64,4.85h0l1.5-4.85h1.29Z" fill="#fff"/><path d="M679.23,245.48a11,11,0,0,0-.09-1.39h1.2a5.93,5.93,0,0,1,.1.72h0a2.1,2.1,0,0,1,.83-.65,2.92,2.92,0,0,1,1.24-.24,2.17,2.17,0,0,1,1.73.67,2.42,2.42,0,0,1,.57,1.63v4h-1.26v-3.77a1.75,1.75,0,0,0-.33-1.09,1.27,1.27,0,0,0-1.07-.43,1.58,1.58,0,0,0-1.23.51,1.92,1.92,0,0,0-.45,1.3v3.48h-1.26Z" fill="#fff"/><path d="M689.42,243.92a3.67,3.67,0,0,1,1.1.17,3.62,3.62,0,0,1,1,.49l-.49.88a2.65,2.65,0,0,0-1.56-.49,1.67,1.67,0,0,0-1.39.59,2.5,2.5,0,0,0-.46,1.6,2.59,2.59,0,0,0,.46,1.61,1.61,1.61,0,0,0,1.36.6,3.05,3.05,0,0,0,1.6-.5l.46.89a3.59,3.59,0,0,1-2.15.67,2.92,2.92,0,0,1-1.77-.49,2.7,2.7,0,0,1-.95-1.22,4.27,4.27,0,0,1-.28-1.56,3.7,3.7,0,0,1,.37-1.7,2.66,2.66,0,0,1,1.07-1.13A3.31,3.31,0,0,1,689.42,243.92Z" fill="#fff"/><path d="M692.81,241.76h1.26v3h0a2.38,2.38,0,0,1,2-.88,2.14,2.14,0,0,1,1.73.67,2.42,2.42,0,0,1,.57,1.63v4h-1.26v-3.77a1.75,1.75,0,0,0-.34-1.09,1.26,1.26,0,0,0-1.07-.43,1.55,1.55,0,0,0-1.22.51,1.88,1.88,0,0,0-.46,1.3v3.48h-1.26Z" fill="#fff"/><path d="M700.3,245.48a13.26,13.26,0,0,0-.08-1.39h1.2c.05.34.08.62.09.85h0a1.84,1.84,0,0,1,.71-.75,2.25,2.25,0,0,1,1.17-.27l.36,0-.06,1.09a2.58,2.58,0,0,0-.42,0,1.55,1.55,0,0,0-1.28.55,2.12,2.12,0,0,0-.46,1.41v3.28H700.3Z" fill="#fff"/><path d="M710.56,247.15a3.77,3.77,0,0,1-.38,1.71,2.69,2.69,0,0,1-1.09,1.15,3.3,3.3,0,0,1-1.7.42,3.22,3.22,0,0,1-1.68-.42,2.81,2.81,0,0,1-1.08-1.16,3.58,3.58,0,0,1-.38-1.7,3.67,3.67,0,0,1,.37-1.7,2.65,2.65,0,0,1,1.08-1.12,3.73,3.73,0,0,1,3.4,0,2.62,2.62,0,0,1,1.09,1.12A3.67,3.67,0,0,1,710.56,247.15Zm-5,0a2.74,2.74,0,0,0,.45,1.65,1.6,1.6,0,0,0,1.38.62,1.66,1.66,0,0,0,1.42-.62,2.74,2.74,0,0,0,.45-1.65,2.64,2.64,0,0,0-.45-1.62,1.66,1.66,0,0,0-1.42-.61,1.6,1.6,0,0,0-1.39.61A2.64,2.64,0,0,0,705.56,247.15Z" fill="#fff"/><path d="M712.1,245.48a11,11,0,0,0-.09-1.39h1.2a5.93,5.93,0,0,1,.1.72h0a2.14,2.14,0,0,1,.82-.65,3,3,0,0,1,1.25-.24,2.17,2.17,0,0,1,1.73.67,2.42,2.42,0,0,1,.57,1.63v4h-1.26v-3.77a1.69,1.69,0,0,0-.34-1.09A1.25,1.25,0,0,0,715,245a1.56,1.56,0,0,0-1.23.51,1.92,1.92,0,0,0-.45,1.3v3.48H712.1Z" fill="#fff"/><path d="M719.44,242.06c0-.5.26-.75.79-.75a.74.74,0,0,1,.59.21.86.86,0,0,1,0,1.08.74.74,0,0,1-.59.21.7.7,0,0,1-.79-.75Zm1.42,2v6.17H719.6v-6.17Z" fill="#fff"/><path d="M726.82,244.09V245l-3.08,4.23H727v1h-4.73v-1l3.06-4.21h-2.91v-.95Z" fill="#fff"/><path d="M727.82,248.54a1.73,1.73,0,0,1,.86-1.67,5.37,5.37,0,0,1,2.54-.47h.62v-.33c0-.78-.47-1.17-1.4-1.17a3.58,3.58,0,0,0-1.82.49l-.43-.84a4.66,4.66,0,0,1,1.09-.47,4.72,4.72,0,0,1,1.22-.17,2.71,2.71,0,0,1,2,.62,2.59,2.59,0,0,1,.62,1.89v2.44a13.45,13.45,0,0,0,.09,1.39H732a4.27,4.27,0,0,1-.09-.73h0a2.36,2.36,0,0,1-.84.68,3.17,3.17,0,0,1-1.26.22,2.08,2.08,0,0,1-1.44-.49A1.75,1.75,0,0,1,727.82,248.54Zm4-.62v-.64h-.5a3.92,3.92,0,0,0-1.71.27,1,1,0,0,0-.52.93.89.89,0,0,0,.28.71,1,1,0,0,0,.75.25,1.72,1.72,0,0,0,.9-.22,1.62,1.62,0,0,0,.59-.57A1.37,1.37,0,0,0,731.84,247.92Z" fill="#fff"/><path d="M736.46,244.09H738v1h-1.58v3.42c0,.63.28.94.85.94a1.79,1.79,0,0,0,.57-.09l.18.94a2.86,2.86,0,0,1-1,.17,1.91,1.91,0,0,1-1.37-.48,1.79,1.79,0,0,1-.5-1.37v-3.53h-1.06v-.81l1-.15v-1.45l1.28-.46Z" fill="#fff"/><path d="M739.24,242.06c0-.5.26-.75.79-.75a.74.74,0,0,1,.59.21.86.86,0,0,1,0,1.08.74.74,0,0,1-.59.21.7.7,0,0,1-.79-.75Zm1.42,2v6.17H739.4v-6.17Z" fill="#fff"/><path d="M748.53,247.15a3.77,3.77,0,0,1-.38,1.71,2.75,2.75,0,0,1-1.09,1.15,3.32,3.32,0,0,1-1.7.42,3.22,3.22,0,0,1-1.68-.42,2.83,2.83,0,0,1-1.09-1.16,4,4,0,0,1,0-3.4,2.6,2.6,0,0,1,1.08-1.12,3.33,3.33,0,0,1,1.69-.41,3.43,3.43,0,0,1,1.71.41,2.68,2.68,0,0,1,1.09,1.12A3.8,3.8,0,0,1,748.53,247.15Zm-5,0a2.74,2.74,0,0,0,.45,1.65,1.62,1.62,0,0,0,1.39.62,1.66,1.66,0,0,0,1.42-.62,2.74,2.74,0,0,0,.45-1.65,2.64,2.64,0,0,0-.45-1.62,1.66,1.66,0,0,0-1.42-.61,1.59,1.59,0,0,0-1.39.61A2.64,2.64,0,0,0,743.52,247.15Z" fill="#fff"/><path d="M750.06,245.48a13.26,13.26,0,0,0-.08-1.39h1.2a5.93,5.93,0,0,1,.1.72h0a2.07,2.07,0,0,1,.82-.65,3,3,0,0,1,1.24-.24,2.18,2.18,0,0,1,1.74.67,2.42,2.42,0,0,1,.57,1.63v4h-1.26v-3.77a1.75,1.75,0,0,0-.34-1.09A1.26,1.26,0,0,0,753,245a1.55,1.55,0,0,0-1.22.51,1.88,1.88,0,0,0-.46,1.3v3.48h-1.26Z" fill="#fff"/><path d="M293.52,221.54v1.08h-3.95v2.64H293v1.07h-3.47V230h-1.3v-8.49Z" fill="#fff"/><path d="M300,226.93a3.61,3.61,0,0,1-.38,1.7,2.71,2.71,0,0,1-1.09,1.16,3.37,3.37,0,0,1-1.7.41,3.27,3.27,0,0,1-1.68-.42,2.75,2.75,0,0,1-1.08-1.16,4,4,0,0,1,0-3.39,2.68,2.68,0,0,1,1.08-1.13,3.81,3.81,0,0,1,3.4,0,2.64,2.64,0,0,1,1.09,1.13A3.64,3.64,0,0,1,300,226.93Zm-5,0a2.78,2.78,0,0,0,.45,1.65,1.59,1.59,0,0,0,1.38.61,1.65,1.65,0,0,0,1.42-.61,2.78,2.78,0,0,0,.46-1.65,2.67,2.67,0,0,0-.46-1.63,1.67,1.67,0,0,0-1.42-.61,1.63,1.63,0,0,0-1.39.61A2.74,2.74,0,0,0,295,226.93Z" fill="#fff"/><path d="M301.54,225.26a10.93,10.93,0,0,0-.09-1.39h1.2a6.38,6.38,0,0,1,.1.85h0a2,2,0,0,1,.72-.76,2.36,2.36,0,0,1,1.17-.26l.36,0-.06,1.1a1.76,1.76,0,0,0-.42,0,1.59,1.59,0,0,0-1.29.55,2.18,2.18,0,0,0-.45,1.42V230h-1.26Z" fill="#fff"/><path d="M313.15,224.36l-.54.78a2.73,2.73,0,0,0-1.5-.47,1.47,1.47,0,0,0-.81.19.61.61,0,0,0-.3.54.78.78,0,0,0,.12.46,1.07,1.07,0,0,0,.42.29,7.58,7.58,0,0,0,.89.26,3.07,3.07,0,0,1,1.38.67,1.58,1.58,0,0,1,.45,1.17,1.72,1.72,0,0,1-.33,1.06,2.1,2.1,0,0,1-.9.67,3.32,3.32,0,0,1-1.23.22,3.36,3.36,0,0,1-2.24-.71l.57-.79a2.94,2.94,0,0,0,.77.39,2.57,2.57,0,0,0,.85.13,1.54,1.54,0,0,0,.89-.23.77.77,0,0,0,.31-.67.75.75,0,0,0-.12-.45.91.91,0,0,0-.4-.28,7.54,7.54,0,0,0-.88-.27,3.07,3.07,0,0,1-1.37-.66,1.71,1.71,0,0,1,.2-2.48,2.76,2.76,0,0,1,1.7-.48A3.27,3.27,0,0,1,313.15,224.36Z" fill="#fff"/><path d="M320,227.41h-4.44a2,2,0,0,0,.55,1.31,1.78,1.78,0,0,0,1.32.47,2.75,2.75,0,0,0,.95-.14,4.38,4.38,0,0,0,.87-.43l.56.8a3.82,3.82,0,0,1-1.13.59,4.23,4.23,0,0,1-1.33.19,3.06,3.06,0,0,1-1.65-.41,2.63,2.63,0,0,1-1.05-1.14,3.71,3.71,0,0,1-.37-1.71,3.46,3.46,0,0,1,.77-2.35,2.72,2.72,0,0,1,2.18-.89,2.54,2.54,0,0,1,2.08.87,3.57,3.57,0,0,1,.72,2.33A4.12,4.12,0,0,1,320,227.41Zm-1.2-1a2.15,2.15,0,0,0-.43-1.29,1.4,1.4,0,0,0-1.16-.49,1.46,1.46,0,0,0-1.19.51,2.13,2.13,0,0,0-.47,1.27Z" fill="#fff"/><path d="M321.52,225.26a10.93,10.93,0,0,0-.09-1.39h1.2a6.38,6.38,0,0,1,.1.85h0a2,2,0,0,1,.72-.76,2.36,2.36,0,0,1,1.17-.26l.36,0-.06,1.1a1.76,1.76,0,0,0-.42,0,1.59,1.59,0,0,0-1.29.55,2.18,2.18,0,0,0-.45,1.42V230h-1.26Z" fill="#fff"/><path d="M331.35,223.87,329.07,230h-1.4l-2.32-6.16h1.35l1.68,4.9h0l1.63-4.9Z" fill="#fff"/><path d="M332.19,221.84c0-.51.26-.76.79-.76a.74.74,0,0,1,.59.21.77.77,0,0,1,.19.55.69.69,0,0,1-.78.74.78.78,0,0,1-.61-.21A.79.79,0,0,1,332.19,221.84Zm1.41,2V230h-1.26v-6.16Z" fill="#fff"/><path d="M338.27,223.7a3.38,3.38,0,0,1,1.1.17,3.12,3.12,0,0,1,1,.49l-.49.87a2.68,2.68,0,0,0-1.56-.49,1.67,1.67,0,0,0-1.39.59,2.59,2.59,0,0,0-.46,1.61,2.62,2.62,0,0,0,.46,1.6,1.64,1.64,0,0,0,1.37.61,3,3,0,0,0,1.59-.51l.46.89a3.59,3.59,0,0,1-2.15.67,2.94,2.94,0,0,1-1.76-.48,2.73,2.73,0,0,1-1-1.23,4.26,4.26,0,0,1-.28-1.55,3.71,3.71,0,0,1,.37-1.71,2.73,2.73,0,0,1,1.08-1.13A3.24,3.24,0,0,1,338.27,223.7Z" fill="#fff"/><path d="M346.78,227.41h-4.44a2,2,0,0,0,.55,1.31,1.78,1.78,0,0,0,1.32.47,2.75,2.75,0,0,0,1-.14,4.38,4.38,0,0,0,.87-.43l.55.8a3.66,3.66,0,0,1-1.12.59,4.25,4.25,0,0,1-1.34.19,3.11,3.11,0,0,1-1.65-.41,2.63,2.63,0,0,1-1.05-1.14,3.84,3.84,0,0,1-.36-1.71,3.46,3.46,0,0,1,.77-2.35,2.69,2.69,0,0,1,2.17-.89,2.55,2.55,0,0,1,2.09.87,3.57,3.57,0,0,1,.72,2.33A4.12,4.12,0,0,1,346.78,227.41Zm-1.2-1a2.15,2.15,0,0,0-.43-1.29,1.4,1.4,0,0,0-1.16-.49,1.46,1.46,0,0,0-1.19.51,2.14,2.14,0,0,0-.48,1.27Z" fill="#fff"/><path d="M276,238.1a3.38,3.38,0,0,1,1.1.17,3.12,3.12,0,0,1,1,.49l-.49.87a2.72,2.72,0,0,0-1.56-.49,1.67,1.67,0,0,0-1.39.59,2.53,2.53,0,0,0-.46,1.61,2.55,2.55,0,0,0,.46,1.6,1.62,1.62,0,0,0,1.36.61,3,3,0,0,0,1.6-.51l.46.89a3.59,3.59,0,0,1-2.15.67,3,3,0,0,1-1.77-.48,2.78,2.78,0,0,1-.95-1.23,4.26,4.26,0,0,1-.28-1.55,3.71,3.71,0,0,1,.37-1.71,2.77,2.77,0,0,1,1.07-1.13A3.3,3.3,0,0,1,276,238.1Z" fill="#fff"/><path d="M285.13,241.33a3.73,3.73,0,0,1-.37,1.7,2.8,2.8,0,0,1-1.1,1.16,3.36,3.36,0,0,1-1.69.41,3.29,3.29,0,0,1-1.69-.42A2.75,2.75,0,0,1,279.2,243a3.66,3.66,0,0,1-.38-1.69,3.77,3.77,0,0,1,.37-1.7,2.68,2.68,0,0,1,1.08-1.13,3.37,3.37,0,0,1,1.7-.4,3.43,3.43,0,0,1,1.71.4,2.68,2.68,0,0,1,1.08,1.13A3.64,3.64,0,0,1,285.13,241.33Zm-5,0a2.78,2.78,0,0,0,.45,1.65,1.6,1.6,0,0,0,1.39.61,1.63,1.63,0,0,0,1.41-.61,2.71,2.71,0,0,0,.46-1.65,2.61,2.61,0,0,0-.46-1.63,1.65,1.65,0,0,0-1.41-.61,1.63,1.63,0,0,0-1.4.61A2.74,2.74,0,0,0,280.13,241.33Z" fill="#fff"/><path d="M286.67,239.66a13.1,13.1,0,0,0-.08-1.39h1.19a5.9,5.9,0,0,1,.1.7h0a2.44,2.44,0,0,1,.8-.63,2.6,2.6,0,0,1,1.15-.24,2.39,2.39,0,0,1,1.25.29,1.76,1.76,0,0,1,.75.78h0a2.61,2.61,0,0,1,3.38-.74,1.94,1.94,0,0,1,.76.87,2.79,2.79,0,0,1,.25,1.19v3.94H295v-3.76a1.84,1.84,0,0,0-.31-1.11,1.16,1.16,0,0,0-1-.43,1.38,1.38,0,0,0-1.17.57,2.25,2.25,0,0,0-.42,1.37v3.36h-1.26v-3.84a1.63,1.63,0,0,0-.33-1,1.15,1.15,0,0,0-1-.43,1.41,1.41,0,0,0-1.17.52,2,2,0,0,0-.43,1.3v3.48h-1.26Z" fill="#fff"/><path d="M298.17,239.66a10.93,10.93,0,0,0-.09-1.39h1.2a5.9,5.9,0,0,1,.1.7h0a2.44,2.44,0,0,1,2-.87,2.39,2.39,0,0,1,1.25.29,1.88,1.88,0,0,1,.75.78h0a2.61,2.61,0,0,1,3.38-.74,2,2,0,0,1,.76.87,2.79,2.79,0,0,1,.25,1.19v3.94h-1.26v-3.76a1.92,1.92,0,0,0-.31-1.11,1.16,1.16,0,0,0-1-.43,1.37,1.37,0,0,0-1.17.57,2.2,2.2,0,0,0-.43,1.37v3.36h-1.26v-3.84a1.68,1.68,0,0,0-.32-1,1.17,1.17,0,0,0-1-.43,1.44,1.44,0,0,0-1.17.52,2,2,0,0,0-.42,1.3v3.48h-1.26Z" fill="#fff"/><path d="M309.6,242.05v-3.78h1.27v3.6a2.17,2.17,0,0,0,.33,1.27,1.2,1.2,0,0,0,1.05.47,1.52,1.52,0,0,0,1.23-.58,2.23,2.23,0,0,0,.47-1.45v-3.31h1.25V243a13.87,13.87,0,0,0,.1,1.39h-1.2a5.2,5.2,0,0,1-.1-.78h0a2.3,2.3,0,0,1-2,.95,2.1,2.1,0,0,1-1.74-.71A2.73,2.73,0,0,1,309.6,242.05Z" fill="#fff"/><path d="M317.16,239.66a13.1,13.1,0,0,0-.08-1.39h1.2a5.9,5.9,0,0,1,.09.72h0a2,2,0,0,1,.82-.65,3,3,0,0,1,1.24-.24,2.18,2.18,0,0,1,1.74.66,2.49,2.49,0,0,1,.57,1.63v4H321.5v-3.76a1.78,1.78,0,0,0-.33-1.1,1.29,1.29,0,0,0-1.07-.43,1.52,1.52,0,0,0-1.22.52,1.84,1.84,0,0,0-.46,1.29v3.48h-1.26Z" fill="#fff"/><path d="M324.51,236.24c0-.51.26-.76.79-.76a.74.74,0,0,1,.59.21.77.77,0,0,1,.19.55.69.69,0,0,1-.78.74.68.68,0,0,1-.79-.74Zm1.41,2v6.16h-1.26v-6.16Z" fill="#fff"/><path d="M330.59,238.1a3.38,3.38,0,0,1,1.1.17,3.12,3.12,0,0,1,1,.49l-.49.87a2.68,2.68,0,0,0-1.56-.49,1.68,1.68,0,0,0-1.39.59,2.59,2.59,0,0,0-.46,1.61,2.62,2.62,0,0,0,.46,1.6,1.64,1.64,0,0,0,1.37.61,2.93,2.93,0,0,0,1.59-.51l.46.89a3.59,3.59,0,0,1-2.15.67,2.94,2.94,0,0,1-1.76-.48,2.73,2.73,0,0,1-1-1.23,4.26,4.26,0,0,1-.28-1.55,3.84,3.84,0,0,1,.37-1.71,2.73,2.73,0,0,1,1.08-1.13A3.27,3.27,0,0,1,330.59,238.1Z" fill="#fff"/><path d="M333.49,242.72a1.75,1.75,0,0,1,.87-1.68,5.46,5.46,0,0,1,2.54-.47h.61v-.32c0-.79-.46-1.18-1.39-1.18a3.62,3.62,0,0,0-1.82.49l-.44-.84a4.33,4.33,0,0,1,1.1-.46,4.28,4.28,0,0,1,1.22-.17,2.7,2.7,0,0,1,2,.62,2.57,2.57,0,0,1,.61,1.89V243a11.41,11.41,0,0,0,.1,1.39H337.7a5.26,5.26,0,0,1-.08-.73h0a2.11,2.11,0,0,1-.84.68,3,3,0,0,1-1.25.22,2.13,2.13,0,0,1-1.45-.48A1.8,1.8,0,0,1,333.49,242.72Zm4-.63v-.63H337a3.92,3.92,0,0,0-1.71.27,1,1,0,0,0-.52.93.87.87,0,0,0,.28.7,1.05,1.05,0,0,0,.75.26,1.77,1.77,0,0,0,.9-.23,1.47,1.47,0,0,0,.59-.57A1.35,1.35,0,0,0,337.51,242.09Z" fill="#fff"/><path d="M342.13,238.27h1.59v1h-1.59v3.42c0,.62.29.93.86.93a2.18,2.18,0,0,0,.57-.08l.18.93a2.69,2.69,0,0,1-1,.17,1.88,1.88,0,0,1-1.36-.48,1.78,1.78,0,0,1-.51-1.37v-3.52h-1.05v-.82l1-.14v-1.46l1.27-.45Z" fill="#fff"/><path d="M344.92,236.24c0-.51.26-.76.79-.76a.74.74,0,0,1,.59.21.77.77,0,0,1,.19.55.69.69,0,0,1-.78.74.68.68,0,0,1-.79-.74Zm1.41,2v6.16h-1.26v-6.16Z" fill="#fff"/><path d="M354.2,241.33a3.73,3.73,0,0,1-.37,1.7,2.8,2.8,0,0,1-1.1,1.16,3.36,3.36,0,0,1-1.69.41,3.22,3.22,0,0,1-1.68-.42,2.71,2.71,0,0,1-1.09-1.16,3.66,3.66,0,0,1-.38-1.69,3.77,3.77,0,0,1,.37-1.7,2.68,2.68,0,0,1,1.08-1.13,3.39,3.39,0,0,1,1.7-.4,3.43,3.43,0,0,1,1.71.4,2.68,2.68,0,0,1,1.08,1.13A3.64,3.64,0,0,1,354.2,241.33Zm-5,0a2.78,2.78,0,0,0,.45,1.65,1.6,1.6,0,0,0,1.39.61,1.63,1.63,0,0,0,1.41-.61,2.71,2.71,0,0,0,.46-1.65,2.61,2.61,0,0,0-.46-1.63,1.92,1.92,0,0,0-2.81,0A2.74,2.74,0,0,0,349.2,241.33Z" fill="#fff"/><path d="M355.74,239.66a13.1,13.1,0,0,0-.08-1.39h1.2a4.43,4.43,0,0,1,.09.72h0a2,2,0,0,1,.82-.65,3,3,0,0,1,1.24-.24,2.15,2.15,0,0,1,1.73.66,2.44,2.44,0,0,1,.57,1.63v4h-1.26v-3.76a1.78,1.78,0,0,0-.33-1.1,1.3,1.3,0,0,0-1.07-.43,1.52,1.52,0,0,0-1.22.52A1.84,1.84,0,0,0,357,241v3.48h-1.26Z" fill="#fff"/><path d="M435.18,205.37h36.71a5.64,5.64,0,0,1,5.64,5.43v36.92a5.66,5.66,0,0,1-5.43,5.65H435.18a5.65,5.65,0,0,1-5.64-5.43V211a5.66,5.66,0,0,1,5.43-5.65Zm36.71,2.82H435.18a2.83,2.83,0,0,0-2.82,2.65v36.88a2.83,2.83,0,0,0,2.65,2.82h36.88a2.83,2.83,0,0,0,2.82-2.66V211A2.83,2.83,0,0,0,471.89,208.19Zm-15.47,4.57a1.42,1.42,0,0,1,1.42,1.41V226l11.44-5.32a1.41,1.41,0,0,1,1.19,2.55l-12.63,5.88V230l12.66,6.22a1.41,1.41,0,1,1-1.25,2.53l-11.41-5.61v12.12a1.42,1.42,0,0,1-2.83,0v-31.1A1.41,1.41,0,0,1,456.42,212.76Zm-5.37,25.43a1.4,1.4,0,0,1,1.4,1.28v5.8a1.41,1.41,0,0,1-1.41,1.41,4.25,4.25,0,1,1,0-8.49Zm0-25.48a1.4,1.4,0,0,1,1.4,1.27v5.8a1.41,1.41,0,0,1-1.41,1.41,4.24,4.24,0,1,1,0-8.48Zm-3.77,21.35a7.35,7.35,0,0,0,3.24,2.5,1.3,1.3,0,0,0,.52.1,1.39,1.39,0,0,0,.79-.24,1.43,1.43,0,0,0,.62-1.18l0-11.09a1.4,1.4,0,0,0-1.94-1.3,7.31,7.31,0,0,0-3.1,2.36l-3.12-1.46c0-.14,0-.29,0-.43a4.27,4.27,0,1,0-1.23,3l3.08,1.45a7.32,7.32,0,0,0-.26,1.94,7.73,7.73,0,0,0,.22,1.81L443,233a4.23,4.23,0,1,0,1.25,2.53Z" fill="#fff" fill-rule="evenodd"/><path d="M654.81,87.43V74.18c6.91.14,11,1.35,11,3.29,0,3.21-4.56,9.18-11,10M653.4,71.34A1.41,1.41,0,0,0,652,72.75V98.56a1.39,1.39,0,0,1-2.37,1,1.41,1.41,0,1,0-2,2,4.15,4.15,0,0,0,3,1.25,4.33,4.33,0,0,0,1.64-.33,4.16,4.16,0,0,0,2.6-3.89V90.27c8-.78,13.81-8,13.81-12.8,0-5.49-8.69-6.13-15.22-6.13m-3.53,1.41a1.41,1.41,0,0,0-1.41-1.41c-6.54,0-15.23.64-15.23,6.13,0,5.06,6.54,12.87,15.23,12.87a1.41,1.41,0,0,0,1.41-1.41Zm22.23,32.49a2.83,2.83,0,0,1-2.82,2.83H632.57a2.83,2.83,0,0,1-2.82-2.83V68.54a2.83,2.83,0,0,1,2.82-2.83h36.71a2.83,2.83,0,0,1,2.82,2.83ZM632.57,62.89a5.65,5.65,0,0,0-5.64,5.65v36.7a5.65,5.65,0,0,0,5.64,5.65h36.71a5.66,5.66,0,0,0,5.65-5.65V68.54a5.66,5.66,0,0,0-5.65-5.65Z" fill="#fff" fill-rule="evenodd"/><path d="M393.14,206.17a9.18,9.18,0,0,1,9.18,0h0l13.81,8a6.91,6.91,0,0,1,1.88,10.4,6.91,6.91,0,0,1,0,8.8,6.92,6.92,0,0,1-1.89,10.4h0l-13.81,8a9.24,9.24,0,0,1-9.18,0h0l-13.81-8a6.92,6.92,0,0,1-1.88-10.4,6.94,6.94,0,0,1,0-8.81,6.91,6.91,0,0,1,1.89-10.39h0Zm22.68,29-13.5,7.79a9.18,9.18,0,0,1-9.18,0h0l-13.49-7.79a4,4,0,0,0-.95,2.87,4,4,0,0,0,2,3.3h0l13.81,8a6.39,6.39,0,0,0,6.36,0h0l13.81-8a4,4,0,0,0,2-3.32,4.14,4.14,0,0,0-.95-2.85Zm-30.24,4.72a1.43,1.43,0,0,1,.41,1,1.47,1.47,0,0,1-.41,1,1.5,1.5,0,0,1-1,.41,1.4,1.4,0,0,1-1.41-1.41,1.4,1.4,0,0,1,.41-1A1.46,1.46,0,0,1,385.58,239.84Zm-5.94-13.53a4.12,4.12,0,0,0-.94,2.86,4,4,0,0,0,2,3.32h0l13.81,8a6.39,6.39,0,0,0,6.36,0h0l13.81-8a5.22,5.22,0,0,0,.45-.33l.08-.07a4,4,0,0,0,1.51-2.86,4.05,4.05,0,0,0-.95-2.91h0l-13.49,7.79a9.24,9.24,0,0,1-9.18,0h0Zm2.82,11.53a1.4,1.4,0,0,1,.41,1,1.37,1.37,0,0,1-.41,1,1.44,1.44,0,0,1-1,.42,1.4,1.4,0,0,1-1-.42,1.38,1.38,0,0,1-.42-1,1.41,1.41,0,0,1,.42-1A1.46,1.46,0,0,1,382.46,237.84Zm3.12-6.82a1.44,1.44,0,0,1,.41,1,1.4,1.4,0,0,1-.41,1,1.43,1.43,0,0,1-1,.43,1.41,1.41,0,0,1-1-.43,1.39,1.39,0,0,1-.41-1,1.44,1.44,0,0,1,.41-1A1.47,1.47,0,0,1,385.58,231Zm15.33-22.41a6.39,6.39,0,0,0-6.36,0h0l-13.81,8a4.06,4.06,0,0,0-.52,6.7l.09.07a3.43,3.43,0,0,0,.43.32h0l13.81,8a6.39,6.39,0,0,0,6.36,0h0l13.81-8a4.09,4.09,0,0,0,0-7.09h0ZM382.46,229a1.42,1.42,0,0,1,.41,1,1.37,1.37,0,0,1-.41,1,1.42,1.42,0,0,1-2.41-1,1.47,1.47,0,0,1,.41-1A1.49,1.49,0,0,1,382.46,229Zm3.12-7.45a1.43,1.43,0,0,1,.41,1,1.39,1.39,0,0,1-.41,1,1.43,1.43,0,0,1-1,.43,1.41,1.41,0,0,1-1-.43,1.39,1.39,0,0,1-.41-1,1.41,1.41,0,0,1,.41-1A1.45,1.45,0,0,1,385.58,221.57Zm-3.12-2a1.42,1.42,0,0,1,.41,1,1.34,1.34,0,0,1-.41,1,1.45,1.45,0,0,1-1,.43,1.37,1.37,0,0,1-1-.43,1.35,1.35,0,0,1-.42-1,1.39,1.39,0,0,1,.42-1A1.47,1.47,0,0,1,382.46,219.56Z" fill="#fff" fill-rule="evenodd"/><path d="M588.7,64.65a9.23,9.23,0,0,1,9.18,0h0l13.81,8A6.93,6.93,0,0,1,613.57,83a6.87,6.87,0,0,1,1.56,4.88,6.8,6.8,0,0,1-1.56,3.92,6.93,6.93,0,0,1-1.88,10.4h0l-13.81,8a9.18,9.18,0,0,1-9.18,0h0l-13.82-8A6.92,6.92,0,0,1,573,91.83,6.93,6.93,0,0,1,573,83a6.92,6.92,0,0,1,1.88-10.39h0Zm22.67,29-13.49,7.79a9.18,9.18,0,0,1-9.18,0h0l-13.5-7.79a4.08,4.08,0,0,0-1,2.87,4,4,0,0,0,2,3.3h0l13.82,8a6.37,6.37,0,0,0,6.35,0h0l13.82-8a4.09,4.09,0,0,0,1.09-6.17Zm-30.23,4.71a1.42,1.42,0,1,1-2.42,1,1.42,1.42,0,0,1,2.42-1ZM575.2,84.8A4.1,4.1,0,0,0,576.29,91h0l13.82,8a6.37,6.37,0,0,0,6.35,0h0l13.82-8a3.68,3.68,0,0,0,.44-.34l.09-.06a4,4,0,0,0,1.51-2.87,4.12,4.12,0,0,0-1-2.9h0l-13.49,7.78a9.18,9.18,0,0,1-9.18,0h0ZM578,96.33a1.42,1.42,0,0,1,.41,1,1.39,1.39,0,0,1-.41,1,1.41,1.41,0,0,1-1,.43,1.47,1.47,0,0,1-1.41-1.41,1.4,1.4,0,0,1,.43-1A1.46,1.46,0,0,1,578,96.33Zm3.12-6.82a1.46,1.46,0,0,1,.41,1,1.41,1.41,0,0,1-2.42,1,1.43,1.43,0,0,1-.41-1,1.46,1.46,0,0,1,.41-1A1.48,1.48,0,0,1,581.14,89.51ZM596.46,67.1a6.37,6.37,0,0,0-6.35,0h0l-13.82,8a4.06,4.06,0,0,0-.52,6.69.71.71,0,0,1,.09.07,4.46,4.46,0,0,0,.43.33h0l13.82,8a6.37,6.37,0,0,0,6.35,0h0l13.82-8a4.09,4.09,0,0,0,0-7.09h0ZM578,87.51a1.41,1.41,0,0,1,.41,1,1.39,1.39,0,0,1-.41,1,1.42,1.42,0,0,1-1,.41,1.39,1.39,0,0,1-1-.41,1.43,1.43,0,0,1-.43-1,1.42,1.42,0,0,1,2.42-1Zm3.12-7.46a1.52,1.52,0,0,1,.41,1,1.43,1.43,0,0,1-.41,1,1.39,1.39,0,0,1-2,0,1.43,1.43,0,0,1-.41-1,1.42,1.42,0,0,1,2.42-1Zm-3.12-2a1.41,1.41,0,0,1,.41,1,1.35,1.35,0,0,1-.41,1,1.45,1.45,0,0,1-1,.43,1.47,1.47,0,0,1-1.41-1.42,1.39,1.39,0,0,1,.43-1A1.47,1.47,0,0,1,578,78.05Z" fill="#fff" fill-rule="evenodd"/><path d="M634.12,259.13v-3.44l3-1.71v3.44Zm-10.18-9.3,13.15-7.59v8.08l-3.5-2a1.06,1.06,0,0,0-1.06,0l-5.09,2.94a1,1,0,0,0-.44.58,1.24,1.24,0,0,0-.09.33V258a1.08,1.08,0,0,0,.53.92l3.5,2-7,4ZM608.68,254l3,1.71v3.43l-3-1.71Zm14.21-21.17,3,1.71-3,1.71-3-1.71Zm1.05,5.26,1.83-1.06,1.14-.66v3.43l-3,1.72Zm-5.08-1.72L620,237l1.83,1.06v3.43l-3-1.72Zm4,11.63-3.74-2.15-9.41-5.44,7-4v4a1.06,1.06,0,0,0,.53.92l5.09,2.94a1.05,1.05,0,0,0,1,0l5.09-2.94a1.06,1.06,0,0,0,.53-.92v-4l7,4Zm6.14,6,.85.49,2.12,1.22v3.44l-3-1.71Zm4-.13-3-1.7,3-1.71,3,1.71Zm-20.35,0-3-1.72,3-1.71,3,1.71Zm1.06,1.83,3-1.71v3.43l-3,1.71Zm8.06,9.31-7-4,3.5-2a1.08,1.08,0,0,0,.53-.92v-5.87h0a1.17,1.17,0,0,0-.13-.46.5.5,0,0,0-.08-.12,1.07,1.07,0,0,0-.26-.26s0-.05-.06-.06l-5.09-2.94a1.06,1.06,0,0,0-1.06,0l-3.5,2v-8.08l10.93,6.31,2.22,1.28Zm16.85-25.52-10.18-5.88h0l-5.09-2.93a1,1,0,0,0-1,0l-5.09,2.93h0l-10.18,5.88a1.05,1.05,0,0,0-.53.91h0v11.74h0V258a1.06,1.06,0,0,0,.53.92l5.09,2.94h0l10.16,5.87a1.08,1.08,0,0,0,.53.14,1.13,1.13,0,0,0,.53-.14l10.17-5.87h0l5.09-2.93a1.06,1.06,0,0,0,.53-.92V240.4a1.05,1.05,0,0,0-.53-.91Zm3.14,18.06a4.45,4.45,0,0,1-2.23,3.86l-14.47,8.36a4.46,4.46,0,0,1-4.47,0l-14.47-8.36a4.45,4.45,0,0,1-2.23-3.86V240.83a4.45,4.45,0,0,1,2.23-3.86l14.47-8.36a4.53,4.53,0,0,1,4.47,0L639.59,237a4.45,4.45,0,0,1,2.23,3.86Zm-.82-23-14.47-8.35a7.3,7.3,0,0,0-7.29,0l-14.48,8.35a7.33,7.33,0,0,0-3.64,6.31v16.72a7.32,7.32,0,0,0,3.64,6.31l14.48,8.36a7.33,7.33,0,0,0,7.29,0L641,263.86a7.3,7.3,0,0,0,3.65-6.31V240.83a7.32,7.32,0,0,0-3.65-6.31Z" fill="#fff" fill-rule="evenodd"/><path d="M432.1,87.47a.79.79,0,0,1-.39.68l-4.62,2.67a.78.78,0,0,1-.78,0l-4.62-2.67a.79.79,0,0,1-.39-.68V82.13a.79.79,0,0,1,.39-.67l4.62-2.67a.77.77,0,0,1,.39-.11.79.79,0,0,1,.39.11l4.62,2.67a.79.79,0,0,1,.39.67Zm1-8.46-4.62-2.67a3.61,3.61,0,0,0-3.6,0L420.28,79a3.6,3.6,0,0,0-1.81,3.12v5.34a3.6,3.6,0,0,0,1.81,3.12l4.62,2.67a3.62,3.62,0,0,0,3.6,0l4.62-2.67a3.6,3.6,0,0,0,1.81-3.12V82.13A3.6,3.6,0,0,0,433.12,79ZM445.73,92.8a5.21,5.21,0,0,1-2.58,4.49l-13.86,8a5.21,5.21,0,0,1-5.18,0l-13.86-8a5.22,5.22,0,0,1-2.59-4.49v-16a5.2,5.2,0,0,1,2.59-4.48l13.86-8a5.16,5.16,0,0,1,5.18,0l13.86,8a5.19,5.19,0,0,1,2.58,4.48Zm-1.17-22.93-13.86-8a8,8,0,0,0-8,0l-13.86,8a8,8,0,0,0-4,6.93v16a8,8,0,0,0,4,6.93l13.86,8a8,8,0,0,0,8,0l13.86-8a8,8,0,0,0,4-6.93v-16a8,8,0,0,0-4-6.93Z" fill="#fff" fill-rule="evenodd"/><path d="M432.1,407.73a.79.79,0,0,1-.39.68l-4.62,2.67a.78.78,0,0,1-.78,0l-4.62-2.67a.79.79,0,0,1-.39-.68V402.4a.79.79,0,0,1,.39-.68l4.62-2.67a.76.76,0,0,1,.39-.1.78.78,0,0,1,.39.1l4.62,2.67a.79.79,0,0,1,.39.68Zm1-8.45-4.62-2.67a3.59,3.59,0,0,0-3.6,0l-4.62,2.67a3.59,3.59,0,0,0-1.81,3.12v5.33a3.61,3.61,0,0,0,1.81,3.13l4.62,2.67a3.62,3.62,0,0,0,3.6,0l4.62-2.67a3.61,3.61,0,0,0,1.81-3.13V402.4a3.59,3.59,0,0,0-1.81-3.12Zm12.61,13.79a5.19,5.19,0,0,1-2.58,4.48l-13.86,8a5.16,5.16,0,0,1-5.18,0l-13.86-8a5.2,5.2,0,0,1-2.59-4.48v-16a5.21,5.21,0,0,1,2.59-4.49l13.86-8a5.21,5.21,0,0,1,5.18,0l13.86,8a5.2,5.2,0,0,1,2.58,4.49Zm-1.17-22.93-13.86-8a8,8,0,0,0-8,0l-13.86,8a8,8,0,0,0-4,6.93v16a8,8,0,0,0,4,6.93l13.86,8a8,8,0,0,0,8,0l13.86-8a8,8,0,0,0,4-6.93v-16a8,8,0,0,0-4-6.93Z" fill="#fff" fill-rule="evenodd"/></svg>