<svg xmlns="http://www.w3.org/2000/svg" xmlns:xlink="http://www.w3.org/1999/xlink" width="412" height="350" viewBox="0 0 412 350"><defs><linearGradient id="linear-gradient" x1="202.53" y1="332.23" x2="202.53" y2="246" gradientUnits="userSpaceOnUse"><stop offset="0.26" stop-color="#ff5542"/><stop offset="0.77" stop-color="#ffaa27" stop-opacity="0"/></linearGradient><clipPath id="clip-path"><path d="M191.86,246.19c-3.48,4.9-1,16-6.88,16.84-7.85,1.09-9.84-10.69-9.68-16-17,12.78,9.39,31.37,1.88,47.24-6.42-5.2-9.4-16.35-10.44-24.27-4,13.52-12.71,51.1,15.4,48.12l4.74,3.79c6.11,1.36,13.34,2.4,19.22,4.52,3.13,1.12,9.19,7.12,7.36,4-3-5.08-.87-4.95,2-4.82a13.34,13.34,0,0,0,3.52-.16c7.33-1.74,15.72-.62,22.92-2.82s12.14-9.94,1.09-7.52c.74-5.78,8-8.77,9.2-14.9-6.2,4.14-9.45,5.48-17.58,4.46,7.39-9.53,8.52-18.24,7.28-30-.95,8.63-16.76,15.85-21.63,6.18-2.27-4.52,5.24-21.31,6.26-26.32a7.67,7.67,0,0,1-8.21,3.58c.27-6.23,3.94-10.9,3.66-17.89-.24-5.76-2.94-10.34-3.8-15.85-.32,7.23-1.68,14.58-7.69,19.27,6.57-8.55.31-19.92-2.44-29.05,1.7,13.22-8.75,21.1-16.21,31.56" fill="none"/></clipPath><radialGradient id="radial-gradient" cx="-1546.07" cy="-249.13" r="0.49" gradientTransform="matrix(105.32, 0, 0, -166.26, 163037.76, -41110.59)" gradientUnits="userSpaceOnUse"><stop offset="0" stop-color="#ffaa27"/><stop offset="0.87" stop-color="#ff8a41"/><stop offset="1" stop-color="#ff8942"/><stop offset="1" stop-color="#ff8942"/></radialGradient><clipPath id="clip-path-2"><path d="M193.64,269.33c-2.57,3.61-.73,11.84-5.08,12.44-5.8.81-2.37-12.82-2.25-16.77-12.59,9.44,2,28.11-3.52,39.84-4.74-3.85-13.92-8.33-14.69-14.18-2.95,10-2.41,34,18.36,31.8l3.5,2.81c4.51,1,9.86,1.77,14.21,3.33,2.31.84,6.79,5.27,5.44,3-2.22-3.76-.64-3.66,1.5-3.56a10.29,10.29,0,0,0,2.6-.12c5.42-1.29,11.62-.46,16.94-2.09s9-7.34.81-5.56c.54-4.27,5.91-6.47,6.8-11-4.59,3.06-7,4.05-13,3.3,5.46-7,6.3-13.48,5.38-22.13-.7,6.37-12.38,11.71-16,4.56-1.68-3.34,3.87-15.75,4.63-19.45a5.67,5.67,0,0,1-6.06,2.65c.19-4.61,2.91-8.06,2.7-13.22-.18-4.26-2.18-7.65-2.81-11.72-.23,5.34-1.24,10.77-5.68,14.24,4.85-6.32.22-14.72-1.81-21.47,1.26,9.77-6.46,15.6-12,23.33" fill="url(#linear-gradient)"/></clipPath><linearGradient id="linear-gradient-3" x1="-1546.07" y1="-249.27" x2="-1546.07" y2="-248.74" gradientTransform="matrix(105.32, 0, 0, -166.26, 163037.76, -41110.59)" gradientUnits="userSpaceOnUse"><stop offset="0" stop-color="#ff5542"/><stop offset="0.62" stop-color="#ffaa27" stop-opacity="0"/></linearGradient><clipPath id="clip-path-3"><path d="M191.76,310.26a1.85,1.85,0,0,0-.13-.73h0a2.82,2.82,0,0,0,.14.74" fill="none"/></clipPath><radialGradient id="radial-gradient-2" cx="-451.07" cy="-840.92" r="0.49" gradientTransform="matrix(1.07, 0, 0, -1.07, 674.06, -588.76)" gradientUnits="userSpaceOnUse"><stop offset="0" stop-color="#ec2d00"/><stop offset="0.23" stop-color="#ec2d00"/><stop offset="0.32" stop-color="#ef3d00"/><stop offset="0.5" stop-color="#f76700"/><stop offset="0.66" stop-color="#ff9300"/><stop offset="0.74" stop-color="#ffa200"/><stop offset="0.9" stop-color="#ffc800"/><stop offset="0.96" stop-color="#ffd900"/><stop offset="1" stop-color="#ffd900"/></radialGradient></defs><g id="fire"><g id="flame-big"><g clip-path="url(#clip-path)"><rect x="154.03" y="214.63" width="100.03" height="118.9" fill="url(#radial-gradient)"/></g></g><g id="flame-dark"><path d="M193.64,269.33c-2.57,3.61-.73,11.84-5.08,12.44-5.8.81-2.37-12.82-2.25-16.77-12.59,9.44,2,28.11-3.52,39.84-4.74-3.85-13.92-8.33-14.69-14.18-2.95,10-2.41,34,18.36,31.8l3.5,2.81c4.51,1,9.86,1.77,14.21,3.33,2.31.84,6.79,5.27,5.44,3-2.22-3.76-.64-3.66,1.5-3.56a10.29,10.29,0,0,0,2.6-.12c5.42-1.29,11.62-.46,16.94-2.09s9-7.34.81-5.56c.54-4.27,5.91-6.47,6.8-11-4.59,3.06-7,4.05-13,3.3,5.46-7,6.3-13.48,5.38-22.13-.7,6.37-12.38,11.71-16,4.56-1.68-3.34,3.87-15.75,4.63-19.45a5.67,5.67,0,0,1-6.06,2.65c.19-4.61,2.91-8.06,2.7-13.22-.18-4.26-2.18-7.65-2.81-11.72-.23,5.34-1.24,10.77-5.68,14.24,4.85-6.32.22-14.72-1.81-21.47,1.26,9.77-6.46,15.6-12,23.33" fill="url(#linear-gradient)"/><g clip-path="url(#clip-path-2)"><rect x="165.69" y="246" width="73.93" height="87.87" fill="url(#linear-gradient-3)"/></g></g><path d="M161.35,329.41c3.13,3.2,3.29,2.76,16.51,5.16a29.16,29.16,0,0,0,15.13-.81c3.25-1,6-2.19,9.79-2.21,8-.05,10.47,3.28,9.83-.78a7.48,7.48,0,0,1-.08-1.89c.17-2.08.85-2.18-5.63-4.61-8-3-12.74.74-19.33,1.34s-15.08-1.83-22.11-4.46c0,0-7.24,5.05-4.11,8.26" fill="#5e1b00"/><path d="M169,327c-1.11,1.78.47,4.56-3.45,5s-6.44.22-5.6-4.24.78-8.74,4.21-7.45,6.9,3.37,4.84,6.67" fill="#b34b2f"/><path d="M192.28,333.42a7.64,7.64,0,0,0,.71.34c3.25-1,6-2.19,9.79-2.21,8-.05,10.47,3.28,9.83-.77a7.51,7.51,0,0,1-.08-1.89,7.81,7.81,0,0,1-4.16-.72c-4.22-1.63-7.44-2.62-10.71-1s-9.55,4-5.38,6.21" fill="#3b2314"/><path d="M202,308.58c4.57,5.53,10.47,11.6,16.2,14.26s11.43,1.79,16.65,8.12,3,4.44,1.63,8.11-1.84-.25-8.52-4.05-12.28-1.09-22.09-9.4-10.16-8-11.22-12.16,7.35-4.88,7.35-4.88" fill="#3d210c"/><path d="M202.17,315.13c-1.78.94-1.79,4-5.26,2.51s-5.44-2.9-2.62-6.19,4.82-6.87,7.05-4.16,4.11,6.09.83,7.84" fill="#a55e2f"/><path d="M230.34,325.74c-3.91,4-4.12,3.46-20.67,6.46-8.84,1.61-14.27.44-18.94-1-4.08-1.26-7.57-2.74-12.26-2.77-10.05-.06-13.11,4.11-12.3-1a9.89,9.89,0,0,0,.09-2.36c-.21-2.61-1.07-2.73,7.05-5.77,10.06-3.76,16,.92,24.2,1.66s18.89-2.28,27.69-5.57c0,0,9.05,6.32,5.14,10.33" fill="#5e1b00"/><path d="M179.43,322.75c1.39,2.23-.59,5.72,4.32,6.29s8.06.27,7-5.31-1-10.94-5.28-9.33-8.63,4.22-6,8.35" fill="#b34b2f"/><path d="M216.33,341s-6-.39-11.48-1.33a49.62,49.62,0,0,1-4.86-1c-6-1.68-7.48.55-13.28.55s-13.85-.55-13.85-.55a11.1,11.1,0,0,1,.51-2.31l.32-1.43,2.05-9.08s10.79.78,15.65,1.53,12.53-.06,14.65-1.53,5.92,3,2.24,3.28-5.05,1.37-1,3.13,7.92,1.85,9.66,4.41a3.14,3.14,0,0,1-.62,4.36" fill="#5e1b00"/><path d="M187.57,332.79c-.06.29.72,1.75-1.63,1.23s-4.64-2.26-6.06-5.79.41-5.55,4.26-6.37a16.47,16.47,0,0,1,7.3.18Z" fill="#5e1b00"/><path d="M194.21,329.08c2.35-10.42-9-8.19-10.3-.77s8.34,9.5,10.3.77" fill="#b34b2f"/><path d="M204.85,339.69a49.51,49.51,0,0,1-4.86-1c-6.05-1.67-7.48.56-13.28.56s-13.85-.56-13.85-.56a11.1,11.1,0,0,1,.51-2.31l.32-1.42c.47-.31.7-.43.7-.43,5.29-1.47,7.15-1.19,11.21,0s6.17,4.67,7.84.84-.86-6.07,3-6.07,8.68,5.73,8.68,5.73a9.09,9.09,0,0,1-.24,4.7" fill="#3b2314"/><path d="M191.61,330.77c-.29.16-.59.3-.88.43-4.08-1.27-7.57-2.74-12.26-2.77-10.05-.06-13.11,4.11-12.3-1a10,10,0,0,0,.09-2.37,9.81,9.81,0,0,0,5.21-.89c5.29-2.05,9.31-3.28,13.41-1.2s12,4.95,6.73,7.77" fill="#3b2314"/><path d="M178,332.16c1-3.3-2.12-9.1-3.92-4.8s-3.81,6.55-2.37,10.16,5.42-2.37,6.29-5.36" fill="#b34b2f"/><g clip-path="url(#clip-path-3)"><rect x="191.59" y="309.52" width="0.17" height="0.73" fill="url(#radial-gradient-2)"/></g><path d="M250.11,346.18s-12.31-.82-19.54-2.83-8.95.67-15.89.67-16.56-.67-16.56-.67a13.32,13.32,0,0,1,.6-2.76l.31-1.35L201.56,328s12.9.94,18.72,1.83,15-.07,17.52-1.83,7.09,3.55,2.69,3.92-6,1.64-1.2,3.75,9.48,2.21,11.56,5.27a4.26,4.26,0,0,1,.73,1.71,3.94,3.94,0,0,1-1.47,3.51" fill="#5e1b00"/><path d="M250.11,346.19s-12.31-.82-19.54-2.83-8.95.67-15.89.67-16.56-.67-16.56-.67a13.32,13.32,0,0,1,.6-2.76l.31-1.35a2.74,2.74,0,0,1,1.26.42c6.43-2.59,11.67-2.62,15.39-1.9s6.65,1.65,7.55,0,.5-2.72,3.21-1.59-.28.75,4,.75,3.55-.85,4.79-.46,2.08-.8,4.11,2.18.28,3.72,4,3.72,2.36-.84,4.9,0a11.07,11.07,0,0,0,3.34.3,4,4,0,0,1-1.47,3.52" fill="#3b2314"/><path d="M204.24,335.59c1.16-3.95-2.53-10.89-4.7-5.74S195,337.68,196.71,342s6.49-2.84,7.53-6.42" fill="#b34b2f"/><path id="flame-small_3" data-name="flame-small 3" d="M197.63,269.62c-.13-2.95,1.66-4.93.29-7.71-1.16-2.36-3.23-3.19-2.82-6.71-2.45,2.66-1.35,7.1-3.48,9.51-3,3.43-4.45-1.23-4.8-3.83-1.34,3.33-3.78,11.65.08,14.13l3.2,3.91c.31-2,.31-5,1.78-6.71,2.39,1.31.49,4.4,2.41,6,.74-2.18,3.17-2.49,4.71-4.15a11,11,0,0,0,2.51-6.36,5.5,5.5,0,0,1-3.88,2" fill="#ffb128"/><path id="flame-small-1" d="M215.27,284.19c-1.85,2.23-2.41,6.38-4.45,8.45-3.53,3.59-3.11,1.8-6-1.21-3.75-3.91-9.41-6.93-11-12.45-4.73,6.63.44,19.28-2,27-5.41.23-8.38-.61-11.82-5-1.45,6.6,9.92,20.82,16.59,20.69l2.09-.52c-3.23-.83-2.17-5.52-2-8.29,4.05,2.21,6.51,9.13,12.33,8.21.2-3.95-.11-7.61,1.25-11.35,2.67,4.7,9.22-4.18,9.8-7.34,1.19-6.52-4.87-11.77-4.81-18.23" fill="#ffb128"/><path id="flame-small-2" d="M189.83,305.39c-3.27,2-5.81.54-5.41-3.67-2.82,3.77-2.65,8.58-6.44,11.68l-5.93,2.47c6.61,2.84,11.44.45,17.41-3.35,6.77-4.31,6.2-8.56,6.32-16.23-1.44,2.57-3.26,7.48-5.95,9.1" fill="#ffb128"/></g></svg>
