<svg xmlns="http://www.w3.org/2000/svg" xmlns:xlink="http://www.w3.org/1999/xlink" width="412" height="350" viewBox="0 0 412 350"><defs><clipPath id="clip-path"><path d="M173.26,284.34s0-.06,0-.07,0,0,0,.07" fill="none"/></clipPath><linearGradient id="linear-gradient" x1="-4907.98" y1="-1959.4" x2="-4907.48" y2="-1959.4" gradientTransform="matrix(0, -0.16, -0.16, 0, -136.97, -492.75)" gradientUnits="userSpaceOnUse"><stop offset="0" stop-color="#ec2d00"/><stop offset="0.52" stop-color="#ff9300"/><stop offset="0.62" stop-color="#ff9700"/><stop offset="0.71" stop-color="#ffa200"/><stop offset="0.8" stop-color="#ffb500"/><stop offset="0.89" stop-color="#ffd000"/><stop offset="0.92" stop-color="#ffd900"/><stop offset="1" stop-color="#ffd900"/></linearGradient></defs><g id="fire-embers-g"><g id="embers"><path id="ember-77" d="M197.6,259.2a.63.63,0,1,1-.62-.63.62.62,0,0,1,.62.63" fill="#ffd86c"/><g clip-path="url(#clip-path)"><rect x="173.26" y="284.27" width="0.02" height="0.07" fill="url(#linear-gradient)"/></g><g id="b-group-09"><path id="b-56" d="M235.16,306.81a.78.78,0,1,1-.78-.79.78.78,0,0,1,.78.79" fill="#ffd86c"/><path id="b-49" d="M184.19,318a.81.81,0,1,1-.81-.81.81.81,0,0,1,.81.81" fill="#ffd86c"/><path id="b-46" d="M170.21,317.82a.93.93,0,1,1-.92-.92.93.93,0,0,1,.92.92" fill="#ffd86c"/><path id="b-375" d="M189.26,292.62a1,1,0,1,1-1-1,1,1,0,0,1,1,1" fill="#ffd86c"/><path id="b-35" d="M176.28,297.58a1.16,1.16,0,1,1-1.16-1.16,1.15,1.15,0,0,1,1.16,1.16" fill="#ffd86c"/><path id="b-31" d="M169,289.5a.73.73,0,0,1-.73.73.73.73,0,0,1-.72-.73.72.72,0,0,1,.72-.72.73.73,0,0,1,.73.72" fill="#ffd86c"/><path id="b-29" d="M177.2,285.09a.95.95,0,1,1-.95-.95.94.94,0,0,1,.95.95" fill="#ffd86c"/><path id="b-12" d="M217.36,256.14a.93.93,0,1,1-.92-.92.93.93,0,0,1,.92.92" fill="#ffd86c"/></g><g id="b-group-08"><path id="b-38" d="M187.88,297.58a1.09,1.09,0,1,1-1.09-1.09,1.09,1.09,0,0,1,1.09,1.09" fill="#ffd86c"/><path id="b-30" d="M182,284.47a1.07,1.07,0,1,1-1.07-1.06,1.07,1.07,0,0,1,1.07,1.06" fill="#ffd86c"/></g><g id="b-group-07"><path id="b-41" d="M198.91,301.32a.86.86,0,1,1-.85-.86.86.86,0,0,1,.85.86" fill="#ffd86c"/><path id="b-15" d="M175.59,270.39a.68.68,0,0,1-1.36,0,.68.68,0,0,1,1.36,0" fill="#ffd86c"/><path id="b-10" d="M191.63,261.74a.6.6,0,1,1-.6-.6.6.6,0,0,1,.6.6" fill="#ffd86c"/></g><g id="b-group-06"><path id="b-52" d="M218.69,313.8a.57.57,0,1,1-.57-.57.58.58,0,0,1,.57.57" fill="#ffd86c"/><path id="b-48" d="M177.22,318.3a1,1,0,1,1-1-1,1,1,0,0,1,1,1" fill="#ffd86c"/><path id="b-39" d="M190.76,301.32a.78.78,0,1,1-.78-.78.78.78,0,0,1,.78.78" fill="#ffd86c"/><path id="b-36" d="M181.29,301.79a1.28,1.28,0,1,1-1.28-1.28,1.28,1.28,0,0,1,1.28,1.28" fill="#ffd86c"/><path id="b-33" d="M162.93,297a.69.69,0,1,1-.69-.69.69.69,0,0,1,.69.69" fill="#ffd86c"/><path id="b-24" d="M194.89,277.64a.85.85,0,1,1-.84-.84.85.85,0,0,1,.84.84" fill="#ffd86c"/><path id="b-18" d="M185.55,275.45a.9.9,0,1,1-.9-.89.9.9,0,0,1,.9.89" fill="#ffd86c"/><path id="b-06" d="M172,261a.6.6,0,0,1-.61.6.61.61,0,1,1,.61-.6" fill="#ffd86c"/><path id="b-03" d="M190.64,251a.93.93,0,1,1-.93-.93.93.93,0,0,1,.93.93" fill="#ffd86c"/></g><g id="b-group-05"><path id="b-51" d="M213.68,308.17a.57.57,0,0,1-1.14,0,.57.57,0,0,1,1.14,0" fill="#ffd86c"/><path id="b-23" d="M186.79,280.72a1,1,0,1,1-1-1,1,1,0,0,1,1,1" fill="#ffd86c"/><path id="b-21" d="M214.45,273.65a.56.56,0,1,1-1.12,0,.56.56,0,1,1,1.12,0" fill="#ffd86c"/></g><g id="b-group-04"><path id="b-54" d="M226.21,308.17a.51.51,0,1,1-.51-.51.51.51,0,0,1,.51.51" fill="#ffd86c"/><path id="b-37" d="M186.45,299.34a1.12,1.12,0,1,1-1.11-1.11,1.11,1.11,0,0,1,1.11,1.11" fill="#ffd86c"/><path id="b-05" d="M175.69,258.18a.68.68,0,0,1-.68.68.68.68,0,1,1,.68-.68" fill="#ffd86c"/><path id="b-02" d="M207.49,246.45a.52.52,0,0,1-.52.52.52.52,0,1,1,0-1,.52.52,0,0,1,.52.52" fill="#ffd86c"/></g><g id="b-group-03"><path id="b-45" d="M173.47,313.23a1.07,1.07,0,1,1-1.07-1.07,1.07,1.07,0,0,1,1.07,1.07" fill="#ffd86c"/><path id="b-26" d="M195.81,281a.58.58,0,1,1-.58-.58.58.58,0,0,1,.58.58" fill="#ffd86c"/><path id="b-20" d="M194.68,272.19a.52.52,0,0,1-1,0,.52.52,0,0,1,1,0" fill="#ffd86c"/></g><g id="b-group-02"><path id="b-22" d="M216.16,274.87a.57.57,0,0,1-.56.57.58.58,0,0,1-.57-.57.57.57,0,0,1,.57-.56.56.56,0,0,1,.56.56" fill="#ffd86c"/><path id="b-13" d="M220.67,260.37a.51.51,0,1,1-.51-.51.51.51,0,0,1,.51.51" fill="#ffd86c"/><path id="b-09" d="M197.59,258.93a.93.93,0,1,1-.93-.93.93.93,0,0,1,.93.93" fill="#ffd86c"/><path id="b-04" d="M172.8,254.68a.68.68,0,1,1-.67-.67.67.67,0,0,1,.67.67" fill="#ffd86c"/><path id="b-01" d="M205.72,244.1a.52.52,0,0,1-.52.52.52.52,0,0,1-.53-.52.53.53,0,0,1,.53-.53.52.52,0,0,1,.52.53" fill="#ffd86c"/></g><g id="b-group-01"><path id="b-55" d="M231.65,306.39a.57.57,0,1,1-.56-.56.56.56,0,0,1,.56.56" fill="#ffd86c"/><path id="b-53" d="M220.16,315.5a.59.59,0,0,1-.59.59.6.6,0,0,1-.59-.59.59.59,0,0,1,.59-.59.58.58,0,0,1,.59.59" fill="#ffd86c"/><path id="b-50" d="M193.33,312a.41.41,0,1,1-.41-.41.41.41,0,0,1,.41.41" fill="#ffd86c"/><path id="b-47" d="M168,320.42a.88.88,0,1,1-.88-.88.88.88,0,0,1,.88.88" fill="#ffd86c"/><path id="b-44" d="M232.16,297a.51.51,0,0,1-.51.51.51.51,0,0,1-.51-.51.51.51,0,0,1,.51-.51.5.5,0,0,1,.51.51" fill="#ffd86c"/><path id="b-42" d="M213.33,294.72a1.09,1.09,0,1,1-1.09-1.08,1.08,1.08,0,0,1,1.09,1.08" fill="#ffd86c"/><path id="b-40" d="M197.35,304a1,1,0,1,1-1-1,1,1,0,0,1,1,1" fill="#ffd86c"/><path id="b-34" d="M169.42,300.45a.74.74,0,1,1-.74-.74.74.74,0,0,1,.74.74" fill="#ffd86c"/><path id="b-32" d="M174.37,290.23a.9.9,0,1,1-.9-.9.89.89,0,0,1,.9.9" fill="#ffd86c"/><path id="b-305" d="M161.55,289.3a.63.63,0,0,1-.63.63.63.63,0,1,1,0-1.26.63.63,0,0,1,.63.63" fill="#ffd86c"/><path id="b-28" d="M164.67,282.69a.57.57,0,1,1-.57-.56.56.56,0,0,1,.57.56" fill="#ffd86c"/><path id="b-27" d="M216.44,281a.85.85,0,0,1-1.69,0,.85.85,0,0,1,1.69,0" fill="#ffd86c"/><path id="b-25" d="M196.59,280.23a.56.56,0,1,1-.56-.56.56.56,0,0,1,.56.56" fill="#ffd86c"/><path id="b-19" d="M192.43,273.65a.53.53,0,0,1-.52.52.52.52,0,0,1-.52-.52.52.52,0,0,1,.52-.52.52.52,0,0,1,.52.52" fill="#ffd86c"/><path id="b-17" d="M176.59,278.72a.54.54,0,1,1-.53-.54.53.53,0,0,1,.53.54" fill="#ffd86c"/><path id="b-16" d="M173.45,275.55a.68.68,0,1,1-.68-.68.69.69,0,0,1,.68.68" fill="#ffd86c"/><path id="b-14" d="M196.75,266.74a.52.52,0,1,1-.52-.52.52.52,0,0,1,.52.52" fill="#ffd86c"/><path id="b-11" d="M186.51,264.35a.85.85,0,0,1-.85.85.86.86,0,1,1,.85-.85" fill="#ffd86c"/><path id="b-08" d="M190.27,258.85a.68.68,0,1,1-.68-.68.67.67,0,0,1,.68.68" fill="#ffd86c"/><path id="b-07" d="M187.9,256.14a.9.9,0,1,1-.89-.9.89.89,0,0,1,.89.9" fill="#ffd86c"/></g><path id="ember-32" d="M160.64,270.5a.54.54,0,1,1-1.08,0,.54.54,0,0,1,1.08,0" fill="#ffd86c"/><path id="ember-31" d="M164.75,261.61a.55.55,0,1,1-1.1,0,.55.55,0,1,1,1.1,0" fill="#ffd86c"/><path id="ember-30" d="M161.46,252a.69.69,0,0,1-1.38,0,.69.69,0,0,1,1.38,0" fill="#ffd86c"/><path id="ember-29" d="M187.13,247.29a.84.84,0,1,1-.84-.84.84.84,0,0,1,.84.84" fill="#ffd86c"/><path id="ember-28" d="M170.93,243.57a.85.85,0,1,1-.85-.85.85.85,0,0,1,.85.85" fill="#ffd86c"/><path id="ember-27" d="M213.32,230.55a.54.54,0,0,1-.54.54.55.55,0,1,1,0-1.09.54.54,0,0,1,.54.55" fill="#ffd86c"/><path id="ember-26" d="M182.69,231.82a.92.92,0,1,1-.91-.92.91.91,0,0,1,.91.92" fill="#ffd86c"/><path id="ember-25" d="M164.64,228.11a1.42,1.42,0,1,1-1.42-1.41,1.41,1.41,0,0,1,1.42,1.41" fill="#ffd86c"/><path id="ember-24" d="M206.6,219a.51.51,0,0,1-.51.51.51.51,0,0,1,0-1,.51.51,0,0,1,.51.51" fill="#ffd86c"/><path id="ember-23" d="M204.69,217.88a.53.53,0,1,1-.53-.52.53.53,0,0,1,.53.52" fill="#ffd86c"/><path id="ember-22" d="M186.8,219.67a.92.92,0,1,1-.91-.91.92.92,0,0,1,.91.91" fill="#ffd86c"/><path id="ember-21" d="M156.32,216.7a1,1,0,1,1-1-1,1,1,0,0,1,1,1" fill="#ffd86c"/><path id="ember-20" d="M158.49,213.07a1,1,0,1,1-1-1,1,1,0,0,1,1,1" fill="#ffd86c"/><path id="ember-19" d="M148,214.59a1,1,0,1,1-1-1,1,1,0,0,1,1,1" fill="#ffd86c"/><path id="ember-18" d="M187.74,207.77a1.1,1.1,0,1,1-1.1-1.1,1.1,1.1,0,0,1,1.1,1.1" fill="#ffd86c"/><path id="ember-17" d="M179,208.78a1.47,1.47,0,1,1-1.46-1.47,1.47,1.47,0,0,1,1.46,1.47" fill="#ffd86c"/><path id="ember-16" d="M184.2,201.5a1.09,1.09,0,1,1-1.09-1.1,1.09,1.09,0,0,1,1.09,1.1" fill="#ffd86c"/><path id="ember-15" d="M145.21,197.68a.78.78,0,1,1-.78-.78.78.78,0,0,1,.78.78" fill="#ffd86c"/><path id="ember-14" d="M151,192.62a.62.62,0,1,1-.62-.62.62.62,0,0,1,.62.62" fill="#ffd86c"/><path id="ember-13" d="M149.19,190.07a.65.65,0,1,1-1.3,0,.65.65,0,0,1,1.3,0" fill="#ffd86c"/><path id="ember-12" d="M156,182.37a.5.5,0,1,1-.5-.5.5.5,0,0,1,.5.5" fill="#ffd86c"/><path id="ember-11" d="M162.58,179.65a.6.6,0,1,1-.6-.59.6.6,0,0,1,.6.59" fill="#ffd86c"/><path id="ember-10" d="M150,176.93a.41.41,0,0,1-.41.41.42.42,0,0,1-.41-.41.41.41,0,0,1,.41-.41.41.41,0,0,1,.41.41" fill="#ffd86c"/><path id="ember-09" d="M123.33,176.37a.5.5,0,1,1-.49-.49.49.49,0,0,1,.49.49" fill="#ffd86c"/><path id="ember-08" d="M177.19,165.64a.88.88,0,1,1-.87-.88.88.88,0,0,1,.87.88" fill="#ffd86c"/><g id="ember-07"><path d="M187.88,158.87a1.31,1.31,0,1,1-1.31-1.31,1.31,1.31,0,0,1,1.31,1.31" fill="#ffd86c"/></g><path id="ember-06" d="M157.49,160.19a.24.24,0,1,1-.23-.23.23.23,0,0,1,.23.23" fill="#ffd86c"/><path id="ember-05" d="M143.65,157.21a.38.38,0,0,1-.38.38.38.38,0,0,1,0-.76.38.38,0,0,1,.38.38" fill="#ffd86c"/><path id="ember-04" d="M148.05,152.78a.32.32,0,1,1-.63,0,.32.32,0,1,1,.63,0" fill="#ffd86c"/><path id="ember-03" d="M151.29,145a.49.49,0,0,1-.48.48.48.48,0,0,1-.47-.48.47.47,0,0,1,.47-.47.48.48,0,0,1,.48.47" fill="#ffd86c"/><path id="ember-02" d="M180.45,134a.81.81,0,1,1-.81-.81.8.8,0,0,1,.81.81" fill="#ffd86c"/><path id="ember-01" d="M183.12,129.73a1,1,0,1,1-1-1,1,1,0,0,1,1,1" fill="#ffd86c"/></g></g></svg>
