<svg xmlns="http://www.w3.org/2000/svg" xmlns:xlink="http://www.w3.org/1999/xlink" width="80" height="40" viewBox="0 0 80 40"><defs><clipPath id="a"><path d="M0,0V10H46.67V20H40ZM40,0H20V23.33H0V20Z" fill="none"/></clipPath></defs><path d="M0,0H80V40H0Z" fill="#012169"/><path d="M0,0,40,20M40,0,0,20"/><polygon points="35.53 20 20 12.24 0.89 21.79 0 20 0 17.76 15.53 10 0 2.24 0 0 4.47 0 20 7.76 35.53 0 40 0 40.89 1.79 24.47 10 40 17.76 40 20 35.53 20" fill="#fff"/><g clip-path="url(#a)"><path d="M0,0,40,20M40,0,0,20"/><polygon points="39.4 21.19 20 11.49 0.6 21.19 -0.6 18.81 17.02 10 -0.6 1.19 0.6 -1.19 20 8.51 39.4 -1.19 40.6 1.19 22.98 10 40.6 18.81 39.4 21.19" fill="#e4002b"/></g><path d="M20,0V23.33M0,10H46.67"/><polygon points="23.33 23.33 16.67 23.33 16.67 13.33 0 13.33 0 6.67 16.67 6.67 16.67 0 23.33 0 23.33 6.67 46.67 6.67 46.67 13.33 23.33 13.33 23.33 23.33" fill="#fff"/><path d="M20,0V23.33M0,10H46.67"/><polygon points="22 23.33 18 23.33 18 12 0 12 0 8 18 8 18 0 22 0 22 8 46.67 8 46.67 12 22 12 22 23.33" fill="#e4002b"/><path d="M0,20H40V0H53.33V26.67H0Z" fill="#012169"/><path d="M20,24l1.16,3.6,3.53-1.34L22.6,29.41l3.25,1.93-3.77.32.52,3.75L20,32.67l-2.6,2.74.52-3.75-3.77-.32,3.25-1.93-2.09-3.15,3.53,1.34Z" fill="#fff"/><path d="M60,30.48l.55,1.71,1.68-.64-1,1.5,1.55.92-1.8.16.25,1.78L60,34.6l-1.24,1.31L59,34.13,57.21,34l1.55-.92-1-1.5,1.68.64Z" fill="#fff"/><path d="M50,14.64l.55,1.72,1.68-.64-1,1.5,1.55.92-1.8.15.25,1.78L50,18.77l-1.24,1.3L49,18.29l-1.8-.15,1.55-.92-1-1.5,1.68.64Z" fill="#fff"/><path d="M60,3.81l.55,1.71,1.68-.63-1,1.49,1.55.92L61,7.46l.25,1.78L60,7.94l-1.24,1.3L59,7.46l-1.8-.16,1.55-.92-1-1.49,1.68.63Z" fill="#fff"/><path d="M68.89,12l.55,1.71,1.68-.64-1,1.5,1.54.92-1.79.16.25,1.78L68.89,16.1l-1.24,1.31.25-1.78-1.8-.16,1.55-.92-1-1.5,1.68.64Z" fill="#fff"/><path d="M64,20l.44,1.07,1.15.08-.89.75L65,23l-1-.61L63,23l.28-1.12-.89-.75,1.15-.08Z" fill="#fff"/><g opacity="0.2"><path d="M0,0H80V40H0Z"/></g></svg>