<svg xmlns="http://www.w3.org/2000/svg" width="66.67" height="40" viewBox="0 0 66.67 40"><path d="M0,40H66.67V0H0Z" fill="#5229a3"/><path d="M39.31,9.7h-12a1.5,1.5,0,0,0-1.49,1.5V24.82a1.49,1.49,0,0,0,1.49,1.49h12a1.5,1.5,0,0,0,1.5-1.49V11.2A1.5,1.5,0,0,0,39.31,9.7ZM40,24.82a.67.67,0,0,1-.67.66h-12a.67.67,0,0,1-.66-.66V11.2a.67.67,0,0,1,.66-.67h12a.67.67,0,0,1,.67.67Z" fill="#fff"/><polygon points="29.6 23.82 31.46 22.16 29.6 20.5 29.6 23.82" fill="#fff"/><path d="M36.35,17.09a2.68,2.68,0,0,0-2-.74,10.52,10.52,0,0,0-3.11.56V12.19H29.6V19.4l1.17-.54a10.68,10.68,0,0,1,3.6-.85c.84,0,1,.46,1,.85v5h1.66v-5A2.6,2.6,0,0,0,36.35,17.09Z" fill="#fff"/><path d="M34.16,14.89h1.66a4.78,4.78,0,0,0,1.25-2.7H35.41A6.26,6.26,0,0,1,34.16,14.89Z" fill="#fff"/><path d="M25.86,28h.61v.84h.75V28h.62v2.26h-.62v-.91h-.75v.91h-.61Z" fill="#fff"/><path d="M28.62,28h1.62v.51h-1v.37H30v.47h-.71v.42h1.05v.49H28.62Z" fill="#fff"/><path d="M31,28h.89c.58,0,.93.19.93.74a.62.62,0,0,1-.44.66l.48.86h-.65l-.44-.78h-.17v.78H31Zm.87,1c.25,0,.36-.07.36-.26s-.11-.25-.36-.25h-.27V29Z" fill="#fff"/><path d="M33.42,29.12a1.12,1.12,0,1,1,1.12,1.18A1.08,1.08,0,0,1,33.42,29.12Zm1.62,0c0-.41-.19-.67-.5-.67s-.51.26-.51.67.19.69.51.69S35,29.54,35,29.12Z" fill="#fff"/><path d="M36.33,28h.61v.82l.62-.82h.71l-.76.89.83,1.37h-.69l-.54-.9-.17.2v.7h-.61Z" fill="#fff"/><path d="M38.91,29.35V28h.61v1.35c0,.31.1.46.34.46s.35-.15.35-.46V28h.6v1.36a1,1,0,0,1-1.9,0Z" fill="#fff"/></svg>