<svg xmlns="http://www.w3.org/2000/svg" width="66.67" height="40" viewBox="0 0 66.67 40"><path d="M0,40H66.67V0H0Z" fill="#002a86"/><path d="M24.63,13.87c.17.22.42-.09.61-.15.27-.22.69-.35,1-.69l0-.09h0s-.11,0-.14,0h0c.05-.08.15-.06.19-.1h0a4.21,4.21,0,0,0,1-.66l.44-.37h.08v0a5.68,5.68,0,0,1-1.43,1v.12c.13,0,.25-.11.39-.14a8.28,8.28,0,0,1,.83-.53.15.15,0,0,1,0,.12,1.91,1.91,0,0,1-.28.15l0,0v0h0a.18.18,0,0,0-.1,0v0l0,0c-.08.15-.25.2-.4.28s-.18.11-.28.13l0,0,0,0h0c-.16.51-.72.59-1.09.9h0a.14.14,0,0,0,.09.16h.17a13.61,13.61,0,0,0,1.25-.94.32.32,0,0,1,.18-.06l0,0h0c0,.07-.14.08-.18.13a6,6,0,0,1-1.11.85h0v0h0l.07,0c.46-.06.74-.49,1.1-.7s.63-.53.94-.83c0,0,.06,0,.07.05h0l0,0h0l0,0h0v0a8,8,0,0,0-.78.64c-.22.18-.49.37-.7.56.18.17.39-.08.61-.07a.56.56,0,0,1,.32-.32l0,0a2,2,0,0,0-.22.29.28.28,0,0,0,.31-.13c.43-.3.49-.87.95-1.15.08.2-.21.21-.22.39a1.63,1.63,0,0,0-.28.47l0,0-.15.21a.28.28,0,0,0,.22.11c.23-.21.32-.47.56-.7l0,0h0a.08.08,0,0,1,0,0,.76.76,0,0,0-.24.34c.27.12.34-.26.49-.4a1.93,1.93,0,0,1,.33-.6h0l0,0h0a2.41,2.41,0,0,0-.3.6h0s.06.08.1.1H29l0,0c.07-.09.13-.21.2-.3h0a.27.27,0,0,1,0,.09h0c0,.05-.07.1-.1.14h0l.05,0a.42.42,0,0,0,.3-.26l0,0h0c0,.09-.1.24-.1.3h0a.22.22,0,0,0,.14,0h0s0,0,0-.05h.06l0,0h0a0,0,0,0,1,0,0,.14.14,0,0,1,0,.06l0,0c.11.15.29.11.41.25l.09-.15h0v0h0l0,0a.56.56,0,0,0,0,.08h0c0,.06,0,.08.07.09h0s.07,0,.1,0h0a.17.17,0,0,1,0,.08.33.33,0,0,0,.1.06h.06c.06-.05.09-.15.16-.17h0c0,.11,0,.23,0,.31h.07l.06,0h0v0h0l.05,0h0l.13.07a1.79,1.79,0,0,0,.15-.56.31.31,0,0,0,.09-.13v0h0c-.05-.11-.35-.14-.42-.26h0a5,5,0,0,1-1.11-1h0c-.05-.05,0-.13-.08-.18-.25.4-.72.26-1.1.26a1.26,1.26,0,0,1-.89-.77l0-.13h.06s0,.1,0,.14h0c.07,0,.06.17.13.19h0a2,2,0,0,1,.18-.21c.16.17-.3.29,0,.41l.2-.25.08.07a.61.61,0,0,0-.15.26,1.08,1.08,0,0,1,.18.11,1.34,1.34,0,0,1,.25-.49c.11.12-.09.25-.11.4l-.07.07h0c.29,0,.65.18.81-.23l0,0h0v0a.51.51,0,0,1,0,.09l-.09.07c.26.11.31-.22.49-.34.07.07.06.2.11.3a4.32,4.32,0,0,0,1.48,1.26,1.44,1.44,0,0,0,.24-.48.64.64,0,0,1,.43-.06.82.82,0,0,1,.33.36,2.06,2.06,0,0,1,0,.7.69.69,0,0,0,.54,0c0-.26-.24-.71.11-.88a1.5,1.5,0,0,1,.56,0,1.42,1.42,0,0,0-.18-.86.11.11,0,0,1,0-.12l0,0c.07,0,.19,0,.25-.06h0c.59-.13,1.29-.36,1.5-1h0c0,.63-.75.85-1.22,1a1.63,1.63,0,0,0-.53.16,1,1,0,0,0,.11.33,2.34,2.34,0,0,0,.9-.41c.07,0,.14-.07.18-.11.35-.08.58-.53.94-.53.11,0,.23.19.36.14a.68.68,0,0,0,.72-.23l0,0s.11,0,.17,0a2.38,2.38,0,0,0,.72.42h.11l0,0a3.38,3.38,0,0,0-2-.94c-.84-.21-1.2,1-2,.85-.2,0-.52,0-.62-.21a.71.71,0,0,1-.75.23c-.17-.13-.36-.2-.52-.34-.18.12-.36.3-.61.21-.63-.18-1.09-.84-1.78-.81h0a2.82,2.82,0,0,0-1.55.58c.05.13.14.11.24.08l0,0a.77.77,0,0,0,.25-.11l0,0h0c.06,0,.19,0,.25-.08l0-.05a2.09,2.09,0,0,1,1.37-.15v.1a1.64,1.64,0,0,0-1.33.19,1.44,1.44,0,0,0,1.13.36l.31-.14c.15.61.81.88,1.32,1.07A.85.85,0,0,0,31.6,12c-.12-.14-.34-.14-.43-.31a.67.67,0,0,1,.5.26.44.44,0,0,1-.09.42.14.14,0,0,0,.16,0h0l.72-.58h0a.11.11,0,0,1,.15.07l0,0c.23.3.62.38.86.65l0,0h0a1.12,1.12,0,0,1-.18-.1c-.25-.22-.55-.33-.79-.55-.22.27-.52.36-.77.6a2.58,2.58,0,0,1-1.35-.63,1.48,1.48,0,0,1-.25-.44c-.1,0-.2.09-.3.1a1.56,1.56,0,0,1-1.2-.42c-.29.05-.6.47-.88.11h-.05C26.74,12.16,25.41,12.76,24.63,13.87ZM31,11.65H31c-.07,0-.13-.11-.2-.15a.19.19,0,0,1,0-.08h0a.48.48,0,0,1,.3.23Z" fill="#ffea0f"/><path d="M31.9,11.11H32l0,0h0a.5.5,0,0,0,.21.08h0a.35.35,0,0,0,.06-.09.08.08,0,0,1,.07,0l0,0c0,.06,0,.13,0,.18h0s0,0,0,0h.11c.26.08.39-.12.58-.24,0-.22-.24-.46-.12-.72s.26-.06.44-.11a.25.25,0,0,0,0,.07l0,0a.08.08,0,0,0,.08,0,.33.33,0,0,0-.11-.37.34.34,0,0,0-.33.05l-.07,0h0s-.06-.13-.1-.15h0s-.07,0-.11,0l0,0h-.12a.9.9,0,0,0-.27.06c-.31.09-.34.46-.37.76,0,.12-.11.23-.12.33Zm.73-.92h0c.05,0,.1.05.14.09s-.06.1-.09.13a.16.16,0,0,1-.09-.19Z" fill="#ffea0f"/><path d="M39.43,12.73c-.53-.25-1.07-.7-1.58-1-.32.07-.56-.17-.83-.28h0c-.12,0-.13-.21-.28-.12s0,.19.09.28a8.85,8.85,0,0,0,.91.64c.21.16.45.06.69.15.6.45,1.23.63,1.83,1.06C40.06,13.14,39.67,13,39.43,12.73Z" fill="#ffea0f"/><path d="M35.72,11.5a.21.21,0,0,0-.2-.09.7.7,0,0,0-.28.23,8,8,0,0,1-1.58.84,2.57,2.57,0,0,0,.21.9c.16,0,.25-.1.37-.12C34.77,12.78,35.67,12.28,35.72,11.5Z" fill="#ffea0f"/><path d="M39.1,12.9c-.31-.09-.54-.46-.88-.42a.05.05,0,0,0,0,0c-.27.16-.65-.22-.94-.35,0-.07-.06,0-.09,0l0,0c0,.11.11.29.21.41s.34.2.27.37a1.51,1.51,0,0,1-.58-.65c-.06,0-.1,0-.15,0s-.25.06-.31-.07c-.08,0-.15.13-.28.09-.16-.27-.25.19-.41,0s-.4.13-.33-.13l.22,0c.2.14.23-.15.45-.07s.24-.06.35-.1.07.06.05.12c.18,0,.32,0,.44-.1h0c-.19-.21-.52-.29-.57-.57a1.05,1.05,0,0,1-.76.09,1.69,1.69,0,0,1-.63,1c-.4.34-.74.83-1.28.93-.07.14,0,.32.06.5s.11.09.09.18.09-.11.17-.15.12,0,.18,0,0-.12.07-.16.18,0,.25,0v-.26c.13-.08.1.12.18.14s0-.27.16-.27c0,.13.11.08.18.14s.05-.24.15-.31.06.08.06.14h0l0,0c.08-.24.45-.1.57-.33.16,0,.21.18.3.24.08-.14,0-.37,0-.53h.06a1.29,1.29,0,0,1,.13.53c.18.1.29.32.48.32l0,0c0-.24-.24-.44-.27-.7,0,0,0-.05.08,0,.06.26.26.43.31.71.27.07.45.36.71.46,0,0,0-.06,0-.08a3.14,3.14,0,0,1-.74-1,.1.1,0,0,1,.1,0,2.65,2.65,0,0,0,.68.89,0,0,0,0,0,.08,0l.34.32c.06.05.09-.06.14-.1-.19-.23-.54-.5-.61-.76,0,0,0-.05.07,0a7,7,0,0,0,.82.9c.12,0,.31.12.41,0a.77.77,0,0,1,.46.19s0-.07,0-.11A7.54,7.54,0,0,1,38,12.8v-.07s.06,0,.09-.05c.2.41.64.59.92,1a2.49,2.49,0,0,0,.95.55c.11.1.17,0,.21-.12a12.83,12.83,0,0,0-1.25-.9c0-.05-.11-.12,0-.16.47.29.93.64,1.39,1h.07c.07,0,.07-.12.07-.2a.86.86,0,0,0-.53-.46C39.58,13.18,39.33,13.06,39.1,12.9Z" fill="#ffea0f"/><path d="M31.28,14.65a.71.71,0,0,1,.25-.45c.11.16-.14.31-.16.48a.62.62,0,0,0,.23,0s0-.09,0-.13,0,.12.1.18c.35.18.12-.3.3-.33a.39.39,0,0,1,0,.3h.11a14,14,0,0,0,.19-1.5.55.55,0,0,0-.43-.34c0,.06-.07.1-.11.06a.27.27,0,0,0-.18.19.62.62,0,0,0-.09.27l-.07,0,0,0c-.2.37-.11.79-.29,1.17Z" fill="#ffea0f"/><polygon points="32.34 13.24 32.34 13.24 32.34 13.24 32.34 13.24" fill="#ffea0f"/><path d="M33.24,13H33c-.1,0-.12.16-.13.24.13.5.05,1,.2,1.5l0,0h0c.06,0,.14,0,.21,0l0-.07c0-.1-.09-.24,0-.32l0,0,.06,0a1.22,1.22,0,0,1,.09.46l.58-.15c-.06-.1,0-.26-.1-.37v0h0c-.26-.35-.1-.81-.4-1.14A2.18,2.18,0,0,0,33.24,13Zm.45,1.46h0l0,0,0,0c.08,0,.07.16.09.24h-.07c0-.06-.07-.14-.06-.2Z" fill="#ffea0f"/><path d="M32.36,14c0,.26,0,.53-.08.74.14.07,0,.24.09.33h.15v-.11c0-.06.07-.11.12-.13s0,.16,0,.22.23.14.37.08.1-.08.07-.15a1.73,1.73,0,0,1-.21-1C32.75,14,32.51,14.07,32.36,14Z" fill="#ffea0f"/><path d="M32.08,15.07h.17l0-.24c-.06,0-.09.07-.15.05Z" fill="#ffea0f"/><path d="M40.38,15a1.8,1.8,0,0,0-1.82-.33,2.22,2.22,0,0,0-.73.56l-3,0a2.28,2.28,0,0,1,1.3-.38h0l0,0h0c-.54-.17-.87.16-1.39.17,0,0,0-.07-.06-.1h0c.39-.13.69-.47,1.16-.46a1.24,1.24,0,0,0,.57-.26.49.49,0,0,0-.32,0c-.16.1-.38.33-.55.19.05-.17.28-.2.37-.33h-.08l0,0a5,5,0,0,1-1.39.83,4.88,4.88,0,0,1-1.2.22h0v0a0,0,0,0,1,0,0s0,0,0,0l0,0a.27.27,0,0,1-.08.07h-1a.24.24,0,0,1-.11-.06.19.19,0,0,1,0-.09l-.07-.09a3.51,3.51,0,0,1-.8-.23l-.22-.07c-.15,0-.33-.1-.3-.3h-.05l-.09.08h-.07c-.06-.08-.06-.2-.15-.25l0,0c0,.07,0,.14-.08.19a1.47,1.47,0,0,1-.44-.31.14.14,0,0,0,0,.06.83.83,0,0,1,0,.13c-.18-.07-.17-.29-.4-.28a.39.39,0,0,0,0,.18h0l0,0h0c-.08,0-.17-.14-.27-.16h0l0,0c-.07.08,0,.15-.07.22s-.28-.19-.42-.09c0,.16,0,.27-.08.39a.05.05,0,0,0,.05,0h0c.07,0,.12-.13.18-.16s.16-.11.24-.14a.22.22,0,0,1,.11,0,.2.2,0,0,1,0,.11c0,.06-.1.11-.13.17h0a.2.2,0,0,0,.17,0h0c.08-.06.09-.24.16-.32h0v0h0a.25.25,0,0,1,.19.06h0v0c0,.08-.07.15-.08.2h0l.06,0c.09-.1.14-.22.27-.25s.07.13,0,.18l0,0h0c.2.12.29-.29.54-.12,0,.12,0,.19,0,.26s.25-.17.41-.09h0c.06.06.08.23.15.27h0s.07,0,.13-.06.36.19.55.07.24,0,.39.23l-4.54,0a1.3,1.3,0,0,0-.84-.68,1.6,1.6,0,0,0-1.09.16A2.72,2.72,0,0,0,24,16.44a6.18,6.18,0,0,0-.26,2.71,13.35,13.35,0,0,0,2,5.32,13.19,13.19,0,0,0,3.89,3.8,31.1,31.1,0,0,0,3.05,1.27l0,0h0A11.54,11.54,0,0,0,38,26.49a12.34,12.34,0,0,0,3.11-4.6l0-.13a6.92,6.92,0,0,0,.56-3.57C41.61,17.59,41.3,15.59,40.38,15Zm-.33.17-2.91,2.19,2.47-2.41A2.57,2.57,0,0,1,40.05,15.14Zm-1.37-.21a1.21,1.21,0,0,1,.7-.07l-2.45,2.39L38.56,15l0,0Zm-.78.58H38L36,18.13l.16.13.06-.06,0,0,4-3h0a1.65,1.65,0,0,1,.41.45l-1.05.61-.06-.06a.5.5,0,0,0-.27,0h0c-.07.07-.74.61-1.08.91l-1.86,1.09.07.13,0,0,.09.18.05,0,.06.16.89-.36c0,.08-.08.16-.09.17l.1.05h0a.83.83,0,0,1,.36-.07.37.37,0,0,1,.14.1h-.22a1.21,1.21,0,0,0-.52.22,1.63,1.63,0,0,1-.32.19l-.07,0,.48-.34s-.1-.08-.15-.06h0l-.49.23a1.4,1.4,0,0,0-.26.19v0s-.45-.75-1.08-.77-1.06.73-1.08.77l-1.3-.2L33,19l-.75-.06.37-.12,0,.07.22-.07-1.2-.3-.12.3-.33,0-.06-.52,1.7.48,0-.07.86.29.07-.19h0l.06-.15L31.06,17.5l0-.27,3,1.3,0-.13,0,0,0-.09,0,0,.1-.11,0,0,.16-.13L32,15.46h.36l2.08,2.64.16-.13-2-2.51h.47l1.56,2.47.17-.09v0l.2-.05-.58-2.34H35L35,17.9h.21l-.08-2.42h.33l-.22,2.4.21,0,.22-2.42H36l-.55,2.45.2,0v0l.09,0,1-2.5h.69L35.8,18.07l.17.11,1.74-2.67Zm2.51,2.29.12-.23h.09l-.21.42h.13c.06,0,.07.12.08.14s0,.24,0,.43a.18.18,0,0,1,0,.11s0,0,0,0h0l0,0a.1.1,0,0,1-.06,0h0a.72.72,0,0,0,.12.11c.06.05.08.2.08.58a.44.44,0,0,1-.26.46l-.25-.51.2-.1-.27-.52.27-.14a2.83,2.83,0,0,0-.17-.27c-.1-.14,0-.43,0-.43a.33.33,0,0,0,0-.26.22.22,0,0,1,0-.23h0a.6.6,0,0,1,0-.24v0h0a.53.53,0,0,0-.15-.22l.19.08c.07,0,.06.14.06.29a1.2,1.2,0,0,1,0,.26Zm-.74,3.06.07-.49.16,0s0,.21,0,.28a2.66,2.66,0,0,1-.12.39Zm.12.55-.08.55-.09,0v-.56Zm-.12-1.9.21-.09,0,.26-.1.28,0-.07Zm.19-.58a1.53,1.53,0,0,1,0,.32h-.08l-.06-.31,0-.12a3.64,3.64,0,0,0,0-.43,1.46,1.46,0,0,0-.1-.39,5.57,5.57,0,0,0-.65.15l-.34.14,0-.11s.75-.27.81-.31a.54.54,0,0,1,.19,0l.1-.41s-.12-.12-.12-.17h0a1.43,1.43,0,0,1,.27-.2l-.08.14.15.17a1.14,1.14,0,0,0,0,.4h0a.43.43,0,0,1,.1.53A1.21,1.21,0,0,0,39.86,18.93Zm-.6,1.69.09.14-.07.26-.1,0v-.29Zm0-.18v-.3l.11-.22.1.21-.08.22Zm.09.73.07.16,0,.08h-.17Zm-.1.5.22.07,0,.07-.26.25-.07,0,0-.27Zm.17-2.4a.25.25,0,0,0,0,.27l0,.19H39.3v-.1a.27.27,0,0,0-.06-.19h0v0h0c-.06-.05-.14,0-.18,0h0a.73.73,0,0,1-.2-.1l-.12.05h0c-.06,0-.14-.09-.19-.18a2.15,2.15,0,0,1-.1-.38l-.09,0-.08-.09.36-.29v.14l-.1.12a1.85,1.85,0,0,0,0,.27.31.31,0,0,0,.21.23l.16-.12.12.17.23,0,.09-.22a2,2,0,0,1-.48-.28s0,0,0,0,0-.23.09-.29a.42.42,0,0,1,.13-.11h.09a0,0,0,0,0,0,0,.23.23,0,0,1,0,.11l-.12.26.07.07.24.12.08-.38.11-.05a2,2,0,0,1,0,.22A2.26,2.26,0,0,1,39.4,19.27Zm-1.87-1.09,0-.09-.78.33,1-.55C37.7,17.94,37.61,18.07,37.53,18.18Zm.17-.53-.21.12.38-.22v0Zm2.1-1.11h0l-.06-.07,1-.58a1.28,1.28,0,0,1,.11.2l-1,.49ZM31,18.81l-.24,0-.05-.64.25.07ZM29.34,19l-.47-.07L28.68,18l.64.19Zm-1.71,0h0l.17-.22v-.46l.09,0,0-.09h-.45l-.05.24.14,0-.12.19-.19.05,0-1,.24-.07,0-.15-.53,0,0,1.25h-.45l0-.59.28,0V17.3l-.26,0V17l.21,0v0l1.52.44-.36,0V18l.45.07.22,1-.06,0v0Zm-1.26-1.89v.19l-.48,0v.5h-.16l0-.86.11-.08.3.08,0,0,0,.15Zm-.89,1.7-.21,0,0-.91.12,0Zm-.28-2-.13.28-.8-.19c0-.1,0-.18.07-.29l.06-.17.92.26Zm-.14,2-.18-.17L25,18l0,0Zm5.88-.86-1.39-.47,0-.23,1.41.56Zm.15-.07,2,.8-2-.67Zm-.78.08-.74-.21v0Zm-1.66.06-.07-.34.74.21V18l-.64-.19Zm.94-.05.37.1-.35,0Zm-.28-.29-2.52-.72v-.19l2.53.85Zm-3-.89,0,0-.7-.2-.05-.26.8.26Zm-1.09-.27h.16v0Zm.16-.14-.25.12-.71-.21c0-.1.07-.19.11-.27l.87.29Zm.21,2.21h.1v.09l.39,0,0-.53.21,0v.75h-.72Zm4.7-.15-.47-.14.31,0,0-.16.19.06Zm0,.21v.16H30l-.26.24,0-.6Zm3.32-3,.55,1.34-.84-1.34Zm.23,0h.37l.56,2.29Zm-3,.85a.33.33,0,0,0,0-.19l2.44,1.66-2.44-1.41Zm2,.9-2.62-1.78H31Zm-1.6-1.77h.42l2.1,2.34Zm-.46.61h-.06s0,0,0,0a.42.42,0,0,0,.07.2l-1.55-.89H30l0,0Zm0,.51,0,.38-3.51-1.54,1.55,0v0Zm.1.06,2.51,1.44L31,17Zm5.3-1.14h.29l-.7,1.78Zm-2.2-.43h.1v0a.05.05,0,0,1,0,0,.33.33,0,0,1-.24,0h0l0,0A.39.39,0,0,0,34.06,15.06Zm-.7.08h0l.14-.07h.07v0h0a.11.11,0,0,1-.08,0h-.13Zm-7-.4c.26,0,.49.32.6.51l-1.16-.51a.78.78,0,0,1,.22,0Zm-.89.12.1,0,0,0,5.33,2.32v.26l-1.41-.56v-.16H29.3v.07l-4.17-1.68A1.82,1.82,0,0,1,25.49,14.86Zm-.52.41L29.3,17v.24l-2.73-.92v-.05h-.14l-1.76-.6A2.54,2.54,0,0,1,25,15.27ZM24.23,17l.8.19,0,.29-.74.68.67.77-.87,0A5.37,5.37,0,0,1,24.23,17Zm.44,1.16,0,.16-.1-.11ZM27,21.79h0s0,0,0,0a0,0,0,0,1,0-.06,5.24,5.24,0,0,1,.75-.16.91.91,0,0,1,.26.06l.09,0,.38-.1a7.44,7.44,0,0,1,1.08.07s0,0,0,.05a0,0,0,0,1-.05.05,8.48,8.48,0,0,0-1.05-.07l-.37.1a.22.22,0,0,1-.15,0,.86.86,0,0,0-.23-.05A5.81,5.81,0,0,0,27,21.79Zm.28.43a.4.4,0,0,1-.07.14l0,0h-.06s0-.12,0-.15h0s0,0,0,0h.06Zm3.32,1.12-.15.7-.6,0,.34-1.17,0,.24Zm-.29-1.65a0,0,0,0,1,.05-.05l.22,0a.06.06,0,0,1,.06.05,0,0,0,0,1-.05,0l-.22,0h0A.05.05,0,0,1,30.31,21.69Zm2.89-.08.07,0a.19.19,0,0,1,.1.05.27.27,0,0,1,.27-.11h.08c.2,0,.36,0,.38.25s0,.27,0,.28a0,0,0,0,1,0,.05h0a0,0,0,0,1,0-.05s0-.07,0-.27-.08-.14-.28-.16h-.09c-.17,0-.2.1-.2.12v.26a0,0,0,0,1-.1,0v-.26s0,0-.1-.07l-.08,0a1.42,1.42,0,0,0-.36-.1,0,0,0,0,1,0-.06s0,0,.06,0A2.43,2.43,0,0,1,33.2,21.61Zm-.37-1.29a0,0,0,0,1,.05-.05s0,0,0,0l.11,1a.05.05,0,0,1,0,.05h0a0,0,0,0,1-.05,0ZM34,21.57l0-.9s0-.05.06,0a0,0,0,0,1,0,.05l0,.89a.06.06,0,0,1-.06.05h0A.05.05,0,0,1,34,21.57Zm3.52.79,0,.46s-.12-.21-.26-.26a2,2,0,0,0-.71-.07.88.88,0,0,0-.67.47l-.09,0,.1-.44-2.28.07a1.52,1.52,0,0,1,.38.22,1.85,1.85,0,0,1,.34.5l0,.07h.88a1,1,0,0,0,0,.46,2.14,2.14,0,0,0,.2.33H34a2.42,2.42,0,0,0,.31-.43c0-.12.08-.37.08-.37a.67.67,0,0,1-.1-.19,1.06,1.06,0,0,0-.31-.36h0a3.51,3.51,0,0,0-1-.2l-.17-.1Zm-3.21-.27a0,0,0,0,1,0,.06h0s0,0,0,0a.48.48,0,0,1,.06-.34.22.22,0,0,1,.18-.08c.33,0,.56,0,.58.18l0,.24H35l0-.23c0-.05-.1-.1-.48-.1a.13.13,0,0,0-.1,0A.36.36,0,0,0,34.34,22.09Zm.79-.92,0-.55a.06.06,0,0,1,.06-.05s0,0,0,.06l-.05.55a0,0,0,0,1,0,.05h0A.06.06,0,0,1,35.13,21.17Zm.53.95a.54.54,0,0,1,.12-.35.23.23,0,0,1,.19-.06.05.05,0,1,1,0,.1.16.16,0,0,0-.12,0,.44.44,0,0,0-.09.27,0,0,0,0,1,0,.05h0A0,0,0,0,1,35.66,22.12Zm.4-.73.1-.87a.06.06,0,0,1,.06-.05s0,0,0,.06l-.1.87a.05.05,0,0,1,0,.05h0A0,0,0,0,1,36.06,21.39Zm.55.68a0,0,0,0,1,0,.07h0a.05.05,0,0,1,0,0,.57.57,0,0,1-.06-.25c0-.17.21-.25.35-.28a.06.06,0,0,1,.06,0,.08.08,0,0,1,0,.06c-.08,0-.28.06-.27.16A1,1,0,0,0,36.61,22.07Zm.65-.38.28-.07s.05,0,.06,0,0,.06,0,.06l-.27.07c-.07,0-.14.18-.17.29a.07.07,0,0,1,0,0h0s0,0,0-.06S37.12,21.73,37.26,21.69Zm-.19-.16.27-.8a.05.05,0,0,1,.07,0,0,0,0,0,1,0,.06l-.27.81a.05.05,0,0,1-.05,0h0A.06.06,0,0,1,37.07,21.53Zm0,1.79,0-.17.27,0,0,.12Zm.18.14v.08l-.16,0v-.08Zm-.66.46.08,0v.17h-.15Zm-.18-1.2.21,0,0,.32-.15,0Zm.25.68v0a.19.19,0,0,1,0-.08h0a0,0,0,0,1,0,0h.07a.05.05,0,0,1,0,0h0a.15.15,0,0,1,0,.07v0s0,0,0,.05H36.7Zm.11-.39,0-.36.08.08-.07.29Zm.16.62.1.29-.19.08,0-.34Zm0-.6.12-.26.09.1-.14.19Zm-.65.18,0,.13-.24.08,0-.36ZM36.12,23l.14-.21.12.24,0,.07Zm.21.55,0,.1-.22.15-.07-.2Zm.09.34,0,.21L36.28,24ZM35.57,23l-.06-.18v-.12l.12,0Zm.13.52,0,.14-.09.06v-.2ZM35.08,23l0,.1h-.45l0-.12Zm-.36-.1v-.19l.05-.11.07.11v.17Zm-1.24.32v-.09l.07-.29.15.14-.1.24Zm.11.74-.12,0,0-.24h.09Zm.15-.77h.1l0,.25-.2,0,0-.08Zm-.1.39.24.05-.05.14-.22-.05Zm-.6-.62.1-.15.15,0,0,.32Zm0,.26-.08.14-.17,0,.1-.26Zm.14.57.14.1,0,.14-.22,0Zm.13-.23h0l0,0h.1a0,0,0,0,1,0,0h0Zm-.28-.06v.1l-.15.17-.12-.27Zm3.13,2h0l.2,0a5.27,5.27,0,0,0,.12.59h0a.86.86,0,0,1-.48-.08.46.46,0,0,1-.2-.36h0a.64.64,0,0,0,.3-.13S36.18,25.43,36.19,25.43Zm.53.4a3.7,3.7,0,0,1-.09-.49c0-.06,0-.14,0-.18s.3,0,.41,0a1.83,1.83,0,0,1,.64.32l-.36.07,0,.33a.93.93,0,0,0-.32-.05Zm-.61-.9v.14c0,.21-.22.26-.26.27-.24,0-5.23,0-6,0a.53.53,0,0,1-.45-.14.58.58,0,0,1-.08-.42h0v0a.2.2,0,0,1,.06-.17.47.47,0,0,1,.36-.09h0c.05,0,4.5,0,5.57.05C36.13,24.59,36.12,24.71,36.11,24.93Zm-2.35,3a.11.11,0,0,1,.11.1.11.11,0,0,1-.11.11H33l.51-.78a.11.11,0,0,1,.15,0,.11.11,0,0,1,0,.14l-.31.46Zm-1.38-.72a.11.11,0,0,1-.11-.1.11.11,0,0,1,.11-.11h.77a.11.11,0,0,1,.1.11.11.11,0,0,1-.1.1Zm.38,1.1-.11.18a.09.09,0,0,1-.09.06h-.05a.12.12,0,0,1,0-.14l.11-.19a.1.1,0,0,1,.14,0A.11.11,0,0,1,32.76,28.35Zm-1-.11L32,28a.11.11,0,0,1,.14,0,.1.1,0,0,1,0,.14l-.19.27a.11.11,0,0,1-.09,0l-.05,0A.1.1,0,0,1,31.76,28.24Zm-.21-.41-.17-.42.45,0,0,.17Zm.66-2.29h.1l0,.22Zm.4,0h.13l0,.25Zm.6,2.85-.05.19a.1.1,0,0,1-.1.08h0a.1.1,0,0,1-.07-.12l0-.19a.1.1,0,0,1,.13-.07A.09.09,0,0,1,33.21,28.39Zm.08-2.56.08-.29h.26Zm-3.76-.25v0a.51.51,0,0,0,0,.21s0,.13-.74.2a.22.22,0,0,1-.14,0s0-.2,0-.35,0-.08,0-.12a2.84,2.84,0,0,1,.45-.07.59.59,0,0,1,.42.11Zm1.72-1.29h.37l.63,0Zm-1.78-.23h-.38a.79.79,0,0,1-.08-.22,5.34,5.34,0,0,1,0-.57h.79Zm-.65-1.58a.05.05,0,1,1,.1,0l.21.59a.06.06,0,0,1,0,.06h0a.05.05,0,0,1,0,0Zm-1.32.31.34-.12.09.19-.09,1.06a7.83,7.83,0,0,0-.18-.84h0A1.26,1.26,0,0,1,27.5,22.79Zm.41-.27c0-.08.05-.16.09-.21l0,0s0-.05-.05-.23.06-.18.16-.22a.05.05,0,0,1,0,.1c-.06,0-.12.06-.11.08s.09.26.05.32l0,0a.52.52,0,0,0-.07.12h0a.52.52,0,0,0,.17.06.07.07,0,0,1,0,.06s0,.05,0,.05h0a.56.56,0,0,1-.21-.07A.13.13,0,0,1,27.91,22.52Zm.31.59.41.33V24l-.5-.05Zm.39-1a.7.7,0,0,0-.22,0c-.05,0-.05.14,0,.21a.07.07,0,0,1,0,.06h0s0,0,0,0-.06-.29.1-.33a.65.65,0,0,1,.26,0,0,0,0,0,1,0,.06S28.63,22.1,28.61,22.1Zm9.13,4.18a11.4,11.4,0,0,1-4.93,2.95,27.77,27.77,0,0,1-3-1.23,13.18,13.18,0,0,1-3.79-3.71,8.16,8.16,0,0,1-.62-1l.59,0,.12.17.33-.2,1,0v0c0,.09.08.18.1.24a1.79,1.79,0,0,1,0,.63,1.29,1.29,0,0,0-.35.1h0v0h0a.54.54,0,0,0,.35.11c.18,0,.72,0,1.15,0h.56l-.09.05a.39.39,0,0,0-.11.32.81.81,0,0,0,.06.48H29l-.42.06a.43.43,0,0,0-.09-.31c-.08-.08-.19-.08-.34-.07h-.12a2.5,2.5,0,0,0-.92.3L27,25.3l.56.3-.06.37.9-.11a.4.4,0,0,0,.08.27.32.32,0,0,0,.24.08h.06c.5,0,1-.12.94-.42a.25.25,0,0,1,0-.13.41.41,0,0,0,0-.11h.11l2.07,0,.21.35-.4-.17-.1.16.26.26-.43-.07-.17.36.84.13-.09.6-.77-.07L31,26.32l-.26,0,.17.75-1,0,.28.93h.19l-.16-.65.78.05.08.33-.46-.11,0,.3.83.25.13.42a3.11,3.11,0,0,0,.7.16,11.18,11.18,0,0,0,1.6-.05l-.05-.37a1.82,1.82,0,0,1,.36-.19c.24-.1.49-.75.49-.75L35,27.3l-.29-.12.43-.62h.74v-.18h-.79l-.29.19.19-.31.65-.07V26l-.79,0-.9,1.1-.23,0,0-.59.27.07-.12-.17.22-.07-.11-.1.1-.19-.52-.1.24-.27-.2-.12h2a.67.67,0,0,0,.33.55,1.24,1.24,0,0,0,.47.11.68.68,0,0,0,.44-.15v0H37a.65.65,0,0,1,.35.09l.14.09.05-.49.65-.13L38,25.45a2.72,2.72,0,0,0-.92-.51.72.72,0,0,0-.59.08.47.47,0,0,0-.08.14l-.13,0a.5.5,0,0,0,0-.13v-.13a.42.42,0,0,0-.32-.49h.18c.24,0,1.57.17,1.69.15h.06l0,0h0v0h0l-.39-.14s-.76,0-.82,0h.08a1.18,1.18,0,0,0,.86-.62,1.9,1.9,0,0,0,0-.65l.28,0c.08,0,.32,0,.48,0a.46.46,0,0,0,.36-.13,1.16,1.16,0,0,1,.19-.14l-.57-.05.09-.33,0,.3.19-.06,0-.75-.05,0-.21.23.07,0-.1.07-.12-.21-.24.45h.12l0,.26h-.34s0-.35,0-.67a4.86,4.86,0,0,1,.74-1.61.52.52,0,0,0,.15-.52h0a1.28,1.28,0,0,0-.56-.14c-.19,0-.38.1-.55,0a.87.87,0,0,0-.61.06h0l0,0a.75.75,0,0,1-.61-.05.87.87,0,0,0-.65,0,.53.53,0,0,1-.5-.12.5.5,0,0,0-.51,0h0a.56.56,0,0,1-.46-.06c-.16-.1-.26-.07-.6,0s-.33-.05-.54-.13-.7.09-1,.1-.29,0-.59-.26a.46.46,0,0,0-.28-.1h0a1,1,0,0,0-.4.22v0h0c-.14.16,0,.63.12,1a7,7,0,0,0,.75,1.35l.33.62a.69.69,0,0,0-.14.15,1.48,1.48,0,0,0-.15.81c0,.39.39.55.55.63a1.08,1.08,0,0,0,.51,0l.12.1-2.11-.1.15-.6.13-.28s.06.41.08.48h0v0h0l0,0a.14.14,0,0,0,.09,0h0a1.57,1.57,0,0,0,.05-.56c0-.29,0-1.08,0-1.29a.26.26,0,0,0-.2-.24l-.53,0a.64.64,0,0,0,0-.16h0a.76.76,0,0,0-.3-.14,7.29,7.29,0,0,0-1-.09c-.21,0-.79.11-1.25.09a6.3,6.3,0,0,0-1.24.15l-.31-.25-.17.13-.22,0,.07.29s-.14.67-.17.77v0h0a.49.49,0,0,0,.23.28.83.83,0,0,0,.29.05l.17-.16a.19.19,0,0,0,0,.08.52.52,0,0,0,.06.17,1,1,0,0,0,.32.06h0l.31,0,.05.11-1,0-.08.05-1-.05v0a14.32,14.32,0,0,1-1.25-4l1,0v0l0,0,2.45.05v0l1,.06.17.2,1-.08.14-.15.17.13.32,0,.12-.17.24.14a4.71,4.71,0,0,1,.88-.19l4.71.12-.15.24a.21.21,0,0,0,.17.17c.15,0,2.78,0,2.78,0l-.16.45.07.29-.31.43.3,0-.44.61.28,0-.28.27h.4v1l.2,0v-.34h.28l0,.36h.28v-.53h.15v.55H40l.09-1.51.23.16,0-.41.1,0a1.88,1.88,0,0,1-.24-.57c0-.17,0-.38,0-.38l.18.09.12.21-.08.22.21-.09,0,1.55-.24.32.22-.1,0,.09A11.91,11.91,0,0,1,37.74,26.28Zm-9.33-.81c0,.05,0,.1,0,.14v0l-.66.08,0-.24-.35-.19a2,2,0,0,1,.65-.19h.13a.45.45,0,0,1,.19,0s0,.05,0,.24a.08.08,0,0,0,0,.07A0,0,0,0,0,28.41,25.47Zm3.79-3.26a.06.06,0,0,1,0-.07l.31-.14a.05.05,0,0,1,.07,0,.06.06,0,0,1,0,.07l-.3.13h0A.05.05,0,0,1,32.2,22.21Zm.22.83,0,.05L32.06,23l0-.07Zm0-1.1-.31.14h0a.05.05,0,0,1,0,0,.06.06,0,0,1,0-.07l.31-.13a.06.06,0,0,1,.07,0A.05.05,0,0,1,32.47,21.94Zm0-.15-.3.14h0a.05.05,0,0,1,0,0,.06.06,0,0,1,0-.07l.31-.13a0,0,0,0,1,.07,0A.05.05,0,0,1,32.42,21.79Zm-.08-.18-.31.14h0a.05.05,0,0,1,0,0,.05.05,0,0,1,0-.07l.31-.14a0,0,0,0,1,.06,0S32.36,21.6,32.34,21.61Zm0,1.64L32,23.3v-.12Zm0,.19,0,.08-.29.16-.09-.14Zm.09.2.07.07-.07.17-.17-.07Zm0-.75-.21-.12,0-.1.34.06Zm.17-.64-.31.14h0a.05.05,0,0,1,0,0,.05.05,0,0,1,0-.07l.3-.14a.05.05,0,0,1,.07,0A.06.06,0,0,1,32.63,22.25Zm0-.8h0a.06.06,0,0,1-.06-.05,2.35,2.35,0,0,0-.13-.58l-.36-.91.1,0s.25.65.36.91a2.83,2.83,0,0,1,.14.61A.06.06,0,0,1,32.63,21.45ZM31.56,20s-.09-.08-.14-.06a.39.39,0,0,0-.1.31,3.28,3.28,0,0,0,.25.58s0,.05,0,.07h0l-.05,0a2.79,2.79,0,0,1-.26-.62c0-.12,0-.35.16-.42a.22.22,0,0,1,.25.08c.23.23.33.41.31.55a1.62,1.62,0,0,0,0,.26.05.05,0,0,1-.1,0,1.83,1.83,0,0,1,0-.28C31.85,20.36,31.81,20.23,31.56,20Zm-5,2.05v.12h0v0h0l0,0-.06,0,0,0h0l0,0a.06.06,0,0,1,0,0,.22.22,0,0,1,.14-.09Zm14.26-.38V20.47l.07-.43.28,0v-.14l-.26-.15.28-.16-.21-.2,0-.43.26-.22L41,18.62l-.07-.43.17-.12s-.13-.22-.17-.31-.07-.25-.07-.25l.35-.12a5,5,0,0,0-.64-.48l-.44-.22.82-.42a8.49,8.49,0,0,1,.46,2A6.59,6.59,0,0,1,40.83,21.65Z" fill="#ffea0f"/><path d="M38.33,24a.05.05,0,0,0-.06,0,0,0,0,0,0,0,.06,2.25,2.25,0,0,0,.49.09l.11,0a.05.05,0,0,0,0-.07s0,0-.07,0A1.68,1.68,0,0,1,38.33,24Z" fill="#ffea0f"/><path d="M38.43,23.32a0,0,0,0,0,0,.06s0,0,0,0h0l1-.21s0,0,0-.06a.06.06,0,0,0-.06,0Z" fill="#ffea0f"/><path d="M38.23,23.44a.06.06,0,1,0,0-.11H38a.06.06,0,0,0,0,.11Z" fill="#ffea0f"/><path d="M38.35,23.82s0,0-.06,0l-.53.1s0,0,0,.06a.05.05,0,0,0,.05,0h0l.53-.11A0,0,0,0,0,38.35,23.82Z" fill="#ffea0f"/><path d="M38,23.7a.06.06,0,0,0,.06.05h0l.26,0a0,0,0,0,0,0-.06,0,0,0,0,0,0,0h-.26A.06.06,0,0,0,38,23.7Z" fill="#ffea0f"/><path d="M24.61,19.47h.05a1.16,1.16,0,0,0,.28,0l.08,0L25,19.34s-.2-.15-.3-.13l-.31.09-.11,0,.1.05A1.57,1.57,0,0,0,24.61,19.47Z" fill="#ffea0f"/><path d="M24.8,19.88l-.31.09-.11,0,.1.05a1.08,1.08,0,0,0,.27.09h.05a.78.78,0,0,0,.28-.06l.07,0-.06,0S24.9,19.86,24.8,19.88Z" fill="#ffea0f"/><path d="M26.17,20.22l-.31.09-.11,0,.1.05a1.57,1.57,0,0,0,.27.09h.05a1.29,1.29,0,0,0,.28-.05l.08,0-.07,0S26.27,20.2,26.17,20.22Z" fill="#ffea0f"/><path d="M27.42,19.82l-.06-.05a1.18,1.18,0,0,0-.12-.08l.06,0h.05a1.05,1.05,0,0,0,.28-.05l.08,0-.06-.05s-.2-.15-.3-.13l-.31.09-.1,0,.09.05.07,0h0l-.11,0v0a.58.58,0,0,0-.25-.12h0l-.06-.05a.47.47,0,0,0-.3-.13c-.08,0-.3.08-.31.08l-.06,0c-.06,0-.16-.11-.24-.09s-.31.08-.32.08l-.09,0a.29.29,0,0,0-.19-.06l-.31.08-.11,0,.1.05.13.05-.1,0a.28.28,0,0,0-.22-.08l-.31.09-.11,0,.1,0a1.57,1.57,0,0,0,.27.09h.05a1.28,1.28,0,0,0,.27,0l.19,0h.05a1.19,1.19,0,0,0,.24,0l0,0,.17.06-.23.07-.11,0,.1.05a1.57,1.57,0,0,0,.27.09h.05a.72.72,0,0,0,.28-.06h0l.08,0a1.28,1.28,0,0,0,.27.09h0a1.1,1.1,0,0,0,.28-.06l.08,0-.07-.05s-.19-.15-.29-.13l-.31.09h0l0,0a.57.57,0,0,0-.15-.09l.2-.05.07,0-.06-.05s-.19-.15-.29-.13a2,2,0,0,0-.29.08l0,0-.1-.07.09,0,.07,0-.06,0,0,0h0a1.08,1.08,0,0,0,.27.09h0a.79.79,0,0,0,.29-.06l.06,0,.22.07h0l-.11,0,.1.05a1.57,1.57,0,0,0,.27.09h.07l0,0a1.57,1.57,0,0,0,.27.09h0a.67.67,0,0,0,.28-.06Z" fill="#ffea0f"/><path d="M28.06,19.54h.05a.78.78,0,0,0,.28-.06l.07,0-.06-.05s-.19-.15-.29-.13a2.15,2.15,0,0,0-.31.09l-.11,0,.1.05A1.08,1.08,0,0,0,28.06,19.54Z" fill="#ffea0f"/><path d="M28.29,19.68s-.18-.13-.27-.11l-.31.09-.11,0,.1,0a1.57,1.57,0,0,0,.27.09H28a1.05,1.05,0,0,0,.28,0l0,0a.73.73,0,0,0,.25.09h.05a1.1,1.1,0,0,0,.28-.06v0l0,0s-.19-.15-.29-.13l-.31.08Z" fill="#ffea0f"/><path d="M28,20.18l-.07-.05s-.19-.15-.29-.13l-.31.08-.11,0,.1.05a1.57,1.57,0,0,0,.27.09h.05a1.29,1.29,0,0,0,.28-.05Z" fill="#ffea0f"/><path d="M28.14,20.17l-.31.09-.11,0,.1.05a1.57,1.57,0,0,0,.27.09h.05a1.16,1.16,0,0,0,.28-.05l.08,0-.06-.05S28.24,20.15,28.14,20.17Z" fill="#ffea0f"/><path d="M29,20.11l-.31.09-.11,0,.1.05a1.57,1.57,0,0,0,.27.09h0a1.29,1.29,0,0,0,.28-.05l.08,0-.07-.05S29.09,20.09,29,20.11Z" fill="#ffea0f"/><path d="M26.86,23.67H27l-.25.07-.11,0,.1.05a1.57,1.57,0,0,0,.27.09H27a1.29,1.29,0,0,0,.28-.05l.08,0-.07,0a.52.52,0,0,0-.28-.12l.17,0,.07,0-.06-.05s-.19-.15-.29-.13l-.32.09-.1,0,.1,0A1.08,1.08,0,0,0,26.86,23.67Z" fill="#ffea0f"/><path d="M26.39,23.93c-.08,0-.3.08-.31.08l-.11,0,.1,0a.89.89,0,0,0,.27.1h.05a.9.9,0,0,0,.28-.06l.08,0-.06-.05S26.49,23.9,26.39,23.93Z" fill="#ffea0f"/><path d="M27.18,24.93a.9.9,0,0,0,.28-.06l.08,0-.06-.05s-.2-.15-.3-.13l-.31.09-.11,0,.1,0a1.57,1.57,0,0,0,.27.09Z" fill="#ffea0f"/><polygon points="29.88 24.8 30.08 24.8 30.08 25.28 30.35 25.28 30.35 24.8 30.56 24.8 30.56 24.6 29.88 24.6 29.88 24.8" fill="#ffea0f"/><polygon points="30.98 24.88 30.76 24.88 30.76 24.64 30.58 24.64 30.58 25.24 30.76 25.24 30.76 24.99 30.98 24.99 30.98 25.24 31.16 25.24 31.16 24.64 30.98 24.64 30.98 24.88" fill="#ffea0f"/><polygon points="31.29 25.24 31.79 25.24 31.79 25.12 31.47 25.12 31.47 25 31.76 25 31.76 24.88 31.47 24.88 31.47 24.76 31.79 24.76 31.79 24.64 31.29 24.64 31.29 25.24" fill="#ffea0f"/><path d="M32.64,24.64V25c0,.08,0,.12-.13.12s-.13,0-.13-.12v-.37H32.2V25c0,.17.14.23.31.23s.31-.06.31-.23v-.38Z" fill="#ffea0f"/><polygon points="33.42 25.09 33.41 25.09 33.2 24.64 32.94 24.64 32.94 25.24 33.11 25.24 33.11 24.78 33.11 24.78 33.33 25.24 33.58 25.24 33.58 24.64 33.42 24.64 33.42 25.09" fill="#ffea0f"/><rect x="33.69" y="24.65" width="0.19" height="0.59" fill="#ffea0f"/><path d="M34.32,24.63a.3.3,0,0,0-.34.31c0,.2.12.31.34.31a.29.29,0,0,0,.33-.31A.29.29,0,0,0,34.32,24.63Zm0,.5c-.13,0-.15-.1-.15-.19s0-.19.15-.19.15.1.15.19S34.44,25.13,34.32,25.13Z" fill="#ffea0f"/><polygon points="35.23 25.09 35.22 25.09 35.01 24.64 34.75 24.64 34.75 25.24 34.91 25.24 34.91 24.78 34.92 24.78 35.14 25.24 35.39 25.24 35.39 24.64 35.23 24.64 35.23 25.09" fill="#ffea0f"/><polygon points="22.72 19.48 23.02 19.37 23.3 19.51 23.26 19.2 23.44 18.96 23.17 18.93 23 18.65 22.88 18.93 22.6 18.96 22.79 19.2 22.72 19.48" fill="#ffea0f"/><polygon points="22.72 18.28 23.02 18.17 23.3 18.31 23.25 18 23.44 17.76 23.16 17.73 22.99 17.45 22.87 17.73 22.6 17.76 22.78 18 22.72 18.28" fill="#ffea0f"/><polygon points="22.98 16.9 23.29 16.84 23.55 17 23.55 16.69 23.76 16.48 23.49 16.41 23.35 16.12 23.35 16.11 23.2 16.37 22.92 16.37 23.08 16.64 22.98 16.9" fill="#ffea0f"/><polygon points="23.72 15.6 23.98 15.77 23.98 15.46 24.19 15.24 23.92 15.18 23.78 14.88 23.63 15.14 23.35 15.14 23.51 15.4 23.41 15.67 23.72 15.6" fill="#ffea0f"/><polygon points="23.12 20.52 23.4 20.66 23.35 20.35 23.53 20.11 23.26 20.08 23.08 19.8 22.97 20.08 22.69 20.12 22.88 20.36 22.82 20.63 23.12 20.52" fill="#ffea0f"/><polygon points="23.27 21.76 23.55 21.89 23.5 21.59 23.68 21.34 23.4 21.31 23.23 21.04 23.11 21.32 22.84 21.35 23.03 21.59 22.96 21.87 23.27 21.76" fill="#ffea0f"/><polygon points="23.71 22.89 24 23.01 23.93 22.71 24.1 22.45 23.82 22.44 23.63 22.17 23.54 22.45 23.26 22.5 23.46 22.73 23.41 23.01 23.71 22.89" fill="#ffea0f"/><polygon points="24.33 23.74 24.5 23.49 24.23 23.47 24.03 23.21 23.93 23.49 23.66 23.54 23.86 23.77 23.81 24.05 24.11 23.93 24.39 24.04 24.33 23.74" fill="#ffea0f"/><polygon points="24.95 24.82 25.11 24.57 24.84 24.55 24.65 24.29 24.55 24.57 24.28 24.62 24.48 24.85 24.43 25.13 24.73 25.01 25.01 25.12 24.95 24.82" fill="#ffea0f"/><polygon points="25.78 25.6 25.51 25.58 25.32 25.32 25.22 25.6 24.95 25.65 25.15 25.88 25.1 26.15 25.39 26.04 25.68 26.15 25.62 25.85 25.78 25.6" fill="#ffea0f"/><polygon points="26.15 26.96 26.43 27.08 26.37 26.77 26.54 26.52 26.27 26.51 26.07 26.24 25.98 26.52 25.7 26.57 25.9 26.8 25.85 27.08 26.15 26.96" fill="#ffea0f"/><polygon points="27.21 27.38 27.02 27.12 26.92 27.4 26.64 27.45 26.85 27.68 26.79 27.95 27.09 27.84 27.38 27.95 27.32 27.65 27.48 27.4 27.21 27.38" fill="#ffea0f"/><polygon points="28.52 28.1 28.25 28.06 28.08 27.78 27.96 28.05 27.68 28.08 27.86 28.33 27.79 28.6 28.09 28.5 28.37 28.65 28.33 28.34 28.52 28.1" fill="#ffea0f"/><polygon points="29.2 28.75 29.03 28.48 28.91 28.75 28.63 28.77 28.81 29.02 28.74 29.29 29.05 29.2 29.32 29.34 29.28 29.03 29.47 28.79 29.2 28.75" fill="#ffea0f"/><polygon points="30.28 29.37 30.11 29.09 30.11 29.09 29.99 29.36 29.71 29.39 29.89 29.64 29.82 29.91 30.13 29.82 30.4 29.96 30.36 29.65 30.55 29.41 30.28 29.37" fill="#ffea0f"/><polygon points="31.57 29.75 31.4 29.47 31.4 29.47 31.28 29.74 31 29.77 31.18 30.02 31.11 30.29 31.41 30.19 31.69 30.33 31.65 30.03 31.84 29.79 31.57 29.75" fill="#ffea0f"/><polygon points="32.73 30.43 33.01 30.57 32.97 30.27 33.16 30.03 32.89 29.99 32.72 29.71 32.72 29.71 32.6 29.98 32.32 30.01 32.5 30.26 32.43 30.53 32.73 30.43" fill="#ffea0f"/><rect x="25.99" y="32.48" width="1.12" height="3.95" fill="#ffea0f"/><path d="M30.73,34.49v0c.43-.07.56-.41.56-.9,0-.81-.54-1-1.25-1s-1.29.23-1.29,1c0,.52.17.82.65.89v0a1,1,0,0,0-.92,1.05c0,.81.77,1.1,1.46,1.1s1.66-.07,1.66-1A1,1,0,0,0,30.73,34.49ZM30,33.16a.48.48,0,0,1,.53.49.53.53,0,1,1-.53-.49Zm0,2.73a.53.53,0,0,1-.6-.54c0-.37.27-.53.6-.53s.61.16.61.53S30.38,35.89,30,35.89Z" fill="#ffea0f"/><path d="M34.17,34c-.41,0-.45-.07-.48,0l.14-.61,1.37,0v-.74H33l-.38,2,.61.24c0-.21.53-.28.72-.3s.35.25.35.61-.13.44-.52.44a1.53,1.53,0,0,1-.72-.27l-.34.82a2,2,0,0,0,1.23.34,1.29,1.29,0,0,0,1.44-1.4A1.13,1.13,0,0,0,34.17,34Z" fill="#ffea0f"/><path d="M38.06,32.54a1.24,1.24,0,0,0-1.39,1.37,1.23,1.23,0,0,0,1,1.31c.35,0,.67.07.89-.21a.68.68,0,0,1-.58.72c-.12,0-.22.13-.32.08s-.5,0-.51-.11l-.31.79a2.31,2.31,0,0,0,1.12.13,1.79,1.79,0,0,0,1.18-.51,2.27,2.27,0,0,0,.48-1.37C39.66,33.55,39.21,32.51,38.06,32.54Zm0,1.91a.55.55,0,0,1-.61-.59.61.61,0,0,1,1.22,0A.59.59,0,0,1,38,34.45Z" fill="#ffea0f"/><path d="M11.05,6.2a1,1,0,0,1,.64.3L12.26,6s-.18-.25-.31-.41-.39-.26-1.16-.33c-.51,0-1.21.82-.9,1.38.19.36,1,1.16,1,1.6a.34.34,0,0,1-.33.44l-.85-.36L9.3,9.1a3.19,3.19,0,0,0,1.59.49,1.08,1.08,0,0,0,1-1,1.6,1.6,0,0,0-.82-1.51C10.41,6.6,10.74,6.22,11.05,6.2Z" fill="#ffea0f"/><polygon points="15.45 5.32 12.8 5.53 12.8 6.48 13.72 6.4 13.75 9.41 14.7 9.31 14.67 6.33 15.5 6.17 15.45 5.32" fill="#ffea0f"/><path d="M17,5.12l-.87,4.11.95,0,.23-.65,1.05-.1.21.44.85-.18L18.2,5Zm.36,2.7.34-1.62.51,1.49Z" fill="#ffea0f"/><polygon points="19.51 5.61 20.56 5.48 20.61 8.61 21.75 8.43 21.72 5.35 22.47 5.12 22.47 4.22 19.51 4.73 19.51 5.61" fill="#ffea0f"/><polygon points="25.89 7.66 25.84 6.84 24.4 6.99 24.42 6.33 25.06 6.2 25.04 5.45 24.47 5.48 24.42 4.68 25.94 4.4 25.86 3.57 23.32 4.06 23.42 8.02 25.89 7.66" fill="#ffea0f"/><path d="M30.21,7.64c.87,0,1.57-1.19,1.52-2.22s-.44-2.1-1.67-2a1.58,1.58,0,0,0-1.63,1.85C28.58,7.12,29.33,7.64,30.21,7.64Zm-.13-3.5h.05c.72,0,.72.82.72,1.28s-.1,1.26-.82,1.24-.69-.8-.77-1.34A1.09,1.09,0,0,1,30.08,4.14Z" fill="#ffea0f"/><polygon points="33.32 5.76 33.78 5.76 33.76 4.99 33.3 4.96 33.3 4.17 34.45 4.19 34.43 3.47 32.34 3.42 32.32 7.48 33.32 7.48 33.32 5.76" fill="#ffea0f"/><path d="M38.49,8c.87,0,1.61-1.12,1.6-2.15s-.36-2.13-1.59-2.13h0a1.57,1.57,0,0,0-1.65,1.79C36.88,7.43,37.61,8,38.49,8Zm0-3.5h0c.72,0,.69.85.67,1.31s-.15,1.26-.87,1.2-.66-.82-.72-1.36A1.1,1.1,0,0,1,38.49,4.51Z" fill="#ffea0f"/><path d="M43.38,6A1.73,1.73,0,0,0,42.3,4.32,3.74,3.74,0,0,0,40.92,4h-.14l-.1,4.32.82.15,0-1L43,8.84l.15-.9L42.4,7.2S43.4,6.66,43.38,6Zm-1,.26c-.1.31-.9.36-.9.36l0-1.49a1.46,1.46,0,0,1,.26,0,1.14,1.14,0,0,1,.46.09C42.61,5.37,42.5,6,42.4,6.3Z" fill="#ffea0f"/><polygon points="44.33 4.86 44.07 8.85 46.21 9.31 46.26 8.43 45.13 8.07 45.15 7.43 45.74 7.43 45.77 6.58 45.23 6.48 45.23 5.79 46.26 5.91 46.31 5.14 44.33 4.86 44.33 4.86" fill="#ffea0f"/><polygon points="49.78 6.51 49.78 6.5 49.78 6.5 49.78 6.51" fill="#ffea0f"/><path d="M48.91,5.76A1.88,1.88,0,0,0,47.52,6a2.25,2.25,0,0,0-.8,1.62,2.45,2.45,0,0,0,.64,2.1,1.69,1.69,0,0,0,2.09,0c.35-.27.31-1.77.31-1.77l-1.39-.08,0,.85.47,0s.18.46-.57.36c-.43-.06-.57-.52-.67-1a1.28,1.28,0,0,1,.54-1.49.72.72,0,0,1,1,.31l.62-.47A4.1,4.1,0,0,0,48.91,5.76Z" fill="#ffea0f"/><path d="M52,6.14A1.59,1.59,0,0,0,50.38,8c.15,1.9.9,2.41,1.78,2.41s1.56-1.18,1.51-2.21S53.23,6.09,52,6.14Zm0,3.3c-.72,0-.69-.8-.77-1.34A1.1,1.1,0,0,1,52,6.92h0c.72,0,.72.82.72,1.28S52.69,9.46,52,9.44Z" fill="#ffea0f"/><polygon points="57.24 6.04 56.34 6.12 56.44 8.23 54.95 6.27 54.31 6.3 54.31 6.3 54.36 10.29 55.23 10.26 55.26 8.56 56.39 10.11 57.37 10.11 57.24 6.04" fill="#ffea0f"/><polygon points="42.38 18.76 42.38 18.75 42.21 19.03 41.94 19.06 42.12 19.31 42.07 19.61 42.35 19.48 42.66 19.58 42.59 19.31 42.78 19.06 42.5 19.03 42.38 18.76" fill="#ffea0f"/><polygon points="42.39 17.56 42.39 17.56 42.21 17.83 41.94 17.86 42.12 18.11 42.08 18.41 42.36 18.28 42.66 18.38 42.59 18.11 42.78 17.86 42.5 17.83 42.39 17.56" fill="#ffea0f"/><polygon points="42.17 16.48 42.03 16.22 41.89 16.51 41.62 16.58 41.83 16.8 41.83 17.11 42.09 16.94 42.4 17 42.3 16.74 42.45 16.48 42.17 16.48" fill="#ffea0f"/><polygon points="41.74 15.24 41.59 14.99 41.45 15.28 41.19 15.35 41.4 15.56 41.39 15.87 41.65 15.71 41.97 15.77 41.87 15.51 42.02 15.24 41.74 15.24" fill="#ffea0f"/><polygon points="42.41 20.18 42.3 19.91 42.12 20.18 41.85 20.21 42.03 20.45 41.98 20.76 42.26 20.63 42.56 20.73 42.5 20.46 42.69 20.22 42.41 20.18" fill="#ffea0f"/><polygon points="42.26 21.42 42.15 21.14 41.97 21.41 41.7 21.44 41.88 21.69 41.83 22 42.11 21.86 42.41 21.97 42.35 21.7 42.54 21.46 42.26 21.42" fill="#ffea0f"/><polygon points="41.84 22.56 41.74 22.28 41.55 22.54 41.28 22.56 41.45 22.81 41.38 23.11 41.67 22.99 41.97 23.11 41.91 22.84 42.12 22.61 41.84 22.56" fill="#ffea0f"/><polygon points="41.44 23.59 41.34 23.31 41.15 23.57 40.88 23.59 41.05 23.84 40.98 24.15 41.27 24.03 41.57 24.15 41.52 23.87 41.72 23.64 41.44 23.59" fill="#ffea0f"/><polygon points="40.83 24.67 40.73 24.39 40.53 24.65 40.26 24.67 40.43 24.92 40.37 25.23 40.65 25.11 40.95 25.23 40.9 24.95 41.1 24.72 40.83 24.67" fill="#ffea0f"/><polygon points="40.16 25.7 40.06 25.42 39.87 25.68 39.59 25.7 39.76 25.95 39.7 26.26 39.98 26.14 40.28 26.26 40.23 25.98 40.43 25.75 40.16 25.7" fill="#ffea0f"/><polygon points="39.3 26.35 39.11 26.61 38.84 26.63 39.01 26.88 38.94 27.18 39.23 27.06 39.53 27.18 39.47 26.91 39.68 26.68 39.4 26.63 39.3 26.35" fill="#ffea0f"/><polygon points="38.46 27.5 38.36 27.22 38.17 27.48 37.9 27.5 38.06 27.75 38 28.06 38.29 27.94 38.58 28.06 38.53 27.78 38.73 27.55 38.46 27.5" fill="#ffea0f"/><polygon points="37.42 28.16 37.3 27.89 37.13 28.16 36.86 28.2 37.04 28.44 37.01 28.75 37.28 28.61 37.59 28.7 37.51 28.43 37.7 28.19 37.42 28.16" fill="#ffea0f"/><polygon points="36.75 28.88 36.47 28.85 36.34 28.58 36.34 28.58 36.18 28.86 35.91 28.9 36.09 29.14 36.05 29.44 36.33 29.3 36.64 29.39 36.56 29.12 36.75 28.88" fill="#ffea0f"/><polygon points="35.39 29.47 35.27 29.2 35.27 29.2 35.1 29.48 34.83 29.51 35.01 29.75 34.98 30.06 35.25 29.92 35.56 30.01 35.48 29.74 35.67 29.5 35.39 29.47" fill="#ffea0f"/><polygon points="34.1 29.84 33.98 29.57 33.81 29.85 33.54 29.89 33.73 30.13 33.69 30.44 33.97 30.29 34.27 30.39 34.2 30.12 34.38 29.87 34.1 29.84" fill="#ffea0f"/><g opacity="0.2"><path d="M0,40H66.67V0H0Z"/></g></svg>