<svg xmlns="http://www.w3.org/2000/svg" width="79.98" height="40" viewBox="0 0 79.98 40"><title>flag-us</title><rect width="79.98" height="40" fill="#b22234"/><path d="M0,4.62H80m0,6.15H0m0,6.15H80m0,6.16H0m0,6.15H80m0,6.15H0"/><path d="M80,36.92H0V33.85H80Zm0-6.15H0V27.69H80Zm0-6.15H0V21.54H80Zm0-6.16H0V15.38H80Zm0-6.15H0V9.23H80Zm0-6.16H0V3.08H80Z" fill="#fff"/><rect width="30.4" height="21.54" fill="#3c3b6e"/><polygon points="2.53 0.92 2.26 1.77 1.36 1.77 2.09 2.3 1.81 3.15 2.53 2.62 3.26 3.15 2.98 2.3 3.7 1.77 2.81 1.77 2.53 0.92" fill="#fff"/><polygon points="2.53 5.23 2.26 6.08 1.36 6.08 2.09 6.61 1.81 7.46 2.53 6.93 3.26 7.46 2.98 6.61 3.7 6.08 2.81 6.08 2.53 5.23" fill="#fff"/><polygon points="2.53 9.54 2.26 10.39 1.36 10.39 2.09 10.91 1.81 11.77 2.53 11.24 3.26 11.77 2.98 10.91 3.7 10.39 2.81 10.39 2.53 9.54" fill="#fff"/><polygon points="2.53 13.85 2.26 14.7 1.36 14.7 2.09 15.22 1.81 16.07 2.53 15.55 3.26 16.07 2.98 15.22 3.7 14.7 2.81 14.7 2.53 13.85" fill="#fff"/><polygon points="2.81 19 2.53 18.15 2.26 19 1.36 19 2.09 19.53 1.81 20.38 2.53 19.86 3.26 20.38 2.98 19.53 3.7 19 2.81 19" fill="#fff"/><polygon points="5.07 3.08 4.79 3.93 3.9 3.93 4.62 4.45 4.34 5.3 5.07 4.78 5.79 5.3 5.51 4.45 6.24 3.93 5.34 3.93 5.07 3.08" fill="#fff"/><polygon points="5.07 7.38 4.79 8.23 3.9 8.23 4.62 8.76 4.34 9.61 5.07 9.09 5.79 9.61 5.51 8.76 6.24 8.23 5.34 8.23 5.07 7.38" fill="#fff"/><polygon points="5.07 11.69 4.79 12.54 3.9 12.54 4.62 13.07 4.34 13.92 5.07 13.39 5.79 13.92 5.51 13.07 6.24 12.54 5.34 12.54 5.07 11.69" fill="#fff"/><polygon points="5.34 16.85 5.07 16 4.79 16.85 3.9 16.85 4.62 17.38 4.34 18.23 5.07 17.7 5.79 18.23 5.51 17.38 6.24 16.85 5.34 16.85" fill="#fff"/><polygon points="7.6 0.92 7.32 1.77 6.43 1.77 7.15 2.3 6.88 3.15 7.6 2.62 8.32 3.15 8.05 2.3 8.77 1.77 7.88 1.77 7.6 0.92" fill="#fff"/><polygon points="7.6 5.23 7.32 6.08 6.43 6.08 7.15 6.61 6.88 7.46 7.6 6.93 8.32 7.46 8.05 6.61 8.77 6.08 7.88 6.08 7.6 5.23" fill="#fff"/><polygon points="7.6 9.54 7.32 10.39 6.43 10.39 7.15 10.91 6.88 11.77 7.6 11.24 8.32 11.77 8.05 10.91 8.77 10.39 7.88 10.39 7.6 9.54" fill="#fff"/><polygon points="7.6 13.85 7.32 14.7 6.43 14.7 7.15 15.22 6.88 16.07 7.6 15.55 8.32 16.07 8.05 15.22 8.77 14.7 7.88 14.7 7.6 13.85" fill="#fff"/><polygon points="7.88 19 7.6 18.15 7.32 19 6.43 19 7.15 19.53 6.88 20.38 7.6 19.86 8.32 20.38 8.05 19.53 8.77 19 7.88 19" fill="#fff"/><polygon points="10.13 3.08 9.86 3.93 8.96 3.93 9.69 4.45 9.41 5.3 10.13 4.78 10.86 5.3 10.58 4.45 11.3 3.93 10.41 3.93 10.13 3.08" fill="#fff"/><polygon points="10.13 7.38 9.86 8.23 8.96 8.23 9.69 8.76 9.41 9.61 10.13 9.09 10.86 9.61 10.58 8.76 11.3 8.23 10.41 8.23 10.13 7.38" fill="#fff"/><polygon points="10.13 11.69 9.86 12.54 8.96 12.54 9.69 13.07 9.41 13.92 10.13 13.39 10.86 13.92 10.58 13.07 11.3 12.54 10.41 12.54 10.13 11.69" fill="#fff"/><polygon points="10.41 16.85 10.13 16 9.86 16.85 8.96 16.85 9.69 17.38 9.41 18.23 10.13 17.7 10.86 18.23 10.58 17.38 11.3 16.85 10.41 16.85" fill="#fff"/><polygon points="12.67 0.92 12.39 1.77 11.5 1.77 12.22 2.3 11.94 3.15 12.67 2.62 13.39 3.15 13.11 2.3 13.84 1.77 12.94 1.77 12.67 0.92" fill="#fff"/><polygon points="12.67 5.23 12.39 6.08 11.5 6.08 12.22 6.61 11.94 7.46 12.67 6.93 13.39 7.46 13.11 6.61 13.84 6.08 12.94 6.08 12.67 5.23" fill="#fff"/><polygon points="12.67 9.54 12.39 10.39 11.5 10.39 12.22 10.91 11.94 11.77 12.67 11.24 13.39 11.77 13.11 10.91 13.84 10.39 12.94 10.39 12.67 9.54" fill="#fff"/><polygon points="12.67 13.85 12.39 14.7 11.5 14.7 12.22 15.22 11.94 16.07 12.67 15.55 13.39 16.07 13.11 15.22 13.84 14.7 12.94 14.7 12.67 13.85" fill="#fff"/><polygon points="12.94 19 12.67 18.15 12.39 19 11.5 19 12.22 19.53 11.94 20.38 12.67 19.86 13.39 20.38 13.11 19.53 13.84 19 12.94 19" fill="#fff"/><polygon points="15.2 3.08 14.92 3.93 14.03 3.93 14.75 4.45 14.48 5.3 15.2 4.78 15.92 5.3 15.65 4.45 16.37 3.93 15.48 3.93 15.2 3.08" fill="#fff"/><polygon points="15.2 7.38 14.92 8.23 14.03 8.23 14.75 8.76 14.48 9.61 15.2 9.09 15.92 9.61 15.65 8.76 16.37 8.23 15.48 8.23 15.2 7.38" fill="#fff"/><polygon points="15.2 11.69 14.92 12.54 14.03 12.54 14.75 13.07 14.48 13.92 15.2 13.39 15.92 13.92 15.65 13.07 16.37 12.54 15.48 12.54 15.2 11.69" fill="#fff"/><polygon points="15.48 16.85 15.2 16 14.92 16.85 14.03 16.85 14.75 17.38 14.48 18.23 15.2 17.7 15.92 18.23 15.65 17.38 16.37 16.85 15.48 16.85" fill="#fff"/><polygon points="17.73 0.92 17.46 1.77 16.56 1.77 17.29 2.3 17.01 3.15 17.73 2.62 18.46 3.15 18.18 2.3 18.9 1.77 18.01 1.77 17.73 0.92" fill="#fff"/><polygon points="17.73 5.23 17.46 6.08 16.56 6.08 17.29 6.61 17.01 7.46 17.73 6.93 18.46 7.46 18.18 6.61 18.9 6.08 18.01 6.08 17.73 5.23" fill="#fff"/><polygon points="17.73 9.54 17.46 10.39 16.56 10.39 17.29 10.91 17.01 11.77 17.73 11.24 18.46 11.77 18.18 10.91 18.9 10.39 18.01 10.39 17.73 9.54" fill="#fff"/><polygon points="17.73 13.85 17.46 14.7 16.56 14.7 17.29 15.22 17.01 16.07 17.73 15.55 18.46 16.07 18.18 15.22 18.9 14.7 18.01 14.7 17.73 13.85" fill="#fff"/><polygon points="18.01 19 17.73 18.15 17.46 19 16.56 19 17.29 19.53 17.01 20.38 17.73 19.86 18.46 20.38 18.18 19.53 18.9 19 18.01 19" fill="#fff"/><polygon points="20.27 3.08 19.99 3.93 19.1 3.93 19.82 4.45 19.54 5.3 20.27 4.78 20.99 5.3 20.71 4.45 21.44 3.93 20.54 3.93 20.27 3.08" fill="#fff"/><polygon points="20.27 7.38 19.99 8.23 19.1 8.23 19.82 8.76 19.54 9.61 20.27 9.09 20.99 9.61 20.71 8.76 21.44 8.23 20.54 8.23 20.27 7.38" fill="#fff"/><polygon points="20.27 11.69 19.99 12.54 19.1 12.54 19.82 13.07 19.54 13.92 20.27 13.39 20.99 13.92 20.71 13.07 21.44 12.54 20.54 12.54 20.27 11.69" fill="#fff"/><polygon points="20.54 16.85 20.27 16 19.99 16.85 19.1 16.85 19.82 17.38 19.54 18.23 20.27 17.7 20.99 18.23 20.71 17.38 21.44 16.85 20.54 16.85" fill="#fff"/><polygon points="22.8 0.92 22.52 1.77 21.63 1.77 22.35 2.3 22.08 3.15 22.8 2.62 23.52 3.15 23.25 2.3 23.97 1.77 23.08 1.77 22.8 0.92" fill="#fff"/><polygon points="22.8 5.23 22.52 6.08 21.63 6.08 22.35 6.61 22.08 7.46 22.8 6.93 23.52 7.46 23.25 6.61 23.97 6.08 23.08 6.08 22.8 5.23" fill="#fff"/><polygon points="22.8 9.54 22.52 10.39 21.63 10.39 22.35 10.91 22.08 11.77 22.8 11.24 23.52 11.77 23.25 10.91 23.97 10.39 23.08 10.39 22.8 9.54" fill="#fff"/><polygon points="22.8 13.85 22.52 14.7 21.63 14.7 22.35 15.22 22.08 16.07 22.8 15.55 23.52 16.07 23.25 15.22 23.97 14.7 23.08 14.7 22.8 13.85" fill="#fff"/><polygon points="23.08 19 22.8 18.15 22.52 19 21.63 19 22.35 19.53 22.08 20.38 22.8 19.86 23.52 20.38 23.25 19.53 23.97 19 23.08 19" fill="#fff"/><polygon points="25.33 3.08 25.06 3.93 24.16 3.93 24.89 4.45 24.61 5.3 25.33 4.78 26.06 5.3 25.78 4.45 26.5 3.93 25.61 3.93 25.33 3.08" fill="#fff"/><polygon points="25.33 7.38 25.06 8.23 24.16 8.23 24.89 8.76 24.61 9.61 25.33 9.09 26.06 9.61 25.78 8.76 26.5 8.23 25.61 8.23 25.33 7.38" fill="#fff"/><polygon points="25.33 11.69 25.06 12.54 24.16 12.54 24.89 13.07 24.61 13.92 25.33 13.39 26.06 13.92 25.78 13.07 26.5 12.54 25.61 12.54 25.33 11.69" fill="#fff"/><polygon points="25.61 16.85 25.33 16 25.06 16.85 24.16 16.85 24.89 17.38 24.61 18.23 25.33 17.7 26.06 18.23 25.78 17.38 26.5 16.85 25.61 16.85" fill="#fff"/><polygon points="27.42 2.3 27.14 3.15 27.87 2.62 28.59 3.15 28.31 2.3 29.04 1.77 28.14 1.77 27.87 0.92 27.59 1.77 26.7 1.77 27.42 2.3" fill="#fff"/><polygon points="27.87 5.23 27.59 6.08 26.7 6.08 27.42 6.61 27.14 7.46 27.87 6.93 28.59 7.46 28.31 6.61 29.04 6.08 28.14 6.08 27.87 5.23" fill="#fff"/><polygon points="27.87 9.54 27.59 10.39 26.7 10.39 27.42 10.91 27.14 11.77 27.87 11.24 28.59 11.77 28.31 10.91 29.04 10.39 28.14 10.39 27.87 9.54" fill="#fff"/><polygon points="27.87 13.85 27.59 14.7 26.7 14.7 27.42 15.22 27.14 16.07 27.87 15.55 28.59 16.07 28.31 15.22 29.04 14.7 28.14 14.7 27.87 13.85" fill="#fff"/><polygon points="28.14 19 27.87 18.15 27.59 19 26.7 19 27.42 19.53 27.14 20.38 27.87 19.86 28.59 20.38 28.31 19.53 29.04 19 28.14 19" fill="#fff"/><rect width="79.98" height="40" opacity="0.2"/></svg>