<svg xmlns="http://www.w3.org/2000/svg" xmlns:xlink="http://www.w3.org/1999/xlink" width="2597.65" height="269.78" viewBox="0 0 2597.65 269.78"><defs><linearGradient id="linear-gradient" y1="147.62" x2="2597.65" y2="147.62" gradientUnits="userSpaceOnUse"><stop offset="0" stop-color="#1c2e3f"/><stop offset="1" stop-color="#294661"/></linearGradient><linearGradient id="linear-gradient-2" x1="1216.64" y1="96.36" x2="1334.74" y2="86.16" xlink:href="#linear-gradient"/><linearGradient id="linear-gradient-3" x1="2571.5" y1="135.55" x2="2329.31" y2="135.55" gradientUnits="userSpaceOnUse"><stop offset="0" stop-color="#457297"/><stop offset="1" stop-color="#294661"/></linearGradient><linearGradient id="linear-gradient-4" x1="1850.07" y1="92.73" x2="1962.39" y2="92.73" xlink:href="#linear-gradient"/><linearGradient id="linear-gradient-5" x1="1560.4" y1="175.49" x2="1560.4" y2="85.51" gradientUnits="userSpaceOnUse"><stop offset="0" stop-color="#294661"/><stop offset="1" stop-color="#457297"/></linearGradient><linearGradient id="linear-gradient-6" x1="1835.72" y1="93.24" x2="1833.98" y2="139.58" gradientUnits="userSpaceOnUse"><stop offset="0" stop-color="#82945a"/><stop offset="1" stop-color="#71735e"/></linearGradient><linearGradient id="linear-gradient-7" x1="2017.04" y1="72.6" x2="2026.79" y2="129.93" xlink:href="#linear-gradient-6"/><linearGradient id="linear-gradient-8" x1="1140.92" y1="172.88" x2="1172.02" y2="34.42" xlink:href="#linear-gradient-3"/><linearGradient id="linear-gradient-9" x1="1389" y1="166.33" x2="1348.79" y2="-15.8" xlink:href="#linear-gradient"/><linearGradient id="linear-gradient-10" x1="1508.83" y1="210" x2="1486.89" y2="69.09" xlink:href="#linear-gradient-3"/><linearGradient id="linear-gradient-11" x1="2096.1" y1="133.89" x2="2082.01" y2="28.81" xlink:href="#linear-gradient-3"/><linearGradient id="linear-gradient-12" x1="2584.64" y1="56.43" x2="2432.89" y2="76.99" xlink:href="#linear-gradient-3"/><linearGradient id="linear-gradient-13" x1="423.94" y1="82.05" x2="604.74" y2="82.05" xlink:href="#linear-gradient"/><linearGradient id="linear-gradient-14" x1="1650.48" y1="161.24" x2="1763.61" y2="53.03" xlink:href="#linear-gradient-3"/><linearGradient id="linear-gradient-15" x1="1758.33" y1="163.04" x2="1742.86" y2="85.71" xlink:href="#linear-gradient-3"/><linearGradient id="linear-gradient-16" x1="2431.8" y1="117.51" x2="2597.65" y2="117.51" xlink:href="#linear-gradient-3"/><linearGradient id="linear-gradient-17" x1="667.47" y1="184.47" x2="839.2" y2="184.47" xlink:href="#linear-gradient-5"/><linearGradient id="linear-gradient-18" x1="141.55" y1="155.82" x2="125.67" y2="4.96" xlink:href="#linear-gradient-3"/><linearGradient id="linear-gradient-19" x1="272.78" y1="60.31" x2="334.09" y2="60.31" xlink:href="#linear-gradient-3"/><linearGradient id="linear-gradient-20" x1="74.06" y1="56.06" x2="128.94" y2="56.06" xlink:href="#linear-gradient-5"/><linearGradient id="linear-gradient-21" x1="896.54" y1="89.85" x2="990.38" y2="117.87" gradientUnits="userSpaceOnUse"><stop offset="0" stop-color="#81a15c"/><stop offset="1" stop-color="#71735e"/></linearGradient><linearGradient id="linear-gradient-22" x1="554.46" y1="93.4" x2="727.07" y2="93.4" xlink:href="#linear-gradient"/><linearGradient id="linear-gradient-23" x1="877.97" y1="198.27" x2="885.67" y2="82.23" xlink:href="#linear-gradient-5"/><linearGradient id="linear-gradient-24" x1="475.44" y1="224.29" x2="484.24" y2="91.55" xlink:href="#linear-gradient-3"/><linearGradient id="linear-gradient-25" x1="2293.8" y1="42.49" x2="2301.54" y2="90.31" xlink:href="#linear-gradient-3"/><linearGradient id="linear-gradient-26" x1="1203.17" y1="84.29" x2="1273.91" y2="84.29" xlink:href="#linear-gradient"/></defs><g id="hills"><path d="M2045,46a75.5,75.5,0,0,1-1.73-9s-1.29,5.67-2.66,11.43a5.27,5.27,0,0,1-1,.19c-1.18-5-2.35-10.34-2.35-11.62,0,0-1.24,5.51-2.6,11.18l-.23,0c-1.76,0-2.81-3.31-3.78-4.24a83.12,83.12,0,0,1-1.88-9.62s-1,4.49-2.2,9.53a89.74,89.74,0,0,1-2-10.3s-1.76,7.78-3.37,14.38a12.3,12.3,0,0,0-4.06,1.8,5.19,5.19,0,0,1-1.53.91c-1.18-5.06-2.36-10.4-2.36-11.7,0,0-.91,4-2,8.71a1.78,1.78,0,0,0-.42-.23,63.07,63.07,0,0,1-1.45-7.7s-.66,2.9-1.53,6.64a55.18,55.18,0,0,1-1.3-7s-1.34,5.92-2.76,11.82c-.36-2.22-.63-4-.63-4.65l-.59,3.33c-.52-3-.94-5.63-.94-6.41,0,0-.52,3-1.17,6.54a44,44,0,0,1-1-5.63s-.33,1.47-.84,3.64a21.88,21.88,0,0,1-.28-2.4s-1.1,6.3-2.1,11.59l-.36-.39a75.53,75.53,0,0,1-1.73-9s-.57,2.52-1.36,5.9a40.84,40.84,0,0,1-.55-4.13s-.76,4.33-1.59,8.82a8.06,8.06,0,0,1-2.33.09c-.36,0-.7,0-1,0-.83-4.52-1.82-10.15-1.82-11.35,0,0-1.19,6.78-2.21,12.18l-.31.13c-.87-4.65-2.06-11.3-2.06-12.62,0,0-1.34,7.68-2.4,13.2a72.94,72.94,0,0,1-1.68-8.73s-.74,3.27-1.7,7.36c-.79-4.3-1.63-9.18-1.63-10.29,0,0-.25,1.44-.62,3.48-.5-2.92-.91-5.48-.91-6.25,0,0-.61,3.53-1.34,7.52a23.78,23.78,0,0,1-.52-3.36s-1,4.26-2.12,9.15l-1.08-.81c-.8-4.38-1.7-9.51-1.7-10.65,0,0-.32,1.86-.78,4.4-.53-3-1-5.76-1-6.56,0,0-.94,5.35-1.86,10.33a5.27,5.27,0,0,0-1.07.09,76.26,76.26,0,0,1-1.75-9s-1.08,4.76-2.32,10l-.31-.14c-.63-3.55-1.19-6.95-1.19-7.85,0,0-.29,1.65-.71,4a82.31,82.31,0,0,1-1.84-9.44s-.51,2.27-1.23,5.37c-.38-2.15-.7-4.13-.7-4.68L1950,46a38.19,38.19,0,0,1-.88-5.1s-1.29,5.68-2.66,11.45c-.53.3-1.07.65-1.61,1-.6-3.41-1.12-6.6-1.12-7.47,0,0-.55,3.13-1.22,6.83-.78-4.28-1.62-9.11-1.62-10.21,0,0-.74,4.23-1.55,8.66-.57-3.27-1.06-6.28-1.06-7.13,0,0-1,5.52-1.91,10.57-.86-4.65-2-11.11-2-12.41,0,0-1.46,8.3-2.54,13.84l-.31.06a64.45,64.45,0,0,1-1.49-7.91s-.66,2.9-1.53,6.64c-.69-3.82-1.33-7.66-1.33-8.63,0,0-1,5.87-2,11-.8-4.4-1.71-9.59-1.71-10.73,0,0-1.13,6.47-2.14,11.8a84,84,0,0,1-1.9-9.73s-.83,3.66-1.87,8.08a5.37,5.37,0,0,0-.85-.62s0,0,0,0c-.74-4.08-1.49-8.46-1.49-9.5,0,0-.09.5-.23,1.31a8.73,8.73,0,0,1-.13-1.16s-.46,2-1.12,4.87c-.4-2.39-.7-4.37-.7-5,0,0-.31,1.77-.75,4.23a74.29,74.29,0,0,1-1.68-8.71s-.86,3.8-1.92,8.32a39.74,39.74,0,0,1-.9-5.23s-1.16,5.08-2.45,10.5c-.37.23-.72.42-1.07.63a57.94,57.94,0,0,1-.83-5.75s-.55,3.16-1.22,6.87a10.7,10.7,0,0,0-1.78,1.08,82.59,82.59,0,0,1-1.86-9.48s-.63,2.8-1.48,6.45a18.11,18.11,0,0,1-.2-1.84s-.55,3.15-1.22,6.87c-.4.29-1.05.79-1.88,1.43a85.66,85.66,0,0,1-1.93-9.84l-1.2,7.13c-.42-2.51-.74-4.61-.74-5.29,0,0-.34,1.94-.81,4.56-.7-3.89-1.37-7.87-1.37-8.86,0,0-1.43,8.13-2.5,13.67l-.59.38c-.85-4.59-1.93-10.65-1.93-11.9,0,0-1,6-2,11.26-.47-2.58-.92-5.23-.92-5.89,0,0-.44,2.52-.94,5.29-1.13.25-3.21,1.94-4.51,3-.78-4.3-1.62-9.18-1.62-10.29,0,0-1.09,6.19-2.08,11.46l-2.33,1.64c-2.47-.1-5.26-.09-6.5.58-2.12,1.16-7.07.39-7.07.39l-2.12-.77s-5.66.77-7.08.38a16.56,16.56,0,0,1-3.89-2.3l-5-1L1834,52l-3,12a5.27,5.27,0,0,0-.61-.14,59.35,59.35,0,0,1-1.39-7.28s-.46,2-1.11,4.81a47.2,47.2,0,0,1-1.06-5.82s-1.24,5.48-2.51,10.78c-.64.15-1.3.32-1.93.5l-2.18-11.36-3,11.78c-1.23-5.1-2.9-12.29-2.9-13.73,0,0-1.28,5.66-2.57,11a61,61,0,0,1-1.4-7.32s-1.47,6.47-2.84,12.15h-.25l-3-15.64-4.48,17.88c-.5.36-1,.73-1.54,1.1a95.09,95.09,0,0,1-2.12-10.43s-.34,1.5-.84,3.66a85.65,85.65,0,0,1-1.87-9.39s-1.28,5.66-2.57,11a61,61,0,0,1-1.4-7.32s-1.31,5.78-2.62,11.21c-1.42.34-4.46-1.07-6.19-.76a1.54,1.54,0,0,1-.37,0c-1.2-5-2.65-11.33-2.65-12.67,0,0-1.23,5.41-2.49,10.67l-1.3-.72-.8-.44c-1.14-4.77-2.38-10.3-2.38-11.54,0,0-1.28,5.65-2.57,11a61,61,0,0,1-1.4-7.32s-1.16,5.13-2.39,10.26l-.38,0c-5,.34-3.41-.67-3.41-.67a36.1,36.1,0,0,0-3.72,2,3.63,3.63,0,0,1-2.06.51,101,101,0,0,1-2.2-10.8s-1.15,5.1-2.38,10.22l-.88-.14a47.71,47.71,0,0,1-1.15-6.2s-.59,2.59-1.37,5.92c-2.49-.07-3,.77-4.71.86l-3-15.72-3,12.12a48.42,48.42,0,0,1-1.11-6.05s-.62,2.72-1.42,6.18a58.53,58.53,0,0,1-1.37-7.19s-1.51,6.67-2.91,12.4c-.91-5.06-1.82-10.39-1.82-11.68,0,0-.3,1.71-.74,4.17-.65-3.74-1.17-7.05-1.17-8,0,0-1.24,7.1-2.43,13.49-.86-4.78-1.67-9.57-1.67-10.79,0,0-.46,2.68-1.1,6.22a15.5,15.5,0,0,1-.32-2.24s-.51,2.26-1.21,5.26a64.72,64.72,0,0,1-1.5-7.79s-1.23,5.42-2.49,10.69a71.78,71.78,0,0,1-1-7.13s-.18,1-.47,2.64a70.13,70.13,0,0,1-1.6-8.22s-1.69,7.49-3.15,13.42a15.1,15.1,0,0,0-1.38,1c-.93-5.12-1.87-10.62-1.87-11.93,0,0-1.39,7.95-2.64,14.6-.23.09-.43.14-.63.2-1.07-5.79-2.46-13.59-2.46-15.18,0,0-1.23,7-2.42,13.4a1,1,0,0,0-.17,0c-1.16-4.86-2.47-10.69-2.47-12,0,0-1.26,5.54-2.54,10.87-.16-.69-.31-1.37-.46-2-.67-3.88-1.22-7.34-1.22-8.35l-.78,4.37c-.63-3.66-1.14-6.87-1.14-7.83,0,0-1.92,11-3.28,17.94-.92-.67-1.93-1.47-3.06-2.28-1-5.49-2.12-11.92-2.12-13.35,0,0-.41,2.34-1,5.52-.67-3.82-1.2-7.22-1.2-8.22,0,0-1.18,6.7-2.34,12.94a7.5,7.5,0,0,0-4.22,1.31,4.1,4.1,0,0,1-2.48.52c-.84-4.69-1.61-9.34-1.61-10.53,0,0-.55,3.1-1.26,7-.78-4.41-1.47-8.62-1.47-9.74l-1.23,6.87c-.71-3.83-1.65-9.1-1.65-10.16,0,0-1.61,9.17-2.48,13.38a7,7,0,0,1-1.2-.09c-1.09-.19-2-.19-3-.28-.84-4.68-1.61-9.31-1.61-10.5,0,0-.69,3.93-1.53,8.56-1-5.36-2-11.41-2-12.79,0,0-.93,5.29-2,10.85-.72-4.1-1.33-7.87-1.33-8.92,0,0-1.21,6.9-2.38,13.22-1.08-5.82-2.53-13.91-2.53-15.54,0,0-1.82,10.4-3.17,17.34a20.3,20.3,0,0,0-3.39.76l-.36.13c-1-5.46-2.09-11.8-2.09-13.22,0,0-1.29,7.36-2.5,13.83-1-5.5-2.15-12-2.15-13.44,0,0-1.62,9.25-2.94,16.14-.86-.48-.25-1.75-2.52-2.28-3.28-.77,0,0-3-1.93l0,0c-.93-5.12-1.86-10.61-1.86-11.91,0,0-.68,3.82-1.5,8.38-.68-3.89-1.23-7.38-1.23-8.38,0,0-1.46,8.29-2.73,15h0a19.63,19.63,0,0,1-3,1.66c-.94-5.16-1.89-10.74-1.89-12.05,0,0-1.19,6.8-2.36,13.08-1-5.33-2-11.32-2-12.7,0,0-1.28,7.31-2.49,13.76a1.75,1.75,0,0,1-1.33-1.83s-1.37.75-2.93,1.49c-.77-4.35-1.44-8.46-1.44-9.57,0,0-.94,5.38-2,11a23.87,23.87,0,0,1-4.93,1.22c-.92-5.09-1.84-10.51-1.84-11.81,0,0-.42,2.43-1,5.7-.88-4.87-1.72-9.86-1.72-11.09,0,0-1.78,10.17-3.12,17.12-.26.15-.51.32-.75.48-1.07-5.76-2.41-13.34-2.41-14.91,0,0-1.33,7.57-2.55,14.11-.58-3.24-1.14-6.56-1.14-7.39,0,0-.28,1.59-.67,3.73l-2.49-13-4.19,16.72c-.8-4.5-1.52-8.84-1.52-10,0,0-1.36,7.75-2.6,14.34l-3.69,2.6a3.42,3.42,0,0,1-.47.27l-1,14.1,387.93-3.59L2047.6,60.22C2046.56,60.66,2045.81,45.53,2045,46Z" fill="#042529"/><path d="M770.53,81.42a18.3,18.3,0,0,1-2,.64c-1.45-5.92-3.16-13.51-3.16-13.51,0,1.33-1.45,7.62-2.63,12.52-1.38-5.7-2.88-12.34-2.88-12.34a73.07,73.07,0,0,1-1.66,8.44l-.94-4.1a72.59,72.59,0,0,1-1.66,8.41c-2.15-1-4.28-2-5.68-4.28-1.84-3-2.45-5.73-3.37-6.42-.44-.33-.74,0-1.24.42-1.29-5.38-2.58-11.1-2.58-11.1A67.66,67.66,0,0,1,741.17,68c-1.26-5.29-2.5-10.79-2.5-10.79,0,1.26-1.31,7-2.45,11.74a2.1,2.1,0,0,0-1.3.14c-1.84,1-1.53,3-5.81.51a46,46,0,0,1-4.31-3c-1.44-5.9-3.11-13.34-3.11-13.34,0,1.41-1.62,8.36-2.84,13.36-1.31-5.5-2.67-11.51-2.67-11.51a64.74,64.74,0,0,1-1.48,7.64c-.69-3-1.2-5.22-1.2-5.22a73.86,73.86,0,0,1-1.7,8.61c-.15,0-.29,0-.44,0-1.59.21-3.86,2-6.42,2.25-1.5-6-3.44-14.67-3.44-14.67a59.29,59.29,0,0,1-1.35,7.05c-.8-3.43-1.41-6.13-1.41-6.13a94.37,94.37,0,0,1-2.09,10.27A7.64,7.64,0,0,0,692.7,64c-2.63.21-2.78-1-5.69-1-.77-3.31-1.35-5.89-1.35-5.89a48.06,48.06,0,0,1-1.13,6.09l-.88.11c-1.2-5.08-2.35-10.15-2.35-10.15a96.73,96.73,0,0,1-2.17,10.61,3.55,3.55,0,0,1-2-.57,36.24,36.24,0,0,0-3.67-2.09s1.53,1-3.37.57l-.37,0c-1.21-5.1-2.36-10.2-2.36-10.2a59.31,59.31,0,0,1-1.38,7.2c-1.28-5.34-2.54-11-2.54-11,0,1.22-1.23,6.65-2.35,11.32l-.79.41-1.29.69c-1.24-5.24-2.45-10.61-2.45-10.61,0,1.32-1.44,7.55-2.62,12.45-.12,0-.25,0-.37-.05-1.7-.35-4.71,1-6.11.59-1.29-5.4-2.59-11.15-2.59-11.15a58.92,58.92,0,0,1-1.38,7.19c-1.27-5.34-2.54-11-2.54-11a80.5,80.5,0,0,1-1.85,9.23l-.83-3.64a92.49,92.49,0,0,1-2.08,10.23c-1.86-1.3-3.31-2.75-5.26-3.11a21.9,21.9,0,0,0-3.9-.43c-1.36-5.65-2.81-12.08-2.81-12.08a59,59,0,0,1-1.38,7.2c-1.27-5.35-2.54-11-2.54-11,0,1.53-1.91,9.6-3.13,14.6a9.58,9.58,0,0,1-2.45-.77,21.17,21.17,0,0,0-4.25-1.46C609.19,51.11,608,45.67,608,45.67a44.79,44.79,0,0,1-1.05,5.72c-.64-2.76-1.09-4.78-1.09-4.78a59.76,59.76,0,0,1-1.37,7.15,3.92,3.92,0,0,0-1.65.57,83.89,83.89,0,0,1-3.71,7.74s40.84,17.61,49.1,18.84L770.71,95.75A68.07,68.07,0,0,0,770.53,81.42Z" fill="#072c2d"/><path d="M783.18,80.36a17.79,17.79,0,0,1-2,.65C779.72,75.09,778,67.49,778,67.49c0,1.33-1.45,7.63-2.64,12.53-1.37-5.71-2.87-12.35-2.87-12.35a71.67,71.67,0,0,1-1.67,8.45c-.55-2.4-.93-4.1-.93-4.1a72.59,72.59,0,0,1-1.66,8.41c-2.15-1-4.28-2-5.68-4.28-1.84-3.05-2.45-5.73-3.37-6.42-.44-.34-.75,0-1.25.42-1.28-5.39-2.57-11.1-2.57-11.1A68.46,68.46,0,0,1,753.82,67c-1.26-5.3-2.51-10.8-2.51-10.8,0,1.26-1.3,7-2.44,11.75a2.16,2.16,0,0,0-1.3.13c-1.84,1-1.53,3-5.82.51a43.42,43.42,0,0,1-4.3-3c-1.44-5.89-3.12-13.33-3.12-13.33,0,1.41-1.62,8.36-2.83,13.36-1.32-5.5-2.67-11.51-2.67-11.51a64.74,64.74,0,0,1-1.48,7.64c-.69-3-1.2-5.22-1.2-5.22a73.86,73.86,0,0,1-1.7,8.61,3.23,3.23,0,0,0-.44,0c-1.59.2-3.86,2-6.42,2.25-1.5-6-3.45-14.68-3.45-14.68a58.18,58.18,0,0,1-1.34,7.06c-.8-3.44-1.41-6.13-1.41-6.13a94.35,94.35,0,0,1-2.09,10.26,7.74,7.74,0,0,0-3.95-.94c-2.63.22-2.78-1-5.69-1-.77-3.31-1.35-5.88-1.35-5.88a48.38,48.38,0,0,1-1.13,6.09l-.88.11C695.09,57.18,694,52.12,694,52.12a97.18,97.18,0,0,1-2.17,10.6,3.62,3.62,0,0,1-2-.56,37.3,37.3,0,0,0-3.67-2.1s1.52,1-3.37.58l-.38,0C681.12,55.49,680,50.4,680,50.4a60.26,60.26,0,0,1-1.37,7.19c-1.28-5.34-2.54-11-2.54-11,0,1.23-1.23,6.65-2.35,11.33l-.79.41c-.46.24-.88.46-1.29.69-1.25-5.24-2.46-10.61-2.46-10.61,0,1.32-1.43,7.54-2.61,12.44l-.37,0c-1.71-.36-4.71.95-6.11.58-1.29-5.4-2.59-11.15-2.59-11.15a59.31,59.31,0,0,1-1.38,7.2c-1.28-5.35-2.54-11-2.54-11a80.48,80.48,0,0,1-1.85,9.22l-.83-3.63a93,93,0,0,1-2.08,10.23c-1.86-1.3-3.31-2.75-5.26-3.11a23,23,0,0,0-3.9-.44c-1.36-5.64-2.81-12.07-2.81-12.07a58.92,58.92,0,0,1-1.38,7.19c-1.28-5.34-2.54-11-2.54-11,0,1.53-1.91,9.61-3.14,14.61a10,10,0,0,1-2.44-.77,21.17,21.17,0,0,0-4.25-1.46c-1.26-5.27-2.49-10.71-2.49-10.71a44.11,44.11,0,0,1-1,5.72c-.64-2.76-1.1-4.78-1.1-4.78a59,59,0,0,1-1.36,7.14,4.22,4.22,0,0,0-1.65.57A84.85,84.85,0,0,1,611.73,61s40.85,17.6,49.11,18.83L783.36,94.69A68.07,68.07,0,0,0,783.18,80.36Z" fill="#072c2d"/><path d="M2597.65,270.07V66.84c-7.27-.84-17.63-1.77-20-2.7-7.78-3.08-7.08-4.62-18.39-6.16s-63.67-2.31-79.23-3.84S2437.61,48,2432,48s-13.44-3.08-13.44-3.08-8.49-8.47-16.27-9.24-12-1.54-15.56-1.54h-12.74c-7.08,0-34.84,4-40.68,2.89s-13.79-1.73-13.79-1.73-19.1,4-26,4-5.3-.58-11.14-.58-7.43-.57-12.2.58-8,2.31-9.56,2.31a27.86,27.86,0,0,0-6.36.58c-2.66.57-5.84,2.89-9.55,5.77s-10.44,7.13-16.8,8.86-24.41,6.55-24.41,6.55-26.17,2.5-50.58-1-39.27-6.93-48.28-8.66a173.37,173.37,0,0,0-20.17-2.31s-8-5.2-12.73-6.35-15.92-2.32-20.16-1.74-47.22,13.48-53.59,12.13c-6.85-1.45-11.67,1.74-17.51,4A168,168,0,0,0,1964,67c-4.24,2.31-6.89,4.62-11.14,6.36s-10.08,3.46-12.73,4.62-2.12,2.31-8,1.73c-3.91-.39-13.15-2.94-25.82-4.81-6.23-.92-18.6-1.55-21.22-1.93-3-.43-15.31-6.76-19.46-6.93s-2.75,3.3-6.72,2.69c-2.75-.41-12.14-4.62-14.33-4.62-8.48,0-15,6-17.15,6.55s-75.69,19.44-78.35,18.87-14.32-4.62-21.75-7.51-10.61-2.89-18-3.46-15.92-4-22.28-3.47-15.13,3.47-20.43,4-11.14,3.47-22.81,4-34.23,0-36.35,1.74L1599,86.67s-18.57-5.2-26-4.62-20.16.58-26.53-.58S1526.8,75.7,1519.9,74s-15.39-2.88-17.51-3.46-12.73-4-14.33-4-14.32,1.15-19.1,1.15h-8.49a68.94,68.94,0,0,1-11.14,1.73c-6.89.58-4.77,2.31-11.14.58s-31.3-9.24-40.32-11-22.29-4.62-29.19-7.51S1356,44.51,1348,43.35s-47.2-4.62-54.09-2.89-26.53,9.25-35.55,15.6c0,0-4.78,2.31-12.2,5.2s.53,2.88-13.27,5.2-38.2,4.62-45.63,6.35S1165,78.59,1165,78.59a19,19,0,0,0-8.49-1.74,161,161,0,0,1-16.45-.58c-5.83-.57-9-2.31-15.38-3.46s-16.45,0-26-4.62-11.14-6.93-17.51-8.67-17.51-5.77-26-8.66-13.26-1.15-20.16,0-21.75,0-28.65,0S991.47,48,987.76,48,975,47.4,972.9,48s-8.49,2.89-11.14,4-6.37,2.89-6.37,2.89l-18,3.47a42.06,42.06,0,0,0-13.26,3.47c-5.84,2.88-11.14,5.19-18,5.77s-12.2.58-17.51,1.15-15.39,2.32-21.75,3.47-54.12,6.93-62.08,8.66-17.51,1.74-26.53,1.16S712.92,74.54,702.31,74s-39.79-4-46.16-4.62-34.49-9.82-45.1-13.28S587.18,48.55,582.4,48s-59.42,22-70.56,22-43-2.89-48.29-4.62-8.49-2.89-11.14-3.46-8.49-1.16-11.67-1.74-28.65-4.62-31.84-6.35-4.24-2.89-7.95-3.47-21.76-1.73-30.78-2.88-15.38-3.47-19.63-3.47-43,0-65.79-5.2-29.18-6.35-34-8.08-4.77-4-19.1-5.2-50.4,1.73-61.54.58-22.29,4.62-36.61,4S90,30.65,88.44,31.8,65.09,47.4,60.32,48.55c-3,.74-36.68,6.16-60.32,9.7V270.07Z" fill="url(#linear-gradient)"/><path d="M1347.52,43.29c-4.33-.59-15.51-1.68-26.66-2.44L1252,60.29c-4.24,0-27.59,81.63-27.59,81.63.71,1.54,72.76-31,60.84-23.87a72.21,72.21,0,0,0-21.93,20.79s65.77-25.41,103.26-30c0,0-16.27-6.16-26.17-6.16-7.29,0,29-37.74,5.95-59.51" fill="url(#linear-gradient-2)"/><path d="M2597.65,91c-13.94,2.59-39.63,6.43-44.38,7.12-7.28,1-24.83,9.08-35.72,8.76s-52.65,4.45-57.51,5-155.37,53.38-157.31,55c-1.51,1.23,205.63,7.92,294.92,13.27Z" fill="url(#linear-gradient-3)"/><path d="M1917.29,112.08c2.13-1.15,16.65-1.1,18.67-4.6s26.43-30,26.43-30l-18.21,3.27s-5.66,1.93-7.78,1.54-33.61-4.23-36.08-4.62-35.38-6.16-36.44-5.39-10.26,4.24-12.38,8.09-2,28.74,1.07,30C1865.3,115.74,1917.29,112.08,1917.29,112.08Z" fill="url(#linear-gradient-4)"/><path d="M1537.4,161.75c2.13-1.16,26.56,8.3,30.25,9.24,47.65,12.11,83.83-4,83.83-4l1.59-81.44s-40.32-.57-45.1,13.29c-.75,2.19-22.46,17.13-24.93,16.75s-56.78,3.46-92.86,8.08c-1.26.17-16.44,2.5-18.56,6.36s-5.84,17.71-2.66,18.48S1537.4,161.75,1537.4,161.75Z" opacity="0.7" fill="url(#linear-gradient-5)"/><path d="M1811.43,94.82c-2.48.17-9,.62-10.86,4-2.12,3.85-112.48,44.28-109.3,45.05s170.31,9.24,170.31,9.24c1.06-.57,120.11-20.22,115.14-20.79C1853.27,118.05,1843.07,102.57,1811.43,94.82Z" fill="url(#linear-gradient-6)"/><path d="M2124.57,69.53c-3.89-.38-31.48-5-37.14-4.23S2039,63,2033.31,63.38s-30.42,5.38-35,7.31-25.83,5.39-33.25,10-50.94,32.73-50.94,32.73,22.78-1,41-2.31c11-.77,17.83-6.59,24.06,1.54,3.53,4.62,22.56,6.93,23.34,6.93l7.78,6.16,48.81,1.93s40.68-14.25,42.09-15.41,25.83-23.48,26.18-25.41S2128.46,69.92,2124.57,69.53Z" fill="url(#linear-gradient-7)"/><path d="M1080.08,105.73c-10.08,5.2-109.3,39.85-109.3,39.85s233.45,12.13,240.88,10.4,22.28-9.82,27.59-13.29,14.85-8.66,19.1-11a95.46,95.46,0,0,1,14.32-6.36c6.37-2.3,6.9.58,10.62-1.15s27-9.82,28.62-10.39-23.85-4.63-29.16-5.2,2.13-4,6.9-8.09,12.74-8.08,15.92-9.82-4.24-.58-8.49-.58,3.71-4,7.43-7.5,1.58-2.89,2.1-6.36,4.77-4,10.08-8.08-3.72,0-14.3-.58-18.57,5.2-24.94,8.09,7.43-5.2,12.73-9.82,0,0,1.59-2.31,3.72-2.89,6.37-5.2,4.78-1.15,10.59-2.31,9.55-5.78,17.51-8.09c4.46-1.29,13.24-3.31,20.1-4.83-10.65-1.32-45.93-4.31-52.44-2.68-6.9,1.74-26.53,9.25-35.55,15.6,0,0-4.78,2.31-12.2,5.2s.53,2.88-13.27,5.2-38.2,4.62-45.63,6.35S1165,78.59,1165,78.59l-.32-.16c-17.3,7.93-55.52,15.29-58,15.75C1103.42,94.75,1090.16,100.53,1080.08,105.73Z" fill="url(#linear-gradient-8)"/><path d="M1397.33,63.57s-9.55-1.73-13.79-1.73a33.22,33.22,0,0,0-14.32,2.88c-4.78,2.31-3.19-1.15-4.78,2.31a61.55,61.55,0,0,0-2.66,6.36c-1,2.88-2.65,4-3.71,6.93s1.06.57-4.24,5.77-11.14,11-11.14,11,19.09-12.71,23.87-16.75,10.08-12.13,15.92-12.13S1397.33,63.57,1397.33,63.57Z" fill="url(#linear-gradient-9)"/><path d="M1435,172.73c119.38,1.73,178.81-4,176.42-4.91s-27.06-8.38-43.77-9.53-23.61-3.18-22-5.78-3.71-3.18-8.76-3.18-38.46-1.73-43.77-3.46-7.69-3.76-11.41-4.33-6.89-2-5.83-2.31-7.43-5.78,13.8-10.69,30-6.35,32.36-6.06,32.1,5.77,36.61,5.49,4.24-3.76,12.2-3.18,14.59.29,19.63.86a102.22,102.22,0,0,0,11.94.87c3.45,0,11.94-1.73,10.61-2.6s35-.69,33.69-3.75c-2.65-6.35,16.45-15.31,19.63-20.22s7.7-3.18,17-3.46-18.83-3.75-14.06-5.49,11.94-9.53,14.59-10.11,7.7,1.16,11.14.58,3.72-1.73,6.1-1.15,6.11,0,10.09.86c2.07.45,5.73-.42,9.7-1.21-3.62-.86-6.69-1-11.56-1.38-7.43-.58-15.92-4-22.28-3.47s-15.13,3.47-20.43,4-11.14,3.47-22.81,4-34.23,0-36.35,1.74L1602.07,86c-2.09,1.84-4.6,4.09-7.36,6.71-8,7.5-8.76,15-14.86,16.16s-19.37,1.74-23.34,3.47-5.31,2-8.23,2.31-9.55,0-10.88,0-6.1,1.16-8.48,1.16-16.45-.29-19.9,1.15-4.51,2.31-6.63,2.89-17.25,1.15-21.23.86-19.36-5.77-32.09-4-20.43,4.33-26.53,5.78-35.55,4.33-41.92,6.93S1273.21,159.64,1269,159.64,1315.63,171,1435,172.73Z" fill="url(#linear-gradient-10)"/><path d="M2065.86,57.22a107.42,107.42,0,0,1-13.8,4.62c-1.06.38,11-11.56,8.84-12.71-1.8-1,6.53.5,7.84-4.63-5.44-.91-13.69-1.62-17.21-1.15-4.25.58-47.22,13.48-53.59,12.13-6.85-1.45-11.67,1.74-17.51,4A168,168,0,0,0,1964,67c-4.24,2.31-6.89,4.62-11.14,6.36s-10.08,3.46-12.73,4.62-2.12,2.31-8,1.73c-3.91-.39-13.15-2.94-25.82-4.81-6.23-.92-18.6-1.55-21.22-1.93-3-.43-15.31-6.76-19.46-6.93a17.81,17.81,0,0,0-3.68.31c-2.82,1.17-5.68,2.29-7.28,2.77-3.89,1.15-2.83-1.54-8.14,1.93-3.86,2.52.13-2.72-1.1-6.79a2.82,2.82,0,0,0-.85-.15c-8.48,0-15,6-17.15,6.55s-75.69,19.44-78.35,18.87c0,0,23.52,3.08,29.54,3.85s6.37.77,7.78.77a86.42,86.42,0,0,1,11.67,2.31c4.6,1.15,7.08-3.47,15.21.77s14.86,6.93,18.4,7.32,15.91,4.61,20.87,5.77l5,1.15a50,50,0,0,1,.35-6.16c.35-1.92,2.48-8.08,3.89-8.85s5.66-3.85,5.66-3.85,0-.77,2.48-.39-.71,1.54,2.47.39,8.49-3.47,9.2-3.47-5.31-1.92-7.43-1.92-2.12,1.92-2.12,0,1.41-5.39-2.47-6.93a23.52,23.52,0,0,1-6.73-4.24s19.1,2.69,23.7,2.69a21.31,21.31,0,0,1,7.43,1.16s-.71,3.08,2.47,3.08,20.17.77,22.64,1.54,3.89,1.16,5.66.39,4.6-2.7,6.37-2.31,7.43,1.54,9.9,1.15,11.32-1.92,11.32-1.92-6.36,7.31-8.49,10-2.83,2.31-3.89,3.08a18.57,18.57,0,0,1-2.83,1.54c-5.3,3.08-2.47.77-10.26,5.77s-17,10.78-15.91,10.78,12.38-4.62,19.8-6.16,9.91-1.92,13.45-3.85,7.78-5,10.26-6.54,2.12-1.54,4.24-.39.35,3.08,4.6.77,7.78-5,11-5.77,3.18-1.93,5.66-1.54a15.79,15.79,0,0,1,4.6,1.54s5.66-4.24,10.26-4.62,5,1.92,7.43-1.16,6-8.47,11-10.39,26.18-6.17,23.7-3.09-3.89,13.87-1.41,18.1,5.3,5.78,5.65,7.7,18.75,3.08,20.88,4.24-3.9-.77,7.78-10.4,8.84-10.78,14.14-13.09,25.47-7.31,30.78-5.39,10.26,3.47,8.13,7.7-5.31,6.55-8.13,8.86-5.66,3.85-6,5.39a6.79,6.79,0,0,1-2.48,4.62c-2.12,1.92-.36-.39-2.12,1.92s-4.6,3.85-5.31,6.16-14.86,14.25-13.09,13.86,20.16-9.62,28.65-13.86,22.29-10,28.3-12.32,12.38-6.16,15.21-7.7S2173.74,78,2182.58,78h21.93c9.91,0,44.92-2.31,48.81-2.31s10.26-.77,15.57-.39,3.89.39,8.13.77-2.12.39,4.25.39,6.72,0,8.84.38,3.19,1.54,4.24,1.92,11.68,3.09,14.15,2.31A42.62,42.62,0,0,1,2323,78.77c7.77,0,11.31,0,13.43-.76s2.48-1.54,5.67-1.16,3.89.39,11,.39,9.55-.39,12.38-.39a67.09,67.09,0,0,1,8.84,0,22.5,22.5,0,0,1,8.49,2.69,68.92,68.92,0,0,1-5.66,4.24c-1.41.77-9.19,4.24-8.14,4.24s18.4-5,24.77-5.39c0,0-3.54-3.86-1.06-6.55s1.76-7.32,9.19-10.78a104.27,104.27,0,0,1,18.4-6.16c4.24-1.16,7.78-2.7,6-3.08s-1.06-4.62-8.49-5.78-11-3.46-12-6.16a26.11,26.11,0,0,0-6.57-8.79c-5.9-.65-9.48-1.22-12.52-1.22h-.22c-5.66,1.64-12.73,4.63-19.24,7.32-10.26,4.23-11.32,4.23-19.1,6.54s-13.8,5.78-12,3.85,10.61-6.16,2.48-11.55c-1.52-1-3.06-2.08-4.55-3.16-.28,0-.54-.07-.76-.11-5.84-1.15-13.79-1.73-13.79-1.73s-7.77,1.64-15.19,2.83c-1.27,2.09-2.8,4.11-9.57,5.64-10.26,2.31-15.21-.39-19.11,1.92s-6.36,2.31-6.36,2.31,8-3.9,7.41-9.37a22.63,22.63,0,0,0-6.52.71c-4.78,1.15-8,2.31-9.56,2.31a27.86,27.86,0,0,0-6.36.58c-2.66.57-5.84,2.89-9.55,5.77s-10.44,7.13-16.8,8.86-24.41,6.55-24.41,6.55-26.17,2.5-50.58-1-39.27-6.93-48.28-8.66a173.37,173.37,0,0,0-20.17-2.31c-2.29.77-4.42,2.31-8.31,3.08S2071.87,54.52,2065.86,57.22Z" fill="url(#linear-gradient-11)"/><path d="M2494.2,75.31c5.31-.77,4.6,0,7.78-.38s2.83,0,7.08,0a21.44,21.44,0,0,0,5.66-.39c2.83-.39,3.89,0,6.72-1.54a16.93,16.93,0,0,1,4.95-2.31c2.12-.39,1.06-3.85,1.06-3.85a94.13,94.13,0,0,0,16.27-4.24c5.28-1.78,13.45-3.05,20.15-3.86-1.28-.26-2.77-.51-4.58-.76-5.53-.75-20.82-1.31-36.84-1.88a50.31,50.31,0,0,0-9.5,4.19c-2.83,1.93-2.48,1.93-10.26,6.93s-22.63,8.48-28.3,10.79,0,0,5.67-.77S2488.89,76.08,2494.2,75.31Z" fill="url(#linear-gradient-12)"/><path d="M1102.36,72.23c-1.59-.58-20.16,1.73-25.47,2.89s-8,1.15-14.32,4.62a158,158,0,0,1-15.39,6.93s19.1,0,24.41-1.73,1.59-3.47,9.55-4S1102.36,72.23,1102.36,72.23Z" fill="#96b865"/><path d="M423.94,88.79s12,0,18.39-.77,8.14-1.54,9.2-1.16,3.54-.38,5,0,0-.39,1.42.39,2.12,1.92,3.53,1.92,1.42-.77,3.54,0,0-.38,2.12.77-.35,0,2.12,1.16,2.83,0,7.43.38,1.42-1.54,11,.39,12.73,1.15,15.91,2.69,4.6,2.31,8.14,2.31,7.43-.77,11-.77,7.79.39,12.74-.77,9.9-2.69,11.32-2.31,4.6-.38,6.36,0a37.93,37.93,0,0,0,5.66.39c4.6-2.31,4.25-2.31,6.37-3.08S566.49,88.79,570,88s2.48-.77,5.66-1.54a34.86,34.86,0,0,1,8.49-1.54c5-.39,8.49-1.54,13.09-1.54s8.84.38,7.07,0S598,81.09,592,79.93s-8.49-1.16-11.67-3.08-7.78-4.62-7.78-4.62H569l-5.3-1.93s-3.9-.77-5-.38-2.83,1.54-3.53.38a29,29,0,0,0-2.48-3.08h-1.77l-1.41.78-1.42.38s-.35-.77-1.77,0a7.58,7.58,0,0,1-3.18.77L534.3,70.3l-14.51,3.86s-10.61-.39-15.91-.39-30.07-3.08-30.07-3.08-8.49,0-11.67,1.54-10.26,2.7-10.26,2.7L448,74.54a38.36,38.36,0,0,0-7.43,3.85C438.09,80.32,423.94,88.79,423.94,88.79Z" fill="url(#linear-gradient-13)"/><path d="M1752.79,95.08a142.38,142.38,0,0,0-15.06,2.2,72.13,72.13,0,0,1-13.32,1.89c-4.35.32-6.38,0-9.27,1a34.8,34.8,0,0,1-6.66,1.89c-2.32.32-3.48-.94-7.24.32s-6.38.94-7.54,1.89,1.16-.63-1.15,1-3.77,1.58-5.51,3.15-.58.63-4.92,3.15-8.69,2.84-13,5-9.26,4.1-9.26,4.1,32.43-6.94,37.65-6,1.16,2.83,8.69.94,12.75-2.84,13.62-4.1.86-3.15,3.18-3.78,7-1.58,7-1.58-.57-1.58,1.74-2.21,2.9-.63,5.8-1.57S1752.79,95.08,1752.79,95.08Z" fill="url(#linear-gradient-14)"/><path d="M1805.36,95.1c-4,2.08-9.62,4.86-12.57,6-5,1.92-3.9.77-9.2,1.92s-8.49,1.55-8.49,1.55-.7-1.16,2.83-3.09a32.53,32.53,0,0,0,6-4.23s-13.09,1.54-16.28,3.46-8.84,3.86-13.08,6.16-6.72,2.7-8.84,4.24-2.48,1.54-6.73,4.24-3.53,1.53-7.42,4.23-7.43,2.69-12,6.16-3.54,1.54-13.44,7.7-17,9.63-17,9.63,35.72-10.4,46.69-11.94,15.57-3.08,18.75-4.23,8.84-3.47,11.67-3.47,6.36-.77,4.6,2.31-7.78,5.77-1.77,3.08,16.62-8.09,21.22-8.47,12.38-3.85,8.84-3.85-11-1.54-7.07-3.47,2.48-2.69,5.3-4.62,9.21-8.85,11-9.24C1809.83,98.86,1813.54,97.73,1805.36,95.1Z" fill="url(#linear-gradient-15)"/><path d="M2597.65,94.33c-3.59.51-8.83,1-10.07,1.39-6,1.92-14.14,2.31-16.62,3.46s-12,1.93-15.92,4.24-23.35,3.08-26.88,4.24-15.56,4.61-18.75,6.16-5.66,1.54-7.07,2.69a7.14,7.14,0,0,1-3.54,1.54,34,34,0,0,0-3.89,1.54c-3.54,2.31-6.72,2.31-9.55,3.47a50.45,50.45,0,0,0-6,3.08s-12.74-.77-14.51,1.15-1.41.77-3.53,2.31-2.83,1.54-5.66,3.08a38.73,38.73,0,0,1-9.55,4.24c-6.53,2-11.27,3.14-14.3,3.78,2.71-.3,6.77-.61,12.17-.7,1.77,0,8.85-3.47,17.34-2.7s24.05-3.46,31.12-3.08,6.37,0,10.61-.38,6.37,0,9.56-1.16,5-1.92,6-1.92,1.06-.77,5.3-1.54,7.08-2.31,8.85-2.31h7.07c1.06,0,6.72-.39,4.6.77s-6.72,2.69-3.54,2.69,15.56-1.15,18-1.15c1.25,0,22.93.59,38.72,1.17Z" fill="url(#linear-gradient-16)"/><path d="M838.93,169.26l-1.06,0c-2.64-.06-9.39-.2-10.87,0-1.86.29-1.86-.29-2.92.29a11,11,0,0,1-2.39.87,5.35,5.35,0,0,0-2.65.86,6,6,0,0,1-2.92.87l-7,1.73s8,.29,11.5.86a41.53,41.53,0,0,1,8,2,39.3,39.3,0,0,0,6.1,2c1.59.29,2.12-.29,4.24,0a10.86,10.86,0,0,0,3.45,0s-.26-2.31.53-3.47,3.19-2.59,5.31-3.46S841.05,168.68,838.93,169.26Z" fill="#82945a"/><path d="M822.75,186.58l-11.67-6.06-1.56-.27c-2.92-.5-9-1.53-10.65-1.75-2.12-.29-5.3-.87-6.63-1.16s-4.24-2-7.16-2.6-3.45-1.44-5-.57-4.24,1.15-8.49,2S757,179.08,754,179.94a27.3,27.3,0,0,1-5,.87c-1.33.29-3.18-.29-4.51.29s-1.33,0-4.51.87-1.86.28-5.57,1.15c-.85.2-1.61.35-2.34.47,5.14-1.83,21.69-6.82,20.91-6.82l-22,.57-1.05,0c-2.23-.06-7.38-.13-9,.31-2.12.58-6.1,1.45-6.1,1.45l-3.45.86a8.65,8.65,0,0,1-4.51,2c-2.65.28-4.51.58-6.1.86s-1.06-.86-4,.58-5.84,1.16-9.55,2.6-5.31,1.16-10.35,2.6-10.87,2.31-9,2.31,23.61-2.31,28.65-2,15.39-1.16,19.64-2c1.46-.29,3.22-.56,5.08-.85a42.5,42.5,0,0,1-7.47,2.88c-4.51,1.44-8.76,1.44-6.1,2s20.42.57,29.71,0,12.2-1.45,17.77-.87,17.78.58,26.27,2,18.3,2.31,22.28,2.6,5.84.87,9,0,6.63-2,9.55-2,4.78-1.16,6.1-1.16,10.88-.57,10.88-.57S826.73,188,822.75,186.58Z" fill="url(#linear-gradient-17)"/><path d="M252.39,39.12c-4.25-1.93-6.72-5-12-7.7a5.7,5.7,0,0,1-2.46-2.09c-13.51-2.48-26,1.1-33.27,3.24-9.19,2.7-26.88,5-26.88,5s5.31-1.54,7.43-3.85-7.07-3.47-11-4.62c-2.58-.77-8.09-2-11.93-2.92-8.67,1-17.78,4.32-28.75,3.88L131.15,30c6.34,2.76,21.84,4.89,21.84,4.89a169.87,169.87,0,0,1-27.94-2.69c-14.15-2.7-36.61-.39-36.61-.39C86.85,33,65.09,47.4,60.32,48.55c-3,.74-36.68,6.16-60.32,9.7V94.43c17.27-7.85,25.81-6.34,32.38-8.72C39.8,83,42.63,83.78,55,82.63s16.63-2.7,24.41-7.32,14.15-5,30.77-5,10.61-.38,5.66,6.17a79.59,79.59,0,0,0-6.36,9.24s5.3-2.7,8.13-3.85,13.44-4.62,15.21-5.39,2.12.38,5.31-.77a37.16,37.16,0,0,0,6.72-3.08c2.83-1.54,7.07-2.32,9.9-3.86s6.72-1.92,15.57-4.23,8.48-1.15,8.48-1.15,5.31.76,8.85,1.15,14.85,1.54,21.22,1.16-1.41,10.39-2.48,13.09,8.85-6.16,11-8.86,4.95-1.54,7.78-3.85,4.24-1.15,5.31-2.31,2.12-1.54,3.89-4.62,4.24-1.92,5.66-3.85,0,0-.36-1.54,1.06-1.54,1.06-1.54a30.58,30.58,0,0,0,6-3.08c2.83-1.93,3.89-.77,8.49-2.31s4.59,0,8.84-1.16S256.63,41,252.39,39.12Z" fill="url(#linear-gradient-18)"/><path d="M317.47,54.9c-1.12-.1-2.83-.76-5,0s-6.37,1.54-7.43,2.32-3.89,2.3-9.55,4.23-24.41,6.93-22.64,7.31,20.16-3.46,26.53-2.69,7.43.77,9.9-.38a56.4,56.4,0,0,0,8.49-5.4c3.19-2.31,16.27-8.47,16.27-8.47S321.71,55.29,317.47,54.9Z" fill="url(#linear-gradient-19)"/><path d="M74.11,53.75c-1.06.06,13.09,1.54,17,2.69s7.08,2.7,9.2,3.08,5.3-.38,10.26,0,18.39.39,18.39.39-13.09-1.15-16.62-3.08A32,32,0,0,1,106.66,53a25.75,25.75,0,0,0-3.19.77,17.31,17.31,0,0,1-3.89.39l-2.47-1.93a13,13,0,0,1-3.89,1.15C91.8,53.36,81.19,53.36,74.11,53.75Z" fill="url(#linear-gradient-20)"/><path d="M1032,66.46,894.73,70.3c-4.24,0-53.06,67-53.06,67L988.82,115Z" fill="url(#linear-gradient-21)"/><path d="M727.07,87.25,700.9,73.87c-11.57-.76-38.64-4-44.75-4.53-6.37-.58-34.49-9.82-45.1-13.28S587.18,48.55,582.4,48A18.52,18.52,0,0,0,577.48,49c-.78,2.8-1.57,5.7-2.37,8.67l-1.58,5.88c-.82,3.08,41.88,14.35,41.06,17.49-2.07,7.93-35.81,15.49-41.74,22.34-18.08,20.89-18.39,35.42-18.39,35.42l129.46-3.08Z" fill="url(#linear-gradient-22)"/><path d="M1019.18,102.43a2,2,0,0,0,.41-.17C1020.16,102,1019.91,102.07,1019.18,102.43Z" fill="#96b865"/><path d="M780.91,160.4c6.05-.66,72.08.78,78.45,1.35s72.16-5.19,74.28-5.77,18.57-9.82,20.16-11,4.25-9.24,16.45-16.75S984,119,989.35,116.7s4.77-2.88,9.55-4.62,4.24-1.73,9-4c3.5-1.69,9.26-4.62,11.26-5.61-3,1-14.68,1.57-19.22,1.57-4.77,0-5.3-2.89-2.12-4.63s-12.73,0-19.63,2.32-14.86,1.15-18.57.57-1.59-2.89-8-1.73-8.49,1.16-12.2,3.47-2.66-.58-10.62,5.19-9.55,4.63-15.91,9.25,7.43-11.56,14.32-16.18,17.51-6.93,17.51-6.93-19.63-3.46-22.28-1.73-4.78.58-8.49,2.31-5.84.58-10.08,1.73-6.9.58-14.86,2.89A130.56,130.56,0,0,1,871,104s41.39-12.71,50.41-18.49,11.67-7.5,23.34-8.66,10.08-1.73,22.29-1.15,8.48-.58,16.44-1.16-3.18-2.89,10.61,0,13.27,2.89,19.64,4-.53,4,6.36,1.15,1.06-1.73,6.9-2.89,10.08-1.73,15.39-3.46,15.38.57,8.49-1.74-17-1.15-12.74-4.62,4.78-9.24,9-11c2.07-.84,4.4-3.06,7.09-5.45-7.93-2.47-12.64-.87-19.29.25-6.9,1.15-21.75,0-28.65,0S991.47,48,987.76,48,975,47.4,972.9,48s-8.49,2.89-11.14,4-6.37,2.89-6.37,2.89l-18,3.47a42.06,42.06,0,0,0-13.26,3.47c-5.84,2.88-11.14,5.19-18,5.77s-12.2.58-17.51,1.15S873.68,71,867.3,72.14c-2.07.69-3.9,1.32-5.29,1.82-8,2.89-11.14,2.31-15.91,5.2s-17,11-24.94,15.59-27.59,15.6-31.84,17.91c0,0-1.21,3.38-15.6,8.6s-12,5.22-18.37,8.7-6.4,4.34-12,6.09-5.6,1.73-14.39,4.34-14.38,4.35-14.38,4.35,45.55,2.61,42.35,6.09S772.92,161.27,780.91,160.4Z" fill="url(#linear-gradient-23)"/><path d="M471.51,188.32c-3.93,0-52.92-16.84-146.43-25.41l-52.58-7.82a318.6,318.6,0,0,0-33.38.31c-16.45,1.16-43,.58-40.85,0s13.26-5.78,13.26-5.78l5.31-1.15s5.83-.58,7.43-1.74,7.42-1.73,9.55-2.3,14.85-6.94,14.85-6.94c12.74-5.77,35.55-13.28,58.37-18.48s22.81-9.24,32.36-10.39,16.45-7.51,19.63-8.09-5.3-2.89,0-5.78,4.25-1.15,8-2.88,13.26-1.74,19.63-2.89,17,1.15,23.88,0,7.95.58,11.14,0,10.61-2.31,14.85-4.62,15.39-6.35,18.57-6.93,27.59-4.62,36.08-6.93l4.9-1.36c6.37.47,12.18.78,15.8.78,10.55,0,60.16-20.21,69.39-21.84A92.8,92.8,0,0,0,584.52,59c1.6,3.46,5.31,3.46,11.15,6.93s6.36,5.2,17.5,5.77,12.21,5.2,18.57,6.36,16.45,1.15,9.56,5.19c-6.23,3.65-13.31,6.35-16.19,6.42,3.72.6,17.44,3.15,25.2,4.56,9.55,1.73,5.31,4.62,12.21,6.93s-15.39,5.77-26.53,6.35-55.18,8.66-57.83,8.66a173.46,173.46,0,0,0,28.65-1.73c14.85-2.31,24.93.58,22.81,1.16s8.49,0,23.35-2.89,10.08-.58,19.63-3.47,9,.58,11.67-.57,3.72.57,5.84-.58,5.83-1.73,11.14-3.46,5.84-.58,7.43-1.16c0,0,26.69,2.18,39.47,2.18s16.78,3.48,16.78,3.48-28.34-3.27-47.94,10.44c-11.19,7.83-9.59,9.56-20.78,12.18s-17.58,3.47-21.57,4.35-7.19-1.75-4,.86,6.39,7,0,9.57-24,7.83-15.18,7.83c0,0,31.16,8.7,51.14,9.57s37.56,2.61,37.56,2.61-68.72,10.44-95.09,12.18-24,3.47-35.16.87-80.71,3.48-99.09,6.09S471.51,188.32,471.51,188.32Z" fill="url(#linear-gradient-24)"/><path d="M2400.47,51.44c-10.61-6.55-10.61-11.17-21.58-9.63-7.88,1.11-14.15,4.45-23.34,6.93-5.45,2-25.47,6.93-24.05,5.4-4.25,1.92,18.39-10-3.54-12.33-2-.21-2-2-4.25-2.31-1,.21-6.56-1.87-13.44-.77-1.27,2.09-5.26,3.87-12,5.39-10.25,2.31-13.79-.77-17.68,1.54S2269.24,48,2269.24,48s8-3.9,7.41-9.37a22.63,22.63,0,0,0-6.52.71c-4.78,1.15-8,2.31-9.56,2.31a27.86,27.86,0,0,0-6.36.58c-2.66.57-5.84,2.89-9.55,5.77s-10.44,7.13-16.8,8.86-24.41,6.55-24.41,6.55-8.95.85-21.26.86c5.56,1,22.52.56,32.93,1.06,5,.24-2.51,2.42,3.54,2.31,31.3-.58,88.07-4,82.77-3.47s-20.7,5.2-19.63,5.78,24.93,3.47,41.91,1.73,52-.57,47.75,0S2398,58,2386,68.76c0,0,20.17-10.78,25.47-10.78C2411.43,58,2411.08,58,2400.47,51.44Z" fill="url(#linear-gradient-25)"/><path d="M1230.76,74.93c-4.24-1.54-27.59-.78-27.59-.78s34,11.56,21.93,14.64c-.89.23-2.84,2.88-4.84,5.8,3.33.23,10.62-.48,23.23-7.34,18.4-10,30.42-10,30.42-10S1235,76.47,1230.76,74.93Z" fill="url(#linear-gradient-26)"/><path d="M1752.11,175.42a7.61,7.61,0,0,0,.83-.07C1751.59,175.42,1751.52,175.42,1752.11,175.42Z" fill="#58513a"/><path d="M1747.51,161.94c.15,0,.44,0,.83-.06C1747,161.94,1746.92,161.94,1747.51,161.94Z" fill="#58513a"/><path d="M1735.48,164.18c-1-4.35-2.92-13.23-2.92-14.78,0,0-3.64,17.64-4.22,18.56,1.54,1,2.69-1.46,4.61-1.91,1.71-.41.07-.45,2.15.25a27.87,27.87,0,0,1-.71,3.33c1.19,1,2.09-1.45,3.57-1.91s-.3-.46,2.38.53c0,0-2.68-15.12-2.68-17.18C1737.66,151.07,1736.45,158.7,1735.48,164.18Z" fill="#58513a"/><path d="M1751.76,158.48c1.49-.46-.3-.46,2.38.53,0,0-2.68-15.12-2.68-17.18,0,0-2.82,17.64-3.27,18.56C1749.38,161.38,1750.27,158.93,1751.76,158.48Z" fill="#58513a"/><path d="M2529.4,133.52c.14,0,.43,0,.83-.06C2528.88,133.52,2528.8,133.52,2529.4,133.52Z" fill="#58513a"/><path d="M2514.45,121s-3.65,17.64-4.22,18.56c1.53,1,2.69-1.45,4.61-1.91,1.71-.41.07-.45,2.15.25a27.87,27.87,0,0,1-.71,3.33c1.19,1,2.09-1.45,3.57-1.91s-.3-.46,2.38.54c0,0-2.68-15.13-2.68-17.19,0,0-1.22,7.63-2.18,13.11C2516.4,131.41,2514.45,122.53,2514.45,121Z" fill="#072c2d"/><path d="M2533.65,130.06c1.48-.46-.31-.46,2.37.53,0,0-2.68-15.12-2.68-17.18,0,0-2.81,17.64-3.26,18.56C2531.27,133,2532.16,130.51,2533.65,130.06Z" fill="#072c2d"/><path d="M2483.91,137.44a4.28,4.28,0,0,0,.5,0C2483.6,137.44,2483.56,137.44,2483.91,137.44Z" fill="#58513a"/><path d="M2478.18,140.9c.9-.27-.18-.27,1.43.32,0,0-1.61-9.07-1.61-10.3,0,0-.73,4.57-1.3,7.86-.59-2.61-1.76-7.94-1.76-8.87,0,0-2.19,10.59-2.53,11.14.92.6,1.61-.87,2.76-1.15s0-.26,1.3.15c-.2,1.09-.36,1.86-.42,2C2476.76,142.65,2477.29,141.18,2478.18,140.9Z" fill="#072c2d"/><path d="M2486.46,135.36c.89-.27-.18-.27,1.43.32,0,0-1.61-9.07-1.61-10.31,0,0-1.69,10.58-2,11.13C2485,137.1,2485.57,135.64,2486.46,135.36Z" fill="#072c2d"/><path d="M2597.65,141.31c-3.31,1-6.5,2.05-6.92,2.26a75.53,75.53,0,0,1-1.73-9s-1.29,5.67-2.66,11.44a6,6,0,0,1-1,.19c-1.18-5-2.34-10.34-2.34-11.63,0,0-1.26,5.51-2.61,11.19l-.23,0c-1.76,0-2.81-3.31-3.78-4.25a82.68,82.68,0,0,1-1.87-9.61s-1,4.48-2.21,9.52a89.71,89.71,0,0,1-2-10.29s-1.76,7.78-3.37,14.38a12.3,12.3,0,0,0-4.06,1.8,5.42,5.42,0,0,1-1.53.91c-1.18-5.06-2.36-10.41-2.36-11.7,0,0-.91,4-2,8.71a1.66,1.66,0,0,0-.43-.23,62.76,62.76,0,0,1-1.45-7.71s-.66,2.9-1.53,6.65a55.49,55.49,0,0,1-1.3-7s-1.45,6.39-2.91,12.49c-.7.59-1.49,1.29-2.31,2a81.84,81.84,0,0,1-1.85-9.51s-1.58,6.94-3.1,13.27l-.26.12a87.3,87.3,0,0,1-2-9.92s-1.36,6-2.78,11.9c-3.73,1.67-8.7,4-11.72,5.24-1.32-5.55-2.83-12.22-2.83-13.67,0,0-1.73,7.62-3.33,14.18,0,0-.05,0-.08,0-1.4-5.82-3.31-14-3.31-15.69,0,0-1.51,6.62-3,12.83a11.67,11.67,0,0,1-2-1.29,23,23,0,0,0-3.88-2.38c-1.23-5.22-2.49-10.91-2.49-12.25,0,0-1.08,4.77-2.32,10l-.86-.36c-.2-.08-.38-.18-.56-.27-1.27-5.36-2.62-11.44-2.62-12.82l-1.5,6.47a74.25,74.25,0,0,1-1.69-8.78s-1.29,5.67-2.66,11.45a24.63,24.63,0,0,0-5.48,4.33,6.88,6.88,0,0,1-5.34,2.4,90.94,90.94,0,0,1-2.08-10.48s-.85,3.72-1.9,8.19a73.19,73.19,0,0,1-1.64-8.58s-2,8.88-3.7,15.71a8.49,8.49,0,0,1-3.4,1.18c-1.42-5.84-3.51-14.78-3.51-16.5,0,0-1,4.59-2.25,9.7-1.18-5-2.35-10.34-2.35-11.63,0,0-.78,3.41-1.76,7.61-1.22-5.21-2.49-10.89-2.49-12.23,0,0-.86,3.79-1.92,8.32a39.79,39.79,0,0,1-.9-5.24s-1.16,5.08-2.45,10.51c-.63.38-1.25.75-1.8,1a22.27,22.27,0,0,0-3.1,1.78,81.36,81.36,0,0,1-1.85-9.48s-1.27,5.57-2.62,11.28c-.3.22-1.08.8-2.17,1.64a86.5,86.5,0,0,1-1.93-9.84s-1.49,6.56-3,12.73a8,8,0,0,1-4.46-1.95s-6.72,1.93-8.14,3.85c-1,1.41-1.5,1.79-2.65,2-1.41-5.84-3.36-14.23-3.36-15.9,0,0-1.06,4.7-2.29,9.88a53.93,53.93,0,0,1-1.25-6.8s-1.06,4.71-2.29,9.91c-.18-.1-.36-.2-.54-.28a16.13,16.13,0,0,0-4.06-1.62,86.9,86.9,0,0,1-1.95-9.93s-1,4.3-2.13,9.21c-1.36-.39-1.92-.85-3.17-1.13a22,22,0,0,0-2.47-.44,64.47,64.47,0,0,1-1.43-7.64s-.76,3.39-1.74,7.58c-.55,0-1.12.06-1.79.12-4.24.38-3.54.77-13.8,3.85l0,0A91.87,91.87,0,0,1,2375,152.7s-1,4.47-2.2,9.51c-2.41,0-7.08.26-12.23.67-.58-2.58-1.07-4.9-1.31-6.41a34.67,34.67,0,0,0,5.84-2.23c4.24-1.92,2.47-.77,4.24-1.15s1.77,0,7.08-.77,2.12,0,4.59-.77,5.67-.39,12.74-1.16,6-1.53,10.25-3.07,5.31-1.16,8.85-2.32a81.61,81.61,0,0,1,13.08-3.08c6.73-1.15,4.25-.38,7.44-2.31s3.53-2.31,4.24-4.23,1.77-1.54,4.59-2.7,2.84-1.93,6.73-4.62,3.89-3.46,3.89-3.46a7.33,7.33,0,0,1,3.18-1.16c1.42,0,2.12-.38,3.89-.38s3.19-.39,6.72-.39,8.14-.39,11-.39,3.18,0,7.07-1.15a15.21,15.21,0,0,0,3.19-2.31c1-1.16,3.53-2.31,5.65-3.08s2.13-.38,3.54-.38,1.77-.78,3.54-2.32,17-6.16,17-6.16-12.38-1.92-15.21-2.69-5.66-4.24-5.66-4.24-2.83,2.7-5.31,2.31-3.89-1.92-7.78-4.62a4.8,4.8,0,0,0-2.31-.93,69.32,69.32,0,0,1-1.58-8.31s-.53,2.33-1.26,5.49a51.51,51.51,0,0,1-1.22-6.64s-1.41,6.25-2.87,12.3a23.76,23.76,0,0,0-4.91,1.56,11.14,11.14,0,0,1-2.83.81c-1.41-5.82-3.62-15.22-3.62-17,0,0-1.46,6.45-2.94,12.59a69.65,69.65,0,0,1-1.6-8.36s-1.67,7.38-3.24,13.87a24.34,24.34,0,0,0-4.52.38c-2.25.35-3.92,2-6.07,3.43-1.21-5.12-2.42-10.59-2.42-11.9,0,0-.38,1.71-.95,4.17a94.34,94.34,0,0,1-2.14-10.72s-1.46,6.46-2.94,12.59a71,71,0,0,1-1.59-8.36s-1.5,6.61-3,12.81c-1.62.39-5.1-1.22-7.07-.86a3.1,3.1,0,0,1-.43,0c-1.36-5.69-3-12.93-3-14.47,0,0-1.4,6.18-2.84,12.19l-1.49-.83-.92-.49c-1.29-5.45-2.71-11.76-2.71-13.17,0,0-1.46,6.45-2.94,12.58a70.26,70.26,0,0,1-1.59-8.36s-1.33,5.86-2.73,11.72c-.15,0-.28,0-.43,0-5.66.39-3.89-.77-3.89-.77a42.24,42.24,0,0,0-4.25,2.31,4.07,4.07,0,0,1-2.35.59c-1.23-5.24-2.51-11-2.51-12.33,0,0-1.32,5.82-2.71,11.66l-1-.16a56.69,56.69,0,0,1-1.31-7.07s-.67,3-1.56,6.75c-3.36-.09-3.53,1.28-6.58,1a8.73,8.73,0,0,0-4.56,1c-1.21-5.13-2.42-10.62-2.42-11.94,0,0-.7,3.1-1.62,7a66,66,0,0,1-1.56-8.2s-2.26,9.92-4,16.86c-3-.32-5.58-2.52-7.42-2.81a2.9,2.9,0,0,0-.51,0,87.29,87.29,0,0,1-2-10s-.58,2.58-1.38,6a74.37,74.37,0,0,1-1.71-8.89s-1.57,6.92-3.09,13.23c-1.4-5.81-3.28-13.91-3.28-15.53,0,0-1.94,8.54-3.6,15.31a50,50,0,0,1-5,3.36c-5,2.7-4.6.38-6.72-.77a2.37,2.37,0,0,0-1.5-.2c-1.32-5.55-2.83-12.2-2.83-13.66,0,0-1.43,6.32-2.9,12.4a79.77,79.77,0,0,1-1.79-9.23s-1.49,6.57-3,12.76c-.58-.46-.94-.9-1.45-.53-1.06.77-1.77,3.85-3.89,7.32-1.62,2.65-4.08,3.72-6.57,4.77a84.28,84.28,0,0,1-1.92-9.78s-.44,2-1.08,4.71a86,86,0,0,1-1.93-9.81s-1.73,7.62-3.32,14.18c-1.37-5.71-3-13-3-14.57,0,0-2,8.72-3.65,15.53-2.68-.76-4.85-1.83-5.37-3.11-1.24-3-3.83,1.89-8.25,4.72-1.29-5.45-2.72-11.77-2.72-13.19l-.95,4.17a64.75,64.75,0,0,1-1.52-8s-1.61,7.1-3.16,13.48a98.21,98.21,0,0,1-2.15-10.79s-1.79,7.89-3.4,14.52a23.31,23.31,0,0,1-3.32-3.35A14.14,14.14,0,0,1,2259,124a60.31,60.31,0,0,1-1.39-7.44s-1.23,5.42-2.57,11a17.42,17.42,0,0,1-3.8.12c-.58,0-1.12,0-1.64,0-1.35-5.65-3-12.7-3-14.21,0,0-1.92,8.49-3.58,15.26l-.5.16c-1.41-5.83-3.35-14.15-3.35-15.81,0,0-2.59,11.46-4.36,18.35l-.59.13a34,34,0,0,1-3.42.57c-1.4-5.81-3.65-15.34-3.65-17.12,0,0-.41,1.8-1,4.36a64.78,64.78,0,0,1-1.48-7.83s-2.49,11-4.25,17.95c-1.19-.68-2.51-1.47-4-2.29-1.3-5.48-2.75-11.91-2.75-13.34,0,0-.53,2.33-1.27,5.51a67.15,67.15,0,0,1-1.57-8.21s-1.51,6.69-3,12.93a11.8,11.8,0,0,0-5.47,1.31,6.56,6.56,0,0,1-3.22.52,94.67,94.67,0,0,1-2.09-10.52s-.7,3.1-1.62,7a83.4,83.4,0,0,1-1.91-9.75s-.69,3-1.59,6.87a103.17,103.17,0,0,1-2.14-10.16s-2.08,9.17-3.21,13.38a11.72,11.72,0,0,1-1.55-.08c-1.41-.19-2.65-.19-3.93-.29a91.78,91.78,0,0,1-2.09-10.49s-.89,3.92-2,8.55c-1.27-5.36-2.63-11.4-2.63-12.79,0,0-1.2,5.3-2.52,10.85a76.4,76.4,0,0,1-1.72-8.92s-1.56,6.91-3.09,13.23c-1.4-5.82-3.28-13.91-3.28-15.54,0,0-2.35,10.39-4.1,17.33a36,36,0,0,0-4.38.76l-.47.13c-1.29-5.46-2.72-11.8-2.72-13.22,0,0-1.67,7.36-3.24,13.83-1.3-5.5-2.77-12-2.77-13.44,0,0-2.1,9.26-3.81,16.14-1.12-.47-.32-1.74-3.27-2.28-4.24-.77,0,0-3.88-1.92l-.07,0c-1.2-5.12-2.41-10.6-2.41-11.91,0,0-.87,3.83-1.94,8.38a69.71,69.71,0,0,1-1.6-8.38s-1.88,8.29-3.52,15h0a29.41,29.41,0,0,1-3.92,1.66c-1.21-5.17-2.45-10.74-2.45-12.06,0,0-1.54,6.81-3.05,13.09-1.26-5.34-2.61-11.33-2.61-12.71,0,0-1.65,7.31-3.22,13.77-1.91-.44-1.72-1.83-1.72-1.83s-1.78.74-3.8,1.49a83.66,83.66,0,0,1-1.86-9.58s-1.22,5.39-2.56,11a38.5,38.5,0,0,1-6.37,1.21c-1.2-5.09-2.39-10.51-2.39-11.81,0,0-.55,2.43-1.32,5.71a99.13,99.13,0,0,1-2.22-11.1s-2.31,10.18-4,17.12l-1,.48c-1.38-5.76-3.13-13.33-3.13-14.9,0,0-1.71,7.56-3.3,14.1a65.31,65.31,0,0,1-1.48-7.38s-.72,3.17-1.54,6.63c-1.83.31-5.21,2.43-7.31,3.77-.51-2.19-1-4.48-1.49-6.54a31.83,31.83,0,0,1,5.92-.19c2.66.53-2.07-.91-6.58-3a22.57,22.57,0,0,1-.49-3.18s-.23,1-.61,2.66a20,20,0,0,1-4.34-2.66l-3.89-3.46-4.6.38s-6.72-3.85-8.13-3.85c-1.13,0-1.84.48-4.2.68-.78-4.52-2.14-12.64-2.14-14.12,0,0-1.34,8.4-2.33,13.91l-.6-.15c-1-4.52-2.77-12.66-2.77-14.13,0,0-1.06,5.11-2.13,10a20.16,20.16,0,0,1-3.88,0c-3.53-.39-2.47-1.16-4.24-1.54s-1.41.77-2.82.77a11.49,11.49,0,0,1-1.74-.16c-.77-3.39-3.23-14.42-3.23-16.16,0,0-1.51,7.28-2.74,12.74-1.32-5.55-2.82-12.19-2.82-13.65,0,0-2,8.67-3.64,15.47-.77-4.55-1.73-10.44-1.73-11.68,0,0-1.16,7.29-2.11,12.75l-1.8,0a38.52,38.52,0,0,1-.73-4.51s-.39,1.92-1,4.52c-1.14,0-2.38,0-3.67-.05a41.47,41.47,0,0,1-.94-5.38s-.26,1.19-.69,3c-.6-3.63-1.13-7.17-1.13-8.09,0,0-.86,5.37-1.71,10.34l-1.7,0c-.08-.65-.13-1.18-.13-1.45,0,0-.08.46-.19,1.22-.94-4.31-2-9.33-2-10.46,0,0-1.06,5.12-2.13,10a19.31,19.31,0,0,1-3.88,0l-.43-.06c-.66-4-1.3-8.13-1.3-9.14,0,0-.63,3.94-1.34,8.19a2.5,2.5,0,0,0-1.17-.53,1.62,1.62,0,0,0-1.68.34,82.42,82.42,0,0,1-1.51-8.38s-.75,3.58-1.61,7.6c-.94-4.2-3-13.52-3-15.11,0,0-1.51,7.28-2.74,12.73-1.32-5.55-2.82-12.18-2.82-13.64,0,0-2,8.67-3.64,15.47-.77-4.55-1.73-10.44-1.73-11.68,0,0-.42,2.68-1,6a81.87,81.87,0,0,1-1.54-8.49s-1.51,7.28-2.74,12.73c-1.32-5.55-2.83-12.19-2.83-13.64,0,0-1.66,7.36-3.24,13.84l-.38-.08-.29,0c-.71-4.21-1.45-8.92-1.45-10,0,0-.83,5.19-1.66,10.08-.72-4.32-1.52-9.34-1.52-10.47,0,0-1,6.13-1.88,11.34l-1.53.23c-1-4.58-2.29-10.68-2.29-11.94,0,0-1.06,5.11-2.13,10a20,20,0,0,1-3.87,0c-3.54-.39-2.48-1.16-4.25-1.54s-1.41.76-2.83.76a12.9,12.9,0,0,1-1.73-.15c-.77-3.39-3.23-14.42-3.23-16.16,0,0-1.51,7.28-2.74,12.73-1.32-5.55-2.82-12.18-2.82-13.64,0,0-2,8.67-3.64,15.47-.77-4.55-1.72-10.44-1.72-11.68,0,0-1.85,11.53-2.79,16.43-1.39.42-.79.3-1.29.8h-.25c-.15-.1-.32-.19-.46-.3-3.39-2.53-1.2-1.84-3-2.52-.77-5.15-2.3-17.27-2.3-17.27,0,1.29-.79,7.49-1.43,12.27-1.38-7.14-3-16.27-3-16.27,0,1.54-1.24,8.52-2.33,14.35-1-5.73-2.27-13.38-2.27-13.38,0,1.83-2,13.42-2.67,17a7.94,7.94,0,0,1-1.44.16c-1.17,0-.87-1.21-2.34-.8s-.58,1.21-3.5,1.61a12.79,12.79,0,0,1-3.21,0c-.89-5.12-1.76-10.49-1.76-10.49,0,1.32-1.06,7.73-1.9,12.55-.43-.17-.87-.34-1.31-.53-.73-5.42-1.51-11.63-1.51-11.63,0,1.14-.61,6-1.19,10.43l-1.12-.53s.71-.77-2.12,0-4.59,0-7.42.38l-2.92-7.6-2.13,7.51s-1.32-4.62-2.38-2.89-1.33,2.6-2.12,1.44-2.66-3.17-2.66-3.17a17.5,17.5,0,0,1-1.83,2.54l-5.6-4h-1.06c-1.32,1.16-3.71.87-3.71.87l-1.06.58-2.39.28-3.45,2.61c2.5.8,14.79,5.2,17.77,6.64,2.11,1,10.09,1,11.16,1.34l7.68,5.4a28.5,28.5,0,0,1,3.05-.35c.94,0,5.92.71,9.59,1l2.57.46c2.12.38,13.8,1.15,16.63,1.93s10.61,1.54,12.38,2.3,25.82,4.62,29.35,5.78a34.69,34.69,0,0,0,6.87,1c-.51,2.19-1.49,6.46-2.43,10.34a21.88,21.88,0,0,0-3.85.33c-1.92.3-3.35,1.69-5.19,2.92a94.32,94.32,0,0,1-2-10.15s-.33,1.46-.82,3.56a81.65,81.65,0,0,1-1.82-9.14s-1.25,5.5-2.51,10.74a58.53,58.53,0,0,1-1.35-7.13s-1.29,5.63-2.56,10.92c-1.38.33-4.34-1-6-.74-.12,0-.25,0-.37,0-1.16-4.86-2.58-11-2.58-12.34,0,0-1.19,5.26-2.42,10.39l-1.27-.7-.78-.43c-1.1-4.64-2.31-10-2.31-11.23,0,0-1.25,5.5-2.51,10.73a58.57,58.57,0,0,1-1.36-7.13s-1.13,5-2.33,10l-.37,0c-4.82.32-3.32-.66-3.32-.66a33.5,33.5,0,0,0-3.61,2,3.56,3.56,0,0,1-2,.5,99.08,99.08,0,0,1-2.14-10.51s-1.13,5-2.32,9.94l-.87-.14a48,48,0,0,1-1.11-6s-.57,2.52-1.33,5.76c-2.87-.08-3,1.09-5.61.81a7.42,7.42,0,0,0-3.9.82,95.27,95.27,0,0,1-2.06-10.18s-.6,2.65-1.39,6a58.94,58.94,0,0,1-1.33-7s-1.91,8.46-3.39,14.37c-2.53-.28-4.77-2.15-6.33-2.39a3.23,3.23,0,0,0-.44,0,75.82,75.82,0,0,1-1.68-8.54s-.49,2.2-1.17,5.12a62.27,62.27,0,0,1-1.46-7.58s-1.34,5.89-2.64,11.28c-1.19-5-2.79-11.86-2.79-13.25,0,0-1.66,7.29-3.08,13.06a39,39,0,0,1-4.24,2.86c-4.22,2.31-3.92.33-5.74-.65a2,2,0,0,0-1.28-.17c-1.13-4.74-2.41-10.41-2.41-11.65,0,0-1.23,5.39-2.47,10.58a68.51,68.51,0,0,1-1.53-7.87s-1.27,5.6-2.54,10.87c-.49-.39-.79-.76-1.23-.45a7,7,0,0,0-1.44,2.54c-.43-2.07-1.23-4.58-1.48-3.76-.35,1.16,1.42,3.85-1.77,5.78l-.1.06c-.53-1.79-1.13-4-2.29-3.55-.87-3.78-3.48,1.86-3.48.91l-.92,4a72.31,72.31,0,0,1-1.64-8.37s-1,.12-2,2.23a14.06,14.06,0,0,1-.13-1.41l-.45,2.8a21.72,21.72,0,0,0-.65,2.14c-1.16-4.87-2.18-4.77-2.18-6.09a12,12,0,0,0-1.93,4,27,27,0,0,1-.49-3.28s-.68,3.28-1.5,7.07c-.93.73-2.26,2-3.36,2.95l-.8,0a44.42,44.42,0,0,1-3.52-12,84.18,84.18,0,0,1-2.25,10.42c-.52.23-.7.72-1.61.74a23.57,23.57,0,0,1-.4-2.84s-.23,1.12-.58,2.78l-.79-.09c-.77-3.39-3.23-14.42-3.23-16.16,0,0-1.51,7.28-2.74,12.73-1.32-5.55-2.82-12.19-2.82-13.65,0,0-2,8.68-3.64,15.47-.77-4.54-1.72-10.44-1.72-11.67,0,0-1.85,11.53-2.79,16.43-2.16.65.5,0-3.61,2.39s-10.84,3.51-13.32,3.79l5.89-.32c6.72-.39,8.49-.38,9.55-.77s4.6.39,6.37,0a4,4,0,0,1,1.2-.06c-.52,3.09-1.08,6.36-1.48,8.44-2.16.65.49,0-3.61,2.4s-10.84,3.5-13.32,3.78c1.06,0,2.92-.14,5.89-.31,6.72-.39,8.49-.39,9.55-.78s4.6.39,6.37,0,3.54.78,4.6.39,4.59.77,4.59.77l3.19-.77h7.07s1.71.34,3.28.68a1.23,1.23,0,0,1-.09.22,1.36,1.36,0,0,0,1.36.07c.29.06.56.13.76.19,1.41.38,5,.77,6.36,1.53,1,.53,3.91.52,5.68.46.82,0,1.4-.07,1.4-.07l6.72-1.54s-5.63-2.26-10-3.49c0-.23-.08-.48-.12-.74,3.32-1.33,5.87-5,5.87-5l5.76-2.41c4.16-.27,8.9-.6,13.27-1.07l.85.08c-.12.21-.48.65-2.54,1.86-4,2.32-10.84,3.5-13.33,3.78l5.9-.32c6.72-.39,8.49-.38,9.55-.77s4.6.39,6.37,0,3.53.77,4.59.39,4.6.77,4.6.77l3.18-.77h7.08s1.71.34,3.27.68a.93.93,0,0,1-.08.21,1.33,1.33,0,0,0,1.36.07l.75.19.4.1c-.13.22-.53.66-2.52,1.83-4,2.33-10.84,3.5-13.32,3.78,1.07,0,2.93-.14,5.9-.31,6.72-.39,8.49-.39,9.55-.78s4.59.39,6.36,0,3.54.78,4.6.39,4.6.77,4.6.77l3.18-.77h7.08s1.7.34,3.27.68c0,.08-.06.18-.08.22a1.36,1.36,0,0,0,1.36.07c.28.06.55.13.75.19,1.41.38,5,.77,6.37,1.53,1,.53,3.9.52,5.67.46.83,0,1.4-.07,1.4-.07l6.72-1.54s-5.62-2.26-10-3.49c-.71-4.09-2.36-13.72-2.36-15.34,0,0-1.39,8.76-2.38,14.25a3.42,3.42,0,0,1-.51-.33c-1-4.49-2.81-12.8-2.81-14.29,0,0-1,5.11-2.12,10a20.17,20.17,0,0,1-3.88,0c-3.53-.39-2.47-1.15-4.24-1.54s-1.42.77-2.83.77a11.73,11.73,0,0,1-1.74-.16c-.46-2-1.54-6.85-2.32-10.74l.41-.14c4.72-.67,10.32-1.58,15.2-2.34,1.93.54,3.7,1,4.37.67,1.41-.77,7.42-3.08,9.9-3.08s3.54,0,4.6-.77,3.89-.38,5.66-1.54,6-1.54,8.13-2.69,4.6-.39,7.43-.39a10.6,10.6,0,0,0,6.72-1.92c2.48-1.54,5-1.54,7.78-2.7h0a121.69,121.69,0,0,0,12.8-1.29c-.49,2.37-3.62,17.37-4.15,18.22,1.54,1,2.68-1.45,4.61-1.91s-.39-.46,3.07.53c0,0-3.19-14-3.44-16.85a13.26,13.26,0,0,0,3.73-1c2.47-1.54,5.65-3.08,7.42-3.08s7.78.39,9.55-.77,8.49-1.92,8.49-1.92l1.91-.18.57.18,1.42-.34c1.92-.16,4.24-.33,6.22-.44h2.62s1.71.34,3.27.69c0,.07-.06.18-.08.21a1.31,1.31,0,0,0,1.36.07l.75.19c1.42.39,5,.77,6.37,1.54,1,.52,3.9.51,5.67.45.83,0,1.4-.07,1.4-.07l2.1-.48.73.1,7.06-1c-.56,2.45-1.31,5.58-1.91,8a21.32,21.32,0,0,1-3.38-.08c-2.47-.38-6.72,1.16-8.84,1.54a7.74,7.74,0,0,0-2.41,1,97.86,97.86,0,0,1-2-9.66s-1.06,4.65-2.07,8.85a48.09,48.09,0,0,1-1.12-5.78s-1.59,7-2.75,11.63c-.54.26-1.14.51-1.76.75-.92-3.85-2.2-9.36-2.2-10.45,0,0-1.67,7.34-2.83,11.9l-.9.2c-.64-2.56-3-12.16-3-13.64,0,0-2.62,11.55-3.57,14.67-1.06.11-1.87.17-2.25.17-1.77,0,5,3.08,7.43,4.24s2.47,0,7.07,3.46,0,0,3.89.77-3.18,8.47-3.53,10,0,0,4.24-1.16,8.13,1.54,11.32,1.93,3.18,1.16,4.24,1.54,1.77-.77,4.95-2.31,7.79-.38,10.26-1.16,1.77,1.93,1.42,4.24,9.9-1.15,19.81.38,21.92-.38,29-.38,1.41,3.85,1.41,3.85l9.91-.77c5-.38-1.42,5.39.35,6.16s11.68,0,19.81,0,8.85.77,13.44.77,5.31.77,10.26.77,20.16-.77,24.4-1.15-2.12,4.23-2.12,4.23,5.31-.38,8.14-.77,12,.77,15.91.77,9.56,2.31,12.74,3.08,8-.29,15.12.1-31.31,3.17-14.33,4.33,114.78.86,123.63-.29-6.37,1.64-7.43,3.18,14.94,1.92,22,1.54,4.24,2.31,6.37,1.92,7.07-.38,13.79-.76,3.18-1.26,5.31-1.26a64.7,64.7,0,0,0,16.27-2.6c8.49-2.31,11-.57,14.23-1.73s2,1,1.33,3.27,13.8.39,18,.39,6.36.38,11.32-.39l3.79-.56c-.6,2.84-1.71,8.07-2.59,11.91a64.23,64.23,0,0,1-1.23-7s-1.57,7.58-2.82,13.06l-.2.1c-1-4.49-2.82-12.82-2.82-14.32,0,0-3.65,17.65-4.23,18.56,1.54,1,2.7-1.45,4.62-1.91,1.68-.4.13-.45,2,.21a20.48,20.48,0,0,1-.8,2.86c1.54,1,2.69-1.46,4.61-1.91s-.38-.46,3.08.53c0,0-.46-2-1.05-4.66,1.76-.28,3.74-.62,6.11-1.07,8.13-1.54,9.55.77,12,.77a79.06,79.06,0,0,1,9.91.77c2.12.38,6.72,0,13.44-1.15s24.05-1.16,30.77-1.54,11,0,24.05,0,17.69,3.46,17.69,3.46l2.12-.77c2.12-.77,3.9-.77,16.27-1.54,5.13-.32,19,1.47,28.11,2.69Zm-823.27,23.11c-.17-1-.36-2.11-.53-3.2a1.91,1.91,0,0,0,.9,0,1.35,1.35,0,0,1,.44-.07C1774.91,162.23,1774.64,163.35,1774.38,164.42ZM1866,160.8l-.27,0,.29-.1S1866,160.78,1866,160.8Zm5.82,2.48c-.23-1.39-.47-2.84-.68-4.22l1.48-.47C1872.35,160.14,1872.08,161.76,1871.81,163.28Zm6.66-.68c-.44-1.82-.88-3.74-1.3-5.58l2.73-1C1879.45,158.17,1878.94,160.52,1878.47,162.6ZM1940,133.2c-.5-2.19-.93-4.22-1.17-5.6.82.06,1.65.11,2.46.14C1940.91,129.42,1940.46,131.33,1940,133.2Zm12.2,1.73a20,20,0,0,0-4.19,1.33,9.59,9.59,0,0,1-2.41.69c-.65-2.66-1.49-6.2-2.13-9.14a31.31,31.31,0,0,0,4.23-.13c2.48-.39.71-.77,2.48-.39.5.11,1.9.37,3.65.69C1953.39,129.93,1952.81,132.44,1952.21,134.93Zm3.48-4.82c-.14-.66-.28-1.28-.4-1.87l.8.15C1956,128.91,1955.83,129.49,1955.69,130.11Zm2.11,1.63c-.21-1.09-.42-2.17-.59-3.15l7.84,1.4Zm80.56,5.95c-.38-1.58-.75-3.22-1.06-4.65l2.22-.29C2039.19,134.17,2038.78,135.92,2038.36,137.69Zm4.16,3c-.6-2.45-1.37-5.71-1.86-8.07l3.92-.51C2043.93,134.87,2043.19,138,2042.52,140.67Zm7.55.69c-.68-2.78-1.55-6.43-2.27-9.68l4.47-.55C2051.75,133.64,2050.86,137.84,2050.07,141.36Zm10.3-3.58-4.77,2.6c-.18.1-.41.19-.62.28-.71-3.25-1.54-7.16-2-9.61,3.27-.39,6.44-.75,9.19-1C2061.65,132.44,2061,135.2,2060.37,137.78Zm292.39,25.77c-7,.64-13.28,1.31-14.19,1.47-2.13.39-.35-1.92,4.24-3.46s2.93-.44,11.19-3.3C2353.64,159.85,2353.2,161.68,2352.76,163.55Zm4.44-.4h0c-.46-2-.89-3.91-1.24-5.57l2.77-.94C2358.37,158.14,2357.83,160.5,2357.2,163.15Zm74.62,53.29-.06-.29.13,0C2431.86,216.23,2431.84,216.34,2431.82,216.44Zm6.21-3.21a4,4,0,0,1,1.35-.66l.54-.14Zm10.9,5.71c-.25.09-6.54-7.52-6.83-7.4-.71-3.12-2.25-10.11-2.86-13.67a47.56,47.56,0,0,1,5.8-.5c2.12,0,1.76,2.69.7,4.23s3.54,4.24,3.54,4.24c1.77,0,10.26,3.08,10.26,3.08S2452.11,217.79,2448.93,218.94Z" fill="#072c2d"/><path d="M1981.71,158.88c1.19,1,2.08-1.45,3.56-1.9s-.29-.46,2.38.53c0,0-2.67-15.12-2.67-17.18C1985,140.33,1982.15,158,1981.71,158.88Z" fill="#58513a"/><path d="M1972,160.23c1.54,1,2.69-1.45,4.61-1.91s-.38-.45,3.08.54c0,0-3.46-15.12-3.46-17.18C1976.22,141.68,1972.57,159.32,1972,160.23Z" fill="#58513a"/><path d="M1996.7,170.59c-1.32-5.55-2.82-12.19-2.82-13.65,0,0-5.05,22.24-5.84,23.39,2.12,1.25,3.71-1.83,6.37-2.41s-.53-.58,4.24.68c0,0-.3-1.19-.75-3a5.08,5.08,0,0,1,1.92-1.08c1.92-.46-.39-.46,3.08.54,0,0-3.47-15.12-3.47-17.19C1999.43,157.85,1997.93,165.13,1996.7,170.59Z" fill="#58513a"/><path d="M1944.26,188.78c-1.32-5.55-2.83-12.19-2.83-13.65,0,0-5,22.24-5.83,23.39,2.12,1.26,3.71-1.83,6.37-2.41s-.54-.57,4.24.68c0,0-.3-1.19-.74-3a5.32,5.32,0,0,1,1.91-1.08c1.92-.45-.38-.45,3.07.54,0,0-3.45-15.12-3.45-17.18C1947,176.05,1945.49,183.33,1944.26,188.78Z" fill="#58513a"/><path d="M1849.73,175.42a7.43,7.43,0,0,0,.83-.07C1849.22,175.42,1849.14,175.42,1849.73,175.42Z" fill="#58513a"/><path d="M1934.3,155.06s-2.82,17.63-3.26,18.55c1.19,1,2.07-1.45,3.56-1.91s-.3-.45,2.38.54C1937,172.24,1934.3,157.12,1934.3,155.06Z" fill="#58513a"/><path d="M1920.62,177.65c1.53,1,2.68-1.44,4.61-1.9s-.39-.46,3.07.53c0,0-3.46-15.12-3.46-17.18C1924.84,159.1,1921.19,176.74,1920.62,177.65Z" fill="#58513a"/><path d="M1910.29,172c1.54,1,2.7-1.46,4.62-1.92s-.39-.45,3.07.54c0,0-3.46-15.12-3.46-17.18C1914.52,153.48,1910.87,171.12,1910.29,172Z" fill="#58513a"/><path d="M1818.61,169.26a7.49,7.49,0,0,0,.82-.07C1818.09,169.26,1818,169.26,1818.61,169.26Z" fill="#58513a"/><path d="M1820,99.57h-1.41l1.67.08Z" fill="#58513a"/><path d="M722.74,95.91h0C722.86,95.84,722.74,95.91,722.74,95.91Z" fill="#58513a"/><path d="M881.64,69.92c-2.65-.29-13.26-1.73-13.26-1.73s-7.16-.58-8-.29a20.31,20.31,0,0,1-4.24,0,3.55,3.55,0,0,0-.34-.2,107.5,107.5,0,0,1-2-10.58s-1.34,6.48-2.53,11.79c-.07,0-.13.11-.2.15-1-4.54-2.76-12.59-2.76-14.06,0,0-2,9.53-3.24,14.94-1-4.41-2.06-9.73-2.06-10.89,0,0-1.51,7.28-2.74,12.73-1.32-5.55-2.82-12.19-2.82-13.65,0,0-1.89,8.33-3.54,15.05-2,0-4.27-.07-6.06-.19-1-4.6-2.35-10.93-2.35-12.21,0,0-1.3,6.3-2.48,11.57l-.58-.19c-1.23-5.23-2.5-10.95-2.5-12.29,0,0-.71,3.14-1.65,7.12a57.33,57.33,0,0,1-1.1-6.4S816.07,66.23,815,71.3c-.69.25-1.49.57-2.33.92-.92-4.29-1.93-9.17-1.93-10.28,0,0-1.37,6.63-2.56,12l-.33.08c-1.28-5.4-2.67-11.58-2.67-13,0,0-1.69,7.44-3.26,13.95l-1.37.15a51.18,51.18,0,0,1-1.2-6.59s-.67,3-1.56,6.75c-1-4.57-2.26-10.56-2.26-11.8,0,0-1.45,7-2.67,12.45a26.11,26.11,0,0,1-6.93-.23c-.42-.16-2-.7-3.41-1.19-1-4.63-2.55-11.78-2.55-13.15,0,0-1.61,7.77-2.86,13.26a4.7,4.7,0,0,0-.73.5,8.85,8.85,0,0,1-1,.79,79.58,79.58,0,0,1-1.46-8.12s-1,4.74-2,9.43a10.51,10.51,0,0,0-1.43.31,94,94,0,0,1-2.12-10.66s-1.9,8.36-3.55,15.09a3.77,3.77,0,0,0-.91.67c-.94,1-1.05,1.81-3.23,3.94-1-4.49-2.14-10.08-2.14-11.28,0,0-1.51,7.28-2.74,12.74-1.32-5.55-2.82-12.19-2.82-13.65,0,0-2.09,9.23-3.8,16.11-1-4.61-2.64-12.13-2.64-13.54,0,0-1.07,5.19-2.15,10.09a55,55,0,0,1-1-6.05s-1.38,6.69-2.58,12.05c-2.11.55-3.77.9-4.53,1-.92-4.27-1.91-9.1-1.91-10.21,0,0-1.27,6.13-2.43,11.35l-1.32.36c-1-4.62-2.62-12-2.62-13.44,0,0-1.65,8-2.9,13.48-1,.15-2.12.26-2.24.28s-.41.27-1.37.86A20.66,20.66,0,0,1,718,98.51l-3.71,1.73s1.32-.58-1.86.87-5,1.15-5.84,1.73-5.3,1.44-4.24,1.44,10.08.3,16.18.87,8,1.16,11.15,1.16,6.89.29,6.89.29c-1.59,1.15-5,1.15-1.59,1.15s2.65-.58,9.55.58,10.89,2,14.33,2.31c13.5,1.09,21.07,1.74,24.72,2.11-6.14.66,10.07-2.26,16.13-3.56,3.87-.82,2.92-1.44,5.31-2.31a16.46,16.46,0,0,0,5-2.3c1.47-.87,7.11-2.9,13.07-5,.28-.58,1.61-1.51,3.37-2.86,2.66-2,2.13-2.88,4.51-4.32s1.86-2.6,5.58-4.92S840,83.78,844,82.34s3.72-3.47,5.84-3.75S861,75.7,863.6,74.25s1.6.58,4.78-.29S884.3,70.21,881.64,69.92Z" fill="#072c2d"/><path d="M744.76,196.21a7.49,7.49,0,0,0,.82-.07C744.24,196.21,744.16,196.21,744.76,196.21Z" fill="#58513a"/><path d="M1694.47,181.67c2.77-.79.92-.79,2.46-.43s2.47,2.33,3.7,1.53c-.46-.73-3.39-14.88-3.39-14.88C1697.24,169.54,1694.47,181.67,1694.47,181.67Z" fill="#58513a"/><path d="M831.06,195.83c.15,0,.44,0,.83-.07C830.54,195.83,830.47,195.83,831.06,195.83Z" fill="#58513a"/><path d="M1438,152.19c1.71-.41.08-.45,2.16.25a30.28,30.28,0,0,1-.71,3.33c1.19,1,2.08-1.46,3.56-1.91s-.29-.46,2.38.53c0,0-2.67-15.12-2.67-17.18,0,0-1.22,7.63-2.19,13.11-1-4.35-2.91-13.24-2.91-14.78,0,0-3.65,17.64-4.23,18.56C1434.88,155.09,1436,152.64,1438,152.19Z" fill="#58513a"/><path d="M1608.5,262.25a53.27,53.27,0,0,0-6.37-4.05h-8.48s0-5.19-2.66-4.62-4.77,2.32-5.83.58c-.19-.31-.4-.68-.61-1.07-.68-4.06-4.43-26.16-4.43-26.16s-1,13.37-1.76,15.85-1.51-4-1.51-4-.55,4.21-1.15,8.65l-.62.34-2,4.06c-1.21-2-2.21-3.48-2.21-3.48l-4.24.57h-4.25l-2.65-2.31-1.52-2.21-4.05-23.86s-1,13.37-1.75,15.84-1.52-4-1.52-4-.1.81-.27,2.06a2.12,2.12,0,0,1-2-2.31c0-2.3.53-2.89,0-6.35s-2.13-19.06-2.13-19.06-2.65,13.28-3.71,17.33.53,1.15-1.06,4-2.12,1.15-2.65,5.2.53.58-.53,4l-1.07,3.47-3.71,1.15-1.06,2.89s-1.06-.58-2.65.58-3.72,2.89-3.72,2.89l-2.65-4.62s-2.12-3.47-2.12-5.21-.53-1.73-.53-5.19-3.72-19.64-3.72-19.64a134.45,134.45,0,0,0-4.24,16.75l-1.06,6.93s-5.84-3.46-5.84,0a20.59,20.59,0,0,1-1.06,6.36c-3.18,4.62-7.43,6.92-9,2.88s-3.71-4.62-3.71-4.62-3.18,1.16-3.72,2.89-2.12,4.62-4.24,1.73-1.06-4.62-2.12-2.88-2.12,4.62-3.72,5.19-5.3-3.46-5.3-3.46c-2.12,2.89-4.25,2.89-4.25,2.89l-4.77-.58-1.59,4a19.25,19.25,0,0,1-5.31,1.73c-3.18.58-14.85.58-14.85.58a13.67,13.67,0,0,0-2.66.58c-2.12.57-6.36,0-6.36,0s-5.31-2.31-8-1.16c-1.76.77-6.73,2.78-9.92,4.07,4.49.17,9.9,1,16.81,1.32,9.55.39,20.87.77,24.05,1.54s13.8.77,23.71,1.54,24.4.77,27.94.77h11.67c2.83,0,41.39-1.15,43.15-.77s35.73,1.93,41,1.93,3.89.38,8.84.38h5C1613.81,263.86,1609.58,263.13,1608.5,262.25Z" fill="#58513a"/><path d="M1689.37,178.28c0,1.13-1.29,7.16-2.11,10.86-.73-4.31-1.54-10.78-1.54-10.78,0,.71-.78,4.14-1.41,6.82-.73-3-1.54-6.46-1.54-6.46a39,39,0,0,1-.89,4.59l-.49-2.14a40.87,40.87,0,0,1-.89,4.57,5.34,5.34,0,0,1-3-2c-1-1.54-1.31-2.94-1.8-3.27-.23-.15-.4.06-.66.29-.69-2.82-1.38-5.81-1.38-5.81a37,37,0,0,1-.83,4.32c-.67-2.77-1.33-5.65-1.33-5.65a64.57,64.57,0,0,1-1.31,6.4,1.19,1.19,0,0,0-.7.13c-1,.6-.82,1.66-3.11.55a19.47,19.47,0,0,1-2.3-1.41c-.76-3.08-1.66-7-1.66-7,0,.76-.87,4.55-1.51,7.28-.71-2.87-1.43-6-1.43-6a34.76,34.76,0,0,1-.8,4.16L1658,175a42.19,42.19,0,0,1-.91,4.69h-.24c-.85.19-2.06,1.28-3.43,1.52-.8-3.16-1.84-7.68-1.84-7.68a32,32,0,0,1-.72,3.83c-.43-1.79-.75-3.21-.75-3.21a54.31,54.31,0,0,1-1.12,5.59,3.8,3.8,0,0,0-2.11-.31c-1.41.24-1.49-.39-3-.25-.41-1.73-.72-3.08-.72-3.08a26.19,26.19,0,0,1-.61,3.31l-.46.1c-.65-2.65-1.26-5.31-1.26-5.31a55.39,55.39,0,0,1-1.16,5.77,1.88,1.88,0,0,1-1.09-.2,16.13,16.13,0,0,0-2-.94s.81.48-1.8.46h-.2c-.64-2.67-1.26-5.34-1.26-5.34a32.74,32.74,0,0,1-.74,3.91c-.37-1.53-.74-3.09-1-4.2a61.15,61.15,0,0,0,7.16-1.49c1.59-.58,3.71-1.73,7.42-2.89.75-.23,1.95-.51,3.37-.81a14.78,14.78,0,0,1-.61,2.19c1.23.8,2.15-1.16,3.7-1.53s-.31-.36,2.46.43c0,0-.18-.82-.46-2,2.2-.4,4.41-.77,6.22-1.07a56,56,0,0,1-1.54,6c1.54,1,2.69-1.46,4.61-1.91,1.58-.38.31-.44,1.72.09-.31,1.4-.53,2.36-.53,2.36,2.77-.79.92-.79,2.46-.43s2.47,2.33,3.7,1.54c-.46-.73-3.39-14.88-3.39-14.88,0,.92-.86,5.08-1.62,8.59-1-4.56-2.72-12.47-2.72-13.92,0,0-1.43,6.9-2.64,12.29-1.77.15-4,.29-6.48.35-.82-3.71-2.1-9.65-2.1-10.78,0,0-1.32,6.35-2.32,10.77a54.77,54.77,0,0,1-6.47-.57c-.77-3.45-2.35-10.68-2.35-11.93,0,0-1.39,6.68-2.4,11.1-5.44-1-8.18-1.46-9.73-1.6-.38-.78-.88-1.87-1.37-3.09a2.32,2.32,0,0,0-.88-.38,33.68,33.68,0,0,1-.73-3.88s-.24,1-.58,2.5a25.4,25.4,0,0,1-.56-3.11s-.66,2.85-1.33,5.6a10.89,10.89,0,0,0-2.27.58,4.87,4.87,0,0,1-1.31.29c-.65-2.73-1.67-7.13-1.67-7.95,0,0-.68,2.94-1.36,5.73a34.59,34.59,0,0,1-.74-3.9s-.77,3.36-1.5,6.31a11.6,11.6,0,0,0-2.08.05,6.9,6.9,0,0,0-2.81,1.41,52.56,52.56,0,0,1-1.12-5.57l-.44,1.9a46.08,46.08,0,0,1-1-5s-.68,2.95-1.36,5.74a35,35,0,0,1-.74-3.91s-.58,2.54-1.21,5.14c-.77-.77-1.3-1.11-2.4-.22l-.44.36a2.57,2.57,0,0,0-.59-.06h-.2c-.63-2.68-1.4-6.07-1.4-6.78,0,0-.64,2.82-1.31,5.55l-.69-.42-.42-.26a58.71,58.71,0,0,1-1.25-6.17s-.68,2.94-1.36,5.74a32.74,32.74,0,0,1-.74-3.91s-.62,2.66-1.26,5.34h-.2c-2.61,0-1.8-.47-1.8-.47a17,17,0,0,0-2,.95,1.88,1.88,0,0,1-1.09.2,57.75,57.75,0,0,1-1.16-5.78s-.61,2.66-1.25,5.32l-.47-.1a26.19,26.19,0,0,1-.61-3.31s-.31,1.35-.72,3.08c-1.55-.14-1.63.48-3,.24a4,4,0,0,0-2.11.31,54.84,54.84,0,0,1-1.12-5.58s-.32,1.41-.75,3.21a32,32,0,0,1-.72-3.84s-1,4.53-1.84,7.68c-1.37-.24-2.58-1.32-3.43-1.51h-.24a42.19,42.19,0,0,1-.91-4.69l-.63,2.74a34.42,34.42,0,0,1-.8-4.17s-.72,3.16-1.43,6c-.64-2.73-1.51-6.52-1.51-7.28,0,0-.9,3.9-1.67,7a21.08,21.08,0,0,1-2.29,1.41c-2.29,1.1-2.13,0-3.11-.55a1.26,1.26,0,0,0-.7-.14,64,64,0,0,1-1.31-6.39s-.66,2.87-1.33,5.65a37,37,0,0,1-.83-4.32s-.69,3-1.38,5.81c-.26-.23-.43-.44-.66-.29a11.13,11.13,0,0,0-1.39,2.54,3.57,3.57,0,0,0-.46,0c-.58-2.5-1-4.31-1-4.31a43.45,43.45,0,0,1-1,5.35c-.18.06-.56.18-1.31.48a28.7,28.7,0,0,1-.61-3.33l-.49,2.14a38.66,38.66,0,0,1-.89-4.6s-.81,3.48-1.54,6.47c-.63-2.68-1.41-6.11-1.41-6.82,0,0-.91,4-1.68,7.07a9.77,9.77,0,0,0-2,1.37h-.82a13.73,13.73,0,0,1-2.41-.22c-1.31-5.41-2.66-11.37-2.66-11.37a96.62,96.62,0,0,1-2.13,10.46l-.23,0a3,3,0,0,1-1.18-.3c-1-4.32-1.89-8.16-1.89-8.16a57.65,57.65,0,0,1-1.34,7h-.25c-.61-2.62-1-4.54-1-4.54a39.58,39.58,0,0,1-.9,5.06,6.23,6.23,0,0,0-.82.36c-4.21,2.29-6.33.61-7.92.58-1.15-4.81-2.2-9.45-2.2-9.45a59,59,0,0,1-1.33,7c-.79-3.37-1.38-6-1.38-6a59.75,59.75,0,0,1-1.35,7.08,2.7,2.7,0,0,0-.68.22c-1.83,1-.9,1.57-5.07,2.08-1.57-.12-2.1-.9-4.47-.83-.76-3.24-1.33-5.76-1.33-5.76a48.74,48.74,0,0,1-1.12,6l-.87.14c-1.19-5-2.31-9.95-2.31-9.95a96.88,96.88,0,0,1-2.15,10.52,3.54,3.54,0,0,1-2-.5,34.23,34.23,0,0,0-3.62-2s1.51,1-3.32.65l-.37,0c-1.19-5-2.32-10-2.32-10a59.32,59.32,0,0,1-1.37,7.13c-1.25-5.23-2.5-10.73-2.5-10.73a108.32,108.32,0,0,1-2.31,11.23c-.2.11-.45.25-.79.42l-1.26.71c-1.23-5.13-2.43-10.4-2.43-10.4,0,1.31-1.41,7.49-2.58,12.35a2.19,2.19,0,0,1-.36,0,5.77,5.77,0,0,0-2,.14,5.27,5.27,0,0,1-1.59-.63,16.57,16.57,0,0,0-3.07-1.5c-1-4.33-1.9-8.2-1.9-8.2a56.91,56.91,0,0,1-1.33,7l-.07,0c-1.24-5.19-2.46-10.59-2.46-10.59a73.92,73.92,0,0,1-1.67,8.45l-.36-.2c-.37-1.61-.62-2.67-.62-2.67a15.6,15.6,0,0,1-.31,2.17l-1.47-.81s0,1.74-4.25,2.89c-.57.16-1.15.28-1.72.38l-.7-3.06a23.36,23.36,0,0,1-.55,3.25c-.85.11-1.69.17-2.53.24-1.19-5-2.32-10-2.32-10a58.93,58.93,0,0,1-1.36,7.13c-1.26-5.23-2.51-10.74-2.51-10.74,0,1.48-1.8,9.15-3,14.13-.65-2.81-1.16-5.09-1.16-5.09a39.55,39.55,0,0,1-.93,4.93,2.18,2.18,0,0,1-.4-.17h0c-.94-4-1.84-8-1.84-8a60.55,60.55,0,0,1-1.39,6.91l-1-.24c-1.24-5.16-2.45-10.49-2.45-10.49a45.45,45.45,0,0,1-1,5.66c-.62-2.7-1.07-4.68-1.07-4.68a59.78,59.78,0,0,1-1.35,7.09,3.86,3.86,0,0,0-1.62.6c-.18.42-.43,1.06-.73,1.86a9,9,0,0,0-2.68-.25,21.74,21.74,0,0,1-3.37-.1c-1.15-4.62-2.8-12-2.8-12a77.88,77.88,0,0,1-1.7,8.21c-.94-4-1.84-8-1.84-8a109.36,109.36,0,0,1-2.32,10.77c-1.72-7-3.88-16.66-3.88-16.66,0,1.79-2.26,11.24-3.67,17-1.21-5.48-2.67-12.57-2.67-12.57,0,1.24-1.24,7.11-2.24,11.61a6,6,0,0,1-.62-.31l-4.77-2.84c-1.61-6.68-3.36-14.51-3.36-14.51,0,1.39-1.37,7.43-2.65,12.74-2.1-1.44-5.48-3.73-7.3-4.14-.82-3.5-1.54-6.7-1.54-6.7a63.38,63.38,0,0,1-1.48,7.3c-1.59-6.61-3.31-14.27-3.31-14.27,0,1.57-1.74,9.06-3.12,14.74l-1-.53c-1.74-7-4-17.32-4-17.32a97.47,97.47,0,0,1-2.23,11c-.76-3.32-1.31-5.77-1.31-5.77,0,1.29-1.19,6.65-2.39,11.69a41,41,0,0,1-6.37-1.54c-1.34-5.67-2.56-11.12-2.56-11.12a80,80,0,0,1-1.87,9.48c-2-.85-3.79-1.68-3.79-1.68s.19,1.4-1.73,1.74c-1.56-6.54-3.22-13.93-3.22-13.93,0,1.37-1.34,7.3-2.6,12.57-1.51-6.36-3.06-13.25-3.06-13.25,0,1.32-1.24,6.84-2.45,11.94a30.26,30.26,0,0,1-3.91-1.87h0c-1.64-6.8-3.52-15.19-3.52-15.19a67.64,67.64,0,0,1-1.6,8.3c-1.07-4.6-1.94-8.47-1.94-8.47,0,1.31-1.21,6.72-2.39,11.79H1306c-3.89,1.73.34,1.18-3.89,1.73-2.95.39-2.15,1.7-3.27,2.11-1.71-7-3.81-16.33-3.81-16.33,0,1.44-1.47,7.86-2.77,13.3-1.57-6.55-3.24-14-3.24-14,0,1.43-1.43,7.69-2.72,13.08l-.46-.15a33.28,33.28,0,0,0-4.39-1c-1.75-7-4.1-17.55-4.1-17.55,0,1.63-1.88,9.63-3.28,15.37-1.52-6.39-3.09-13.38-3.09-13.38a74.2,74.2,0,0,1-1.72,8.83c-1.32-5.62-2.52-11-2.52-11,0,1.39-1.36,7.36-2.62,12.65-1.09-4.68-2-8.64-2-8.64a91.31,91.31,0,0,1-2.08,10.38c-1.29,0-2.52,0-3.93.09a13.47,13.47,0,0,1-1.56,0c-1.13-4.27-3.21-13.54-3.21-13.54a101,101,0,0,1-2.14,10c-.9-3.9-1.58-7-1.58-7a83,83,0,0,1-1.91,9.65c-.93-4-1.63-7.14-1.63-7.14a9,9,0,0,1-.12,1.11c-.34-1.95-2.63-15-2.63-16.91,0,0-2.82,17.64-3.27,18.55,1.19,1,2.08-1.45,3.57-1.91s-.24-.45,2.3.51c-.32,2-1.11,5.51-1.94,9.08a6.88,6.88,0,0,1-3.22-.68,12.16,12.16,0,0,0-5.47-1.6c-1.5-6.31-3-13.09-3-13.09a66.44,66.44,0,0,1-1.56,8.14c-.74-3.22-1.27-5.59-1.27-5.59,0,1.44-1.45,7.79-2.75,13.21-1.45.74-2.76,1.47-4,2.09-1.33-5.33-3.09-13-3.86-16.43a22,22,0,0,1,2.22-.5c2.12-.39,7.07-.78,7.07-.78a10.53,10.53,0,0,1-6.72-1.92c-1-.7-1.77-1.29-2.45-1.77-.78-4.56-2.12-12.52-2.12-14,0,0-1.17,7.31-2.12,12.76a9.56,9.56,0,0,1-2.15-.47l-.48.36c-1-4.55-2.23-10.45-2.23-11.68,0,0-2.14,10.32-3.4,15.58a16.39,16.39,0,0,1-4.5,1.9l1.41.38.49,0c-.25,1.9-1.14,5.9-2.08,9.89-.21.15-.4.31-.62.45-1.29-5.45-2.71-11.77-2.71-13.19,0,0-.39,1.71-1,4.18a66.84,66.84,0,0,1-1.52-8s-1.61,7.1-3.15,13.49A96.66,96.66,0,0,1,1188.7,121s-1.68,7.37-3.25,13.85c-1-4.47-1.87-8.18-1.87-8.18a46.1,46.1,0,0,1-1.1,6.1l-.51-.61a14.14,14.14,0,0,1-1.15.87c-.26-.21-.42-.36-.42-.36l-.31.36a55.18,55.18,0,0,1-1.3-7s-.9,4-2,8.64c-1.53-6.42-3.11-13.47-3.11-13.47a93.75,93.75,0,0,1-2.15,10.67c-1.55-6.46-3.16-13.64-3.16-13.64a64.4,64.4,0,0,1-1.51,8c-.57-2.5-1-4.23-1-4.23,0,1.42-1.43,7.67-2.72,13a2,2,0,0,1-.38-.55c-1.2-5.12-2.4-10.58-2.4-11.88,0,0-2.6,11.45-4.36,18.35l-.59.13c-1.38.28-2.49.46-3.42.56-1.41-5.81-3.66-15.34-3.66-17.12l-1,4.37a64,64,0,0,1-1.47-7.83s-2.5,11-4.26,17.94c-1.19-.68-2.5-1.47-4-2.29-1.3-5.48-2.75-11.91-2.75-13.34,0,0-.53,2.33-1.27,5.51a68.11,68.11,0,0,1-1.56-8.21s-1.52,6.7-3,12.93a11.8,11.8,0,0,0-5.47,1.32,6.66,6.66,0,0,1-3.21.52,92.73,92.73,0,0,1-2.09-10.53s-.71,3.1-1.63,7a83,83,0,0,1-1.91-9.75s-.68,3-1.59,6.88a103.8,103.8,0,0,1-2.14-10.17s-2.08,9.18-3.2,13.39a11.83,11.83,0,0,1-1.56-.09c-1.41-.19-2.65-.19-3.93-.29a93.31,93.31,0,0,1-2.08-10.49s-.89,3.92-2,8.55c-1.27-5.35-2.62-11.4-2.62-12.79,0,0-1.2,5.3-2.52,10.86a75,75,0,0,1-1.73-8.93s-1.56,6.91-3.09,13.23c-1.4-5.82-3.27-13.91-3.27-15.54,0,0-2.36,10.39-4.1,17.34a33,33,0,0,0-4.39.76l-.46.12c-1.3-5.45-2.73-11.79-2.73-13.21,0,0-1.66,7.35-3.23,13.83-1.31-5.51-2.78-12-2.78-13.45,0,0-2.1,9.26-3.8,16.14-1.12-.47-.33-1.74-3.27-2.28-4.25-.77,0,0-3.89-1.92l-.07,0c-1.2-5.13-2.41-10.61-2.41-11.92,0,0-.87,3.83-1.94,8.39a70.11,70.11,0,0,1-1.6-8.39s-1.88,8.29-3.52,15a0,0,0,0,0,0,0,28.68,28.68,0,0,1-3.92,1.66c-1.22-5.16-2.45-10.74-2.45-12.06,0,0-1,4.57-2.24,9.68-.6-1.28-1.25-2.71-1.89-4.27a5.66,5.66,0,0,0-.75-.36,35.76,35.76,0,0,1-.78-4.66s-.26,1.16-.68,3a56.29,56.29,0,0,1-1.27-7s-.53,2.32-1.27,5.5a53.4,53.4,0,0,1-1.21-6.65s-1.42,6.25-2.87,12.3c-.88.21-1.81.45-2.66.7a29.38,29.38,0,0,1-.65-4l-1.06,4.62c-.19.08-.39.16-.54.24a11.27,11.27,0,0,1-2.83.81c-1.41-5.82-3.63-15.21-3.63-17,0,0-1.46,6.45-2.93,12.59a69.31,69.31,0,0,1-1.6-8.37s-.65,2.86-1.52,6.58a34.65,34.65,0,0,1-.75-4.5s-1.35,6-2.76,11.85c-.73,0-1.52.14-2.73.33a6.29,6.29,0,0,0-.74.22,83.9,83.9,0,0,1-1.9-9.7s-1.46,6.42-2.93,12.54c-.17.12-.33.25-.51.37-.46-2-.93-4-1.32-5.83a2.73,2.73,0,0,1,0-.36l0,.12a46.12,46.12,0,0,1-1-5.83s-.39,1.71-1,4.18a96.36,96.36,0,0,1-2.13-10.73s-1.47,6.46-2.94,12.59a68.52,68.52,0,0,1-1.59-8.36s-1,4.41-2.18,9.4a27.27,27.27,0,0,1-.62-3.86s-.73,3.21-1.68,7.25c-1.75-.27-4.1-1.12-5.58-.85a3.13,3.13,0,0,1-.43,0c-1.36-5.7-3-12.94-3-14.47,0,0-1.4,6.17-2.84,12.18l-1.5-.83-.91-.49c-1.29-5.45-2.71-11.76-2.71-13.18,0,0-1.46,6.46-2.94,12.59a68.52,68.52,0,0,1-1.59-8.36s-1.33,5.86-2.73,11.72l-.43,0c-5.66.38-3.89-.78-3.89-.78a42.24,42.24,0,0,0-4.25,2.31,4.07,4.07,0,0,1-2.35.59c-1.24-5.24-2.51-11-2.51-12.33,0,0-1.32,5.82-2.72,11.66l-1-.16a56,56,0,0,1-1.3-7.07s-.67,2.95-1.56,6.76c-3.36-.1-3.54,1.27-6.58.94a8.77,8.77,0,0,0-4.57,1c-1.2-5.13-2.41-10.62-2.41-11.93,0,0-.71,3.1-1.63,7a68.08,68.08,0,0,1-1.56-8.2s-2.25,9.92-4,16.86c-3-.32-5.59-2.52-7.43-2.81a2.79,2.79,0,0,0-.5,0,87.29,87.29,0,0,1-2-10s-.59,2.58-1.38,6a75.5,75.5,0,0,1-1.72-8.88s-1.56,6.91-3.09,13.22c-1.4-5.81-3.27-13.91-3.27-15.54,0,0-1.94,8.55-3.6,15.33a50.56,50.56,0,0,1-5,3.35c-5,2.69-4.6.39-6.72-.77a2.46,2.46,0,0,0-1.51-.2c-1.32-5.55-2.82-12.2-2.82-13.66,0,0-1.44,6.33-2.9,12.4a79.37,79.37,0,0,1-1.79-9.23s-1.49,6.57-3,12.76c-.58-.46-.93-.9-1.44-.53-1.06.77-1.77,3.85-3.89,7.32-1.63,2.65-4.08,3.72-6.57,4.77a84.28,84.28,0,0,1-1.92-9.78s-.45,1.95-1.08,4.71a86,86,0,0,1-1.93-9.81s-1.73,7.63-3.32,14.18c-1.37-5.71-3.05-13-3.05-14.57,0,0-2,8.73-3.65,15.53-.48-.14-2,.5-3.34,1h-.63l-5.57-.29s-1.86.58-2.65.86c0,0-5.57-1.15-6.64-1.15a10.9,10.9,0,0,1-4.24-.86c-2.65-.87-1.33.28-2.65.28-1,0-3.12.51-5.12.75-1.31-4.71-2.51-6-2.51-6,0,1.31-1,1.21-2.19,6.08C807.86,154.14,806,154,806,154a70.71,70.71,0,0,1-1.58,8.11h-.12l-.87-3.76c0,1-2.61-4.67-3.47-.9-1.46-.61-2,3.13-2.71,4.79l-1.26,0c-1.64-2.81-2.25-5.26-3.12-5.89-.43-.31-.73.06-1.23.46-1.27-5.28-2.54-10.88-2.54-10.88a67.29,67.29,0,0,1-1.52,7.87c-1-4.32-2-8.74-2.37-10.11l.53.08a2,2,0,0,1-.15.39,1.49,1.49,0,0,0,1.73-.12c2.5.44,5.29,1,5.92,1,1.06,0,.7-.38,2.83-.77s2.82-.77,5-1.15,7.07-.77,7.07-.77a10.57,10.57,0,0,1-6.72-1.93c-1-.7-1.77-1.29-2.45-1.77-.78-4.56-2.12-12.52-2.12-14,0,0-1.17,7.3-2.12,12.75a9.56,9.56,0,0,1-2.15-.47l-.48.36c-1-4.54-2.23-10.45-2.23-11.68,0,0-2.14,10.32-3.4,15.58a16.52,16.52,0,0,1-4.5,1.9l1.41.38a15,15,0,0,1,1.74.2c-.19,1.79-1.34,6.87-2.37,11.21a2.07,2.07,0,0,0-1.29.17c-1.81,1-1.51,3-5.73.66a44.32,44.32,0,0,1-4.25-2.86c-1.41-5.78-3.07-13.07-3.07-13.07,0,1.39-1.6,8.29-2.79,13.25-1.3-5.39-2.64-11.28-2.64-11.28a64.79,64.79,0,0,1-1.46,7.58c-.68-2.92-1.18-5.11-1.18-5.11a73.89,73.89,0,0,1-1.68,8.53,3.08,3.08,0,0,0-.43,0c-1.57.24-3.8,2.12-6.33,2.39-1.48-5.91-3.4-14.37-3.4-14.37a56.84,56.84,0,0,1-1.33,7c-.78-3.37-1.38-6-1.38-6a93.56,93.56,0,0,1-2.07,10.18,7.37,7.37,0,0,0-3.89-.82c-2.6.28-2.74-.89-5.61-.81-.76-3.24-1.33-5.76-1.33-5.76a49.11,49.11,0,0,1-1.12,6l-.86.13c-1.19-5-2.32-9.94-2.32-9.94a99.08,99.08,0,0,1-2.14,10.51,3.56,3.56,0,0,1-2-.5,36.42,36.42,0,0,0-3.62-2s1.51,1-3.32.66l-.36,0c-1.2-5-2.33-10-2.33-10a61.12,61.12,0,0,1-1.36,7.14c-1.26-5.24-2.51-10.74-2.51-10.74,0,1.21-1.21,6.59-2.31,11.23l-.78.43-1.27.7c-1.23-5.13-2.43-10.39-2.43-10.39,0,1.3-1.41,7.48-2.57,12.34-.12,0-.25,0-.37,0-1.68-.31-4.64,1.06-6,.73-1.27-5.28-2.55-10.92-2.55-10.92a58.93,58.93,0,0,1-1.36,7.13c-1.25-5.23-2.5-10.74-2.5-10.74a80.12,80.12,0,0,1-1.83,9.14c-.48-2.09-.81-3.56-.81-3.56A92.17,92.17,0,0,1,684,152.05c-1.83-1.24-3.26-2.62-5.18-2.92a21.88,21.88,0,0,0-3.85-.33c-1.34-5.53-2.77-11.83-2.77-11.83a58.93,58.93,0,0,1-1.36,7.13c-1.26-5.23-2.51-10.73-2.51-10.73,0,1.51-1.88,9.52-3.09,14.48-.3,0-.59-.12-.86-.18-.92-4.12-1.82-8.15-1.86-10.75-.54.47-2.31,5.62-2.92,6.05-1.29-5.38-2.71-11.64-2.71-13.06,0,0-.39,1.74-1,4.23a64.78,64.78,0,0,1-1.52-7.95s-1.61,7.18-3.15,13.65a94.59,94.59,0,0,1-2.16-10.68s-1.78,8-3.4,14.69a21.63,21.63,0,0,1-3.32-3.18,16,16,0,0,1-1.79,1.37,58.71,58.71,0,0,1-1.39-7.37s-1.23,5.49-2.57,11.18a17.2,17.2,0,0,1-3.8.31c-.58,0-1.12,0-1.64.05-1.35-5.58-3-12.55-3-14.06,0,0-1.92,8.59-3.58,15.44l-.5.2c-1.41-5.77-3.34-14-3.34-15.64,0,0-2.6,11.58-4.36,18.57l-.59.16c-1.38.36-2.49.59-3.42.74-1.41-5.74-3.66-15.15-3.66-16.93l-1,4.41a62.36,62.36,0,0,1-1.47-7.75s-2.5,11.14-4.26,18.16c-1.19-.61-2.51-1.34-4-2.08-1.3-5.43-2.75-11.78-2.75-13.21,0,0-.53,2.36-1.27,5.59a66.8,66.8,0,0,1-1.56-8.14s-1.52,6.77-3,13.09a12.16,12.16,0,0,0-5.47,1.59,6.75,6.75,0,0,1-3.21.68,89.92,89.92,0,0,1-2.09-10.42s-.71,3.14-1.63,7.14a81.54,81.54,0,0,1-1.91-9.65s-.69,3-1.59,7A100.48,100.48,0,0,1,571.45,131s-2.08,9.28-3.21,13.54a11.4,11.4,0,0,1-1.55,0c-1.41-.12-2.65,0-3.93-.09a90.46,90.46,0,0,1-2.08-10.38s-.89,4-2,8.65c-1.27-5.29-2.62-11.26-2.62-12.65,0,0-1.2,5.35-2.52,11a72.88,72.88,0,0,1-1.73-8.84s-1.56,7-3.09,13.39c-1.4-5.75-3.27-13.75-3.27-15.38,0,0-2.36,10.52-4.1,17.55a35,35,0,0,0-4.39,1l-.46.15c-1.3-5.38-2.73-11.65-2.73-13.07,0,0-1.66,7.44-3.23,14-1.31-5.45-2.78-11.86-2.78-13.31,0,0-2.1,9.37-3.8,16.34-1.12-.42-.33-1.73-3.27-2.12-4.25-.55,0,0-3.89-1.72l-.07,0c-1.2-5.06-2.41-10.48-2.41-11.79,0,0-.87,3.87-1.94,8.48a67.64,67.64,0,0,1-1.6-8.3s-1.88,8.38-3.52,15.19h0a31.22,31.22,0,0,1-3.92,1.86c-1.22-5.1-2.45-10.61-2.45-11.93,0,0-1.55,6.88-3.06,13.24-1.26-5.26-2.6-11.19-2.6-12.57,0,0-1.66,7.39-3.22,13.93-1.92-.34-1.73-1.74-1.73-1.74s-1.77.83-3.79,1.68a80,80,0,0,1-1.87-9.48s-1,4.41-2.16,9.42l-1.23-.06c-7.43-.38,0,0-2.48-1.54s0,0-1.41-1.93-1.42.77-1.42.77a13.53,13.53,0,0,1-1.31,1.33,55.84,55.84,0,0,1-1.31-7s-.55,2.46-1.31,5.78a97.05,97.05,0,0,1-2.23-11s-1.24,5.55-2.59,11.28c-1.32,0-2.57,2.32-2.57,2.32a19.25,19.25,0,0,1-1.52-2.82,61.58,61.58,0,0,1-1.45-7.67l-.57,2.5c-.19.05-.1,2.21-1.76,3-2.48,1.16,0,0-.71-1.15a11.94,11.94,0,0,1-1.06-2.31l-.71-3.85s-2.12,5-3.18,5.39-.71-6.55-.71-6.55l-1.19,3.72-.58-6.8-1.88,4.92a88.62,88.62,0,0,1-2-10.05s-.39,1.71-1,4.18a66.48,66.48,0,0,1-1.52-8s-1.6,7.1-3.15,13.48a96.19,96.19,0,0,1-2.15-10.78s-1.79,7.88-3.41,14.51a23.57,23.57,0,0,1-3.31-3.35,14.78,14.78,0,0,1-1.8,1.28,59.26,59.26,0,0,1-1.38-7.44s-1.18,5.19-2.49,10.69l-2.87.51-1,0c-.58,0-1.12,0-1.64,0-1.35-5.66-3-12.71-3-14.22,0,0-1.93,8.49-3.59,15.26l-.5.17c-1.4-5.84-3.34-14.16-3.34-15.81,0,0-1.5,6.62-3,12.82-1.36-.59-.93,1.16-.93,1.16l-4.59-.76-.71,2.29c-1.31-5.54-2.8-12.14-2.8-13.59,0,0-.41,1.8-1,4.37a64,64,0,0,1-1.47-7.83s-2.5,11-4.25,17.94c-1.2-.68-2.51-1.47-4-2.29-1.31-5.48-2.76-11.91-2.76-13.34,0,0-.53,2.33-1.27,5.52a67.38,67.38,0,0,1-1.55-8.22s-1.52,6.7-3,12.93a11.64,11.64,0,0,0-5.46,1.32,6.68,6.68,0,0,1-3.22.51A92.28,92.28,0,0,1,369.14,138s-.7,3.1-1.63,7.05a85.27,85.27,0,0,1-1.91-9.75s-.68,3-1.58,6.88A103.8,103.8,0,0,1,361.88,132s-2.08,9.18-3.21,13.38a12.08,12.08,0,0,1-1.56-.08c-1.41-.19-2.65-.19-3.93-.29a93.31,93.31,0,0,1-2.08-10.49s-.89,3.92-2,8.55c-1.27-5.35-2.62-11.4-2.62-12.79,0,0-1.2,5.3-2.52,10.85a76,76,0,0,1-1.72-8.92s-1.57,6.91-3.09,13.23c-1.4-5.82-3.28-13.91-3.28-15.54,0,0-2.35,10.39-4.1,17.34a33,33,0,0,0-4.39.76l-.46.12c-1.29-5.45-2.72-11.79-2.72-13.22,0,0-1.67,7.37-3.24,13.84-1.31-5.51-2.78-12-2.78-13.45,0,0-2.1,9.26-3.8,16.14-1.12-.47-.33-1.74-3.27-2.28-4.24-.77,0,0-3.89-1.92l-.06,0c-1.2-5.13-2.42-10.61-2.42-11.92,0,0-.86,3.83-1.93,8.38a69.34,69.34,0,0,1-1.6-8.38s-1.88,8.29-3.53,15a0,0,0,0,1,0,0,30,30,0,0,1-3.92,1.66c-1.21-5.16-2.45-10.73-2.45-12.06,0,0-1.54,6.81-3.06,13.1-1.26-5.34-2.6-11.34-2.6-12.71,0,0-1.65,7.3-3.22,13.76-1.91-.44-1.73-1.83-1.73-1.83s-1.77.75-3.79,1.49a81.8,81.8,0,0,1-1.87-9.58s-1.22,5.39-2.55,11a38.63,38.63,0,0,1-6.38,1.21c-1.19-5.09-2.39-10.51-2.39-11.81,0,0-.55,2.43-1.31,5.71a99.13,99.13,0,0,1-2.22-11.1s-2.31,10.18-4.05,17.12l-1,.48c-1.38-5.75-3.12-13.33-3.12-14.9,0,0-1.72,7.56-3.3,14.1a66.14,66.14,0,0,1-1.49-7.38s-.71,3.17-1.53,6.63c-1.83.31-5.21,2.43-7.31,3.77-1.27-5.39-2.64-11.49-2.64-12.89,0,0-1.76,7.75-3.36,14.34l-4.78,2.6a5.19,5.19,0,0,1-.62.28c-1-4.55-2.24-10.49-2.24-11.72,0,0-1.45,7-2.67,12.43-1.41-5.81-3.66-15.37-3.66-17.16,0,0-2.17,9.56-3.89,16.47-.93-3.85-2.31-9.76-2.31-10.9,0,0-.91,4-1.85,7.91a79.19,79.19,0,0,1-1.69-8.29s-1.65,7.27-2.81,11.83a21.23,21.23,0,0,1-3.37-.08c-2.48-.38-6.72,1.16-8.84,1.54a7.79,7.79,0,0,0-2.41,1,94.94,94.94,0,0,1-2-9.67s-1.06,4.65-2.08,8.86a49.9,49.9,0,0,1-1.11-5.79s-1.6,7-2.75,11.63c-.55.27-1.14.51-1.76.75-.93-3.85-2.21-9.35-2.21-10.45,0,0-1.66,7.34-2.82,11.91l-.91.19c-.63-2.56-3-12.15-3-13.64,0,0-1.21,5.34-2.28,9.73-.4-1.29-.79-2.46-1.1-3.24-1.06-2.69-9.19.39-9.19-.76s-15.57-6.55-17-8.09,25.47-3.47,25.47-3.47,9.55-2.31,15.21-3.46,6.36-1.54,11.67-2.7,6-1.92,7.43-2.69a81.94,81.94,0,0,1,10.25-3.85c1.77-.39,17.69-3.08,17.69-3.08s18.75-4.24,23-6.55,9.2-2.31,21.58-5.77,3.89-1.16,2.47-3.08,0,0,2.48-1.54,6-.39,11-2.7,3.89-1.54,6-3.46,3.89,0,7.07-1.16,3.54-.38,5.66-.77,7.08-.77,9.55-1.93,3.18-.38,3.18-.38a19.61,19.61,0,0,0,4.25-2.7c1.06-1.15,3.54-.76,4.6-2.3s2.47-.39,4.6-.39,1.77-1.15,3.53-2.69,14-5.4,14-5.4a59.36,59.36,0,0,1-7.26-.38,16.52,16.52,0,0,0-3.89-.77c-1.41,0,0,0-1.41-1.16s0,0-3.92.47c0,0-2.2-4-4.3-9.08a4.77,4.77,0,0,0-1.9-.71,69,69,0,0,1-1.58-8.31l-1.26,5.5A51.86,51.86,0,0,1,327,76.55s-1.41,6.26-2.86,12.3a24.29,24.29,0,0,0-4.92,1.56,11.14,11.14,0,0,1-2.83.81c-1.41-5.81-3.62-15.21-3.62-17,0,0-1.47,6.45-2.94,12.59a68.55,68.55,0,0,1-1.59-8.37s-1.68,7.4-3.25,13.88a24.18,24.18,0,0,0-4.51.38c-2.26.35-3.93,2-6.08,3.43C293.19,91,292,85.56,292,84.25c0,0-.39,1.71-1,4.18a94.8,94.8,0,0,1-2.14-10.73s-1.46,6.46-2.94,12.59a70.26,70.26,0,0,1-1.59-8.36s-1.5,6.61-3,12.81c-1.62.39-5.1-1.22-7.07-.87a3.13,3.13,0,0,1-.43,0c-1.36-5.7-3-12.94-3-14.47,0,0-1.4,6.17-2.84,12.18l-1.49-.83-.92-.49c-1.29-5.45-2.71-11.76-2.71-13.18,0,0-1.46,6.46-2.93,12.6a69.31,69.31,0,0,1-1.6-8.37s-1.33,5.86-2.73,11.72l-.43,0c-5.66.38-3.89-.78-3.89-.78a40.31,40.31,0,0,0-4.24,2.32,4.2,4.2,0,0,1-2.36.58c-1.23-5.24-2.51-11-2.51-12.33,0,0-1.32,5.82-2.71,11.66l-1-.16a56.69,56.69,0,0,1-1.31-7.07s-.52,2.31-1.25,5.46a35.78,35.78,0,0,0-2.61-2.85,9.38,9.38,0,0,1-3.9,1.93c-2.12.38-.35-3.47-.35-3.47a17.13,17.13,0,0,1-2.83,3.85c-1.51,1.65-1.59,1.74-2.15,2.07a91.16,91.16,0,0,1-2-10.26s-.7,3.1-1.63,7a67.71,67.71,0,0,1-1.55-8.21s-1.87,8.22-3.51,14.93c-1.81-2.7-.53-2.16-1.15-2.5s0,0-1.77.39,0,0-1.06-1.54-.71-2.31-.71-4.62,0,0-1.06,2.69S208.17,95,206.93,97a87.29,87.29,0,0,1-2-10s-.58,2.58-1.38,6a74.71,74.71,0,0,1-1.71-8.88S200.3,91,198.78,97.28c-1.4-5.81-3.28-13.9-3.28-15.53,0,0-1.94,8.54-3.6,15.32a50.56,50.56,0,0,1-5,3.35c-4.95,2.69-4.59.39-6.72-.77a2.43,2.43,0,0,0-1.5-.2c-1.32-5.55-2.83-12.2-2.83-13.66,0,0-1.44,6.33-2.89,12.4a77.93,77.93,0,0,1-1.8-9.22s-1.49,6.56-3,12.75c-.58-.46-.94-.9-1.45-.53a3.93,3.93,0,0,0-1,1.45,55.53,55.53,0,0,1-1.3-7s-1.29,5.67-2.66,11.44a6,6,0,0,1-1,.19c-1.18-5-2.34-10.34-2.34-11.63,0,0-1.25,5.52-2.6,11.19l-.23,0a1.48,1.48,0,0,1-.79-.25,21.72,21.72,0,0,1-.46-3l-.49,2.15c-.69-.9-1.25-2.09-1.77-2.79a33.78,33.78,0,0,1-.74-4.46l-.24,1a51.89,51.89,0,0,1-1.17-6.5s-1,4.49-2.21,9.53a90.16,90.16,0,0,1-2-10.3s-1.76,7.78-3.37,14.38a12.3,12.3,0,0,0-4.06,1.8,5.29,5.29,0,0,1-1.52.91c-1.19-5.06-2.37-10.41-2.37-11.7,0,0-.91,4-2,8.72A1.46,1.46,0,0,0,132,106a62.76,62.76,0,0,1-1.45-7.71s-.66,2.9-1.53,6.65a57.47,57.47,0,0,1-1.3-7s-1.45,6.39-2.91,12.49c-.7.59-1.49,1.3-2.31,2a81.44,81.44,0,0,1-1.85-9.51s-1.58,6.94-3.1,13.27l-.26.12a86.45,86.45,0,0,1-2-9.92s-1.16,5.14-2.46,10.61l-.52-.49c-2.13-1.93-2.13-7.7-2.13-7.7s-.7,3.08-1.06,5.39-1.06,1.54-2.83,1.92-3.89-1.54-3.89-1.54-.76,5.55-1.43,8.87l-.18.08C99.48,118,98,111.32,98,109.86c0,0-1.73,7.62-3.32,14.18l-.08,0c-1.41-5.82-3.32-14.05-3.32-15.69,0,0-1.5,6.62-3,12.83a12.11,12.11,0,0,1-2-1.29,22.63,22.63,0,0,0-3.88-2.38c-1.22-5.22-2.49-10.91-2.49-12.25,0,0-1.08,4.77-2.32,10l-.86-.36c-.2-.08-.37-.18-.56-.27-1.26-5.36-2.63-11.43-2.63-12.82,0,0-.63,2.81-1.49,6.47a74.25,74.25,0,0,1-1.69-8.78s-1.29,5.68-2.66,11.45a24.35,24.35,0,0,0-5.47,4.33,6.88,6.88,0,0,1-5.35,2.4,93.28,93.28,0,0,1-2.08-10.48s-.85,3.72-1.9,8.19a71,71,0,0,1-1.64-8.58s-2,8.88-3.69,15.71a8.56,8.56,0,0,1-3.41,1.19c-1.42-5.85-3.51-14.79-3.51-16.51,0,0-1,4.59-2.25,9.7-1.18-5-2.35-10.34-2.35-11.63,0,0-.77,3.41-1.76,7.61-1.22-5.21-2.48-10.89-2.48-12.22,0,0-.86,3.78-1.93,8.31a39.52,39.52,0,0,1-.9-5.24s-1.16,5.09-2.44,10.52c-.64.37-1.26.74-1.81,1a21,21,0,0,0-3.1,1.79,81.39,81.39,0,0,1-1.85-9.49s-1.26,5.57-2.62,11.28c-.3.22-1.08.8-2.17,1.64a86.08,86.08,0,0,1-1.93-9.84s-1.05,4.64-2.27,9.78l0,.33c-1.3-1.63-2.76-2.46-3.52-1.91a1.78,1.78,0,0,0-.7,1.92l-2.13-5.38a31.67,31.67,0,0,1-1.77,4.23,1.5,1.5,0,0,1-1.76.77l-.9.42V186c4.48.25,9.4.46,12.92.94,8.49,1.15,6.72,1.54,7.78,1.15s5,.39,6,0,6,1.93,6,1.93,3.18,1.16,13.44.39,62.61,5,95.5,6.93,9.2.77,31.84-4.24,65.43-4.62,67.2-5.39,1.07,1.93,1.07,3.47,22.28,1.92,33.6,2.69,3.54.77,2.47,2.31,2.83,1.54,8.14,2.31,11.67,1.16,11.67,1.16-15.91,3.08-21.22,5-21.22,5-21.22,5,33.6-1.16,35-1.54,15.92.38,18.75,0,6.72,0,13.09-1.54,37.85-.77,49.16-1.16,13.8,3.47,13.8,3.47,6-.39,9.55-1.93,4.6-2.31,5.66-3.46,7.78,1.54,9.55,1.15,11,.39,14.5,0,12,1.54,21.58,3.08,21.22.39,20.16.77-3.54,4.63-1.42,4.24,7.08-1.15,11.68-1.93,11.67-3.46,13.08-3.46-4.59,6.16-4.59,6.16,11-1.54,13.08-1.92a81.76,81.76,0,0,0,8.49-1.54c2.48-.78,7.79,0,11.68-1.16s5.66.38,13.08,0,11,5.39,12.38,6.16,2.13-.77,6.72-3.85,5.66-2.7,9.2-4.62,7.07-1.16,9.9-2.7,17-1.15,25.12-1.15,11.32,3.08,11.32,3.08,8.84-3.08,11.67-4.62,8.14,0,11-.38a36.61,36.61,0,0,0,8.14-1.55,42.16,42.16,0,0,1,7.18-1.09,1.35,1.35,0,0,0,1.11-.1l.78-.07c2.37.42,4.85.88,5.43.88,1.06,0,.71-.39,2.83-.77s2.83-.77,4.95-1.16,7.08-.77,7.08-.77a10.53,10.53,0,0,1-6.72-1.92c-1-.71-1.77-1.29-2.45-1.77-.42-2.41-1-5.76-1.43-8.61a5.83,5.83,0,0,0,1.75-1.17h5l3.68-2.51h1.62s6.37-.57,8-1.73,4.51-.29,6.1-1.44,3.72.28,3.72.28a6.43,6.43,0,0,0,4-.86c1.59-1.16,3.71-1.16,6.1-2s5.57.28,5.57.28,6.9-2.3,8.49-3.17,5-1.74,6.36-1.45,10.09.87,10.09.87,12.42.52,19.62.62c-2.88,1.55-12.73,4.29-12.73,4.29s19.63-1.44,20.43-2.31,6.9-.86,8.49-1.73a6.7,6.7,0,0,1,2.92-.87l6.07-.34c-.55,2.4-2.09,9.09-3.43,14.56-.77-4.55-1.73-10.44-1.73-11.67,0,0-1.84,11.52-2.78,16.42-2.16.66.49,0-3.61,2.4s-10.84,3.51-13.33,3.78c1.07,0,2.93-.14,5.9-.31,6.72-.39,8.49-.39,9.55-.77s4.6.38,6.36,0,3.54.77,4.6.38,4.6.77,4.6.77l3.18-.77h7.08s1.71.34,3.27.68c0,.08-.06.18-.08.22a1.36,1.36,0,0,0,1.36.07l.75.19c1.42.39,5,.77,6.37,1.54,1,.52,3.9.51,5.67.45.83,0,1.41-.07,1.41-.07l6.72-1.54s-5.63-2.26-10-3.49c-.71-4.09-2.35-13.72-2.35-15.33,0,0-1.4,8.75-2.39,14.25a3.48,3.48,0,0,1-.51-.34c-1-4.48-2.8-12.8-2.8-14.29,0,0-1.06,5.11-2.13,10a19.39,19.39,0,0,1-3.88,0c-3.53-.38-2.47-1.16-4.24-1.54s-1.42.77-2.83.77a13.19,13.19,0,0,1-1.74-.15c-.76-3.4-3.23-14.42-3.23-16.17,0,0-1.5,7.29-2.73,12.74-1.14-4.79-2.41-10.37-2.74-12.75l4-.22s7.17-.87,10.35-1.74,4.77,0,5.57,0h11.41a107.72,107.72,0,0,0,19.63-1.15,103.48,103.48,0,0,1,20.43-.58s.54.16,1.37.44c-2.81,1.68-7.31,4-7.83,4.18-.71.19,8.49-.39,9.73-.39h2.12s2.2,3.39,3.87,3.39c-.51,3.15-1.76,10.82-2.51,14.75a78.37,78.37,0,0,0-2.24-10.44c0,.51-2.79,11.25-3.53,14.12a47.42,47.42,0,0,1-11.21,2.76l5.89-.32c6.72-.39,8.49-.38,9.55-.77s4.6.39,6.37,0,3.54.77,4.6.39,4.6.77,4.6.77l3.18-.77h7.07s1.71.34,3.28.68a.87.87,0,0,1-.09.21,1.33,1.33,0,0,0,1.36.07l.76.19c1.41.39,4.95.77,6.37,1.54,1,.53,3.9.51,5.67.45.83,0,1.4-.06,1.4-.06l6.72-1.54s-5.62-2.27-10-3.5c-.33-1.9-.86-5-1.34-7.95h.2c9-.29,4,.58,7.16.29s2.92.87,5.84.87,10.34,2.31,13.79,2.6,4.78,1.15,6.9,1.44,2.39.29,4.25-.58,4.24-1.15,7.69-2.59,6.63-.87,9.28-1.16,5.84,1.44,6.64,1.44,4.77,2.31,5.57,2,4,0,6.63-.29,4,.58,5.84.58,5,1.45,6.63,1.73a74.24,74.24,0,0,0,7.69.87c1.33,0,9.55,1.16,14.06,1.16a32.44,32.44,0,0,1,7.69.86s2.22-1.62,5-3.61c1.59.31,3.3.65,5.09,1a50.68,50.68,0,0,1,14.32,5.19c3.71,0,12.2-2.31,18.57-2.89s1.06-1.15,11.67-1.15h19.1c2.13,0,3.19-1.73,9-1.73s9.55-.58,15.92-.58h6.37s-4.78,2.31-1.59,2.31H1113c3.19,0,13.8.58,20.16,1.15s4.78,1.16,8.49,0-2.12-1.15,3.72-1.15,4.24.58,8.49,1.15,14.32-4,15.91-3.46,10.08,0,10.08,0,1.6,4.62,4.78,3.46,17.51-1.73,23.34-1.73,9.56,3.47,5.84,0-6.37-5.78-9-6.35-7.43-2.31-10.61-2.31,19.1-1.73,31.83-4,12.74-4,17-4,12.21-2.31,17-2.31a116.84,116.84,0,0,0,12.73-1.15s1.07,2.31,6.9,2.89,9-1.16,11.14-.58,11.14,1.15,14.86,1.73c.71.11,2.26.29,4.27.51-.2.88-.73,3.19-1.27,5.43a31.89,31.89,0,0,1-.74-3.87s-.69,3.06-1.38,5.92c-.73.18-2.33-.57-3.24-.4l-.2,0a67,67,0,0,1-1.4-6.69s-.64,2.85-1.31,5.63l-.69-.38-.42-.23a57.51,57.51,0,0,1-1.25-6.09s-.68,3-1.36,5.82a31.18,31.18,0,0,1-.74-3.87s-.62,2.71-1.26,5.42h-.2c-2.62.19-1.8-.35-1.8-.35a19.32,19.32,0,0,0-2,1.07,2,2,0,0,1-1.09.27,52.77,52.77,0,0,1-1.16-5.71s-.61,2.7-1.26,5.4l-.46-.07a25.09,25.09,0,0,1-.61-3.27s-.31,1.36-.72,3.12c-1.55,0-1.63.59-3,.43a4.12,4.12,0,0,0-2.11.45,50,50,0,0,1-1.12-5.52s-.32,1.44-.75,3.26a30.44,30.44,0,0,1-.72-3.8s-1,4.6-1.84,7.8c-1.37-.15-2.58-1.16-3.43-1.3a1,1,0,0,0-.24,0,40.75,40.75,0,0,1-.91-4.63l-.63,2.77a33.16,33.16,0,0,1-.8-4.11s-.72,3.2-1.43,6.12c-.64-2.69-1.51-6.43-1.51-7.18,0,0-.9,3.95-1.67,7.07a21.54,21.54,0,0,1-2.29,1.56c-2.29,1.24-2.13.18-3.11-.36a1.17,1.17,0,0,0-.7-.09,61.23,61.23,0,0,1-1.3-6.31s-.67,2.92-1.34,5.73a35.66,35.66,0,0,1-.83-4.27s-.69,3-1.38,5.89c-.27-.21-.43-.41-.66-.24-.5.36-.82,1.78-1.8,3.38a5.79,5.79,0,0,1-3,2.21,39.47,39.47,0,0,1-.89-4.52s-.2.9-.5,2.18a39.94,39.94,0,0,1-.89-4.54s-.79,3.53-1.53,6.56a68,68,0,0,1-1.41-6.73s-.91,4-1.69,7.17c-.28-.08-6.25,5.24-9.56,8-7.24,1.16-17.84,2-15.77,2.41,2.66.58,23.88.58,35,2.32s21.22,3.46,19.63,1.73-5.83-5.2,5.84-5.2,28.12-.58,36.59,0,5.83-.58,11.67.58,25.46,4,25.46,4,5.31-5.2,9.56-5.77,35.54,3.46,43.5,4.62,8.49.57,13.27,1.15,24.93.58,27,0,14.86-2.89,14.86-2.89a8,8,0,0,1,6.37-.58c3.71,1.16,8,.58,9.55,1.16s6.36,1.16,13.79,0,63.14-6.35,68.45-5.2,6.36.58,9,1.16,9.55,0,12.2,0,32.89-2.89,37.14-2.31a71.61,71.61,0,0,0,8.49.58s11.67-1.16,19.63-2.31l.16,0,10.45-1.13c3.18-.58,18,0,21.22-.58,1.94-.35,7.74-.55,13.27-1.44.49.35,8.58.07,9,.29l-5.84-5.2C1690.8,184.17,1689.37,178.28,1689.37,178.28ZM644.21,195.08l-.47.26c-3-.94-6.42-2.05-8.63-3-4.6-1.93-10.62-1.15-13.8-1.15s8.13-1.16,11.67-2.7,3.89-.39,6.72-1.54a12.62,12.62,0,0,0,3.19-1.54l3.53-.3C645.72,188.4,644.85,192.4,644.21,195.08Zm8.26-3.78a9.3,9.3,0,0,1-2.16-.48l-.47.37c-.44-2-.92-4.24-1.32-6.25,2-.19,4-.4,5.12-.57C653.27,186.58,652.85,189.09,652.47,191.3Zm200.86-6.47c-.61-3.61-1.33-8-1.6-10.33a1.42,1.42,0,0,0,.2,0,10.2,10.2,0,0,0,3.56,1.3C854.84,178.57,854.06,181.86,853.33,184.83ZM883.89,192a3.72,3.72,0,0,1-.51-.33c-.39-1.74-.9-4.06-1.38-6.33l3-.13C884.67,187.54,884.25,190,883.89,192ZM1215,131.12l-1-4.42c0,1.79-2.24,11.2-3.65,16.93-.93-.14-2-.38-3.42-.73l-.6-.17c-1.47-5.84-3.52-14.88-4.15-17.68.44,0,1,.13,1.63.24a1.59,1.59,0,0,1-.15.38,1.47,1.47,0,0,0,1.73-.11c2.5.44,5.29,1,5.92,1,1.06,0,.7-.38,2.83-.77.87-.16,1.5-.31,2.09-.47C1216,126.76,1215.52,128.85,1215,131.12Zm102.45,51.61-2,.5-.12,0a2.63,2.63,0,0,0-.3.09c-.93.24-1.83.47-2.69.71a40.73,40.73,0,0,1-.93-4.72l-.44,1.93c-.43-1.84-.83-3.67-1-4.55,2.43.27,5.53.58,8.69.89C1318.39,178.74,1317.92,180.78,1317.45,182.73Zm2.16-2.21c-.26-1.13-.48-2.15-.61-2.89l1.26.12C1320.06,178.62,1319.83,179.57,1319.61,180.52Zm6.79.17-4,.88c-.28-1.17-.59-2.5-.85-3.69l5.39.52C1326.77,179.1,1326.59,179.89,1326.4,180.69Zm1.7-1.84c0-.13,0-.23-.07-.35h.15Zm1.3,1.2c-.11-.51-.22-1-.32-1.45l5.12.48S1332.26,179.46,1329.4,180.05Zm277.11.12a4.8,4.8,0,0,1-1.31-.3,10.51,10.51,0,0,0-2.17-.56c1.35-.46,2.7-1,4-1.51C1606.87,178.64,1606.68,179.46,1606.51,180.17Zm3-2.23c-.09-.34-.17-.69-.25-1l.52-.21C1609.73,177.1,1609.64,177.51,1609.54,177.94Zm8.69.2-.44-1.9a52.06,52.06,0,0,1-1.12,5.57,6.9,6.9,0,0,0-2.81-1.41,11.6,11.6,0,0,0-2.08-.05c-.35-1.39-.7-2.86-1-4,3.11-1.2,6-2.1,8.22-1.85C1618.84,175.44,1618.54,176.79,1618.23,178.14Zm7.93,2h-.2c-.91-.11-2.52.73-3.27.6-.68-2.82-1.37-5.83-1.37-5.83a35,35,0,0,1-.74,3.91c-.4-1.61-.78-3.24-1-4.36a30.11,30.11,0,0,0,7.89-.15C1627.19,175.72,1626.64,178.16,1626.16,180.18Zm3.82-1.91-.42.26-.69.43c-.44-1.8-.86-3.61-1.11-4.65.85-.13,1.67-.28,2.5-.43l.72-.13C1630.74,175,1630.35,176.71,1630,178.27Z" fill="#072c2d"/></g></svg>
