<svg xmlns="http://www.w3.org/2000/svg" xmlns:xlink="http://www.w3.org/1999/xlink" width="1150.5" height="180.82" viewBox="0 0 1150.5 180.82"><defs><mask id="mask" x="418.61" y="37.69" width="4.84" height="4.6" maskUnits="userSpaceOnUse"><g id="mask-2"><polygon id="path-1" points="418.61 37.69 423.46 37.69 423.46 42.3 418.61 42.3 418.61 37.69" fill="#fff" fill-rule="evenodd"/></g></mask><mask id="mask-2-2" x="409.64" y="45.01" width="10.81" height="15.93" maskUnits="userSpaceOnUse"><g id="mask-4"><polygon id="path-3" points="409.64 45.01 420.45 45.01 420.45 60.94 409.64 60.94 409.64 45.01" fill="#fff" fill-rule="evenodd"/></g></mask></defs><g id="slide_3_-_logos" data-name="slide 3 - logos"><path d="M193.93,140.8v9.9c0,2.21,0,2.46-1.72,2.7v.37h5.53v-.37c-1.66-.18-1.72-.49-1.72-2.7v-9c0-2.22,0-3.51.06-4.67l-3.87,1.29v.36c1.72,0,1.72,0,1.72,2.09m-6,11a2.78,2.78,0,0,1-2,1,2.33,2.33,0,0,1-2.21-2.21c-.06-.92.43-1.42,1.29-2a17.51,17.51,0,0,1,3-1.35l-.06,4.49Zm.06.61a1.65,1.65,0,0,0,1.72,1.6c1,0,1.6-.8,2.15-1.54l-.18-.18a1.64,1.64,0,0,1-.93.43c-.55,0-.79-.19-.73-1.35l.12-5.54c.06-2.82-1.72-3.62-3.69-3.62a4.56,4.56,0,0,0-4.73,4h2.09c-.12-1.84.12-3.19,2.15-3.19,1.41,0,2.21.73,2.21,3v.49c-1.59.68-2.76,1.23-3.32,1.47-2.21,1-3.44,1.91-3.44,3.26,0,1.66,1.78,2.83,3.38,2.83a3.21,3.21,0,0,0,1.79-.43l1.41-1.23m-12.48-9.53c1.35,0,2,1,2.09,2.4h-4.91a2.84,2.84,0,0,1,2.82-2.4m4.67,7.87a4.68,4.68,0,0,1-3.44,1.41c-2.76,0-4.18-2.27-4.18-5.34v-.68h7.62a4.28,4.28,0,0,0-4.3-4c-2.89,0-5.22,2.64-5.22,6s1.6,5.9,5.1,5.9a5.48,5.48,0,0,0,4.67-3.07l-.25-.25Zm-19.91-11.68h1.54c2.64,0,4.05.74,4.05,3.14s-1.41,3.19-4.05,3.19h-1.54Zm1.54,7.13,6.63,7.56h2.83L164.43,146c2.95-.55,3.93-2.15,3.93-3.75,0-2.83-2.89-3.93-6.51-3.93H155.7v.36c1.85.25,2.09.31,2.09,2.71v9.22c0,2.39-.24,2.46-2.09,2.7v.37h6.64v-.37c-1.84-.24-2.09-.31-2.09-2.7v-4.43Zm-11.5-5.41v9.9c0,2.21,0,2.46-1.72,2.7v.37h5.53v-.37c-1.65-.18-1.72-.49-1.72-2.7v-9c0-2.22,0-3.51.07-4.67l-3.88,1.29v.36c1.72,0,1.72,0,1.72,2.09m-6,11a2.76,2.76,0,0,1-2,1,2.33,2.33,0,0,1-2.21-2.21c-.06-.92.43-1.42,1.29-2a17.51,17.51,0,0,1,3-1.35Zm.06.61a1.65,1.65,0,0,0,1.72,1.6c1,0,1.6-.8,2.15-1.54l-.18-.18a1.61,1.61,0,0,1-.92.43c-.55,0-.8-.19-.74-1.35l.12-5.54c.07-2.82-1.72-3.62-3.68-3.62a4.57,4.57,0,0,0-4.74,4h2.09c-.12-1.84.13-3.19,2.15-3.19,1.42,0,2.22.73,2.22,3v.49c-1.6.68-2.77,1.23-3.32,1.47-2.21,1-3.44,1.91-3.44,3.26,0,1.66,1.78,2.83,3.38,2.83a3.18,3.18,0,0,0,1.78-.43c.37-.31.92-.8,1.41-1.23m-12.47-9.53c1.35,0,2,1,2.09,2.4H129a2.8,2.8,0,0,1,2.83-2.4m4.67,7.87a4.72,4.72,0,0,1-3.44,1.41c-2.77,0-4.18-2.27-4.18-5.34v-.68h7.62a4.28,4.28,0,0,0-4.3-4c-2.89,0-5.23,2.64-5.23,6s1.6,5.9,5.1,5.9a5.47,5.47,0,0,0,4.67-3.07Zm-19.92-11.68h1.48c2.64,0,4.06.74,4.06,3.14s-1.42,3.19-4.06,3.19h-1.54v-6.33Zm1.54,7.13,6.64,7.56h2.83L120.79,146c2.95-.55,3.94-2.15,3.94-3.75,0-2.83-2.89-3.93-6.52-3.93h-6.14v.36c1.84.25,2.09.31,2.09,2.71v9.22c0,2.39-.25,2.46-2.09,2.7v.37h6.63v-.37c-1.84-.24-2.09-.31-2.09-2.7v-4.43Zm-13.46-3.32c1.35,0,2,1,2.09,2.4h-4.92a2.76,2.76,0,0,1,2.83-2.4m4.61,7.87a4.7,4.7,0,0,1-3.44,1.41c-2.77,0-4.18-2.27-4.18-5.34v-.68h7.62a4.28,4.28,0,0,0-4.3-4c-2.89,0-5.23,2.64-5.23,6s1.6,5.9,5.11,5.9a5.5,5.5,0,0,0,4.67-3.07Zm-21.69,3h5.53v-.37c-1.66-.18-1.72-.49-1.72-2.7v-6.09a2.94,2.94,0,0,1,2.33-1c1.48,0,2.21,1,2.21,3v4.12c0,2.21,0,2.46-1.72,2.7v.37h5.53v-.37c-1.65-.18-1.72-.49-1.72-2.7v-4.55c0-2.83-1.41-4.06-3.25-4.06A4.31,4.31,0,0,0,91.42,144v-3.13c0-2.22,0-2.77.06-3.88l-3.38,1.29H80.41c-1.29,0-3.13,0-4.67-.06l-.61,4.67h.43c1.17-3.5,2.15-3.93,5.35-3.93h.67v11.68c0,2.21-.24,2.52-2.33,2.7v.43h7v-.43c-2.09-.18-2.33-.49-2.33-2.7V139h.67c4.74,0,4.74,0,4.74,1.48V150.7c0,2.21,0,2.46-1.72,2.7Z" fill="#fff"/><g id="Winners"><g id="large---new-logo"><g id="macys-logo"><path id="Fill-1" d="M426.56,50.8a6,6,0,0,0-2.11-.88l-.08,0a4,4,0,0,1-1.51-.66,1.44,1.44,0,0,1-.46-1.1,1.82,1.82,0,0,1,.09-.66,1.57,1.57,0,0,1,.94-.93,2.24,2.24,0,0,1,.84-.15,2.08,2.08,0,0,1,.74.11,1.57,1.57,0,0,1,.55.35,1.47,1.47,0,0,1,.34.52,2.45,2.45,0,0,1,.13.75v.49h1.42v-.51a3.08,3.08,0,0,0-.9-2.23,3.27,3.27,0,0,0-2.3-.87,3.48,3.48,0,0,0-2.22.75,3,3,0,0,0-1,2.42,2.69,2.69,0,0,0,1,2.18,6.22,6.22,0,0,0,2.16.94,3.37,3.37,0,0,1,1.7.77,1.83,1.83,0,0,1,.49,1.33v.07a2.06,2.06,0,0,1-.15.79,1.76,1.76,0,0,1-.41.65,2.08,2.08,0,0,1-.67.45,2.34,2.34,0,0,1-.85.15,2.21,2.21,0,0,1-1.6-.59,2.14,2.14,0,0,1-.62-1.57v-.49h-1.4l0,.63a3.31,3.31,0,0,0,.23,1.22,3.27,3.27,0,0,0,.65,1,3.58,3.58,0,0,0,1.26.86,3.92,3.92,0,0,0,1.52.3,3.6,3.6,0,0,0,1.42-.28,3.41,3.41,0,0,0,1.17-.81,3.25,3.25,0,0,0,.71-1.16,3.46,3.46,0,0,0,.2-1.36,3.12,3.12,0,0,0-1.19-2.49" fill="#fff" fill-rule="evenodd"/><g id="Group-5"><g mask="url(#mask)"><polygon id="Fill-3" points="420.47 39.45 418.61 39.45 420.12 40.54 419.55 42.29 421.04 41.21 422.53 42.3 421.96 40.54 423.46 39.45 421.61 39.45 421.04 37.69 420.47 39.45" fill="#fff" fill-rule="evenodd"/></g></g><g id="Group-8"><g mask="url(#mask-2-2)"><path id="Fill-6" d="M414.91,54.36,411.18,45h-1.54l.4,1,2.08,5.26,2,5L412,60.94h1.59L420,46l.42-1h-1.6Z" fill="#fff" fill-rule="evenodd"/></g></g><path id="Fill-9" d="M400.8,47.69a5.32,5.32,0,0,1,1.52-1,4.83,4.83,0,0,1,1.78-.3,4.56,4.56,0,0,1,2.35.66,4.19,4.19,0,0,1,1.75,2.16l.12.33h1.53l-.23-.66a5.65,5.65,0,0,0-2.45-3A6.28,6.28,0,0,0,404,45a5.84,5.84,0,0,0-5.95,6A6.06,6.06,0,0,0,399.62,55a6.25,6.25,0,0,0,7.87.84,5.76,5.76,0,0,0,2.11-2.75l.24-.67h-1.55l-.11.34a4,4,0,0,1-1.4,1.83,4.6,4.6,0,0,1-2.75.88,4.79,4.79,0,0,1-1.73-.32,4.37,4.37,0,0,1-1.45-.94,4.27,4.27,0,0,1-1-1.47,4.83,4.83,0,0,1-.34-1.82,5,5,0,0,1,.36-1.86,3.9,3.9,0,0,1,.93-1.41" fill="#fff" fill-rule="evenodd"/><path id="Fill-11" d="M395.25,45v2a5.28,5.28,0,0,0-1.06-.93,6,6,0,0,0-3.4-1,5.71,5.71,0,0,0-4.42,1.9,6.14,6.14,0,0,0,0,8.09,5.71,5.71,0,0,0,4.42,1.9,6,6,0,0,0,3.13-.83,5.32,5.32,0,0,0,1.33-1.13v2h1.43V45Zm0,6.71a4.3,4.3,0,0,1-.22.82,4.56,4.56,0,0,1-1.61,2.18,4.72,4.72,0,0,1-6-.62A4.8,4.8,0,0,1,386.27,51a4.58,4.58,0,0,1,1.29-3.26,4.49,4.49,0,0,1,3.23-1.3,4.61,4.61,0,0,1,2.57.76,4.26,4.26,0,0,1,1.63,2,3.45,3.45,0,0,1,.24.79,5,5,0,0,1,.08.88A5.08,5.08,0,0,1,395.26,51.72Z" fill="#fff" fill-rule="evenodd"/><path id="Fill-13" d="M382.11,46.19a3.73,3.73,0,0,0-1.4-.89,5.23,5.23,0,0,0-3.63.08,4.2,4.2,0,0,0-1.5,1.06,3.79,3.79,0,0,0-.43.56,3.11,3.11,0,0,0-.38-.54,3.74,3.74,0,0,0-1.48-1.08,4.85,4.85,0,0,0-1.93-.37,4.46,4.46,0,0,0-1.84.4,4,4,0,0,0-1.24.88V45h-1.42V56.9h1.42V50.22a5.43,5.43,0,0,1,.22-1.66,3.25,3.25,0,0,1,.66-1.19,2.48,2.48,0,0,1,.94-.72,2.65,2.65,0,0,1,1.24-.25,3.89,3.89,0,0,1,1.45.3,2.5,2.5,0,0,1,1,.77,2.83,2.83,0,0,1,.49.94,5.73,5.73,0,0,1,.18,1.6V56.9h1.42V50.32a7.75,7.75,0,0,1,.13-1.73,3.11,3.11,0,0,1,.59-1.16,2.46,2.46,0,0,1,1.1-.79,3.77,3.77,0,0,1,2.52,0,2.25,2.25,0,0,1,.88.56,2.87,2.87,0,0,1,.69,1.21,6.55,6.55,0,0,1,.25,2V56.9h1.42V50.32a8.21,8.21,0,0,0-.32-2.4,4.05,4.05,0,0,0-1-1.73" fill="#fff" fill-rule="evenodd"/><polygon id="Fill-15" points="355.34 37.69 352.97 45.01 345.23 45.01 351.5 49.56 349.13 56.88 355.33 52.35 361.58 56.9 359.19 49.55 365.43 45.01 357.72 45.01 355.34 37.69" fill="#fff" fill-rule="evenodd"/></g></g></g><path d="M775.16,39h0l-2,1,3.17,1.54h0L773.19,40Zm16.9-8.54h0l-2.83-1.37,2.83,1.38Zm-18.89,6.39h0L772,36.29l1.19.58Zm18.59-9.64h0L789.22,26l2.54,1.24Zm-1.35-3.77h0l-1.14-.55ZM773.17,40h0v0l-3.1-1.51v0l3.1,1.51Zm9.56-20.19-2.16,1.06,2.18-1.06v0h0l-3.15-1.52h0l3.14,1.53Zm-9.53,1.55,2,1h0l-1.95-.95Zm12.72,3.06v0h0v0h0v1.08l0,0V24.41h0v0h0v0Zm-10.76,1h0l-2-.95,2-1v0l-2,1ZM779.56,40l-1.82.89,1.82-.89h0Zm3-1.65.18.08v0l-2.17,1.07,2.19-1.06v0l-.17-.09Zm3.37-1.54h0V34.56l0,0Zm-10.76-8.28-2-1,2-1h0l-2,1,2,1Zm-2,2.14,2,1h0l-1.95-1ZM770,19.79l3.16-1.54h0L770,19.79h0l-2-1,2,1h0Zm3.16,4.65h0Zm2,13.4h0l-2-1,2-1h0l-2,1Zm0-3.14-2-1,2-1v0l-2,1,0,0h0l2,1Zm-3.19-14,1.2.59h0Zm0-3.1,1.17.58h0Zm0,24.84,1.18.58h0Zm0-12.44,1.2.59h0Zm0-6.19,1.2.58h0Zm-5.16-3.61v.49a.5.5,0,0,0,0,.12v-.73S766.82,20.21,766.81,20.25Zm12.75,22.84h0l-1.85.91Zm6.39-3.2h0v.07h0v0h0v1.84h0V39.9ZM773.17,21.35h0l-3.1,1.52h0l3.1-1.52Zm3.18-4.66h0l-.47-.22h0l.46.22ZM769,22.4h0l-1.3-.62Zm10.57,20.68,1.47.71h0l-1.48-.72Zm-9.52-7.78h0l1.18-.58Zm3.1-7.75h0v0L770.07,26v0l3.1,1.51Z" fill="#fff"/><path d="M776.4,44.63h0v-3.1h0v-1.6h0v4.68l-3.16-1.53h0l-2.25,1.1h0l2.25-1.1h0l3.17,1.54h0l-.05,0,.12,0,0,0h0Zm-3.23-14h0l-3.1,1.52h0l3.1-1.51Zm15.94,7.71h0v.58h0v-.58Zm2.59-5h0l-2.48-1.2,2.48,1.21Zm-2.59,5,.31.15v0l-.3-.14Zm-3.17-1.56h0v.08h0v3h0V36.8Zm3.15-13.93v3L786,24.39h0l3.14,1.54h0V22.87Zm0,6.13-2.3-1.11h0L789.1,29V26h0Zm-12.72-9.23-3.17-1.53h0l3.17,1.54h0v1.49h0V19.8h0l3.17-1.54v0l-3.17-1.54h0v-.26h0v3.35Zm0-3.08h0l3.16,1.55h0l-3.16,1.55h0Zm12.72,15.4L786.92,31v0l2.18,1.07V29.06h0Zm0,6.23h0v-3h0Zm0-3.07h0l1.7.83v0l-1.69-.82Zm0,0-2.82-1.36,2.83,1.38V32.16h0Zm-3.17-13.89h0v3h0V21.31h0l3.14,1.53h0L786,21.29l2.06-1h0l-2,1h0V18.66h0v2.66ZM779.57,40l3.16,1.54h0v0L779.58,40Zm7.94.67h0l-1.26-.6Z" fill="#fff"/><path d="M775.16,25.41l-2-1h0v3.1h0l2-1Z" fill="#fff" fill-rule="evenodd"/><path d="M775.16,25.4V23.48l-2,1Z" fill="#fff" fill-rule="evenodd"/><path d="M773.17,24.45,770.07,26V26l3.1,1.51Zm0,0Z" fill="#fff" fill-rule="evenodd"/><path d="M775.16,23.47V22.3l-2-1h0v3.09h0Z" fill="#fff" fill-rule="evenodd"/><path d="M773.2,21.34l2,.95v-.84l1.21-.16v-1.5h0l-3.14,1.54Z" fill="#fff" fill-rule="evenodd"/><path d="M773.17,21.34h0l-1.2-.59-2-1v2.48l.07,0v.62l3.1-1.52Z" fill="#fff" fill-rule="evenodd"/><path d="M770,19.8l.13-.07.07.13-.14.07Z" fill="#fff" fill-rule="evenodd"/><path d="M773.17,24.45h0l-1.2-.58-1.9-.92v3l3.1-1.52Z" fill="#fff" fill-rule="evenodd"/><path d="M770,19.79l3.16-1.55h0L772,17.65l-.78-.37-.29.08c-.31.09-.62.2-.93.32v2.11Z" fill="#fff" fill-rule="evenodd"/><path d="M773.17,18.23h0l3.16-1.54h0l-.46-.22-1.42.15c-.44.06-.87.13-1.3.21Z" fill="#fff" fill-rule="evenodd"/><path d="M776.37,16.68h0l-3.16,1.54h0l3.16,1.53Z" fill="#fff" fill-rule="evenodd"/><path d="M773.2,21.34h0l3.14-1.54h0l-3.17-1.54h0v3.1h0Z" fill="#fff" fill-rule="evenodd"/><path d="M776.37,16.42l-.47,0,.47.22Z" fill="#fff" fill-rule="evenodd"/><path d="M773.17,18.25h0L770,19.79h0l2,1,1.2.58Z" fill="#fff" fill-rule="evenodd"/><path d="M775.16,28.51V26.59l-2,1Z" fill="#fff" fill-rule="evenodd"/><path d="M773.17,24.44V21.35l-3.1,1.52v.07l1.9.92Z" fill="#fff" fill-rule="evenodd"/><path d="M773.17,18.23V16.82c-.66.12-1.31.28-1.95.46l.78.37Z" fill="#fff" fill-rule="evenodd"/><path d="M779.54,18.24h0l-3.16-1.55h0v3.09h0Z" fill="#fff" fill-rule="evenodd"/><path d="M776.39,16.68h0l3.17,1.54V16.48a20.1,20.1,0,0,0-2-.1H777l-.6.29Z" fill="#fff" fill-rule="evenodd"/><path d="M776.39,16.68h0l.6-.29-.61,0v.26h0Z" fill="#fff" fill-rule="evenodd"/><path d="M779.52,21.32h0V18.25l-3.17,1.54h0Z" fill="#fff" fill-rule="evenodd"/><path d="M777.69,21.19a11.85,11.85,0,0,1,1.83.13l-3.12-1.53h0v1.48h.06a10.6,10.6,0,0,1,1.24-.08Z" fill="#fff" fill-rule="evenodd"/><path d="M773.17,30.64V27.56l-3.1,1.52v.05l1.9.92Zm0-3.09Z" fill="#fff" fill-rule="evenodd"/><path d="M775.16,31.6V29.69l-2,1Z" fill="#fff" fill-rule="evenodd"/><path d="M773.2,30.65h0l1.95-1V28.52l-2-1h0v3.09h0Z" fill="#fff" fill-rule="evenodd"/><path d="M773.17,27.55h0L770.07,26v3l3.1-1.52Z" fill="#fff" fill-rule="evenodd"/><path d="M785.22,24l.7.34v0h0V21.33h0v3Z" fill="#fff" fill-rule="evenodd"/><path d="M782.77,19.74l0,0,.06,0,0,0-.05,0h0v0Z" fill="#fff" fill-rule="evenodd"/><path d="M785.92,24.44v1.08h0V24.44Z" fill="#fff" fill-rule="evenodd"/><path d="M782.86,19.73l-.06,0,3.12,1.52v0h0V18.65h0V21.2Z" fill="#fff" fill-rule="evenodd"/><path d="M785.92,24.44v0h0v0Z" fill="#fff" fill-rule="evenodd"/><path d="M785.92,21.34h0v0h0Z" fill="#fff" fill-rule="evenodd"/><path d="M773.17,30.64h0l-1.2-.59-1.9-.92v3l3.1-1.52Z" fill="#fff" fill-rule="evenodd"/><path d="M773.17,30.66l-3.1,1.51v.06l3.1,1.51Z" fill="#fff" fill-rule="evenodd"/><path d="M775.16,31.6l-2-1h0v3.1h0l2-1Z" fill="#fff" fill-rule="evenodd"/><path d="M775.16,34.7V32.79l-2,1Z" fill="#fff" fill-rule="evenodd"/><path d="M779.56,18.23h0L782.15,17a16.39,16.39,0,0,0-2.59-.48v1.75Z" fill="#fff" fill-rule="evenodd"/><path d="M779.6,18.23l3.15,1.52v0h0V17.16l-.6-.19-2.57,1.25Z" fill="#fff" fill-rule="evenodd"/><path d="M779.58,21.32l1-.47,2.16-1.06v0l-3.14-1.53h0v3.08Z" fill="#fff" fill-rule="evenodd"/><path d="M780.57,20.85l-1,.47a9.39,9.39,0,0,1,2.13.59,11,11,0,0,1,1,.49V19.79l-2.18,1.06Z" fill="#fff" fill-rule="evenodd"/><path d="M770,19.79V17.68a11.5,11.5,0,0,0-2,1l-.15.11.12.06,2,1Z" fill="#fff" fill-rule="evenodd"/><path d="M768,18.81l-.12-.06a2.24,2.24,0,0,0-1,1.38v.73a1.34,1.34,0,0,0,.16.4l3-1.47Z" fill="#fff" fill-rule="evenodd"/><path d="M767.15,21.49a2.53,2.53,0,0,0,.47.44,2.25,2.25,0,0,0,1.4.47l-1.29-.62Z" fill="#fff" fill-rule="evenodd"/><path d="M770,19.8h0l-3,1.47a1.6,1.6,0,0,0,.16.23l.58.29,1.3.62h.11a5.15,5.15,0,0,0,.86-.13Z" fill="#fff" fill-rule="evenodd"/><path d="M766.79,20.49a2.11,2.11,0,0,0,0,.25v-.49A1.94,1.94,0,0,0,766.79,20.49Z" fill="#fff" fill-rule="evenodd"/><path d="M773.17,33.78h0l0,0h0l-3.1-1.51V35.3l1.18-.58Z" fill="#fff" fill-rule="evenodd"/><path d="M775.16,37.84l-2-1h0V40h0l2-1Z" fill="#fff" fill-rule="evenodd"/><path d="M773.17,36.87h0Zm0,0-3.1,1.52v.05l3.1,1.51Z" fill="#fff" fill-rule="evenodd"/><path d="M775.16,39l-2,1,3.18,1.54V39.93l-1.21.14V39Z" fill="#fff" fill-rule="evenodd"/><path d="M770.07,38.47v3l3.1-1.51Z" fill="#fff" fill-rule="evenodd"/><path d="M776.35,44.63l-3.17-1.54h0V45c1-.1,2.05-.22,3.13-.35l.05,0Z" fill="#fff" fill-rule="evenodd"/><path d="M776.35,41.54l-3.14,1.54,3.16,1.53V41.52h0Z" fill="#fff" fill-rule="evenodd"/><path d="M776.35,41.53h0L773.18,40h0v3.1h0l3.13-1.54Z" fill="#fff" fill-rule="evenodd"/><path d="M773.17,43.07V40h0l-3.1,1.51v.07l1.92.93Z" fill="#fff" fill-rule="evenodd"/><path d="M773.17,43.07,772,42.49l-1.92-.93v.82a4,4,0,0,0,.44,1.28,2.18,2.18,0,0,0,.41.52l2.25-1.1Z" fill="#fff" fill-rule="evenodd"/><path d="M773.17,43.09l-2.25,1.1a3.53,3.53,0,0,0,1.82.87h.09l.34,0Z" fill="#fff" fill-rule="evenodd"/><path d="M777.71,44l-1.31.64h0l0,0,.34,0c.94-.12,1.87-.27,2.8-.46V43.09l-1.85.9Z" fill="#fff" fill-rule="evenodd"/><path d="M779.56,43.07l-3.17-1.54h0v3.1h0l1.31-.64,1.85-.91h0Z" fill="#fff" fill-rule="evenodd"/><path d="M779.56,43.07V40l-1.82.89-1.34.65h0l3.17,1.54Z" fill="#fff" fill-rule="evenodd"/><path d="M773.17,36.87V33.78l-1.92.94-1.18.58v.06l1.91.93Z" fill="#fff" fill-rule="evenodd"/><path d="M773.18,36.87l2-1V34.73l-2-1h0v3.1Zm0,0h0L772,36.29l-1.91-.93v3l3.1-1.52Z" fill="#fff" fill-rule="evenodd"/><path d="M777.74,40.87l1.82-.89v0l-.84-.4c-.35.06-.71.13-1.07.18l-1.26.18v1.6h0Z" fill="#fff" fill-rule="evenodd"/><path d="M779.56,39.38l-.84.18.84.4Z" fill="#fff" fill-rule="evenodd"/><path d="M775.16,37.83V35.91l-2,1Zm10.76-3.23v2.15l-1-.49,0,0,1,.5h0v.07h0V34.6Z" fill="#fff" fill-rule="evenodd"/><path d="M782.75,38.36h0Zm0,0,0,0h0l0,0Zm3.15-1.49h0v0h0Z" fill="#fff" fill-rule="evenodd"/><path d="M785.92,36.87v3l-3.08-1.48h0l3.1,1.51h0v0h0V36.87Z" fill="#fff" fill-rule="evenodd"/><path d="M782.83,41.49l1.95,1,0,0-2-1ZM785.92,40v1.85h0V40Z" fill="#fff" fill-rule="evenodd"/><path d="M782.75,41.47h0Zm.08,0h0l-.06,0h0ZM785.92,40v0h0v0Z" fill="#fff" fill-rule="evenodd"/><path d="M780.56,39.5l-1,.48,3.17,1.52v0h0v0h0v-3Z" fill="#fff" fill-rule="evenodd"/><path d="M779.57,43.09h0v1.07l1.22-.28.28-.08-1.47-.71Z" fill="#fff" fill-rule="evenodd"/><path d="M782.73,41.53h0l-3.13,1.53,1.48.72c.56-.15,1.12-.32,1.67-.51V41.53Z" fill="#fff" fill-rule="evenodd"/><path d="M779.57,40h0v3.09h0l3.13-1.53v0Z" fill="#fff" fill-rule="evenodd"/><path d="M782.73,38.41l-.18-.08-.08,0a13.1,13.1,0,0,1-2.29.85l-.62.16V40h0l1-.48,2.17-1.07Zm0-.06v-.13l-.17.09.17.09v0h0v0Z" fill="#fff" fill-rule="evenodd"/><path d="M789.1,38.35h0Zm0-3.09h0v3h0l.65-.31a14.42,14.42,0,0,0,1-1.93l-1.7-.83Z" fill="#fff" fill-rule="evenodd"/><path d="M789.11,38.32v0h0l.3.14q.18-.24.33-.48l-.65.31Z" fill="#fff" fill-rule="evenodd"/><path d="M789.11,38.36h0v.58l.32-.43-.31-.15Z" fill="#fff" fill-rule="evenodd"/><path d="M790.82,36.06l.16-.39a13.75,13.75,0,0,0,.55-1.6l-2.4,1.17Z" fill="#fff" fill-rule="evenodd"/><path d="M789.11,29h0v3.07h0l2.94-1.43c0-.07,0-.15,0-.22l-2.83-1.38Z" fill="#fff" fill-rule="evenodd"/><path d="M789.11,25.94h0v0h0V29h0l2.74-1.34-.09-.46L789.22,26Z" fill="#fff" fill-rule="evenodd"/><path d="M789.11,29h0l.12.06,2.83,1.37V30.2a14.92,14.92,0,0,0-.21-2.51L789.11,29Z" fill="#fff" fill-rule="evenodd"/><path d="M789.11,32.13v0l.11.05,2.48,1.2a14.47,14.47,0,0,0,.35-2.7l-2.94,1.43Z" fill="#fff" fill-rule="evenodd"/><path d="M789.11,32.15h0v3.07h0l2.4-1.17c.06-.22.12-.44.17-.66l-2.48-1.21Z" fill="#fff" fill-rule="evenodd"/><path d="M789.11,25.94l.11,0,2.54,1.23a13.53,13.53,0,0,0-.67-2.25Z" fill="#fff" fill-rule="evenodd"/><path d="M789.17,22.86l-.06,0h0v3h0l2-1v0c-.2-.5-.42-1-.67-1.47l-1.15-.55-.09-.05Z" fill="#fff" fill-rule="evenodd"/><path d="M789.17,22.86l.09.05,1.14.55a10.72,10.72,0,0,0-.54-.93Z" fill="#fff" fill-rule="evenodd"/><path d="M789.1,22.82V21.47A15.1,15.1,0,0,0,788,20.29l-2.06,1Z" fill="#fff" fill-rule="evenodd"/><path d="M785.92,24.38h0l-.7-.34-.72-.35a8.77,8.77,0,0,1,.86,1Z" fill="#fff" fill-rule="evenodd"/><path d="M785.92,24.44v-.06l-.56.27a8,8,0,0,1,.56.87Z" fill="#fff" fill-rule="evenodd"/><path d="M782.75,19.75h0V22.4l.4.24,2.77-1.34v0l-3.12-1.52,0,0Z" fill="#fff" fill-rule="evenodd"/><path d="M783.15,22.64a8.51,8.51,0,0,1,1.35,1l.72.35.7.34V21.3l-2.77,1.34Z" fill="#fff" fill-rule="evenodd"/><path d="M785.92,36.78h0Zm0,.07v0l-3.12,1.53,0,0,3.08,1.48v-3Z" fill="#fff" fill-rule="evenodd"/><path d="M785.92,36.81v0h0l-1-.5c-.19.24-.39.49-.61.72a5.68,5.68,0,0,1-1.53,1.21v.13h0l0,0,3.12-1.53Z" fill="#fff" fill-rule="evenodd"/><path d="M782.81,38.38l0,0h0v3.06l3.16-1.54Z" fill="#fff" fill-rule="evenodd"/><path d="M782.75,41.45h0l0,0v0Z" fill="#fff" fill-rule="evenodd"/><path d="M785.92,40v-.09h0l-3.16,1.54,0,0,.06,0,2,1a11.72,11.72,0,0,0,1.1-.6V40Z" fill="#fff" fill-rule="evenodd"/><path d="M785.92,34.6a9.68,9.68,0,0,1-1,1.66l1,.49Z" fill="#fff" fill-rule="evenodd"/><path d="M782.77,41.46h0v1.81q.91-.31,1.8-.72l.23-.11-1.95-1-.06,0Z" fill="#fff" fill-rule="evenodd"/><path d="M785.94,24.4h0Zm3.15-1.53h0v0L786,21.3h0v3.05l3.15-1.53Z" fill="#fff" fill-rule="evenodd"/><path d="M786,24.4h0v1.15a7,7,0,0,1,.46,1c.07.2.14.39.2.59l2.49-1.21v0h0v0h0L786,24.4Z" fill="#fff" fill-rule="evenodd"/><path d="M786,24.39l3.11,1.51V22.83l-3.15,1.53h0Z" fill="#fff" fill-rule="evenodd"/><path d="M789.1,22.83v.06h0l.06,0,.69-.33c-.24-.37-.49-.72-.76-1.06v1.36Z" fill="#fff" fill-rule="evenodd"/><path d="M786.79,27.89l2.3,1.11V25.94l-2.49,1.21c.07.24.13.49.19.74Z" fill="#fff" fill-rule="evenodd"/><path d="M789.09,38.32,786,36.81h0v3.06l3.15-1.52v0h0v0h0ZM786,39.89h0Z" fill="#fff" fill-rule="evenodd"/><path d="M789.09,38.34l-3.15,1.52h0l.3.15,1.26.6.28-.25a14.69,14.69,0,0,0,1.29-1.45Z" fill="#fff" fill-rule="evenodd"/><path d="M787,29.84V30l2.1-1v0h0v0h0l-2.31-1.13a9.77,9.77,0,0,1,.2,1.95Z" fill="#fff" fill-rule="evenodd"/><path d="M785.94,36.8v0h0Zm3.15,1.52v-3L786,36.81l3.13,1.51Z" fill="#fff" fill-rule="evenodd"/><path d="M786,39.89h0v1.91a11.78,11.78,0,0,0,1.57-1.16L786.26,40l-.3-.15Z" fill="#fff" fill-rule="evenodd"/><path d="M786.92,31l2.17,1.05V29L787,30C787,30.38,787,30.71,786.92,31Z" fill="#fff" fill-rule="evenodd"/><path d="M786.39,33.46l2.7-1.31h0v0h0l-2.18-1.07A11.56,11.56,0,0,1,786.39,33.46Z" fill="#fff" fill-rule="evenodd"/><path d="M786.25,33.84c-.1.24-.2.48-.31.72V36.8h0l3.13-1.54h0v0h0l-2.83-1.38Z" fill="#fff" fill-rule="evenodd"/><path d="M786.31,33.67l-.06.17h0l2.82,1.36V32.15l-2.7,1.31Z" fill="#fff" fill-rule="evenodd"/><path d="M782.86,19.73l3.06,1.47V18.64l-.42-.25-2.68,1.31,0,0Z" fill="#fff" fill-rule="evenodd"/><path d="M782.75,19.72h0l.05,0,2.68-1.31a16,16,0,0,0-1.81-.89c-.31-.13-.63-.24-.94-.34Z" fill="#fff" fill-rule="evenodd"/><path d="M786,21.28l2-1a12.42,12.42,0,0,0-2.07-1.62v2.61Z" fill="#fff" fill-rule="evenodd"/><path d="M751.66,60.91h-2.78V54.4h2.77c2.08,0,3.58,1.23,3.58,3.25S753.73,60.91,751.66,60.91Zm0-1.46a1.75,1.75,0,0,0,1.83-1.8,1.68,1.68,0,0,0-1.83-1.78h-1.07v3.58h1.07ZM760.12,61C758,61,757,59.88,757,58.28V54.4h1.73v3.82a1.39,1.39,0,0,0,2.78,0V54.4h1.72v3.87C763.23,59.89,762.24,61,760.12,61Zm9.08-.12h-3.86V54.4h3.74A1.72,1.72,0,0,1,771,56.06a1.47,1.47,0,0,1-1.13,1.5,1.56,1.56,0,0,1,1.26,1.59,1.75,1.75,0,0,1-1.94,1.76Zm-.51-4c.35,0,.59-.18.59-.5s-.24-.51-.59-.51H767v1Zm.06,2.57c.41,0,.65-.21.65-.56s-.23-.54-.65-.54H767v1.1ZM775.44,61a4.08,4.08,0,0,1-2.93-1l.9-1.3a3.06,3.06,0,0,0,2.12.86c.57,0,.93-.2.93-.52,0-.86-3.73-.15-3.73-2.65,0-1.1.93-2.07,2.62-2.07a4.07,4.07,0,0,1,2.68.9l-.93,1.26a3.07,3.07,0,0,0-1.93-.68c-.49,0-.71.17-.71.45,0,.8,3.73.19,3.73,2.61,0,1.31-1,2.18-2.75,2.18Zm11.95-.12h-1.7v-4.3L784,60.91h-.76l-1.67-4.3v4.3h-1.7V54.4h2.37L783.65,58,785,54.4h2.36Zm8.52,0H794l-.33-.93h-2.6l-.33.93h-1.93l2.49-6.51h2.15l2.48,6.51Zm-2.72-2.4-.83-2.45-.84,2.45ZM799.73,61a4.08,4.08,0,0,1-2.93-1l.9-1.3a3,3,0,0,0,2.12.86c.57,0,.93-.2.93-.52,0-.86-3.73-.15-3.73-2.65,0-1.1.93-2.07,2.62-2.07a4.07,4.07,0,0,1,2.68.9l-.93,1.26a3.07,3.07,0,0,0-1.93-.68c-.49,0-.71.17-.71.45,0,.8,3.73.19,3.73,2.61C802.48,60.16,801.5,61,799.73,61Zm10.61-.12h-1.71V58.3h-2.74v2.61h-1.7V54.4h1.7v2.43h2.74V54.4h1.71Z" fill="#fff"/><path d="M856.45,172.74l7.24-17h-3.78l-7.25,17Z" fill="#fff"/><path d="M829.42,162.53c-3-.74-3.69-1.11-3.69-2.24v0c0-.82.74-1.47,2.18-1.47a8.18,8.18,0,0,1,4.43,1.66l1.39-3.24a9.86,9.86,0,0,0-5.76-1.75c-3.47,0-6,2.05-6,5.15v0c0,3.4,2.21,4.35,5.64,5.23,2.85.72,3.44,1.21,3.44,2.17v.06c0,1-.92,1.6-2.46,1.6a7.86,7.86,0,0,1-5.1-2.07v.07l-1.4,3.21a11,11,0,0,0,6.44,2.08c3.69,0,6.26-1.91,6.26-5.29v0C834.82,164.68,832.87,163.45,829.42,162.53Zm18-.08h-6.91V155.7h-3.74v17h3.74v-6.83h6.91v6.83h3.77v-17h-3.77Zm17.84,10.29H869v-6.6h8.14v-3.41H869v-3.59h9.21V155.7h-13Zm14.49-13.6h5.19v13.6h3.75v-13.6h5.19V155.7H879.7v3.44Zm15.89-3.09h.72V158h.41v-1.95h.72v-.35h-1.85v.35Zm3.92-.35-.61,1.8h0l-.63-1.8h-.57V158h.39v-1.79l.65,1.79H899l.65-1.79V158h.39v-2.3Z" fill="#fff"/><path d="M514.53,143.82h.32a2.33,2.33,0,0,1-2.51,1.72,3,3,0,0,1-2.16-.88,3.11,3.11,0,0,1-.88-2.32,3.19,3.19,0,0,1,.95-2.4,3.12,3.12,0,0,1,2.24-.92,3.07,3.07,0,0,1,1.44.35c.43.22.65.5.65.83a.59.59,0,0,1-.12.35.43.43,0,0,1-.35.16q-.48,0-.6-.57a.8.8,0,0,0-1-.76,1.69,1.69,0,0,0-1.48.68,3.44,3.44,0,0,0-.5,2.06,4,4,0,0,0,.53,2.22,1.82,1.82,0,0,0,1.62.81A1.74,1.74,0,0,0,514.53,143.82Z" fill="#fff"/><path d="M519.6,140.26a3.1,3.1,0,0,1,1-.93,2.44,2.44,0,0,1,1.2-.31,2.29,2.29,0,0,1,1.23.31,1.45,1.45,0,0,1,.64.76,5.21,5.21,0,0,1,.15,1.47v1.66a10.5,10.5,0,0,0,0,1.29.41.41,0,0,0,.24.34,1.73,1.73,0,0,0,.73.1v.34h-3.11V145h.14a1.05,1.05,0,0,0,.69-.15.58.58,0,0,0,.19-.36c0-.14,0-.55,0-1.22v-1.8a6,6,0,0,0-.08-1.12,1,1,0,0,0-.42-.59,1.35,1.35,0,0,0-.82-.24,1.66,1.66,0,0,0-1,.34,2.87,2.87,0,0,0-.8,1v2.41q0,1,0,1.26a.49.49,0,0,0,.22.35,1.46,1.46,0,0,0,.7.12v.34h-3.06V145h.16a1.09,1.09,0,0,0,.69-.15.62.62,0,0,0,.18-.36c0-.14,0-.54,0-1.22v-6a2.26,2.26,0,0,0-.18-1.15c-.11-.17-.39-.25-.83-.25v-.33a5.17,5.17,0,0,0,1.9-.31h.16Z" fill="#fff"/><path d="M533.9,144.19h.26q-.06,1.26-1.23,1.26a1.13,1.13,0,0,1-.79-.27,1.28,1.28,0,0,1-.37-.78,7.9,7.9,0,0,1-1.35.78,2.72,2.72,0,0,1-1.09.27,1.66,1.66,0,0,1-1.05-.35,1.13,1.13,0,0,1-.44-.94,1.6,1.6,0,0,1,.74-1.32,9,9,0,0,1,2-1.11l1.15-.46V141a3.21,3.21,0,0,0-.09-.9.86.86,0,0,0-.42-.5,1.56,1.56,0,0,0-.89-.22c-.74,0-1.15.24-1.23.73s-.29.75-.62.75-.45-.14-.45-.42a1.31,1.31,0,0,1,.6-.91,3.74,3.74,0,0,1,3.3-.18,1.46,1.46,0,0,1,.68.67,3,3,0,0,1,.17,1.15v2.43a4,4,0,0,0,.09,1.1.36.36,0,0,0,.38.24C533.62,144.91,533.82,144.67,533.9,144.19Zm-2.13-2.58-.81.33c-1.27.51-1.9,1.16-1.9,1.94a1.13,1.13,0,0,0,.24.75.8.8,0,0,0,.64.28,1.86,1.86,0,0,0,.8-.23,5.84,5.84,0,0,0,1-.68Z" fill="#fff"/><path d="M538.93,140.56a2.56,2.56,0,0,1,.81-1.09,1.8,1.8,0,0,1,1.1-.45,1,1,0,0,1,.77.31.88.88,0,0,1,.28.61.53.53,0,0,1-.14.37.5.5,0,0,1-.35.16c-.25,0-.44-.19-.56-.55s-.22-.37-.4-.37a1.27,1.27,0,0,0-.76.43,2.13,2.13,0,0,0-.57.9,5.28,5.28,0,0,0-.12,1.27v1.07c0,.65,0,1.05,0,1.22a.46.46,0,0,0,.21.38,1.17,1.17,0,0,0,.66.13h.2v.34h-3.2V145h.16a1.25,1.25,0,0,0,.63-.12.47.47,0,0,0,.22-.34,10.19,10.19,0,0,0,0-1.27v-1.69c0-.65,0-1.06,0-1.22a.52.52,0,0,0-.21-.38,1.06,1.06,0,0,0-.65-.14h-.16v-.33a10.7,10.7,0,0,0,1.81-.44A4.86,4.86,0,0,1,538.93,140.56Z" fill="#fff"/><path d="M546.46,139v4.2c0,.65,0,1.05,0,1.22a.5.5,0,0,0,.22.38,1.15,1.15,0,0,0,.65.13h.16v.34h-3.25V145h.25a1,1,0,0,0,.68-.15.58.58,0,0,0,.19-.36c0-.14,0-.54,0-1.22V141.4a4.45,4.45,0,0,0-.1-1.29.47.47,0,0,0-.26-.3,2,2,0,0,0-.58-.06h-.2v-.34a8.18,8.18,0,0,0,2-.39ZM545,136a.78.78,0,0,1,.23-.55.77.77,0,0,1,1.08,0,.82.82,0,0,1,.22.55.8.8,0,0,1-.22.55.75.75,0,0,1-1.08,0A.76.76,0,0,1,545,136Z" fill="#fff"/><path d="M554.05,139.6h-1.82v3.64a5.54,5.54,0,0,0,.07,1.13.85.85,0,0,0,.32.47.89.89,0,0,0,.51.17,1.11,1.11,0,0,0,.92-.6l.23.14a1.54,1.54,0,0,1-.67.73,1.8,1.8,0,0,1-.9.25,1.53,1.53,0,0,1-.93-.31,1.28,1.28,0,0,1-.5-.74,7.05,7.05,0,0,1-.1-1.47V139.6h-.87v-.34a1.56,1.56,0,0,0,1.08-.5,2.45,2.45,0,0,0,.6-1.39h.24v1.89h1.82Z" fill="#fff"/><path d="M560.32,144.15l1.4-3.34A5.2,5.2,0,0,0,562,140c0-.25-.28-.37-.82-.39v-.33h2.11v.33a1.08,1.08,0,0,0-.72.27,3.84,3.84,0,0,0-.56,1l-2.7,6.48a5.16,5.16,0,0,1-.67,1.27.88.88,0,0,1-.65.33c-.32,0-.48-.14-.48-.43s.26-.62.76-.85a2.75,2.75,0,0,0,.6-.34,1.41,1.41,0,0,0,.3-.51l.58-1.43-2.26-4.86a2.94,2.94,0,0,0-.5-.81,1.07,1.07,0,0,0-.68-.17v-.33h2.77v.33c-.49,0-.73.12-.73.31a3.52,3.52,0,0,0,.29.72Z" fill="#fff"/><path d="M566.54,139.64a.78.78,0,0,1,.23-.55.74.74,0,0,1,.56-.24.79.79,0,0,1,.8.79.76.76,0,0,1-.24.56.77.77,0,0,1-.56.23.8.8,0,0,1-.79-.79Zm0,5.1a.82.82,0,0,1,.79-.79.78.78,0,0,1,.57.24.76.76,0,0,1,.23.55.82.82,0,0,1-.8.8.76.76,0,0,1-.56-.24A.8.8,0,0,1,566.54,144.74Z" fill="#fff"/><path d="M584.43,145.54h-.34l-1.79-4.79-1.84,4.79h-.31l-1.85-4.79a3.74,3.74,0,0,0-.47-1,.87.87,0,0,0-.62-.17v-.33H580v.33a1.48,1.48,0,0,0-.63.09.29.29,0,0,0-.17.29,3.42,3.42,0,0,0,.29.86l1.22,3.24,1.87-4.81h.29l1.81,4.81,1.33-3.43a3.11,3.11,0,0,0,.21-.65c0-.25-.25-.38-.74-.4v-.33h1.95v.33a1.17,1.17,0,0,0-.55.14,1.13,1.13,0,0,0-.37.58l-.17.43Z" fill="#fff"/><path d="M596.14,144.19h.27q-.06,1.26-1.23,1.26a1.13,1.13,0,0,1-.79-.27,1.28,1.28,0,0,1-.37-.78,8.3,8.3,0,0,1-1.35.78,2.75,2.75,0,0,1-1.09.27,1.64,1.64,0,0,1-1.05-.35,1.14,1.14,0,0,1-.45-.94,1.61,1.61,0,0,1,.75-1.32,9,9,0,0,1,2-1.11l1.15-.46V141a3.21,3.21,0,0,0-.09-.9.86.86,0,0,0-.42-.5,1.56,1.56,0,0,0-.89-.22c-.74,0-1.15.24-1.23.73s-.29.75-.62.75-.45-.14-.45-.42a1.31,1.31,0,0,1,.6-.91,3.74,3.74,0,0,1,3.3-.18,1.51,1.51,0,0,1,.68.67,3,3,0,0,1,.17,1.15v2.43a4,4,0,0,0,.09,1.1.35.35,0,0,0,.38.24C595.86,144.91,596.07,144.67,596.14,144.19ZM594,141.61l-.81.33c-1.27.51-1.9,1.16-1.9,1.94a1.13,1.13,0,0,0,.24.75.78.78,0,0,0,.63.28,1.89,1.89,0,0,0,.81-.23,6.67,6.67,0,0,0,1-.68Z" fill="#fff"/><path d="M602.67,139.6h-1.82v3.64a5.54,5.54,0,0,0,.07,1.13.84.84,0,0,0,.83.64,1.11,1.11,0,0,0,.92-.6l.23.14a1.59,1.59,0,0,1-.67.73,1.8,1.8,0,0,1-.9.25,1.49,1.49,0,0,1-.93-.31,1.28,1.28,0,0,1-.5-.74,7.05,7.05,0,0,1-.1-1.47V139.6h-.88v-.34a1.52,1.52,0,0,0,1.08-.5,2.45,2.45,0,0,0,.61-1.39h.24v1.89h1.82Z" fill="#fff"/><path d="M611.05,141.31h-4.21c0,.29,0,.51,0,.65a4.56,4.56,0,0,0,.5,2.38,1.65,1.65,0,0,0,1.49.8,1.94,1.94,0,0,0,1.9-1.2h.35a2.07,2.07,0,0,1-.93,1.17,2.86,2.86,0,0,1-1.53.43,2.9,2.9,0,0,1-1.45-.39,3.13,3.13,0,0,1-1.11-1.09,3.23,3.23,0,0,1-.44-1.72,3.44,3.44,0,0,1,.84-2.37,2.7,2.7,0,0,1,2.1-.95,2.37,2.37,0,0,1,1.84.73A2.44,2.44,0,0,1,611.05,141.31Zm-1.29-.3a1.69,1.69,0,0,0,0-.3,1.34,1.34,0,0,0-.38-1,1.37,1.37,0,0,0-.94-.35c-.89,0-1.42.55-1.6,1.66Z" fill="#fff"/><path d="M616.24,140.56a2.41,2.41,0,0,1,.81-1.09,1.78,1.78,0,0,1,1.1-.45,1,1,0,0,1,.77.31.92.92,0,0,1,.28.61.5.5,0,0,1-.15.37.46.46,0,0,1-.35.16c-.24,0-.43-.19-.56-.55s-.22-.37-.39-.37a1.25,1.25,0,0,0-.76.43,2,2,0,0,0-.57.9,5.28,5.28,0,0,0-.12,1.27v1.07c0,.65,0,1.05,0,1.22a.52.52,0,0,0,.21.38,1.21,1.21,0,0,0,.66.13h.21v.34h-3.2V145h.15a1.2,1.2,0,0,0,.63-.12.48.48,0,0,0,.23-.34c0-.15,0-.57,0-1.27v-1.69c0-.65,0-1.06,0-1.22a.52.52,0,0,0-.21-.38,1.08,1.08,0,0,0-.66-.14h-.15v-.33A10.41,10.41,0,0,0,616,139,5.12,5.12,0,0,1,616.24,140.56Z" fill="#fff"/><path d="M566.68,108.89H562.2a.71.71,0,0,0-.71.71v1.94a.71.71,0,0,0,.71.72h4.48a.71.71,0,0,0,.71-.72V109.6A.71.71,0,0,0,566.68,108.89Zm7.31-10c-.13-.27-1-2-1-2s.33-.2.48-.27.26-.17.06-.55-.43-.3-.43-.3l-.62.33a1.83,1.83,0,0,0-1.5-.87h-1.11a.66.66,0,0,0-.52.15.71.71,0,0,1-.55.22h-7.57c-.07,0-.09,0-.13-.07a1.09,1.09,0,0,0-1.19.12c-.12.14-.6.72-.88,1a1.34,1.34,0,0,1-.72.44.27.27,0,0,0,0-.3l-.11-.23.15-.42.14-.08-.08-.19-.25.12c-.17.08-.17.15-.17.15-.07.27-.26.29-.26.29l-.5-.93c-.06-.1-.18-.43-1.62.35S554.53,97,554.53,97l.49,1-.15.12.36.72a3.48,3.48,0,0,0-.4.25,1.11,1.11,0,0,0-.66,1v20.83c0,1.57.45,2.28,2.2,2.28H572.3c1,0,2-.53,2-2.32v-20.6A1.73,1.73,0,0,0,574,98.86Zm-11.44-1.73h5.31a.82.82,0,1,1,0,1.64h-5.31a.82.82,0,1,1,0-1.64Zm6.73,16.39s1.77,3.1,2.14,3.82c.5.94-.18,1.34-.18,1.34a1,1,0,0,1-1.34-.36c-.38-.68-1.62-2.87-2.06-3.54-.56-.87-.8-1.17-1.56-1.17h-3.75c-.77,0-1,.3-1.58,1.17-.44.67-1.69,2.86-2.07,3.54a1,1,0,0,1-1.36.36s-.67-.4-.18-1.34c.38-.72,2.17-3.82,2.17-3.82a2.87,2.87,0,0,0,.45-1.25V108.8a2.87,2.87,0,0,0-.45-1.26s-1.79-3.09-2.17-3.8c-.49-.94.18-1.34.18-1.34a1,1,0,0,1,1.36.36c.38.68,1.63,2.86,2.07,3.53.57.87.81,1.16,1.58,1.16h3.75c.76,0,1-.29,1.56-1.16.44-.67,1.68-2.85,2.06-3.53a1,1,0,0,1,1.34-.36s.68.4.18,1.34c-.37.71-2.14,3.8-2.14,3.8a2.87,2.87,0,0,0-.45,1.26v3.47A2.87,2.87,0,0,0,569.28,113.52Z" fill="#fff"/><polygon points="997.85 71.36 1001.73 71.36 1001.73 72.18 998.77 72.18 998.77 73.53 1001.39 73.53 1001.39 74.35 998.77 74.35 998.77 75.76 1001.76 75.76 1001.76 76.58 997.85 76.58 997.85 71.36" fill="#fff"/><polygon points="1003.67 71.36 1004.52 71.36 1007.33 74.97 1007.33 71.36 1008.23 71.36 1008.23 76.58 1007.46 76.58 1004.57 72.86 1004.57 76.58 1003.67 76.58 1003.67 71.36" fill="#fff"/><polygon points="1011.52 72.21 1009.87 72.21 1009.87 71.36 1014.11 71.36 1014.11 72.21 1012.46 72.21 1012.46 76.58 1011.52 76.58 1011.52 72.21" fill="#fff"/><polygon points="1015.9 71.36 1019.78 71.36 1019.78 72.18 1016.82 72.18 1016.82 73.53 1019.44 73.53 1019.44 74.35 1016.82 74.35 1016.82 75.76 1019.82 75.76 1019.82 76.58 1015.9 76.58 1015.9 71.36" fill="#fff"/><path d="M1024,73.94c.66,0,1.08-.34,1.08-.87h0c0-.56-.41-.87-1.08-.87h-1.34v1.75Zm-2.25-2.58h2.32a2.06,2.06,0,0,1,1.51.52A1.55,1.55,0,0,1,1026,73h0a1.58,1.58,0,0,1-1.25,1.59l1.42,2h-1.09l-1.28-1.82h-1.15v1.82h-.91Z" fill="#fff"/><polygon points="1029.09 72.21 1027.43 72.21 1027.43 71.36 1031.67 71.36 1031.67 72.21 1030.01 72.21 1030.01 76.58 1029.09 76.58 1029.09 72.21" fill="#fff"/><path d="M1035.66,74.5l-.91-2.08-.89,2.08Zm-1.32-3.18h.85l2.3,5.26h-1l-.53-1.25h-2.47l-.54,1.25H1032Z" fill="#fff"/><rect x="1038.96" y="71.36" width="0.92" height="5.22" fill="#fff"/><polygon points="1042.1 71.36 1042.96 71.36 1045.76 74.97 1045.76 71.36 1046.66 71.36 1046.66 76.58 1045.89 76.58 1043.01 72.86 1043.01 76.58 1042.1 76.58 1042.1 71.36" fill="#fff"/><polygon points="1048.82 71.36 1049.8 71.36 1051.39 73.83 1052.99 71.36 1053.96 71.36 1053.96 76.58 1053.05 76.58 1053.05 72.83 1051.39 75.3 1051.36 75.3 1049.73 72.85 1049.73 76.58 1048.82 76.58 1048.82 71.36" fill="#fff"/><polygon points="1056.13 71.36 1060 71.36 1060 72.18 1057.05 72.18 1057.05 73.53 1059.67 73.53 1059.67 74.35 1057.05 74.35 1057.05 75.76 1060.04 75.76 1060.04 76.58 1056.13 76.58 1056.13 71.36" fill="#fff"/><polygon points="1061.95 71.36 1062.81 71.36 1065.6 74.97 1065.6 71.36 1066.51 71.36 1066.51 76.58 1065.74 76.58 1062.86 72.86 1062.86 76.58 1061.95 76.58 1061.95 71.36" fill="#fff"/><polygon points="1069.96 72.21 1068.3 72.21 1068.3 71.36 1072.54 71.36 1072.54 72.21 1070.88 72.21 1070.88 76.58 1069.96 76.58 1069.96 72.21" fill="#fff"/><path d="M1074.33,75.29c.15,0,.23-.08.23-.18h0c0-.13-.09-.19-.23-.19H1074v.38Zm-.58-.64h.59a.56.56,0,0,1,.4.14.36.36,0,0,1,.11.29h0a.39.39,0,0,1-.28.4l.32.48h-.34l-.28-.43H1074V76h-.29Zm1.61.69h0a1.1,1.1,0,1,0-2.19,0h0a1.1,1.1,0,0,0,2.19,0m-2.34,0h0a1.24,1.24,0,0,1,1.24-1.23,1.23,1.23,0,0,1,1.24,1.23h0a1.24,1.24,0,0,1-2.48,0" fill="#fff"/><path d="M1003.16,67.76c-3.61,0-5.86-2.43-5.86-5.13a5.91,5.91,0,0,1,5.92-5.52,7.31,7.31,0,0,1,3.34.84,7.54,7.54,0,0,1,.3,2.19c0,.07-.25.06-.27,0-.26-1.22-1.42-2.57-3.74-2.57s-4.11,1.65-4.11,4.48c0,3.45,2.33,5.19,4.55,5.19,1.63,0,3.24-1,3.36-2.55,0-.06.3-.07.3,0a7.14,7.14,0,0,1-.33,2.18,5.49,5.49,0,0,1-3.46.85" fill="#fff"/><path d="M1012.74,63.11H1016l-1.45-4Zm5.75,4.33a20.89,20.89,0,0,0-2.39.1c-.12,0-.06-.3,0-.3.71-.08,1.09-.06,1.09-.49a7.57,7.57,0,0,0-.59-2l-.47-1.24h-3.57l-.54,1.24a6.1,6.1,0,0,0-.67,2c0,.36.3.43,1,.49.09,0,.11.33,0,.3a9.19,9.19,0,0,0-1.49-.1,8.74,8.74,0,0,0-1.6.1c-.13,0-.06-.3,0-.3,1.06-.08,1.45-.73,2.23-2.48l3.39-7.55a.17.17,0,0,1,.29,0l2.89,7.55c.72,1.88,1,2.4,2.32,2.49,0,0,.11.3-.05.29a13.61,13.61,0,0,0-1.8-.1" fill="#fff"/><path d="M1029.58,67.51c-.58,0-1.58-.07-2.73-.07-1.58,0-3.19,0-4.33.09-.14,0-.06-.3,0-.3,1.58-.17,1.6-.11,1.6-2.47V60.08c0-2.37,0-2.31-1.6-2.5,0,0-.14-.3,0-.27,1.14.07,2.67.1,4.26.1,1.16,0,2.22,0,3.15-.1a2.62,2.62,0,0,0-.11.9c0,.15,0,.46,0,.59s-.26.05-.28,0c-.12-.69-.45-.89-2.5-.89h-1.5a16.9,16.9,0,0,0-.08,2.09v2h1.61c1.72,0,1.59-.12,1.69-.53,0,0,.26,0,.28,0a5.26,5.26,0,0,0-.08,1,5.72,5.72,0,0,0,0,.61c0,.08-.27.06-.28,0-.1-.49-.19-.68-1.63-.68h-1.61v2.29c0,2,.25,2.21,1,2.21h.83c2.39,0,2.53-.2,2.76-1.23,0,0,.3,0,.29,0-.07.38-.21,1.12-.3,1.45s-.17.32-.44.32" fill="#fff"/><path d="M1033.17,66.71a14.5,14.5,0,0,1,.09-2.07c0-.07.29,0,.29,0a2.5,2.5,0,0,0,2.61,2.64,1.86,1.86,0,0,0,2.07-1.83c0-2.59-4.7-2.61-4.7-5.45a3,3,0,0,1,3.07-2.88,4.05,4.05,0,0,1,2.05.49c.13.07.24.66.24,1.71,0,.08-.32.06-.32,0a1.93,1.93,0,0,0-2.09-1.74,1.73,1.73,0,0,0-1.88,1.59c0,2.48,4.61,2.43,4.61,5.42a3.13,3.13,0,0,1-3.19,3.16,4.24,4.24,0,0,1-2.85-1" fill="#fff"/><path d="M1044.07,63.11h3.22l-1.46-4Zm5.74,4.33a20.6,20.6,0,0,0-2.38.1c-.13,0-.07-.3,0-.3.72-.08,1.1-.06,1.1-.49a7.29,7.29,0,0,0-.6-2l-.47-1.24h-3.56l-.55,1.24a6.36,6.36,0,0,0-.67,2c0,.36.3.43,1,.49.08,0,.11.33,0,.3a9.32,9.32,0,0,0-1.5-.1,8.88,8.88,0,0,0-1.6.1c-.11,0,0-.3,0-.3,1.06-.08,1.45-.73,2.23-2.48l3.39-7.55a.18.18,0,0,1,.3,0l2.89,7.55c.72,1.88,1,2.4,2.31,2.49,0,0,.11.3-.05.29a13.51,13.51,0,0,0-1.8-.1" fill="#fff"/><path d="M1056.28,57.75a13.8,13.8,0,0,0-.1,2.18v2.6h.59c2.34,0,3.17-.85,3.17-2.14,0-2.13-1.4-2.67-3-2.67-.24,0-.43,0-.7,0m1.74,5.12a9.4,9.4,0,0,1-1.24.09,3.46,3.46,0,0,1-.6,0v1.84c0,2.25,0,2.36,1.45,2.47,0,0,.12.31,0,.3a15.63,15.63,0,0,0-1.93-.09,19.48,19.48,0,0,0-2.3.09c-.12,0-.06-.3,0-.3,1.41-.14,1.47-.13,1.47-2.47v-4.7c0-1.76,0-2.31-.92-2.31a4.37,4.37,0,0,0-.59.06c-.08,0-.18-.23,0-.28a18.31,18.31,0,0,1,3.92-.26c2.28,0,4.15.7,4.15,2.43a3.16,3.16,0,0,1-2.18,2.82c.84,2.25,3.3,5,5,5,0,0,.11.3,0,.3-3.66,0-5.48-2.46-6.17-4.92" fill="#fff"/><path d="M1066.17,66.71a14.5,14.5,0,0,1,.09-2.07c0-.07.28,0,.28,0a2.51,2.51,0,0,0,2.61,2.64,1.86,1.86,0,0,0,2.08-1.83c0-2.59-4.7-2.61-4.7-5.45a3,3,0,0,1,3.07-2.88,4.05,4.05,0,0,1,2.05.49c.13.07.24.66.24,1.71,0,.08-.31.06-.31,0a1.94,1.94,0,0,0-2.1-1.74,1.72,1.72,0,0,0-1.87,1.59c0,2.48,4.61,2.43,4.61,5.42a3.14,3.14,0,0,1-3.21,3.16,4.24,4.24,0,0,1-2.84-1" fill="#fff"/><path d="M1034.94,49.32c-4.11,0-6.51-.73-6.44-5.84,3.61,1.17,3,4.8,6.44,5.84" fill="#fff"/><path d="M1031.37,29.3c-2.82,2.54-5.63.15-8.27,2.65,2.07-3.55,3.88-5.27,8.27-2.65" fill="#fff"/><path d="M1023.21,30.79c.54-3.88-1.9-6,4-10,2.68,5-1.82,5.83-4,10" fill="#fff"/><path d="M1027.77,31.69c-1.17,3.61-4.8,2.94-5.84,6.43,0-4.1.73-6.51,5.84-6.43" fill="#fff"/><path d="M1021.45,37.29c-1.48-3.64-4.65-4.27-1.52-10.65,4.83,3,1.34,6,1.52,10.65" fill="#fff"/><path d="M1016.53,35.33c5.68.18,4.15,4.5,6.64,8.47-3.1-2.41-6.16-1.37-6.64-8.47" fill="#fff"/><path d="M1017.93,44.56c5-2.68,5.84,1.82,10,4-3.89-.54-6,1.9-10-4" fill="#fff"/><path d="M1024,44.05c-2-3.56-2.63-6,1.83-8.49.8,3.71-2.68,4.95-1.83,8.49" fill="#fff"/><path d="M1026.11,39.88c2.54,2.81.15,5.62,2.66,8.27-3.55-2.07-5.28-3.89-2.66-8.27" fill="#fff"/><path d="M1023.76,51.85c3-4.82,6-1.34,10.66-1.51-3.64,1.47-4.27,4.64-10.66,1.51" fill="#fff"/><path d="M1035.47,49.32c4.11,0,6.51-.73,6.44-5.84-3.61,1.17-2.94,4.8-6.44,5.84" fill="#fff"/><path d="M1039,29.3c2.82,2.54,5.63.15,8.27,2.65-2.06-3.55-3.88-5.27-8.27-2.65" fill="#fff"/><path d="M1047.2,30.79c-.54-3.88,1.9-6-4-10-2.68,5,1.82,5.83,4,10" fill="#fff"/><path d="M1042.65,31.69c1.16,3.61,4.79,2.94,5.83,6.43,0-4.1-.73-6.51-5.83-6.43" fill="#fff"/><path d="M1049,37.29c1.48-3.64,4.66-4.27,1.52-10.65-4.82,3-1.34,6-1.52,10.65" fill="#fff"/><path d="M1053.88,35.33c-5.67.18-4.14,4.5-6.64,8.47,3.1-2.41,6.16-1.37,6.64-8.47" fill="#fff"/><path d="M1052.48,44.56c-5-2.68-5.84,1.82-10,4,3.89-.54,6,1.9,10-4" fill="#fff"/><path d="M1046.4,44.05c2-3.56,2.63-6-1.83-8.49-.8,3.71,2.68,4.95,1.83,8.49" fill="#fff"/><path d="M1044.3,39.88c-2.54,2.81-.15,5.62-2.66,8.27,3.55-2.07,5.28-3.89,2.66-8.27" fill="#fff"/><path d="M1046.65,51.85c-3-4.82-6-1.34-10.66-1.52,3.64,1.48,4.27,4.65,10.66,1.52" fill="#fff"/><path d="M51.21,43.3C50,42.51,49,39.8,49,36.57v-.36h0c-3.5-.55-6-2.06-6.09-3.84h0v0h0A5.73,5.73,0,0,0,41.59,36c0,3.86,4.23,7,9.6,7.3h0ZM40,36.29c0-4.32,5.37-7.82,12-7.82S64,32,64,36.29,58.58,44.1,52,44.1s-12-3.5-12-7.81ZM52,29.6c1.28,0,2.37,1.94,2.77,4.65h0C57.22,33.86,59,33,59,31.92c0-1.39-3.13-2.52-7-2.52s-7,1.13-7,2.52c0,1,1.74,1.94,4.23,2.32h0c.41-2.71,1.49-4.65,2.77-4.65Zm.78,13.7c5.36-.28,9.6-3.44,9.6-7.3A5.68,5.68,0,0,0,61,32.4h0v0h0c-.06,1.78-2.59,3.29-6.09,3.84h0c0,.12,0,.24,0,.36,0,3.23-.93,5.94-2.19,6.73h0ZM52,34.45c.57,0,1.13,0,1.66-.07h0c-.26-1.74-.91-3-1.66-3s-1.39,1.22-1.66,3h0c.53,0,1.09.07,1.66.07Zm0,6.42c1,0,1.75-2,1.79-4.51h0c-.58,0-1.18.08-1.8.08s-1.21,0-1.79-.08h0c0,2.51.83,4.51,1.79,4.51Z" fill="#fff" fill-rule="evenodd"/><path d="M101.15,36.29a6,6,0,1,1,6,6,6,6,0,0,1-6-6Zm6,3.78a3.59,3.59,0,0,0,3.34-3.78,3.36,3.36,0,1,0-6.67,0,3.58,3.58,0,0,0,3.33,3.78Z" fill="#fff" fill-rule="evenodd"/><polygon points="119.87 32.8 119.87 41.98 117.35 41.98 117.35 32.8 117.36 32.8 113.84 32.8 113.84 30.73 123.38 30.73 123.38 32.8 119.88 32.8 119.87 32.8 119.87 32.8 119.87 32.8" fill="#fff" fill-rule="evenodd"/><path d="M126.42,39.45h0l-1,2.53h-2.94l4.65-11.25h3.13L134.93,42H132l-1-2.53h-4.61Zm2.3-1.9h1.58l-1.57-4.12h0l-1.57,4.12h1.58Z" fill="#fff" fill-rule="evenodd"/><polygon points="73.5 32.8 73.5 41.98 70.98 41.98 70.98 32.8 70.99 32.8 67.48 32.8 67.48 30.73 77.01 30.73 77.01 32.8 73.51 32.8 73.5 32.8 73.5 32.8 73.5 32.8" fill="#fff" fill-rule="evenodd"/><path d="M77.65,36.29a6,6,0,1,1,6,6,6,6,0,0,1-6-6Zm6,3.78A3.59,3.59,0,0,0,87,36.29a3.36,3.36,0,1,0-6.67,0,3.58,3.58,0,0,0,3.33,3.78Z" fill="#fff" fill-rule="evenodd"/><polygon points="95.37 41.98 96.65 41.98 96.65 37.76 96.65 37.71 101.04 30.73 98.1 30.73 95.37 35.46 92.65 30.73 89.71 30.73 94.1 37.71 94.1 37.76 94.1 41.98 95.37 41.98 95.37 41.98 95.37 41.98" fill="#fff" fill-rule="evenodd"/></g></svg>
