<svg xmlns="http://www.w3.org/2000/svg" xmlns:xlink="http://www.w3.org/1999/xlink" width="1281.98" height="362.07" viewBox="0 0 1281.98 362.07"><defs><radialGradient id="radial-gradient" cx="1177.01" cy="187.6" r="86.66" gradientUnits="userSpaceOnUse"><stop offset="0" stop-color="#294560"/><stop offset="0.3" stop-color="#27415a"/><stop offset="0.67" stop-color="#20354a"/><stop offset="0.86" stop-color="#1c2e40"/></radialGradient><linearGradient id="linear-gradient" x1="1096.49" y1="191.49" x2="1078.05" y2="259.56" gradientUnits="userSpaceOnUse"><stop offset="0" stop-color="#294560"/><stop offset="0.35" stop-color="#27415a"/><stop offset="0.79" stop-color="#20354a"/><stop offset="1" stop-color="#1c2e40"/></linearGradient><linearGradient id="linear-gradient-2" x1="1012.08" y1="210.2" x2="1009.25" y2="263.27" xlink:href="#linear-gradient"/><linearGradient id="linear-gradient-3" x1="936.01" y1="217.05" x2="927.5" y2="256.05" xlink:href="#linear-gradient"/><linearGradient id="linear-gradient-4" x1="1062.76" y1="206.87" x2="1068.43" y2="264.3" xlink:href="#linear-gradient"/><radialGradient id="radial-gradient-2" cx="347.4" cy="187.6" r="86.66" xlink:href="#radial-gradient"/><linearGradient id="linear-gradient-5" x1="266.88" y1="191.49" x2="248.45" y2="259.56" xlink:href="#linear-gradient"/><linearGradient id="linear-gradient-6" x1="182.47" y1="210.2" x2="179.64" y2="263.27" xlink:href="#linear-gradient"/><linearGradient id="linear-gradient-7" x1="106.41" y1="217.05" x2="97.9" y2="256.05" xlink:href="#linear-gradient"/><linearGradient id="linear-gradient-8" x1="233.15" y1="206.87" x2="238.83" y2="264.3" xlink:href="#linear-gradient"/><linearGradient id="linear-gradient-9" x1="693.64" y1="362.07" x2="693.64" gradientUnits="userSpaceOnUse"><stop offset="0" stop-color="#1c2e3f"/><stop offset="1" stop-color="#294661"/></linearGradient><linearGradient id="linear-gradient-10" x1="372.61" y1="198.86" x2="515.76" y2="198.86" xlink:href="#linear-gradient-9"/><linearGradient id="linear-gradient-11" x1="515.81" y1="106.37" x2="338.34" y2="324.63" gradientUnits="userSpaceOnUse"><stop offset="0" stop-color="#457297"/><stop offset="1" stop-color="#294661"/></linearGradient><linearGradient id="linear-gradient-12" x1="521.31" y1="51.53" x2="531.12" y2="334.64" xlink:href="#linear-gradient-11"/><linearGradient id="linear-gradient-13" x1="691.61" y1="309.93" x2="791.08" y2="38.65" xlink:href="#linear-gradient-11"/><linearGradient id="linear-gradient-14" x1="650.38" y1="107.7" x2="497.69" y2="225" xlink:href="#linear-gradient-11"/><linearGradient id="linear-gradient-15" x1="695.85" y1="161.94" x2="515.55" y2="241.9" xlink:href="#linear-gradient-11"/><linearGradient id="linear-gradient-16" x1="874.63" y1="28.1" x2="596.99" y2="259.24" xlink:href="#linear-gradient-11"/><linearGradient id="linear-gradient-17" x1="946.41" y1="130.34" x2="782.88" y2="266.48" xlink:href="#linear-gradient-11"/><linearGradient id="linear-gradient-18" x1="435.72" y1="229.34" x2="457.9" y2="121.24" xlink:href="#linear-gradient-9"/><linearGradient id="linear-gradient-19" x1="716.35" y1="120.42" x2="721.91" y2="222.77" gradientUnits="userSpaceOnUse"><stop offset="0" stop-color="#4e7f9f"/><stop offset="1" stop-color="#5389a8"/></linearGradient><linearGradient id="linear-gradient-20" x1="732.4" y1="118.59" x2="737.99" y2="221.33" xlink:href="#linear-gradient-19"/><linearGradient id="linear-gradient-21" x1="536.31" y1="119.96" x2="536.31" y2="14.31" xlink:href="#linear-gradient-19"/><linearGradient id="linear-gradient-22" x1="535" y1="170.21" x2="528.33" y2="26.66" xlink:href="#linear-gradient-19"/><linearGradient id="linear-gradient-23" x1="501" y1="175.26" x2="494.2" y2="28.88" xlink:href="#linear-gradient-19"/><linearGradient id="linear-gradient-24" x1="545.06" y1="170.7" x2="538.14" y2="22.08" xlink:href="#linear-gradient-19"/><linearGradient id="linear-gradient-25" x1="595.75" y1="120.51" x2="634.12" y2="120.51" xlink:href="#linear-gradient-19"/><linearGradient id="linear-gradient-26" x1="449.52" y1="219.4" x2="437.82" y2="76.67" xlink:href="#linear-gradient-19"/></defs><g id="mountains_2" data-name="mountains 2"><path d="M1281.88,224l-13,5.45-18.18,19.67-12.12-5.59-14.33,6.27q0,7.66,0,15.33c-.08,19.61-.18,39.23-.16,58.84q0,19,.26,38h57.6Z" fill="#1c2e40"/><path d="M0,362H76L12.6,231.4s-1.71-3.62-4.95-4.61A11.73,11.73,0,0,1,2.34,223L0,224Z" fill="#1c2e40"/><path d="M829.82,271.69l47.52-21.93h19.79l25.44-22.07,16.4,2.09,11.21,6.07,11.87-1.92L985.73,212l29.68-7.38L1023,215l13.67,10.94,26.58-17.45,11.84-15.39L1100.5,182l18.43,8.51,43.76-37,7.3-2.66s3.59,12.67,8.5,14.18,7.09-1.42,7.09-1.42L1282,362.07H829.64Z" fill="#1c2e40"/><path d="M1215.43,343.18l20.71-86.25-18.79-41.48-5.91-4.15-25.86-47.77s-2.17,2.92-7.09,1.42-8.5-14.18-8.5-14.18l-3.34,21.78,1.07,23-6.38,7.8,1.41,12.41,5.32,13.82,9.93,43.25Z" fill="url(#radial-gradient)"/><polygon points="1099.33 181.77 1117.77 190.28 1104.94 201.72 1078.67 260.96 1075.1 193.09 1099.33 181.77" fill="url(#linear-gradient)"/><polygon points="989.3 241.43 997.54 250.15 994.34 226.58 998.25 232.11 1009.47 262.38 1010.01 263.32 1037.13 225.89 1022.99 214.01 1015.41 204.66 986.09 212.04 989.3 241.43" fill="url(#linear-gradient-2)"/><polygon points="922.57 227.69 918.73 239.99 912.55 246.37 912.35 260.37 949.01 235.66 937.8 229.59 922.57 227.69" fill="url(#linear-gradient-3)"/><polygon points="1064.3 207.43 1072.5 261.62 1060.38 226.68 1064.3 207.43" fill="url(#linear-gradient-4)"/><polygon points="1200.33 242.04 1227.99 338.47 1254.93 339.18 1207.07 212.26 1203.17 215.81 1205.3 234.59 1200.33 242.04" fill="#1b2e40"/><path d="M26.88,278.22l20.85-28.46H67.52L93,227.69l16.39,2.09,11.21,6.07,11.88-1.92L156.12,212l29.69-7.38,7.6,10.34,13.67,10.94,26.58-17.45,11.83-15.39L270.89,182l18.44,8.51,43.76-37,7.29-2.66S344,163.44,348.89,165s7.09-1.42,7.09-1.42l96.43,198.54H0Z" fill="#1c2e40"/><path d="M385.82,343.18l20.72-86.25-18.79-41.48-5.91-4.15L356,163.53s-2.17,2.92-7.09,1.42-8.51-14.18-8.51-14.18l-3.33,21.78,1.06,23-6.38,7.8,1.42,12.41,5.32,13.82,9.92,43.25Z" fill="url(#radial-gradient-2)"/><polygon points="269.73 181.77 288.17 190.28 275.34 201.72 249.06 260.96 245.49 193.09 269.73 181.77" fill="url(#linear-gradient-5)"/><polygon points="159.69 241.43 167.94 250.15 164.73 226.58 168.65 232.11 179.87 262.38 180.41 263.32 207.53 225.89 193.39 214.01 185.81 204.66 156.49 212.04 159.69 241.43" fill="url(#linear-gradient-6)"/><polygon points="92.97 227.69 89.13 239.99 82.95 246.37 82.75 260.37 119.41 235.66 108.2 229.59 92.97 227.69" fill="url(#linear-gradient-7)"/><polygon points="234.7 207.43 242.9 261.62 230.78 226.68 234.7 207.43" fill="url(#linear-gradient-8)"/><polygon points="370.73 242.04 398.38 338.47 425.33 339.18 377.46 212.26 373.57 215.81 375.69 234.59 370.73 242.04" fill="#1b2e40"/><path d="M595.38,36.87c-.25-1.65-4-10.46-5.48-11.56s-4-2.2-4.73-3.3a39.84,39.84,0,0,1-2.49-5c-.75-1.65-.75-1.1-2.49-4.95S574,0,574,0s-13.7,19.81-14.45,20.91-8.22,8.25-8.22,8.25l-5-.55s-6.23,7.71-10.45,12.66-7.23,8.8-8,9.91a110.76,110.76,0,0,0-7.48,11.55,36.21,36.21,0,0,1-4.23,7.15c-2,2.75-3.49,5.5-4.49,7.16s-4.73-.56-4.73-.56-6,12.66-8.22,16-5.48,7.16-7.47,11-3.49,6-4.73,8.8l-7,15.41s-1.49-3.85-3.24-4.4-6-4.41-6-4.41L468.1,115s-5.73,14.31-9,20.36-11.21,14.86-12.7,17.06-10.71,18.16-10.71,18.16-9.47,11-11.71,15.41-6.48,7.7-8,9.35-18.68,31.92-19.93,34.12-14.45,22-15.69,23.11-9.47,12.65-10.71,14.3S342.31,296,342.31,296l-48.33,66h799.33s-124.4-89.39-130.38-96.73-18.86-10.85-20.19-11.58S934,243.63,934,243.63s-6.41-2.17-7.74-2.17-4.41.37-6.73-.36-6.91-5.43-7.91-5.43-6.56-4.7-6.56-4.7l-6.69-5.18-8.64-2.94-6-4.4-3.32-2.93-9,1.46-8.64-2.93s-4.32,2.2-7-.73-2.66-3.67-4.32-3.67h-6.31c-1,0-2.33.73-3.32,0s-2-2.21-5-5.14S826.3,197.18,824,195s-7-5.87-7-5.87-7.31-6.6-8.64-9.53-6.64-11-8.3-12.48-6.31-6.6-9-9.53a29.72,29.72,0,0,0-5.65-5.14c-2-1.47-4.31-3.67-6.64-5.13s-6-7.34-10.63-8.81a58.58,58.58,0,0,1-10.63-4.4c-1-.73-4-5.14-5.64-6.61S740.27,115,740.27,115L735,120.87s-2.66,5.14-4.32,6.6a38.22,38.22,0,0,0-3.65,3.68l-1.33,1.46-4-.73-11.95,14.67s-8.64-6.6-11.63-7.34-9-7.33-11.29-7.33a12.42,12.42,0,0,1-5-1.47s-5.65-8.8-10-11-9.63-5.14-10.63-5.87-3-5.14-4.31-6.61S648.6,93,647.61,90.06,642,78.32,642,78.32s-8,7-9.3,7c-.52,0-4-2.37-6-6.24-3.08-6-5.12-14.65-6.64-16.32-2.49-2.75-10.21-11.55-11.71-12.66s0,3.3-1.49-1.1-4.9-11.37-4.9-11.37l-3.49,1.47Z" fill="url(#linear-gradient-9)"/><path d="M479.54,272c-.84-.65,29.58-92.42,29.58-92.42l6.64-56.5-23.82-20.83c-.23.4-.46.8-.67,1.21-2,3.85-3.49,6-4.73,8.8l-7,15.41s-1.49-3.85-3.24-4.4-6-4.41-6-4.41L468.1,115l-.6,1.5a93,93,0,0,1-1.89,15.38c-3.32,13.2-93,163.61-93,163.61S477.5,272,479.54,272Z" fill="url(#linear-gradient-10)"/><path d="M472.59,155.72c-1.75-2.2,0-14.31,1.24-19.26s1.25-6.05-2.24-12.65a57.92,57.92,0,0,1-3.55-8.64c-.65,1.6-5.87,14.52-8.91,20.19-3.23,6-11.21,14.86-12.7,17.06s-10.71,18.16-10.71,18.16-9.47,11-11.71,15.41-6.48,7.7-8,9.35-18.68,31.92-19.93,34.12-14.45,22-15.69,23.11-9.47,12.65-10.71,14.3S342.31,296,342.31,296L297.8,356.85C332,333.61,362.41,289,343.35,303c-3,2.21,45.56-37.79,53.16-43.42,16.75-12.4,4.77,4.76,1.3,9.39,4.37-4.63,22.86-17,24.27-18.07,4.5-3.32,3.76-2.61,13.27-8.94l-7.29,22s5.05-6.24,7.29-11.74,6.85-6.79,7.84-9.54,2.24-1.65,4.49-2.75,2.24-9.35,3-13.21,1.25-8.25,1.25-8.25,4-9.35,5-11.55.25-18.16.25-18.16,8.72-4.41,10.71-6.61,6.23-20.9,6.48-24.21S474.33,157.92,472.59,155.72Z" fill="url(#linear-gradient-11)"/><path d="M533.7,76.85c.49-.27-17.9,16.78-19.27,17.61s-13.2,14.31-13.94,15.41,7.59-16.88,8.09-18.25,2.49-6.05,2.49-6.05l-1.35-3.12a2.66,2.66,0,0,0-2.14-1.84c-.53-.25-.62-4.13-.62-4.13s-6,12.66-8.22,16-5.48,7.16-7.47,11-3.49,6-4.73,8.8l-7,15.41,2.49,3.3s1.75,1.65,2.49,2.2,2.74,6.05,2.74,6.05a14.76,14.76,0,0,1,6.48.56c3.24,1.1,13.7-3.86,13.7-3.86S493,156.27,492,156.82s-1.5,6.61-1.75,11-2.24,6-2.24,6l5.48.55-3.74,7.7s-3.48,9.91-4.23,16a26,26,0,0,1-4.48,11s2.24,9.35,3.23,12.1.5,11,.5,17.06,4,7.7,4,7.7-4-5.1-3.79,2-10.91,23.17-9.42,22.07,30.4-36.22,34.13-39.52,8.47-14.31,5.73-15.41,5-9.91,2.49-11,23.65-16.5,23.65-16.5c1-10.46,30.31-38.89,30.31-38.89-16.6,9.54-30.06,25.13-30.06,25.13s-4,3.3-8.46,3.3c-4.11,0-2.77-6-1.17-7.86-2.58,2-13.39,9.42-18.75,9-6.48-.55,31.62-50.07,31.62-50.07,0-11,30.81-37.42,30.81-37.42-5-.55-14.7-2-15.94-1.47s3.81,2,5.81-1.83-17.19,2.2-17.19,2.2,3-5,4.48-8.25S561.25,67.68,563,66s-1.75-.55-3.24-1.65,6.56-24.58,7.8-25.68,1.66-.73-.08.37a4.23,4.23,0,0,1-3.57.37,27.85,27.85,0,0,0,4.65-8.07c1.49-4.41-1.33-6.61-1.33-6.61s.5.55,1.75-.55a16,16,0,0,0,2.49-3.3s-1-3.85,0-6.6c.58-1.62,1.17-8,1.55-12.95-3.1,4.48-12.88,18.62-13.51,19.55-.75,1.1-8.22,8.25-8.22,8.25l7,4.41-18.6,33.75L548.47,31l-2.16-2.39s-6.23,7.71-10.45,12.66-7.23,8.8-8,9.91a110.76,110.76,0,0,0-7.48,11.55,36.21,36.21,0,0,1-4.23,7.15c-2,2.75-3.49,5.5-4.49,7.16a4.15,4.15,0,0,0,0,3.3c.73,1.39,2.76,2.47,2.49,2.47" fill="url(#linear-gradient-12)"/><path d="M734,167.09c1,.74,7.64,5.87,8.64,6.61a43.44,43.44,0,0,0,5.64,2.93c1.66.74,6.32,4.4,9.63,5.87s16.61,15.41,16.61,15.41-14.94-17.61-16.27-22l-1.33-4.41-2.32-2.93-3-1.47s-1-4.4-2.33-5.13-2.66.73-1.33-.73,0-5.14.33-7.34,2-11,2-11l-4.65,2.94-7.31,5.87,3.32-7.34-4.65-2.2.33-11.74,2.82-15.21L735,120.87s-2.66,5.14-4.32,6.6a38.22,38.22,0,0,0-3.65,3.68l-1.33,1.46,3.65,8.44-2.49,1.46-3.32,8.08s.33-10.64-.5-11-.5,2.57-.83-.37-.5-7.33-.5-7.33l-11.95,14.67s18.93,16.14,19.92,16.88S733,166.36,734,167.09Z" fill="url(#linear-gradient-13)"/><path d="M624.36,93c-1.16,1.47-2.16,2.57-2.16,2.57s-.5.37-1.16,2.94-1.66,4.4-2,5.87a13.29,13.29,0,0,1-1.49,4c-.83,1.47.33,0-2.32,2.57s-8.64,8.8-10.3,13.94a61.12,61.12,0,0,1-5.81,12.1c-1.33,2.2-23.75,40.72-24.58,44.76s-.83,1.83-3,4.4-2,2.2-3.32,5.5-11.3,23.85-11.3,23.85,16.28-21.65,19.27-22c0,0,9.47-31.18,38.53-43.29,0,0,6-15,12.12-15,0,0-3.49-16.51,0-18.34s5.81-1.84,6-4,.83-8.07,2-8.43,7.31-2.57,6.31-2.94-2.65-4.77-3.82-4.77-2.65,2.2-2.16-.36c.31-1.59,4.55-10.33,7.08-17.47-.17-.31-.27-.51-.27-.51s-8,7-9.3,7c0,0-6.31,4.77-7.3,6.24S625.52,91.53,624.36,93Z" fill="url(#linear-gradient-14)"/><path d="M622.69,175.55s-6.15,5.5-9.8,5.14-8-.74-8-.74-4,4.77-5.31,6.24-3.82,2.57-5.65,4.4-9.13,5.87-10.46,7.34-5.81,7.34-6.31,8.07-7.3,9.54-9,12.1-5.48,7-7.14,9.18-2.15,4.76-4.15,7-14.94,19.07-14.45,18,35.87-30.08,39-31.55,2.16-5.13,4.32-7.7,6.14-5.5,11.62-8.8a112.75,112.75,0,0,0,10.13-7s-2-5.14.17-6.61,5-4.77,7.3-6.6S622.69,175.55,622.69,175.55Z" fill="url(#linear-gradient-15)"/><path d="M711.71,159s-12.29,4-12.62,5.14a45.15,45.15,0,0,1-2.33,5.87c-.49.73-1,.36-3.32,3.3a60.25,60.25,0,0,0-4.81,7.34c-1.33,2.2-2.49,2.56-4.82,5.5a45.23,45.23,0,0,0-4.15,5.5c-1.33,2.2,1.83-2.2-2.49,4a126.19,126.19,0,0,0-8,13.57s12.12-12.84,14.28-13.57,6.31-7,8-8.81,3.32-7,3.82-7,6.31-4.76,6.31-4.76.66.36,1.49-1.47S711.71,159,711.71,159Z" fill="url(#linear-gradient-16)"/><path d="M839.63,221.91a13,13,0,0,1,3.52-2.88c.32,0,4.88-2.9,4.88-2.9s3.92-1.07,1.85-3.26c-.25-.26.9-1.56,2.48-3.12a2.78,2.78,0,0,0-.82-.1h-6.31c-.62,0-1.35.27-2.06.32a2.41,2.41,0,0,1-.19.37,13.67,13.67,0,0,0-2.09,2.27,40,40,0,0,0-3,5c-.84,1.51-1.58,1.76-3,3.77a28.83,28.83,0,0,0-2.62,3.77c-.84,1.51,1.15-1.51-1.58,2.77a90.79,90.79,0,0,0-5,9.31s7.65-8.81,9-9.31S838.58,223.17,839.63,221.91Z" fill="url(#linear-gradient-17)"/><path d="M447.51,155a21.44,21.44,0,0,1,1.16,5.14c0,1.83.17.36,0,1.83s-.33.73-1.33,4.4-4.48,12.11-4.65,13.21,10.47-18.34,10.47-18.34l-2.33-3.31A18.48,18.48,0,0,1,447.51,155Z" fill="url(#linear-gradient-18)"/><path d="M719.51,144c.34.74,0,0,.34-2.2a48,48,0,0,1,1.82-9.9l-8.81,10.82a2.54,2.54,0,0,0,2.17.18,16.68,16.68,0,0,0,2.05-.95A9.22,9.22,0,0,1,719.51,144Z" fill="url(#linear-gradient-19)"/><path d="M735.29,146.55s-.33-2.93-1.16-3.3.33-2.94.33-2.94c-.66.37.34-2.2.83-4.76l.5-2.57c.5-2.57,0,0,0-1.1s.66-.37.66-5.14c0-2.13.93-6,2-9.68L735,120.87s-2.66,5.14-4.32,6.6a38.22,38.22,0,0,0-3.65,3.68c.49,6.23,2.32,4.76,3.49,6.6s.33,5.87.33,9.54S731,151,731,151a32.11,32.11,0,0,1,3.16-3.3C735.46,146.55,735.29,146.55,735.29,146.55Z" fill="url(#linear-gradient-20)"/><path d="M574.54,96.66s-3.32,7.34-5,8.07l-5,2.2s-2.65,8.81-4.64,12.48-10,19.8-10,19.8c-2.41,2.1,18.93-20.54,22.92-24.94s3-4.4,5.31-5.87-4,22.75-4,22.75-3.32,10.26-5.32,13.2,7.31-5.14,7.31-5.14l-2,30.09s22.25-38.15,23.58-42.56c2.51-8.3,2.32-5.13,2.65-12.47s-6.64-12.47-5.64-18.34,0,0,2.33-5.87l.33-7.34,2.65,6.6c2.66,6.61,0,0,2.66,11.74s3.32,8.81,3.32,8.81.33-5.87.33-8.81V89.32c0-5.86.67-8.07.67-12.47s-.33-11-1.33-13.94,1.66.74,7,10.27c2.36,4.25,4.06,7.62,5.23,10-1.25-5.64,6.21,4.13,6.06,2.43C623.7,82,619.71,71.72,612.4,60c-1.34-2.16-2.3-6-3.5-9.41a6.08,6.08,0,0,0-.57-.5c-1.49-1.1,0,3.3-1.49-1.1s-4.9-11.37-4.9-11.37l-3.49,1.47-3.07-2.2c-.25-1.65-4-10.46-5.48-11.56s-4-2.2-4.73-3.3a39.84,39.84,0,0,1-2.49-5c-.75-1.65-.75-1.1-2.49-4.95S574,0,574,0l-1,1.43c.3,12.78.57,25,.57,27a88.55,88.55,0,0,1-.66,9.54s-6.64,19.81-8,22.74,2,3.67,4,4.4-7.64,13.21-9,15.41,2.32,0,5-.73,9,1.46,12,1.46-.67,5.87,2.32,5.87,1.33-4.4-4.65,9.54" fill="#1c2e3f"/><path d="M568,14.31,562,22s1.5,0-1.24,2.2-7.71,3.85-6.46,3.85,5.22-.55,5.22,1.65,1.24,3.31-.25,7.16-3.23,3.85-3,7.15,3-1.65.25,3.3-5.22,6-6.47,9.36-2.23,3.3-4.47,7.15-6,3.85-7.21,8.25-1.74,2.76-2.24,6.06,1,2.75-2.47,7.15S529.48,89.14,527,93s-4,4.41-9.19,11-13.18,16-13.18,16,16.66-14.31,18.65-13.76,1,2.75,2,.55,5-12.11,7.71-14.86,3.47-1.1,5.46-3.3l2-2.2s1.24,3.85.74,5.5c-.17.59-.5,2.19-.86,4-.64,3.38-1.37,7.53-1.37,7.53s3.23-18.16,7.45-23.11S559.3,67.68,559.3,67.68s-3.73-.55-3.23-2.2,6.71-19.81,6.71-19.81-3.72-5.68-1.86-7,3.6-7.33,3.6-7.33-1.24,1.1-.5-2.21S568,14.31,568,14.31Z" fill="url(#linear-gradient-21)"/><path d="M543.64,35.77s-5.22,3.3-7.46,7.7-5.46,8.8-7.69,12.66-1.5,1.1-3.73,5.5-2.49,2.75-4,6.05-5.72,7.7-5,8.26,9-8.81,10.94-6.61.49,3.3,2,2.2,5.47-7.15,6.22-7.15,1,11,1,11l4.72-23.66-3.24,2.76Z" fill="url(#linear-gradient-22)"/><path d="M506.09,81.16a37.36,37.36,0,0,0-3,6.33c-2,5-2,5-3.23,7.15a53.77,53.77,0,0,0-4,7.16c-3,6-7.21,12.65-7.21,12.65s6.46-8.25,7.71-6.6,9.94-19.26,9.94-19.26Z" fill="url(#linear-gradient-23)"/><path d="M558.8,91.89s-10.69,1.1-11.43,2.2-2.74,1.65-4,3.86a2.92,2.92,0,0,1-3.23,1.65,36.61,36.61,0,0,1-2,7.15c-1.24,2.75-1.49,1.65-3.22,7.15s-3.73,7.16-7.46,16.51S521,145.82,521,145.82s17.89-34.12,22.11-34.12,5-4.4,6-6,11.43-12.11,14.17-14.31S562,90.24,558.8,91.89Z" fill="url(#linear-gradient-24)"/><path d="M633.13,90.24l-6.71,5.5a7.47,7.47,0,0,0-3.48,5c-.5,3.3-1,2.75-1.49,5.5s-1.25,2.75-2,3.85a37.6,37.6,0,0,0-4,6.6c-1.49,3.31-3.23,1.65-4.72,4.41s-2,1.1-3.48,5-3.48,7.15-6,12.65-6.21,12.11-5.47,12.11,22.87-24.21,25.61-23.66-2.24-8.26,1-11.56,8.95-11,8.95-11l2.73-3.3S625.42,101.25,633.13,90.24Z" fill="url(#linear-gradient-25)"/><path d="M469.07,162.33c-.25-7.16-.25-2.76,0-5.51s0,0,0-2.75.25-3.3.25-6.6,0-2.2.5-7.7.5-2.21,2-7.16c0,0-1.74-5-3.73-10.45a20.55,20.55,0,0,1-1.06-4.49c-1.82,4.43-5.51,13.26-7.89,17.69-3.23,6-11.21,14.86-12.7,17.06s-10.71,18.16-10.71,18.16-4.2,4.88-7.67,9.45c-6.36,15-10.63,25.28-8.94,21.91,5-9.9,11.68-13.2,12.68-15.95s3-5,3.23-7.16,0,8.26,2.23,3.3,4.73-12.65,6.72-16.5,2-9.91,2-9.91l4.47-2.75s4,2.75,4.72,1.65,8-15.41,8-15.41a118.34,118.34,0,0,1-3.48,12.11c-2,5.5-4.23,5.5-3.23,8.81s-2,18.15-1.5,17.6,5.47-11,7-13.76,2-.54,4.73-1.1,2.23,6.06,2.23,9.36S469.32,169.48,469.07,162.33Z" fill="url(#linear-gradient-26)"/></g></svg>
