<svg xmlns="http://www.w3.org/2000/svg" width="1773.96" height="254.32" viewBox="0 0 1773.96 254.32"><g id="mountains"><polygon points="1166.62 136.39 1105.04 124.55 925.04 162.44 917.94 164.81 692.95 209.81 1548.13 209.81 1548.13 104.95 1377.4 89.03 1166.62 136.39" fill="#466e7a"/><polygon points="929.28 194.21 903.95 210.47 1548.13 210.47 1548.13 194.62 1501.9 184.73 1498.1 183.37 1401.82 161.69 1368.88 168.47 1256.13 141.37 929.28 194.21" fill="#1f576d"/><polygon points="396.13 146.32 396.13 248.99 1441.13 248.99 1433.14 234.78 1212.8 180.21 1006.27 173.8 924.57 148.94 546.84 153.08 434.94 133.54 396.13 146.32" fill="#0f4560"/><path d="M820.37,231.23c-12.44,0-71-10.66-76.38-10.66s-174.06-17.76-188.27-23.08-232.68-32-248.66-39.08S86.81,101.57,67.28,96.24s-39.08-10.65-49.74-16C12.82,77.9,6.36,76.23,0,75v173c423.72.3,880.76,1.06,880.76,1.06v-8.88S832.8,231.23,820.37,231.23Z" fill="#0f4560"/><path d="M-.35,254.8H423.93c-16.06-13.26-48.29-13.8-70.65-21.66-42.95-15.09-91.81-18.89-137.25-24.52-34.79-4.31-66.22-10.29-99.76-20.92-29.44-9.34-64.36,7.09-95.47,13.77-7.25,1.55-14,3.25-21.15,3.67Z" fill="#0a2939"/><polygon points="1736.09 47.71 1721.8 53.23 1696.15 34.95 1674.96 38.79 1466.21 164.81 1418.84 162.45 1367.92 199.16 1260.73 244.38 1736.09 243.88 1736.09 47.71" fill="#75ad53"/><polygon points="1736.09 45.79 1723.02 50.85 1697.37 32.57 1676.18 36.4 1465.67 163.09 1420.03 161.26 1354.76 209.14 1261.94 242 1736.09 241.5 1736.09 45.79" fill="#1f576d"/><path d="M1776.16,29.85,1734.75,16s-14.87-2.37-16.9-3.16-8.11-3.16-13.52-3.16S1592.8,7.34,1592.8,7.34L1582.66,5s-21,6.32-34.47,11.06a189.33,189.33,0,0,1-28.39,7.1l-16.9,3.95c-3.38.79-10.14,5.53-13.52,6.31s-22.31,6.32-22.31,6.32-10.13,1.58-12.16,2.37-6.76,4-8.79,7.1S1431.25,65,1431.25,65h-13.52l-6.08,7.11L1406.24,91l-5.41,4.74h-20.28l-6.08,2.37-4.73,27.63s-6.76,4.74-8.79,7.1S1315.66,166,1315.66,166s-15.55,5.53-18.25,7.9-16.9,5.52-16.9,5.52-35.15.79-37.17.79l-30.42,7.11-22.31,4.73-8.11,11.84-28.39,9.48-20.28,9.47-6.08,11.84,40.56,3.08,583.38,12.58h25.48Z" fill="#0f4560"/><path d="M1736.09,215.1l-37.5-43.79-4.06-27.24,4.06-24.86,14.19-22.5,5.07-4.74,1-65.13,5.07-3.55,8.11-5.92,4,1.6V17.76h-1.34s-14.87-2.36-16.9-3.15-8.11-3.16-13.52-3.16S1592.8,9.08,1592.8,9.08l-10.14-2.37s-21,6.32-34.47,11.05c-1.37.48-2.76.94-4.14,1.37L1537.38,34l37.51-19H1585l40.22,13L1659,12.63l27.38,8.29-4.06,21.32,8.12,2.36,1,24.87,1,5.92-10.14-10.65L1659,78.94l-12.16,24.87L1652,186.7l-103.42-2.36-8.11-52.11s3-21.31,3-24.87-10.14,7.11-10.14,7.11l-17.24-2.37-21.29-36.71-121.11,29.09-3.94,23s-6.76,4.73-8.78,7.1-45.29,33.16-45.29,33.16-15.55,5.52-18.25,7.89-16.9,5.53-16.9,5.53-35.15.79-37.18.79l-30.42,7.1-22.3,4.74-8.11,11.84-28.4,9.47-20.27,9.48-6.09,11.84,40.56,3.08h567.78Z" fill="#0a3752"/><path d="M1736.09,169.53c-.35,0-11.19,1.18-14.18,1.18s-24.34-7.1-24.34-7.1l-2-56.84-4.06-11.84L1680.34,89l-13.86,8.3-3.38,43.81-12.17-3.55L1596.18,147,1581,155.32l-14.19-7.11-11.15,3.56-14.2,5.92-13.18-3.56-128.77,59.21L1362,205.05l-37.52,21.32-13.18-13-5.07,8.29-4-15.39-48.67,32-21.29-2.37L1226.1,224l-7.1-9.47L1147,248l21.36,1.62h567.78Z" fill="#0f4560"/><path d="M1751.69,250.37c-5.39-4.25-31.92-26.25-33.91-26.25-2.66,0-5.33-5.18-9.32-5.7a13.09,13.09,0,0,1-6.1-2.77,1.18,1.18,0,0,0-1.73.32l-3.18,5.19a1.18,1.18,0,0,0,.28,1.54l23.73,18.87a1.19,1.19,0,0,1-1.17,2l-2-.77a1.21,1.21,0,0,1-.2-.09l-41-25.7a1.19,1.19,0,0,0-1.69.48l-2.73,5.58a1.15,1.15,0,0,1-.79.63c-1.69.38-6.79,1.6-7.89,2.47a28.63,28.63,0,0,0-3.61,4.48,1.19,1.19,0,0,1-1.84.13l-5.38-5.87a1.27,1.27,0,0,0-.68-.37l-11.88-2a1.51,1.51,0,0,0-.3,0l-5.62.51-8.72,1a.92.92,0,0,1-.33,0l-11.75-2-.15,0-7.72-2.38a1.18,1.18,0,0,0-1.14.25l-4.61,4.14a1.19,1.19,0,0,0-.26,1.41l4.94,9.75a1.18,1.18,0,0,1-.31,1.45l-2.66,2.18a1.18,1.18,0,0,1-1.75-.3l-9.07-14.74a1.19,1.19,0,0,0-1.25-.54l-6.1,1.26a1.18,1.18,0,0,1-1.09-.33c-1.76-1.83-8.17-8.43-9.32-8.87a5.53,5.53,0,0,0-3,0l-.15,0c-.65.07-4.9.51-6.13.51s-7.62-2.11-9.89-2.85a1.18,1.18,0,0,1-.8-1.08l-.86-23.9a1,1,0,0,0-.06-.34l-1.57-4.58a1.18,1.18,0,0,0-.56-.66l-3.89-2.06a1.15,1.15,0,0,0-1.15,0l-5,3a1.18,1.18,0,0,0-.57.93l-1.32,17.13a1.19,1.19,0,0,1-1.51,1l-3.67-1.07a1.18,1.18,0,0,0-.53,0l-23.52,4.07a.92.92,0,0,0-.36.13l-6,3.24a1.22,1.22,0,0,1-1.1,0l-5.23-2.63a1.25,1.25,0,0,0-.89-.07l-4.38,1.4-.09,0-5.8,2.41a1.17,1.17,0,0,1-.76,0l-5-1.34a1.19,1.19,0,0,0-.79.07l-55.66,25.59a1.13,1.13,0,0,1-.75.08l-15.6-3.45a1.2,1.2,0,0,0-.83.13l-15.26,8.67a1.2,1.2,0,0,1-1.42-.19l-4.07-4a1.19,1.19,0,0,0-1.84.23,1.18,1.18,0,0,1-2.15-.32l-.65-2.48a1.19,1.19,0,0,0-1.79-.69l-19.59,12.87a1.14,1.14,0,0,1-.78.19l-8.27-.92a1.16,1.16,0,0,1-.92-.63l-2.33-4.54a1.63,1.63,0,0,0-.11-.17l-2.47-3.3a1.18,1.18,0,0,0-1.45-.36l-26.58,12.33a1.18,1.18,0,0,0,.41,2.25l4.79.36h430.09Z" fill="#0a3752"/><path d="M1431.25,66.71h-13.52l-6.08,7.1-5.41,19-5.4,4.74h-20.28l-6.09,2.36-4.73,27.64s-6.76,4.73-8.78,7.1-45.29,33.16-45.29,33.16-15.55,5.52-18.25,7.89-16.9,5.53-16.9,5.53-35.15.79-37.18.79l-30.42,7.1-22.3,4.74-.28.41C1219,193,1289,191.44,1289,191.44l27.37-10.66,42.59-3.55,6.08-10.66,13.18-2.37,52.72-33.15s-30.41,3.55-25.34,1.18,52.72-27.23,55.76-30.79,19.27-17.76,19.27-17.76l-17.24,37.89-41.57,43.82,41.57-15.4,10.14-27.23,13.18-13-10.14,36.71,13.18-7.1,18.25-32,8.11,4.74,9.13-14.21,20.28,1.18,3-24.86,10.14-2.37,1-10.66L1553.6,60V36.31h10.14L1582,16.18l-49.68,22.5,15.21-16.58-26.37,7.11s-23.32,24.87-25.35,26.05-9.12-2.37-9.12-2.37l3-13L1476.54,47l-30.42,29.61V65.92l9.13-15.4-9.13.4c-2,3.16-14.87,15.79-14.87,15.79" fill="#1f576d"/><polyline points="1563.46 128.33 1560.55 59.94 1567.36 49.44 1571.4 48.38 1581.24 57.18 1584.51 75.63 1602.56 134.77 1569.51 73.87 1571.03 127.94 1565.48 129.92" fill="#0a2939"/><path d="M1607,94.34v11l10.14,3.16s-14.87,8.68-14.87,11-1.36,14.21-1.36,14.21L1590.1,152l-28.39,22.89h10.14l54.75-40.26-8.79-3.95,2-13.42,23-15.79h-11.49l10.14-32.36,16.22-2.37-1.35-51.32L1625.25,28l2.7,7.1,4.73,3.16" fill="#0a2939"/><path d="M1653.64,107.78l12.84-10.26,1.35,25.26s-31.77,43.42-30.41,40.26,16.89-41,16.89-41l-.67-16.58" fill="#0a2939"/><polygon points="1715.15 20.92 1698.25 46.18 1707.71 50.13 1702.98 71.44 1713.12 60.39 1720.56 22.5 1715.15 20.92" fill="#0a2939"/><path d="M1736.09,214l-4.72-13.09-8.78-12.63-2.71-37.89s-7.44-4.74-6.76-7.11.68-32.36.68-32.36l-16.23,30.79-5.4,61.57,43.92,12.44Z" fill="#0a2939"/><path d="M799.46,89l-17.63,6.22L764.2,84.85l8.29,20.74-19.7,1-16.6-24.89,4.15,16.59L730,92.11l11.41,15.56c-3.11,4.14-29,13.48-29,13.48L731,141.89l8.3-2.08-15.56,22.82,5.19,1,17.63-14.52,27,12.44S820.2,174,815,169.89s-32.15-15.56-32.15-15.56l-15.55-20.74,5.18-12.44,7.26-3.11,1-8.3,17.63,18.67-9.33,4.15L832.64,174l4.15-24.89L803.6,109.74l48.75,27L836.79,116l51.85,5.19Z" fill="#699451"/><path d="M842,80.7l40.44,19.71s118.23,27,114.08,27-28-18.67-28-18.67L934.28,93.15,932.2,79.66,908.35,69.29l-17.63,6.23-1.61-12.74-26.39,11.7Z" fill="#4a834a"/><polygon points="899.01 111.81 925.98 118.04 932.2 127.37 968.5 138.78 913.53 127.37 899.01 111.81" fill="#4a834a"/><polygon points="971.61 125.3 1013.09 146.04 1001.69 154.33 1012.06 171.96 1000.65 178.19 971.61 148.11 959.17 141.89 981.98 140.85 971.61 125.3" fill="#699451"/><polygon points="1020.35 107.67 1028.65 130.48 1049.39 137.74 1041.09 112.85 1020.35 107.67" fill="#4a834a"/><path d="M1055.83,118.26l15.34,7,7.26,12.44s27,19.71,30.07,19.71H1122l31.11,12.44-36.3-32.15L1103.32,145V131.52l-14.52-3.11-9.89-14.55Z" fill="#4a834a"/><path d="M644.93,118l8.3,15.55s-10.37,8.3-13.48,9.34-6.23,4.15-9.34,7.26-8.29,12.44-8.29,12.44l4.15,4.15-19.71,29L815,200l-57-37.33-20.74,3.11-21.78,3.11,8.3-6.22-6.22-8.3Z" fill="#bccd5b"/><path d="M591.33,126.63,587.44,136l-11.67,17.11s71.56,21.78,69.23,19.44-42.78-28.77-42.78-28.77l8.55-4.67Z" fill="#699451"/><path d="M640.14,80.34l28-3.11,20.22-7.78,26-15.52s23.79,0,28.46,1.52,37.34,21.78,37.34,21.78l14-9.34,15.56,6.23h20.22c6.23,7.78,31.12,6.22,35.79,3.11s23.38-14.74,23.38-14.74l23.29.74s49.78,20.22,56,20.22,62.23,26.45,62.23,26.45l25.19,8.07,10.59-1.85,12.49-2.56s12.4,5.67,18.63,8.79S1152,142.57,1152,142.57l6.22,7.78,17.12-1.56s15.55,1.56,21.78,3.12,21.78,1.55,26.44,3.11,10.89,6.22,17.12,6.22,29.56,6.22,29.56,6.22l34.22,14,6.23,12.45H1050.86l-140,3.11L637,193.91,581,197l-31.11-6.22-28-9.34-28-4.66s43.56-15.56,51.34-17.12,17.11-9.33,21.78-12.44,21.78-9.34,21.78-15.56,21.78-21.78,21.78-21.78Z" fill="#0f4560"/><path d="M683.11,18.28,670.54,21.7S650,13.71,642,11.42s-34.27-8-46.84-9.14-62.82,10.29-67.39,12.57-19.42,6.85-24,9.14-25.13,4.57-30.85,4.57-26.27-6.86-33.12-5.72-19.42,8-25.13,9.14-35.41-11.42-42.26-12.56-26.28-1.14-32-1.14-32,3.42-44.54,5.71c0,0-27.42,8-35.41,9.13S250.2,32,242.2,30.84s-17.13,4.57-22.84,4.57S201.08,24,196.51,21.7s-18.28-8-22.84-8S161.1,6.85,156.53,6.85,128,12.57,123.41,13.71,99.42,16,94.85,16,77.72,0,67.44,0,38.88,2.28,34.31,6.85,24,20.56,24,20.56,12.61,26.27,9.18,27.41C7.37,28,2.59,28.47-1,29.29L-1.77,205.6H683.11l337.52,2.19Z" fill="#1f576d"/><path d="M799.46,89l-17.63,6.22L764.2,84.85l-28-3.11,5.19,25.93c-3.11,4.14-29,13.48-29,13.48l61.19,40.44S820.2,174,815,169.89s-32.15-15.56-32.15-15.56l-15.55-20.74,13.48-23.85L832.64,174l4.15-24.89L803.6,109.74l48.75,27L836.79,116l51.85,5.19Z" fill="#0f4560"/><path d="M842,80.7l40.44,19.71s118.23,27,114.08,27-28-18.67-28-18.67L934.28,93.15,932.2,79.66,908.35,69.29l-17.63,6.23-1.61-12.74-26.39,11.7Z" fill="#0a2939"/><polygon points="899.01 111.81 925.98 118.04 932.2 127.37 968.5 138.78 913.53 127.37 899.01 111.81" fill="#0a2939"/><polygon points="971.61 125.3 1013.09 146.04 1001.69 154.33 1012.06 171.96 1000.65 178.19 971.61 148.11 959.17 141.89 981.98 140.85 971.61 125.3" fill="#0a2939"/><polygon points="1020.35 107.67 1028.65 130.48 1049.39 137.74 1041.09 112.85 1020.35 107.67" fill="#0a2939"/><path d="M1055.83,118.26l15.34,7,7.26,12.44s27,19.71,30.07,19.71H1122l31.11,12.44-36.3-32.15L1103.32,145V131.52l-14.52-3.11-9.89-14.55Z" fill="#0a2939"/><path d="M921.88,197.4,879.1,186.51V161.62s3.11-7,7-4.66,37.33,24.11,37.33,24.11l24.89,5.44L939.77,171l-78.56-45.11s30.34,3.11,31.89,5.44,82.44,39.67,84.78,40.45,79.33,18.66,79.33,18.66l-23.33-17.11,18.66-1.55L1051,162.4l10.11-1.55s61.44,20.22,58.33,19.44-17.89-14.78-17.89-14.78l22.56,3.11,11.66-1.55,49.78,17.11s-18.67-18.67-16.33-17.89,14,1.56,14,1.56l55.22,12.44,67,10.89,32.66,14Z" fill="#1f576d"/><path d="M591.33,126.63,587.44,136l-11.67,17.11s71.56,21.78,69.23,19.44-42.78-28.77-42.78-28.77l8.55-4.67Z" fill="#4c607f"/><path d="M34.31,6.85C29.74,11.42,24,20.56,24,20.56S12.61,26.27,9.18,27.41C7.37,28,3.6,28.31,0,29.13V38l1.26-1.34,12-10.28L30.37,22.9l12-6.85L50.43,1.43C43.33,2.56,36.8,4.37,34.31,6.85Z" fill="#0f4560"/><path d="M8.61,62.82C8,61.11-1.1,51.4.62,49.69L11.47,38.84l26.84,4s-1.71-6.28.57-5.14S92.57,49.12,92.57,49.12L58.3,24l13.14-1.72,21.13,4.57,16.56,5.71,64,32.56s50.26,33.69,52,33.69,3.42,12,3.42,12L269,145.64l96.37,71H152.11s-71.2-82.36-75.48-81.51-13.71-.85-13.71-.85l-8.57-31.7Z" fill="#0f4560"/><path d="M173.43,37.47c2.57,1.71,55.68,40.26,58.25,41.12s31.69,19.7,31.69,19.7l31.7,18.84,18.85,8.57.85,6.86,14.57-12L349.9,106,331.05,50.32l-66-1.72s.85,30.84.85,28.27-14.56-30-14.56-30L224,50.32l-13.71,3.42Z" fill="#0f4560"/><path d="M362.31,47.75,354,148s11.51,12,14.61,12,25.58,4.28,25.58,4.28L423.53,154,449,134l3.52-23.75-22.7,9.43,27.91-28.28-3.06-6L437,95.72l-1.1-17.13L419.21,89.72,404.86,74.3l15.29-8.56L408.4,57.17h-8.51l-7.84-14.56-15.5,6Z" fill="#0f4560"/><path d="M408.4,40.89c1.42,1.72,7.77,10.28,7.77,10.28L438,43.46Z" fill="#0f4560"/><path d="M461.64,86.66c2.15,2.86-19.42,117.67-19.42,117.67l13.34-4.72,65.29,10.2L503.48,83.5,498,100.08Z" fill="#0f4560"/><polygon points="493.22 33.77 509.97 47.75 487.88 58.03 536.71 98.29 546.32 145.4 524.94 135.12 549.52 171.96 589.11 176.24 620.3 171.1 631.95 168.53 636.82 134.27 602.05 134.27 621.22 120.56 590.48 124.84 590.57 112.85 628.66 88.87 578.67 102.57 595.35 90.58 629.62 81.16 647.05 75.16 639.19 69.16 652.7 57.17 616.4 67.45 582.42 83.73 566.41 81.16 575.06 87.15 568.44 96.58 600.26 82.87 558.79 104.28 551.93 100.86 557.67 87.15 541.62 74.3 598.06 26.33 577.39 28.04 542.91 51.17 535.05 45.18 527.35 47.75 521.57 51.17 516.62 32.33 493.22 33.77" fill="#0f4560"/><path d="M596,17.76s-15,36-12.65,35.13S626,29.76,626,29.76l9.48,5.14,16.59,6.85,143,77.1H768.21l39.51,18.84L865.41,142l17.38-13.71L688.4,26.33l-25.29-.85L653.63,28,642.57,17.76l-11.06-4.28-13.44,1.71-6.32,6.86Z" fill="#0f4560"/><path d="M115.17,82.87l16.28,51.4S145.16,127.41,146,130s21.42,35.13,21.42,35.13l112.22-2.57-71.1-54-27.41,18.84-25.7-13.7Z" fill="#0a2939"/><polygon points="259.09 122.28 299.35 155.68 314.77 132.56 259.09 122.28" fill="#0a2939"/><path d="M413.11,126.56,444.4,105l13.34-13.52-3.06-6L437,95.72l-.65-10.14-22.17,21.28-8.38-1.72-28.88,25.7L374,84.58l-14.14-7L354,148s11.51,12,14.61,12,25.58,4.28,25.58,4.28l7.67-2.69,24-29.86-22.58,7.71Z" fill="#0a2939"/><polygon points="598.06 26.33 550.68 52.89 541.62 74.3 598.06 26.33" fill="#0a2939"/><polygon points="549.52 171.96 589.11 176.24 620.3 171.1 631.95 168.53 636.82 134.27 602.05 134.27 602.33 134.07 557.5 143.69 590.52 120.24 590.57 112.85 609.96 100.64 575.55 112.85 574.06 100.86 563.16 109.42 537.47 102.01 546.32 145.4 524.94 135.12 549.52 171.96" fill="#0a2939"/><path d="M32.94,155.68c-3.43.86,16.27-10.28,16.27-10.28L34.65,129.13-.78,135.81v33.05l45.37,27.6h62.82S36.36,154.83,32.94,155.68Z" fill="#0a2939"/><polygon points="43.22 111.14 32.08 112 13.23 88.01 -0.57 91.72 -0.42 107.88 6.38 118.85 32.94 120.56 56.07 141.98 43.22 111.14" fill="#0a2939"/><polyline points="25.23 53.74 38.08 46.89 62.92 50.32 35.51 62.31" fill="#0a2939"/><path d="M371.92,173.62s-51.53-10.28-48.44-13.71,11.34-18.27,11.34-18.27L341,124.5l15.46-5.71s5.15,5.71,9.28,6.86,16.48,19.42,16.48,19.42l-21.64-5.71-9.27,12.56Z" fill="#0f4560"/><polygon points="793.45 132.39 910.42 207.79 965.74 207.79 878.81 166.66 877.23 139.25 856.68 142.68 793.45 132.39" fill="#0a2939"/><path d="M1099.46,240.34s-13.71-13.7-20.56-13.7-68.55-24-68.55-24l-73.68-6.86-20.56,5.14-15.42-5.14-12,1.72s-13.71,3.42-20.56,3.42-66.21-16.12-66.21-16.12l-90-52,44.85,59.53H727.62c-5.14,0-18.85-6.86-18.85-6.86l-.43,19.57-72.23-34.34-40.26,28.41-17.76-7.1L546,185.51l-20.56,6.86-8.57-5.15-15.42-8.56-8.57-5.14-10.28,6.85-12,3.43-15.43-3.43-43.79-12-19.61,10.28-27.41-3.43s-17.18,27.07-17.18,32.21L277,180.37l-65.12,12-15.42-6.86-54.11-55c-6.85,0,13,49.9,13,49.9l-30.84,17.14-48-17.14-13.71,8.57-17.13,3.43h-12L1.08,183.8l-3.5,1,.65,33.54c33.13-.92,71.91-2,76.53-2,8.57,0,44.55,5.14,44.55,5.14l-24,3.42H61.05l-53.12,12H426l-8.57-3.43L402,224.92H530.56l37.7,1.72-29.13,8.56-15.42,6.86H693.35l-.25-1.72Z" fill="#0f4560"/><path d="M674.61,188.06s17.48-2.36,22.52-2.36a46.89,46.89,0,0,1,8.41.68S685.7,159.15,682,156.46s-11.09-7.06-11.09-7.06l-8.07,6.38Z" fill="#255178"/><path d="M1774,218.27s-33.1,0-42.11,36l42.68.64,1.13-36.69Z" fill="#0a2939"/><polygon points="1742.25 62.31 1777.17 35.46 1776.39 187.35 1730.23 125.61 1749.64 114.99 1726.84 73.55 1747.48 77.25 1742.25 62.31" fill="#1f576d"/></g></svg>
