<svg xmlns="http://www.w3.org/2000/svg" width="194" height="292" viewBox="0 0 194 292"><g style="isolation:isolate"><g id="Layer_19" data-name="Layer 19"><path d="M193.13,283.78c-.44,5.32-41.44,9-91.58,8.09s-90.44-5.85-90-11.17,41.45-8.95,91.59-8.1S193.57,278.46,193.13,283.78Z" opacity="0.15" style="mix-blend-mode:multiply"/><path d="M103.47,240.74c-30.68-5.46-32.4-12.48-41.23-16.7l0-1.86c4.46-1.22,8.31-2.05,10.59-1.57,2.09.44,27.46-2.37,37.81-4.87-19.44-5.66-23.91-8.46-17.76-9.55,2.85-.51,6.4-1.07,9.58-1.65-17.2-3.14-38.33-9-40-9.89h-.61l0-1.37c5.11-1.24,9.42-2.24,12.48-1.87,4.17.49,18.77-1.19,27-2.71-5-1.86-8.63-4.6-5.45-5.13.79-.14,11.66-2.55,13.76-5.32-10.58-1.52-37.51-9.8-48.14-10.06l-.11-8.11h1.71c15.2,4,28.34,2.66,39.91,1.76-6.14-4.06-13.48-9.76-16.18-11.26-8.54-4.75,8.55-1.59,16.14-1.59a1.71,1.71,0,0,0,.94-.16v-.4c-1.91-2.48-29.78-12.51-32.27-15.28-2.85-3.17,16.14,2.38,25.63,4s-3.8-5.55-10.44-9.5-16.14-12.68-16.14-12.68a138.33,138.33,0,0,0,17.09-3.17c5.82-1.46-10.44-10.29-13.29-11.88s6.64.79,13.29,1.59,13.29-.8,3.79-6.34C86.3,92.06,78.78,84,73.07,77.31c7.28,1.9,13.62,2.94,10.8.26-3.21-3.07-8.8-7.37-12.44-10.45C73.07,67,78,67.86,81,68.39c-2.52-4.62-5.43-11.14-6.45-13l-6-11.21s4,1.93,7.72,3.93C69,34.34,59.8,9.88,59,2.73c-2.38,9.54-12.78,39.43-23.38,53,2.69.56,7.39-.84,7.39-.84l-2.87,5.38c-2.85,6.34-11.39,5.55-2.85,6.34l2.59.23C32.94,72.24,25.48,78.58,30,77.57c4.14-.95,10.11-3,15.93-4.34C40.13,80.2,30.35,91.4,24,95.12c-9.49,5.54-2.85,7.13,3.8,6.34s16.14-3.17,13.29-1.59S22,110.29,27.78,111.75a138.33,138.33,0,0,0,17.09,3.17s-9.5,8.72-16.14,12.68S8.8,138.68,18.29,137.1s28.48-7.13,25.63-4S5,149,12.59,149s24.68-3.16,16.14,1.59S-6.39,162.46,6.9,164s27.53.79,45.56-4h0l-.13,8.9c-13.41,2.15-59.72,7.6-50.22,9.76,10.44,2.37,41.77.79,38,2.37S-7.35,188.23,5,190.6s21.83,7.13,36.07,6.35A80.76,80.76,0,0,0,52,195.49v.33a101.09,101.09,0,0,0-11,2.87C26.5,203.3-5.3,207.92,3,209.07s31.8,4.61,26.27,6.35S-3.23,224.65,6.45,225.8c8.48,1,20.68,2.91,31,2.2-14.58,4.55-30.81,10.07-26.85,11.06,6.91,1.74,13.83,3.47,8.29,4.62s-15.9,4-13.13,5.19,20,7.5,33.87,6.93a53.41,53.41,0,0,0,11.52-1.57l-.34,24.19c2.7-1.13,2.23-1.58,2.58-2.75.42-1.42,2.54,4.95,2.54,4.95a16.93,16.93,0,0,0,1.69-3.89c.43-1.77,0,0,.43,1.06s4.66,1.76,4.66,1.76l.32.18-.37-26.53c6.74.66,19.09,5,39-3.06-6.83-1.82-14.21-3.32-11.18-4.4C91.53,245.36,97.7,242.94,103.47,240.74Z" fill="#101619"/><path d="M55,227.94c-1.07.29-36.67,10.4-32.75,10.69s8.9,2.08,6.4,3.27-10.68,3.85-7.47,4.15,17.8,1.79,25.27,0,13.89-.3,21.36-.3,19.94-2.37,13.89-3.26-15-3.86-15-6.24-1.06-5.05-3.2-5.05S55,227.94,55,227.94Z" fill="#072c2d"/><path d="M53.58,199.42S14.07,208,19.76,208.63s11,.3,11.4,1.78,0,2.08,4.63,1.78,6.76.89,21,.89-4.27-2.67,1.07-6.23,8.54-4.76,7.83-5.65S59.28,199.42,53.58,199.42Z" fill="#072c2d"/><path d="M37.21,216.65c-1.12.09-23.5,4.75-17.45,5.94s26.7,5.94,27.06,3.27-4.27-2.68,2.13-4.75,18.16-4.76,14.25-4.76S45,216.05,37.21,216.65Z" fill="#072c2d"/><path d="M55.37,181.3S7,189,17.63,189.91s29.9,1.19,32.75-.29,2.85-1.19,11.39-.9,20.29-2.66,16.38-3S66,185.76,66,184,60.7,180.41,55.37,181.3Z" fill="#072c2d"/><path d="M47.89,172.68s-37.38,3.56-26.7,4.46,17.44,1.49,22.07.59,4.27-1.19,10.68-1.19,13.88-1.48,10.32-2.08S56.43,170.6,47.89,172.68Z" fill="#072c2d"/><path d="M45.4,147.44S5.52,162,17.27,161.7,50,153.37,57.5,155.75s40.23,4.46,30.26,2.38S66,148,62.84,149.81s0,4.46-6.41,2.38S50,146.25,45.4,147.44Z" fill="#072c2d"/><path d="M49.31,135.25S18,147.14,29,146.25,48.24,141.2,55.37,143s18.86,2.37,18.51,1.48S55.72,132.58,49.31,135.25Z" fill="#072c2d"/><path d="M48.6,116.25s-15.31,15.14-11.39,14.54,11.39-8.9,19.22-6.23S78.15,131.39,76,129s-5.69-7.43-12.81-9.21-.36-4.16-3.21-4.46S51.45,113.27,48.6,116.25Z" fill="#072c2d"/><path d="M58.17,27.86s-8.9,16.63-11.74,19.6-1.43,5.35,1.42,5,3.91.6,2.85,1.79-8.55,8-6.41,8,5-.59,3.91.9-8.9,7.13-2.84,5.34,9.25-5.34,15.3-3,10.68,3.57,10,2.38-12.1-8.32-10.32-11.29,14.24-1.78,8.9-4.46S61,50.43,61,46.87,58.17,32.61,58.17,27.86Z" fill="#072c2d"/><path d="M48.24,75.25S29.73,98.42,33.65,96.93s10-2.67,12.1-.89,11.39,1.19,15,.3S79.22,94.26,73.88,94s-14.6-2.38-14.6-5.06-3.56.3-7.12-.29S46.82,78.82,48.24,75.25Z" fill="#072c2d"/><path d="M46.46,101.69s-16,6.53-10,8.31,7.47-.3,12.81,1.49,3.21,2.67,8.9,1.48,13.89-2.67,16-2.67-2.49,0-10.32-2.67S42.9,104.06,46.46,101.69Z" fill="#072c2d"/><path d="M151.22,256.16c-14-3-14.8-6.78-18.83-9.06v-1c2-.66,3.8-1.11,4.84-.85s12.53-1.28,17.26-2.63c-8.87-3.07-10.91-4.59-8.1-5.18,1.3-.28,2.92-.58,4.37-.9-7.86-1.7-17.51-4.85-18.27-5.36h-.28v-.74c2.33-.66,4.3-1.21,5.7-1,1.91.27,8.58-.64,12.33-1.47-2.28-1-3.94-2.49-2.49-2.78.36-.07,5.33-1.38,6.28-2.88-4.83-.82-17.13-5.32-22-5.45l-.06-4.39h.79c6.94,2.16,12.94,1.43,18.22.95-2.8-2.21-6.15-5.3-7.39-6.11-3.9-2.58,3.91-.86,7.38-.86a.69.69,0,0,0,.42-.08v-.22c-.86-1.34-13.59-6.78-14.73-8.28-1.3-1.73,7.37,1.28,11.7,2.14s-1.73-3-4.77-5.15a63.13,63.13,0,0,1-7.36-6.87,52.16,52.16,0,0,0,7.8-1.72c2.66-.78-4.77-5.58-6.07-6.44s3,.44,6.07.86,6.07-.42,1.74-3.43c-2.39-1.65-5.83-6-8.44-9.65,3.33,1,6.23,1.59,4.94.14-1.46-1.67-4-4-5.68-5.66a25.8,25.8,0,0,1,4.36.68c-1.15-2.5-2.48-6-2.94-7l-2.76-6.07s1.8,1,3.52,2.12c-3.31-7.5-7.5-20.75-7.88-24.63-1.08,5.17-5.83,21.38-10.63,28.73a7.8,7.8,0,0,0,3.36-.46l-1.29,2.92c-1.3,3.44-5.2,3-1.3,3.44l1.18.11c-3.16,2.93-6.57,6.37-4.53,5.83,1.89-.51,4.62-1.66,7.23-2.35-2.58,3.77-7,9.84-10,11.86-4.34,3-1.31,3.87,1.73,3.43s7.35-1.71,6.07-.86-8.73,5.66-6.07,6.44a52.26,52.26,0,0,0,7.77,1.72,61.9,61.9,0,0,1-7.33,6.87c-3,2.15-9.11,6-4.77,5.15s13-3.87,11.68-2.14-17.76,8.58-14.29,8.58,11.28-1.72,7.38.86-16,6.45-10,7.3,12.58.43,20.77-2.14h0l-.06,4.81c-6.08,1.17-27.23,4.12-22.89,5.3,4.77,1.28,19,.42,17.35,1.28s-21.69,3.86-16,5.16,10,3.86,16.48,3.43a31.43,31.43,0,0,0,4.94-.79v.18a37.59,37.59,0,0,0-5,1.55c-6.63,2.51-21.16,5-17.37,5.63s14.52,2.5,12,3.45-14.84,5-10.42,5.62c3.87.55,9.44,1.57,14.16,1.19-6.67,2.46-14.08,5.46-12.27,6,3.16.93,6.32,1.87,3.79,2.49s-7.26,2.19-6,2.82,9.16,4.07,15.47,3.75a20.69,20.69,0,0,0,5.22-.84l-.2,17a16.21,16.21,0,0,0,2.23-2.08l1.6.23,1.84,1.85-.21-17.55c3.08.35,8.72,2.69,17.8-1.66-3.11-1-6.48-1.8-5.1-2.38C145.77,258.66,148.58,257.35,151.22,256.16Z" fill="#101619"/><path d="M188.74,247.61c-18.54-3.91-19.59-9-24.91-12l0-1.32c2.7-.89,5-1.47,6.39-1.13s16.6-1.71,22.85-3.49c-11.75-4.06-14.44-6.06-10.73-6.85,1.73-.37,3.87-.77,5.79-1.19-10.39-2.25-23.16-6.41-24.17-7.08h-.37v-1c3.09-.88,5.69-1.59,7.54-1.33,2.52.36,11.34-.85,16.31-2-3-1.33-5.22-3.29-3.29-3.68.47-.09,7-1.82,8.31-3.81-6.4-1.09-22.67-7-29.09-7.21l-.06-5.8h1c9.18,2.87,17.13,1.9,24.11,1.26-3.71-2.92-8.15-7-9.77-8.08-5.17-3.41,5.16-1.14,9.75-1.14a1,1,0,0,0,.57-.11v-.29c-1.16-1.78-18-9-19.5-11-1.72-2.27,9.75,1.7,15.48,2.84s-2.29-4-6.3-6.8-9.76-9.09-9.76-9.09a70.87,70.87,0,0,0,10.33-2.28c3.52-1-6.3-7.38-8-8.52s4,.57,8,1.14,8-.57,2.3-4.54c-3.16-2.19-7.71-8-11.16-12.77,4.4,1.36,8.23,2.11,6.53.19-1.94-2.2-5.32-5.28-7.52-7.49a36.55,36.55,0,0,1,5.78.9c-1.53-3.3-3.28-8-3.9-9.28l-3.65-8s2.4,1.38,4.67,2.8c-4.4-9.9-9.93-27.44-10.42-32.56-1.43,6.83-7.72,28.27-14.13,38,1.63.41,4.47-.6,4.47-.6l-1.74,3.86c-1.72,4.55-6.87,4-1.72,4.55l1.57.16c-4.18,3.88-8.69,8.42-6,7.7,2.5-.68,6.11-2.19,9.62-3.11-3.47,5-9.37,13-13.23,15.69-5.73,4-1.71,5.11,2.3,4.54s9.75-2.27,8-1.14-11.55,7.48-8,8.52a70.6,70.6,0,0,0,10.32,2.28s-5.73,6.24-9.74,9.09-12.05,7.94-6.31,6.8,17.2-5.11,15.48-2.84-23.51,11.36-18.93,11.36,14.91-2.27,9.76,1.14-21.18,8.52-13.2,9.65,16.64.57,27.53-2.83h0l-.08,6.37c-8.1,1.54-36,5.45-30.34,7,6.31,1.7,25.24.57,22.94,1.7s-28.63,5.11-21.22,6.82,13.19,5.11,21.79,4.54a40.43,40.43,0,0,0,6.6-1v.23a55.45,55.45,0,0,0-6.63,2.07c-8.76,3.3-27.93,6.61-23,7.44s19.2,3.31,15.87,4.54-19.62,6.62-13.79,7.45c5.13.72,12.5,2.08,18.74,1.57-8.82,3.26-18.62,7.23-16.23,7.94,4.18,1.24,8.36,2.48,5,3.31s-9.6,2.89-7.93,3.72,12.11,5.38,20.46,5a27.74,27.74,0,0,0,7-1.12l-.27,22.48a20.91,20.91,0,0,0,3-2.75l2.12.3,2.43,2.45-.28-23.22c4.07.47,11.53,3.56,23.56-2.19-4.13-1.31-8.58-2.38-6.76-3.16C181.52,250.92,185.25,249.18,188.74,247.61Z" fill="#101619"/></g></g></svg>
